<svg width="286" height="198" viewBox="0 0 286 198" fill="none" xmlns="http://www.w3.org/2000/svg">
<g clip-path="url(#clip0_226_1014)">
<g opacity="0.3">
<path d="M181.146 76.2159V39.2704L149.168 20.8049L117.191 39.2704V76.2159L149.168 94.6814L181.146 76.2159Z" fill="#323264"/>
<path opacity="0.2" d="M216.236 135.249V98.3036L184.259 79.8381L152.282 98.3036V135.249L184.259 153.715L216.236 135.249Z" fill="#323264"/>
<path opacity="0.5" d="M172.847 147.542V120.181L149.168 106.504L125.482 120.181V147.542L149.168 161.219L172.847 147.542Z" fill="#323264"/>
<path opacity="0.5" d="M120.16 88.3283V60.9669L96.4743 47.2898L72.7957 60.9669V88.3283L96.4743 102.005L120.16 88.3283Z" fill="#323264"/>
<path opacity="0.5" d="M201.551 41.1757V13.8143L177.865 0.137207L154.179 13.8143V41.1757L177.865 54.8527L201.551 41.1757Z" fill="#323264"/>
<path d="M143.499 135.249V98.3036L111.521 79.8381L79.5444 98.3036V135.249L111.521 153.715L143.499 135.249Z" fill="#323264"/>
<path d="M257.084 110.851V80.6857L230.972 65.6033L204.86 80.6857V110.851L230.972 125.933L257.084 110.851Z" fill="#323264"/>
</g>
<g opacity="0.3">
<path opacity="0.4" d="M268.069 133.735V107.482L245.339 94.3555L222.616 107.482V133.735L245.339 146.854L268.069 133.735Z" fill="#323264"/>
<path d="M237.315 48.5068V22.261L214.592 9.13452L191.87 22.261V48.5068L214.592 61.6333L237.315 48.5068Z" fill="#323264"/>
<path d="M186.793 124.296V109.257L173.774 101.737L160.754 109.257V124.296L173.774 131.815L186.793 124.296Z" fill="#323264"/>
<path opacity="0.2" d="M213.854 59.7064V41.1539L197.793 31.8813L181.732 41.1539V59.7064L197.793 68.9862L213.854 59.7064Z" fill="#323264"/>
<path d="M89.8341 68.5153V42.2623L67.1113 29.1357L44.3884 42.2623V68.5153L67.1113 81.6418L89.8341 68.5153Z" fill="#323264"/>
<path d="M66.3726 79.7148V61.1624L50.3117 51.8826L34.2507 61.1624V79.7148L50.3117 88.9874L66.3726 79.7148Z" fill="#323264"/>
<path d="M128.596 41.1539V22.6015L112.535 13.3289L96.4744 22.6015V41.1539L112.535 50.4337L128.596 41.1539Z" fill="#323264"/>
<path d="M34.2508 114.719V96.1593L18.1899 86.8867L2.12891 96.1593V114.719L18.1899 123.992L34.2508 114.719Z" fill="#323264"/>
<path d="M293 175.679V149.433L270.277 136.307L247.554 149.433V175.679L270.277 188.805L293 175.679Z" fill="#323264"/>
<path opacity="0.5" d="M262.174 184.416V164.979L245.339 155.258L228.51 164.979V184.416L245.339 194.137L262.174 184.416Z" fill="#323264"/>
<path d="M241.312 175.679V149.433L218.59 136.307L195.867 149.433V175.679L218.59 188.805L241.312 175.679Z" fill="#323264"/>
</g>
<g opacity="0.3">
<path opacity="0.5" d="M72.1947 133.735V107.482L49.4719 94.3555L26.749 107.482V133.735L49.4719 146.854L72.1947 133.735Z" fill="#323264"/>
<path d="M97.1332 175.679V149.433L74.4103 136.307L51.6875 149.433V175.679L74.4103 188.805L97.1332 175.679Z" fill="#323264"/>
<path opacity="0.5" d="M66.3003 184.416V164.979L49.4718 155.258L32.6433 164.979V184.416L49.4718 194.137L66.3003 184.416Z" fill="#323264"/>
<path d="M45.4457 175.679V149.433L22.7228 136.307L0 149.433V175.679L22.7228 188.805L45.4457 175.679Z" fill="#323264"/>
</g>
<g opacity="0.6">
<path d="M90.2542 116.986L66.8218 103.454V76.3825L90.2542 62.8503L113.687 76.3825V103.454L90.2542 116.986ZM67.3576 103.143L90.2542 116.371L113.151 103.143V76.694L90.2542 63.4661L67.3576 76.694V103.143Z" fill="black"/>
<path d="M191.305 103.556H190.769V76.9477L167.872 63.727L144.976 76.9477V103.556H144.44V76.6434L167.872 63.104L191.305 76.6434V103.556Z" fill="black"/>
<path d="M237.641 103.193H237.105V76.5854L214.209 63.3575L191.305 76.5854V103.193H190.769V76.2739L214.209 62.7417L237.641 76.2739V103.193Z" fill="black"/>
<path d="M44.1931 143.435H43.6572V116.523L66.9521 103.063L67.22 103.527L44.1931 116.827V143.435Z" fill="black"/>
<path d="M129.067 130.859L113.158 121.666V103.288L129.067 94.0947L144.976 103.288V121.666L129.067 130.859ZM113.687 121.355L129.067 130.236L144.447 121.355V103.592L129.067 94.7105L113.687 103.592V121.355Z" fill="black"/>
<path d="M70.5366 77.9182H70.0007V100.469H70.5366V77.9182Z" fill="black"/>
<path d="M147.923 78.6428H147.387V101.194H147.923V78.6428Z" fill="black"/>
<path d="M48.2265 119.268H47.6907V141.82H48.2265V119.268Z" fill="black"/>
<path d="M234.144 84.8367H233.608V107.388H234.144V84.8367Z" fill="black"/>
<path d="M60.4569 150.23C60.4569 154.678 57.7559 157.04 54.4539 157.04C51.1519 157.04 48.6465 154.395 48.6465 150.484C48.6465 146.383 51.1954 143.696 54.6422 143.696C58.089 143.696 60.4496 146.398 60.4496 150.237L60.4569 150.23ZM50.4278 150.44C50.4278 153.2 51.9195 155.678 54.548 155.678C57.1766 155.678 58.69 153.244 58.69 150.31C58.69 147.738 57.3504 145.058 54.5698 145.058C51.7892 145.058 50.4278 147.608 50.4278 150.447V150.44Z" fill="black"/>
<path d="M186.584 123.368V110.445H188.409L192.55 116.986C193.506 118.5 194.259 119.862 194.868 121.188L194.904 121.166C194.752 119.442 194.716 117.87 194.716 115.856V110.452H196.287V123.376H194.6L190.494 116.82C189.596 115.378 188.734 113.908 188.083 112.502L188.025 112.524C188.119 114.154 188.162 115.704 188.162 117.856V123.376H186.591L186.584 123.368Z" fill="black"/>
<path d="M132.637 88.7702C132.021 89.0745 130.798 89.386 129.226 89.386C125.584 89.386 122.847 87.0823 122.847 82.8445C122.847 78.6066 125.584 76.0566 129.595 76.0566C131.203 76.0566 132.224 76.4044 132.666 76.6289L132.26 77.9908C131.63 77.6866 130.725 77.4548 129.653 77.4548C126.627 77.4548 124.614 79.389 124.614 82.7865C124.614 85.9522 126.431 87.9806 129.581 87.9806C130.595 87.9806 131.63 87.7705 132.304 87.4445L132.651 88.7702H132.637Z" fill="black"/>
<path d="M60.196 143.435V142.971L60.7898 142.399C62.2091 141.044 62.8536 140.327 62.8608 139.487C62.8608 138.922 62.5856 138.4 61.7601 138.4C61.2533 138.4 60.8333 138.654 60.5798 138.871L60.3409 138.342C60.7247 138.016 61.275 137.777 61.9122 137.777C63.107 137.777 63.6139 138.596 63.6139 139.393C63.6139 140.421 62.868 141.247 61.695 142.377L61.2533 142.79V142.805H63.7515V143.428H60.2033L60.196 143.435Z" fill="black"/>
</g>
</g>
<defs>
<clipPath id="clip0_226_1014">
<rect width="286" height="198" fill="white"/>
</clipPath>
</defs>
</svg>
