<svg width="286" height="200" viewBox="0 0 286 200" fill="none" xmlns="http://www.w3.org/2000/svg">
<path d="M221.828 98.9181L188.063 54.8317L177.48 77.4689L151.256 51.343L182.162 100.288L192.573 77.9606L221.828 98.9181Z" fill="#EAEAEA"/>
<g clip-path="url(#clip0_226_1681)">
<path d="M83.4169 130.695C82.5908 133.061 82.3328 135.655 82.4113 138.149C82.5011 141.141 83.1104 144.115 84.3403 146.851C85.6487 149.769 87.7422 152.166 90.4188 153.917C93.4207 155.878 97.0543 157.011 100.658 156.88C104.034 156.761 107.873 155.441 109.57 152.289C110.329 150.876 110.434 149.184 109.626 147.76C108.916 146.512 107.563 145.696 106.168 145.435C104.725 145.166 103.17 145.349 101.899 146.109C100.49 146.952 99.5141 148.398 99.0693 149.955C98.0562 153.492 99.7085 156.936 102.071 159.522C105.955 163.771 111.365 166.328 116.897 167.673C122.748 169.097 128.905 169.313 134.871 168.594C140.74 167.886 146.576 166.32 151.806 163.521C156.935 160.778 161.11 156.645 164.381 151.879C167.862 146.806 170.359 140.962 171.499 134.914C172.587 129.137 172.494 122.969 170.284 117.453C169.761 116.145 169.14 114.882 168.4 113.685C167.772 112.664 166.153 113.599 166.785 114.624C169.634 119.235 170.568 124.672 170.243 130.024C169.895 135.7 168.161 141.298 165.533 146.329C162.976 151.226 159.436 155.851 155.095 159.202C150.942 162.407 145.929 164.397 140.86 165.635C135.357 166.976 129.623 167.42 123.978 166.939C118.733 166.492 113.417 165.195 108.856 162.56C106.471 161.181 104.236 159.44 102.553 157.216C100.778 154.871 99.7983 151.614 101.548 148.968C102.224 147.947 103.323 147.291 104.445 147.194C105.589 147.093 106.781 147.365 107.57 148.133C108.352 148.893 108.55 150.108 108.038 151.178C107.409 152.486 106.172 153.429 104.897 154.063C102.06 155.471 98.4674 155.222 95.5291 154.294C92.587 153.366 89.7945 151.599 87.8805 149.165C86.1908 147.015 85.1889 144.384 84.673 141.719C84.4263 140.444 84.2992 139.162 84.2768 137.85C84.2543 136.673 84.3254 135.312 84.4824 134.269C84.6394 133.222 84.8749 132.186 85.2226 131.183C85.387 130.706 85.0319 130.166 84.5683 130.035C84.0525 129.894 83.5852 130.21 83.4169 130.687V130.695Z" fill="#263238"/>
<path d="M150.722 103.89L166.611 94.8108L170.39 101.384C172.191 104.518 171.103 108.516 167.961 110.312L163.456 112.886C160.313 114.682 156.302 113.597 154.501 110.464L150.722 103.89Z" fill="#FF725E"/>
<path d="M163.442 112.73L168.106 110.065L171.096 115.265C171.623 116.183 171.304 117.358 170.383 117.884L169.059 118.641C168.138 119.167 166.96 118.848 166.432 117.93L163.442 112.73Z" fill="#FF725E"/>
<path d="M164.434 110.275L163.843 104.301L161.57 105.777L160.647 101.882L160.696 108.14L162.935 106.682L164.434 110.275Z" fill="white"/>
<path d="M162.194 112.947C162.191 112.914 162.632 112.854 163.312 112.649C163.992 112.448 164.916 112.086 165.843 111.524C166.778 110.968 167.529 110.327 168.041 109.832C168.55 109.332 168.837 108.993 168.864 109.015C168.875 109.023 168.811 109.116 168.692 109.276C168.576 109.44 168.385 109.66 168.142 109.929C167.649 110.45 166.897 111.125 165.948 111.688C165.002 112.262 164.052 112.612 163.353 112.78C163.002 112.869 162.714 112.914 162.512 112.936C162.31 112.955 162.198 112.959 162.198 112.947H162.194Z" fill="#263238"/>
<path d="M159.368 100.568C163.755 98.0617 166.936 95.3782 166.474 94.5746C166.012 93.771 162.082 95.1516 157.695 97.6583C153.308 100.165 150.126 102.848 150.588 103.652C151.051 104.456 154.981 103.075 159.368 100.568Z" fill="#FF725E"/>
<g opacity="0.3">
<path d="M159.368 100.568C163.755 98.0614 166.936 95.3779 166.474 94.5743C166.012 93.7707 162.082 95.1513 157.695 97.658C153.308 100.165 150.126 102.848 150.588 103.652C151.051 104.455 154.981 103.075 159.368 100.568Z" fill="black"/>
</g>
<path d="M151.365 96.9028L153.873 101.267V101.278H153.884C153.996 101.424 154.625 101.233 155.309 100.842C155.993 100.451 156.475 100.007 156.408 99.8359H156.411L156.408 99.8247L153.899 95.4605C153.499 94.7636 152.606 94.5213 151.911 94.9201C151.211 95.3189 150.968 96.2096 151.368 96.9028H151.365Z" fill="#E0E0E0"/>
<path d="M151.365 96.9028C151.365 96.9028 151.324 96.8544 151.268 96.75C151.215 96.6419 151.152 96.4742 151.137 96.2431C151.122 96.0158 151.159 95.7214 151.32 95.4307C151.477 95.1437 151.769 94.8605 152.172 94.73C152.569 94.5996 153.081 94.6294 153.496 94.9126C153.705 95.0468 153.884 95.2518 154.008 95.4754C154.135 95.6916 154.266 95.9152 154.397 96.1462C154.931 97.0668 155.511 98.0768 156.124 99.1352C156.247 99.3514 156.374 99.5675 156.494 99.78L156.542 99.8657L156.456 99.9141H156.453L156.494 99.7986C156.531 99.944 156.464 100.011 156.427 100.078C156.382 100.141 156.333 100.194 156.284 100.246C156.184 100.346 156.079 100.436 155.97 100.518C155.754 100.682 155.529 100.824 155.301 100.95C155.073 101.077 154.841 101.189 154.606 101.278C154.486 101.323 154.367 101.36 154.243 101.386C154.18 101.401 154.116 101.409 154.049 101.412C153.985 101.412 153.899 101.42 153.813 101.33L153.926 101.353H153.922L153.843 101.397L153.802 101.323C153.081 100.037 152.468 98.9489 152.015 98.1476C151.813 97.7786 151.649 97.473 151.522 97.2382C151.41 97.0258 151.354 96.9103 151.361 96.9065C151.369 96.9028 151.443 97.0072 151.567 97.2121C151.705 97.4395 151.884 97.7339 152.101 98.0954C152.565 98.8855 153.2 99.9663 153.948 101.237L153.828 101.204H153.832L153.881 101.174L153.941 101.226C153.941 101.226 154.098 101.245 154.198 101.215C154.311 101.189 154.423 101.151 154.535 101.11C154.759 101.025 154.984 100.917 155.204 100.79C155.425 100.667 155.641 100.525 155.851 100.369C155.956 100.291 156.056 100.205 156.146 100.115C156.191 100.071 156.236 100.022 156.266 99.9738C156.307 99.9253 156.303 99.8694 156.326 99.8694L156.356 99.7539H156.359L156.322 99.8843C156.198 99.6719 156.075 99.4557 155.948 99.2358C155.342 98.1737 154.763 97.1637 154.236 96.2431C154.105 96.0121 153.978 95.7885 153.855 95.5686C153.739 95.3524 153.589 95.1772 153.402 95.0543C153.032 94.7971 152.576 94.7561 152.21 94.8679C151.84 94.9797 151.567 95.2294 151.41 95.494C151.249 95.7586 151.204 96.0307 151.208 96.2469C151.223 96.6866 151.387 96.9028 151.361 96.9103L151.365 96.9028Z" fill="#263238"/>
<path d="M156.696 93.7537L159.204 98.1179V98.1254H159.215C159.327 98.2707 159.955 98.0807 160.64 97.6893C161.324 97.298 161.806 96.8545 161.739 96.6831H161.742L161.739 96.6719L159.23 92.3077C158.83 91.6107 157.937 91.3685 157.241 91.7673C156.542 92.1661 156.299 93.0568 156.703 93.75L156.696 93.7537Z" fill="#E0E0E0"/>
<path d="M156.695 93.7536C156.695 93.7536 156.654 93.7052 156.598 93.6008C156.546 93.4928 156.482 93.325 156.467 93.094C156.452 92.8666 156.49 92.5722 156.651 92.2815C156.808 91.9945 157.099 91.7113 157.503 91.5808C157.899 91.4504 158.411 91.4802 158.826 91.7635C159.036 91.8976 159.215 92.1026 159.338 92.3262C159.466 92.5424 159.596 92.766 159.727 92.9971C160.258 93.9176 160.841 94.9276 161.454 95.9861C161.578 96.2022 161.705 96.4184 161.824 96.6308L161.873 96.7165L161.787 96.765H161.783L161.824 96.6494C161.862 96.7948 161.794 96.8619 161.757 96.929C161.712 96.9923 161.664 97.0445 161.615 97.0967C161.514 97.1973 161.409 97.2867 161.301 97.3687C161.084 97.5327 160.86 97.6743 160.632 97.8011C160.404 97.9278 160.172 98.0396 159.937 98.129C159.817 98.1737 159.697 98.211 159.574 98.2371C159.51 98.252 159.447 98.2595 159.38 98.2632C159.316 98.2632 159.23 98.2706 159.144 98.1812L159.256 98.2036H159.252L159.174 98.2483L159.133 98.1738C158.411 96.888 157.798 95.7997 157.346 94.9984C157.144 94.6295 156.98 94.3239 156.852 94.0891C156.74 93.8766 156.684 93.7611 156.692 93.7574C156.699 93.7536 156.774 93.858 156.897 94.063C157.036 94.2903 157.215 94.5847 157.432 94.9462C157.895 95.7364 158.531 96.8172 159.279 98.088L159.159 98.0545H159.163L159.211 98.0247L159.271 98.0768C159.271 98.0768 159.428 98.0955 159.529 98.0657C159.641 98.0396 159.753 98.0023 159.866 97.9613C160.09 97.8756 160.314 97.7675 160.535 97.6408C160.755 97.5178 160.972 97.3762 161.181 97.2197C161.286 97.1414 161.387 97.0557 161.477 96.9662C161.522 96.9215 161.566 96.8731 161.596 96.8246C161.637 96.7762 161.634 96.7203 161.656 96.7203L161.686 96.6047H161.69L161.652 96.7352C161.529 96.5227 161.406 96.3066 161.279 96.0867C160.673 95.0245 160.094 94.0145 159.566 93.094C159.436 92.8629 159.309 92.6393 159.185 92.4194C159.069 92.2032 158.92 92.0281 158.733 91.9051C158.363 91.6479 157.907 91.6069 157.54 91.7187C157.17 91.8306 156.897 92.0803 156.74 92.3449C156.58 92.6095 156.535 92.8815 156.538 93.0977C156.553 93.5375 156.718 93.7536 156.692 93.7611L156.695 93.7536Z" fill="#263238"/>
<path d="M148.011 89.628C157.264 67.4156 146.766 42.4937 124.561 33.9554C102.355 25.4245 76.8561 36.5121 67.6038 58.7244C60.9047 74.8061 64.5645 92.3039 75.5178 103.98C75.3944 104.275 72.6168 114.636 72.6168 114.636L106.224 127.553C106.224 127.553 109.114 122.06 111.312 117.006C127.043 115.303 141.525 105.21 148.011 89.6317V89.628Z" fill="#F5F5F5"/>
<path d="M148.011 89.628C148.011 89.628 147.559 90.6827 146.628 92.6617C145.607 94.5886 144.056 97.4434 141.432 100.671C141.095 101.066 140.751 101.472 140.396 101.89C140.22 102.098 140.037 102.311 139.858 102.523C139.667 102.728 139.465 102.929 139.263 103.138C138.86 103.552 138.448 103.973 138.03 104.405L137.712 104.729C137.6 104.83 137.484 104.934 137.368 105.039C137.14 105.244 136.905 105.452 136.673 105.665C134.822 107.387 132.602 109.023 130.108 110.592C129.473 110.968 128.83 111.348 128.172 111.74C127.491 112.086 126.8 112.437 126.097 112.795C125.921 112.884 125.746 112.973 125.57 113.063C125.391 113.149 125.204 113.223 125.024 113.301C124.658 113.458 124.288 113.618 123.914 113.778C123.54 113.939 123.166 114.099 122.785 114.259C122.396 114.397 122.004 114.535 121.611 114.673C118.467 115.806 115.013 116.663 111.323 117.073L111.383 117.032C109.903 120.416 108.183 123.953 106.299 127.587L106.265 127.65L106.198 127.624C96.0746 123.737 84.7438 119.387 72.5868 114.718L72.5083 114.688L72.5307 114.61C73.4391 111.255 74.3849 107.64 75.4354 103.943L75.4541 104.044C73.383 101.785 71.4989 99.2845 69.884 96.5564C69.5027 95.8632 69.1213 95.1625 68.7363 94.4656C68.3774 93.7537 68.0597 93.0158 67.7195 92.2853C67.3606 91.566 67.1101 90.7946 66.8148 90.038C66.6727 89.6579 66.5307 89.2777 66.3849 88.8976C66.2541 88.5137 66.1494 88.1186 66.0298 87.731C65.9139 87.3397 65.798 86.9484 65.6821 86.5571L65.5064 85.9682L65.3718 85.3682C65.1961 84.5669 65.0204 83.7619 64.841 82.9569C64.7213 82.1407 64.598 81.3208 64.4784 80.5008C64.4036 80.0909 64.3849 79.6772 64.3512 79.2598L64.2578 78.0113C64.0597 74.6794 64.2279 71.2916 64.8036 67.9374C64.9232 67.3188 65.0653 66.7075 65.1961 66.0926C65.3382 65.4814 65.4354 64.859 65.6335 64.2664C65.8092 63.6664 65.9849 63.0664 66.1606 62.47C66.2541 62.1719 66.3251 61.87 66.4335 61.5756L66.7625 60.6998C67.5737 58.3481 68.6391 56.1082 69.8316 53.9652C70.1419 53.436 70.4223 52.8919 70.7587 52.3813C71.0877 51.867 71.4167 51.3527 71.7456 50.8421C72.097 50.3464 72.4484 49.8507 72.7998 49.3551C73.1513 48.8594 73.5438 48.3972 73.9101 47.9202C75.4241 46.0381 77.0765 44.2902 78.8335 42.6876C80.6017 41.0962 82.4821 39.6651 84.4335 38.383C84.927 38.0737 85.4055 37.7346 85.9101 37.4513C86.4111 37.1606 86.9157 36.8699 87.4129 36.5792C87.9251 36.3109 88.4372 36.0463 88.9494 35.7817C89.4578 35.5096 89.9886 35.2897 90.5045 35.0437C92.5905 34.1045 94.7176 33.3033 96.8746 32.6995C99.0316 32.0957 101.204 31.6522 103.372 31.3578C105.54 31.0932 107.701 30.9777 109.832 31C111.962 31.0485 114.06 31.2535 116.108 31.5702C120.191 32.2784 124.067 33.4859 127.57 35.1704C129.338 35.9829 130.987 36.9556 132.568 37.9582C133.338 38.4911 134.123 38.9905 134.845 39.5645C135.207 39.844 135.581 40.1123 135.933 40.3993C136.28 40.6937 136.628 40.9844 136.972 41.2751C137.323 41.5584 137.652 41.864 137.974 42.1696C138.299 42.4752 138.624 42.7771 138.946 43.0789C139.252 43.3957 139.559 43.7125 139.862 44.0256C140.168 44.3386 140.471 44.648 140.748 44.9797C141.032 45.3039 141.316 45.6281 141.596 45.9487C141.88 46.2692 142.131 46.6121 142.396 46.94C142.654 47.2754 142.927 47.5922 143.17 47.9351C143.413 48.2743 143.652 48.6134 143.891 48.9488C145.791 51.6471 147.252 54.4535 148.359 57.2077C149.469 59.9656 150.22 62.675 150.695 65.2503C151.166 67.8256 151.391 70.2593 151.405 72.5029C151.417 73.0619 151.391 73.6135 151.383 74.1465C151.376 74.4148 151.376 74.6794 151.361 74.9403C151.342 75.2012 151.323 75.4583 151.305 75.7155C151.263 76.2261 151.245 76.7255 151.189 77.2062C151.129 77.687 151.073 78.1603 151.017 78.615C150.972 79.0734 150.886 79.5132 150.811 79.9418C150.736 80.3704 150.665 80.7841 150.594 81.1866C150.415 81.9841 150.254 82.7295 150.09 83.419C149.899 84.101 149.723 84.7309 149.562 85.3085C149.387 85.8788 149.204 86.3931 149.054 86.8515C148.976 87.0826 148.905 87.2987 148.837 87.5C148.759 87.6975 148.688 87.8838 148.62 88.0553C148.486 88.3982 148.374 88.6851 148.28 88.9162C148.097 89.3783 148 89.6131 148 89.6131C148 89.6131 148.086 89.3746 148.262 88.9087C148.351 88.6777 148.46 88.387 148.591 88.0441C148.654 87.8727 148.725 87.6863 148.804 87.4888C148.871 87.2875 148.942 87.0676 149.017 86.8403C149.166 86.3782 149.342 85.8676 149.518 85.2936C149.675 84.716 149.847 84.0861 150.033 83.4041C150.194 82.7146 150.355 81.9692 150.531 81.1717C150.598 80.7692 150.669 80.3555 150.74 79.9269C150.811 79.4983 150.897 79.0585 150.938 78.6001C150.991 78.1417 151.047 77.6758 151.103 77.1913C151.159 76.7106 151.177 76.2112 151.215 75.7006C151.233 75.4471 151.248 75.19 151.267 74.9291C151.282 74.6682 151.278 74.4036 151.286 74.1353C151.29 73.5986 151.319 73.0545 151.305 72.4954C151.286 70.2593 151.058 67.8293 150.583 65.2615C150.101 62.6974 149.346 59.9917 148.239 57.2449C147.129 54.4982 145.671 51.7067 143.772 49.0159C143.533 48.6805 143.293 48.3451 143.05 48.0059C142.811 47.6668 142.538 47.35 142.28 47.0146C142.015 46.6866 141.764 46.3474 141.48 46.0269C141.2 45.7064 140.916 45.3859 140.632 45.0617C140.355 44.7337 140.052 44.4206 139.746 44.1113C139.443 43.7982 139.136 43.4852 138.83 43.1684C138.508 42.8702 138.183 42.5684 137.858 42.2627C137.536 41.9571 137.207 41.6553 136.856 41.372C136.512 41.0813 136.168 40.7943 135.82 40.4999C135.469 40.2129 135.099 39.9483 134.736 39.6688C134.019 39.0986 133.237 38.5992 132.467 38.07C130.89 37.0712 129.245 36.1022 127.484 35.2972C123.992 33.62 120.131 32.42 116.063 31.7193C114.022 31.4063 111.936 31.2013 109.813 31.1528C107.69 31.1305 105.54 31.2423 103.376 31.5106C101.219 31.805 99.0541 32.2485 96.9045 32.8523C94.755 33.4523 92.6391 34.2536 90.5606 35.1891C90.0484 35.435 89.5176 35.6549 89.0129 35.9233C88.5045 36.1879 87.9961 36.4525 87.484 36.7171C86.9868 37.0078 86.4858 37.2948 85.9849 37.5855C85.4802 37.8687 85.0055 38.2041 84.512 38.5135C82.5681 39.7881 80.6989 41.2155 78.9382 42.7994C77.1886 44.3945 75.5475 46.135 74.0372 48.0096C73.6709 48.4867 73.2821 48.9488 72.9307 49.4408C72.5793 49.9327 72.2316 50.4284 71.8802 50.9204C71.555 51.4309 71.226 51.9415 70.897 52.4558C70.5606 52.9627 70.284 53.5068 69.9737 54.0323C68.7886 56.1678 67.727 58.3965 66.9195 60.737L66.5942 61.6054C66.4858 61.8961 66.4148 62.198 66.3213 62.4961C66.1456 63.0924 65.9699 63.6887 65.7942 64.2851C65.5961 64.8776 65.5027 65.4963 65.3606 66.1038C65.2298 66.715 65.0914 67.3262 64.9681 67.9412C64.3961 71.2805 64.2241 74.6533 64.4223 77.9703L64.5157 79.2113C64.5494 79.625 64.5681 80.0387 64.6428 80.4449C64.7625 81.2611 64.8858 82.0773 65.0055 82.8898C65.1812 83.6911 65.3569 84.4924 65.5326 85.2899L65.6671 85.8862L65.8428 86.4713C65.9587 86.8627 66.0746 87.2503 66.1905 87.6416C66.3101 88.0292 66.4148 88.4205 66.5456 88.8044C66.6877 89.1845 66.8298 89.561 66.9718 89.9374C67.2634 90.6902 67.5139 91.4542 67.869 92.1735C68.2092 92.8965 68.5232 93.6345 68.8821 94.3426C69.2634 95.0395 69.6447 95.7327 70.026 96.4259C71.6335 99.1428 73.5101 101.636 75.5699 103.883L75.6036 103.921L75.5849 103.98C74.5494 107.633 73.5886 111.278 72.684 114.624L72.6279 114.516C84.7812 119.194 96.112 123.554 106.232 127.445L106.134 127.482C108.022 123.852 109.746 120.319 111.226 116.943L111.241 116.905H111.282C114.961 116.495 118.407 115.646 121.544 114.524C121.936 114.386 122.329 114.248 122.714 114.114C123.091 113.954 123.469 113.793 123.839 113.633C124.213 113.473 124.583 113.316 124.949 113.16C125.133 113.081 125.316 113.007 125.495 112.921C125.671 112.832 125.847 112.742 126.022 112.653C126.721 112.299 127.413 111.948 128.093 111.606C128.748 111.218 129.394 110.838 130.026 110.465C132.516 108.907 134.736 107.279 136.587 105.564C136.822 105.356 137.054 105.147 137.282 104.942C137.398 104.838 137.51 104.737 137.626 104.636L137.944 104.312C138.366 103.88 138.777 103.459 139.181 103.049C139.379 102.844 139.585 102.642 139.776 102.437C139.959 102.225 140.138 102.013 140.314 101.808C140.669 101.39 141.017 100.988 141.353 100.593C143.981 97.3763 145.54 94.5364 146.572 92.617C147.054 91.6368 147.387 90.8728 147.63 90.366C147.865 89.8591 147.992 89.5982 147.992 89.5982L148.011 89.628Z" fill="#263238"/>
<path d="M76.9569 130.717C76.9569 130.717 78.0111 131.996 78.4522 133.192C78.6802 133.814 79.2372 134.325 79.9288 134.59L86.6653 137.172C87.4204 137.463 88.2615 137.422 88.9045 137.057C89.6597 136.624 90.8522 136.233 91.8428 136.427L76.9531 130.717H76.9569Z" fill="#263238"/>
<path d="M76.3324 112.079C76.2838 112.194 74.1043 121.679 73.2707 125.306C72.9305 126.796 73.4277 128.425 74.6987 129.592C75.1623 130.017 75.7455 130.404 76.467 130.684C79.3529 131.791 91.1997 136.334 91.1997 136.334C91.1997 136.334 95.0501 137.81 97.009 135.566C99.0726 133.203 105.308 123.193 105.308 123.193L76.3286 112.075L76.3324 112.079Z" fill="#FF725E"/>
<path d="M99.5215 134.571L72.7327 124.389C72.3289 124.236 72.1158 123.834 72.2579 123.495L72.2841 123.428C72.4261 123.088 72.8672 122.936 73.271 123.088L100.06 133.27C100.464 133.423 100.677 133.826 100.535 134.165L100.505 134.232C100.363 134.575 99.9215 134.724 99.5177 134.571H99.5215Z" fill="#FF725E"/>
<path d="M101.046 131.906L73.5623 121.46C73.1585 121.307 72.9454 120.904 73.0875 120.565L73.1174 120.498C73.2595 120.155 73.7006 120.006 74.1043 120.159L101.588 130.606C101.992 130.758 102.205 131.161 102.063 131.5L102.037 131.567C101.895 131.91 101.454 132.059 101.05 131.906H101.046Z" fill="#FF725E"/>
<path d="M74.5718 105.404C74.4746 105.635 72.7886 111.311 71.9288 114.226C71.8952 114.345 71.8653 114.464 71.8466 114.587C71.641 115.791 72.2653 117.073 73.3344 117.99L74.6914 119.153L100.86 129.189L104.146 129.51C105.42 129.342 106.482 128.656 107.024 127.657L111.424 119.54L74.5718 105.404Z" fill="#FF725E"/>
<g opacity="0.3">
<path d="M73.2446 124.504C75.9811 126.163 78.9119 127.341 82.1643 128.574C84.7886 129.569 87.3381 130.613 90.2016 131.66C92.3026 132.428 94.254 133.08 96.3624 133.807C97.4315 134.176 98.6689 134.407 98.953 134.325L73.2446 124.508V124.504Z" fill="black"/>
</g>
<g opacity="0.3">
<path d="M74.4146 121.724C77.151 123.383 80.0818 124.56 83.3342 125.794C85.9585 126.789 88.508 127.833 91.3716 128.88C93.4725 129.648 95.4239 130.3 97.5323 131.026C98.6015 131.395 99.8388 131.627 100.123 131.545L74.4146 121.728V121.724Z" fill="black"/>
</g>
<path d="M105.835 128.548C105.809 128.608 98.1717 125.731 88.7736 122.127C79.3717 118.519 71.7755 115.552 71.7979 115.493C71.8241 115.433 79.4615 118.31 88.8633 121.918C98.2615 125.522 105.861 128.492 105.835 128.552V128.548Z" fill="#263238"/>
<path d="M111.435 119.548C111.409 119.615 103.114 116.503 92.908 112.597C82.6986 108.691 74.5603 105.475 74.5865 105.408C74.6127 105.341 82.7884 108.449 92.9977 112.355C103.203 116.261 111.461 119.481 111.435 119.548Z" fill="#263238"/>
<path d="M101.237 129.308C101.219 129.357 95.2561 127.143 87.9215 124.363C80.5832 121.579 74.6542 119.287 74.6729 119.235C74.6916 119.182 80.6542 121.4 87.9925 124.18C95.3271 126.96 101.26 129.256 101.241 129.308H101.237Z" fill="#263238"/>
<path d="M68.7025 87.567C68.7025 87.567 68.6614 87.4701 68.5978 87.28C68.5343 87.0713 68.4446 86.7955 68.3362 86.4489C68.2801 86.2663 68.2203 86.065 68.153 85.8489C68.0894 85.629 68.0334 85.383 67.9661 85.1258C67.839 84.6041 67.6745 84.0152 67.5549 83.3481C67.4876 83.0164 67.4203 82.6698 67.3492 82.3083C67.2782 81.9468 67.2334 81.5629 67.1735 81.1716C67.039 80.3852 66.9679 79.5392 66.8782 78.6485C66.7436 76.867 66.6988 74.8955 66.8184 72.8345C66.9567 70.7735 67.2446 68.8243 67.5997 67.069C67.7978 66.1969 67.9773 65.3658 68.2053 64.6017C68.3137 64.2179 68.4072 63.8452 68.5231 63.4949C68.639 63.1445 68.7511 62.8091 68.8558 62.4886C69.0577 61.8438 69.2932 61.2773 69.4838 60.7742C69.581 60.5245 69.6707 60.2897 69.7567 60.0773C69.8502 59.8686 69.9362 59.6785 70.0147 59.5033C70.1679 59.1716 70.2876 58.9108 70.3773 58.7132C70.4633 58.5343 70.5081 58.4412 70.5156 58.4412C70.5231 58.4412 70.4857 58.5418 70.4147 58.7281C70.3324 58.9294 70.224 59.1977 70.0857 59.5331C70.0109 59.7083 69.9324 59.9021 69.8427 60.1108C69.7642 60.327 69.6745 60.5618 69.5848 60.8115C69.4053 61.3146 69.1773 61.8811 68.9829 62.5296C68.882 62.8501 68.7735 63.1892 68.6614 63.5358C68.553 63.8862 68.4633 64.2589 68.3549 64.6427C68.1343 65.403 67.9623 66.2341 67.7679 67.1025C67.424 68.8504 67.1399 70.7921 67.0053 72.8419C66.8857 74.8955 66.9231 76.8558 67.0502 78.6298C67.1362 79.5168 67.1997 80.3591 67.3268 81.1418C67.3866 81.5331 67.4278 81.9132 67.4913 82.2747C67.5586 82.6363 67.6221 82.9829 67.6857 83.3146C67.7941 83.9817 67.9511 84.5705 68.067 85.0923C68.1268 85.3532 68.1829 85.5954 68.2352 85.819C68.295 86.0389 68.3511 86.2402 68.4035 86.4228C68.4969 86.7731 68.5717 87.0526 68.6278 87.2614C68.6764 87.4552 68.6988 87.5558 68.695 87.5595L68.7025 87.567Z" fill="#263238"/>
<path d="M71.0764 93.0121C71.0278 93.0345 70.7063 92.4307 70.3624 91.6667C70.0185 90.9027 69.7755 90.2654 69.8241 90.243C69.8727 90.2207 70.1942 90.8244 70.5381 91.5884C70.882 92.3525 71.125 92.9898 71.0764 93.0121Z" fill="#263238"/>
<g opacity="0.3">
<path d="M82.3361 49.5413C82.3361 49.5413 71.0052 54.8596 69.6108 64.8179L77.5211 66.4019C77.5211 66.4019 79.0464 57.5765 87.3267 54.1851L82.3361 49.5376V49.5413Z" fill="white"/>
</g>
<g opacity="0.3">
<path d="M88.4596 54.8001C88.1829 54.7628 80.396 58.6836 78.7549 66.9349L86.6427 68.7015C86.6427 68.7015 87.9811 62.7347 93.5063 59.7308L88.4596 54.7964V54.8001Z" fill="white"/>
</g>
<g opacity="0.3">
<path d="M68.8745 66.864C68.8745 66.864 66.0483 76.3565 72.1044 85.7035L79.9063 83.8326C79.9063 83.8326 74.9679 78.0746 77.2894 68.515L68.8745 66.864Z" fill="white"/>
</g>
<g opacity="0.3">
<path d="M78.5416 68.582C78.5416 68.582 75.9734 77.5229 81.1996 83.24L88.4856 81.0374C88.4856 81.0374 85.9734 76.7104 86.4669 70.0765L78.5454 68.582H78.5416Z" fill="white"/>
</g>
<path d="M147.312 64.7957C147.312 64.7957 147.278 64.7025 147.233 64.5236C147.185 64.3261 147.121 64.0615 147.043 63.7335C146.964 63.3906 146.867 62.9695 146.721 62.4887C146.583 62.0079 146.445 61.4526 146.235 60.86C146.138 60.5619 146.033 60.2488 145.925 59.9209C145.817 59.5966 145.678 59.2649 145.551 58.9183C145.301 58.2214 144.975 57.4984 144.643 56.7344C143.944 55.225 143.088 53.6038 142.056 51.9788C141.013 50.3651 139.895 48.9078 138.815 47.637C138.258 47.0146 137.742 46.4183 137.211 45.8965C136.949 45.6356 136.706 45.371 136.456 45.1362C136.205 44.9014 135.962 44.6778 135.731 44.4616C135.278 44.0219 134.83 43.6678 134.452 43.3361C134.074 43.0044 133.734 42.7361 133.454 42.5236C133.189 42.3149 132.975 42.1472 132.815 42.0205C132.669 41.905 132.594 41.8379 132.602 41.8342C132.609 41.8304 132.688 41.8826 132.841 41.9907C133.005 42.11 133.226 42.2702 133.503 42.4677C133.79 42.6727 134.138 42.9336 134.523 43.2578C134.908 43.5784 135.364 43.9287 135.824 44.3647C136.06 44.5772 136.303 44.8008 136.56 45.0319C136.815 45.2667 137.061 45.5275 137.327 45.7884C137.865 46.3065 138.388 46.9028 138.953 47.5252C140.045 48.7923 141.17 50.2533 142.22 51.8782C143.256 53.5106 144.112 55.143 144.807 56.6635C145.136 57.435 145.458 58.158 145.701 58.8624C145.828 59.2127 145.962 59.5444 146.067 59.8724C146.172 60.2004 146.269 60.5172 146.366 60.819C146.568 61.4191 146.695 61.9781 146.826 62.4626C146.96 62.9471 147.05 63.3683 147.114 63.7186C147.177 64.0503 147.23 64.3149 147.271 64.5161C147.304 64.6988 147.319 64.7957 147.312 64.7957Z" fill="#263238"/>
<g clip-path="url(#clip1_226_1681)">
<path d="M117.873 83.7628C117.906 83.6379 117.941 83.507 117.928 83.3375C117.921 83.2527 117.884 83.1314 117.771 83.0549C117.655 82.9844 117.546 82.9987 117.471 83.0142C117.317 83.0513 117.207 83.1243 117.103 83.1853C116.996 83.2523 116.905 83.3273 116.809 83.3996C116.629 83.5496 116.461 83.7135 116.294 83.8774C115.011 85.2154 113.999 86.7129 113.051 88.1896C113.022 88.235 112.985 88.2838 112.957 88.3293C112.889 88.2447 112.832 88.1507 112.798 88.0233C112.702 87.5998 112.775 87.109 112.869 86.6436C113.07 85.6887 113.284 84.7331 113.441 83.7569C113.519 83.2689 113.586 82.7755 113.584 82.2709C113.574 82.022 113.565 81.7584 113.427 81.5218C113.362 81.4018 113.227 81.3147 113.088 81.307C112.952 81.2933 112.818 81.3324 112.7 81.3794C112.231 81.5908 111.862 81.9467 111.495 82.2733C111.129 82.6086 110.767 82.9526 110.407 83.2905C110.047 83.6284 109.685 83.9724 109.311 84.2963C108.938 84.6056 108.545 84.9423 108.119 85.0781C107.909 85.1474 107.718 85.0924 107.615 84.9098C107.51 84.7332 107.461 84.4951 107.437 84.2615C107.392 83.7884 107.418 83.2825 107.438 82.7885C107.489 81.7913 107.606 80.7965 107.669 79.7899C107.681 79.5369 107.694 79.2839 107.682 79.0263C107.676 78.8975 107.67 78.7687 107.642 78.6293C107.616 78.4986 107.58 78.3478 107.457 78.222C107.394 78.1547 107.3 78.1096 107.208 78.1024C107.116 78.0953 107.035 78.1082 106.959 78.1384C106.814 78.1868 106.701 78.2659 106.588 78.3449C106.368 78.5056 106.186 78.6849 106.005 78.8496C105.269 79.5321 104.552 80.2313 103.789 80.8419C103.413 81.1425 103.01 81.4445 102.62 81.5756C102.525 81.6039 102.438 81.6141 102.377 81.5995C102.322 81.5877 102.289 81.557 102.251 81.4944C102.178 81.3631 102.163 81.1262 102.175 80.9026C102.223 79.926 102.332 78.9346 102.378 77.9347C102.395 77.4321 102.415 76.9382 102.293 76.3985C102.256 76.2625 102.212 76.1151 102.094 75.9772C102.04 75.9066 101.949 75.8407 101.849 75.8076C101.744 75.7718 101.638 75.7801 101.549 75.7963C101.196 75.8933 101.009 76.0993 100.819 76.2673C100.445 76.6353 100.135 77.0118 99.8158 77.3917C99.5001 77.7656 99.1898 78.1421 98.8743 78.5013C98.5588 78.8604 98.2322 79.2143 97.8951 79.5335C97.558 79.8527 97.2046 80.1492 96.8395 80.3143C96.7441 80.3572 96.6628 80.3848 96.5818 80.3977C96.591 80.3503 96.6057 80.3055 96.6149 80.2581C96.7942 79.404 96.9544 78.5333 97.0787 77.638C97.1367 77.192 97.1836 76.7407 97.2084 76.2788C97.2207 76.0552 97.2224 75.7969 97.215 75.586C97.208 75.3458 97.1898 75.1149 97.1384 74.8681C97.11 74.7433 97.0815 74.6186 97.0115 74.4813C96.982 74.4153 96.9359 74.3413 96.8565 74.2661C96.7825 74.1935 96.6444 74.1271 96.5076 74.1428C96.3737 74.1525 96.2696 74.2134 96.1962 74.267C96.12 74.3266 96.0661 74.3821 96.0177 74.4403C95.9209 74.5567 95.8465 74.669 95.7806 74.7779C95.5274 75.2337 95.38 75.696 95.2547 76.1688C95.021 77.1078 94.9201 78.0958 95.0646 79.0686C95.1426 79.5429 95.2343 80.0312 95.5244 80.489C95.6139 80.6283 95.7454 80.7508 95.9025 80.8485C95.5874 82.2963 95.2449 83.716 94.8977 85.0891C94.5022 86.6759 94.1021 88.2013 93.717 89.6672C93.3264 91.1305 92.9563 92.537 92.5986 93.8754C92.4142 94.5419 92.2329 95.1877 92.0574 95.8216C91.882 96.4554 91.718 97.0651 91.5294 97.6556C91.1689 98.8298 90.8458 99.9405 90.5021 100.953C90.3345 101.457 90.1727 101.949 90.0197 102.409C89.8584 102.872 89.7057 103.316 89.562 103.729C88.9866 105.407 88.4902 106.708 88.1459 107.594C87.8017 108.48 87.604 108.947 87.604 108.947L87.6537 108.971C87.6537 108.971 87.8653 108.503 88.2372 107.63C88.6036 106.755 89.1415 105.466 89.7725 103.8C89.9301 103.387 90.0994 102.95 90.2691 102.484C90.4305 102.021 90.6034 101.534 90.7765 101.033C91.1452 100.025 91.4933 98.9191 91.8817 97.7435C92.0813 97.1583 92.2592 96.5479 92.4457 95.9194C92.6322 95.2909 92.8274 94.6443 93.0229 93.9831C93.3917 92.65 93.7868 91.2481 94.1942 89.7782C94.9411 87.0646 95.7614 84.1273 96.4515 80.994C96.6578 80.9895 96.8619 80.947 97.0331 80.8738C97.5217 80.6497 97.8983 80.305 98.2635 79.9698C98.6206 79.6232 98.953 79.2573 99.2743 78.8861C99.914 78.1497 100.524 77.3473 101.171 76.6809C101.33 76.5204 101.516 76.3731 101.631 76.3468C101.681 76.3413 101.67 76.336 101.703 76.3666C101.733 76.4032 101.773 76.4892 101.797 76.5819C101.89 76.9822 101.887 77.4841 101.876 77.96C101.845 78.9298 101.749 79.9205 101.715 80.9257C101.71 81.19 101.706 81.469 101.856 81.7637C101.929 81.9097 102.088 82.0454 102.266 82.0717C102.441 82.104 102.592 82.0729 102.726 82.0338C103.253 81.843 103.644 81.5123 104.039 81.199C104.817 80.5437 105.52 79.8305 106.248 79.1366C106.427 78.9633 106.608 78.784 106.789 78.6487C106.876 78.5798 106.975 78.5161 107.056 78.4886C107.146 78.4577 107.185 78.4616 107.223 78.4948C107.316 78.5841 107.359 78.8489 107.372 79.0771C107.387 79.314 107.377 79.561 107.367 79.808C107.319 80.7992 107.218 81.8019 107.184 82.8072C107.172 83.3124 107.15 83.8124 107.205 84.3202C107.234 84.571 107.279 84.8299 107.426 85.0631C107.499 85.1797 107.609 85.2769 107.75 85.3226C107.886 85.3657 108.031 85.3466 108.157 85.311C108.412 85.2336 108.629 85.0936 108.835 84.9482C109.04 84.8029 109.233 84.6436 109.422 84.4756C109.799 84.1456 110.161 83.8017 110.518 83.4551C110.881 83.1111 111.235 82.7705 111.6 82.4353C111.963 82.106 112.325 81.7621 112.744 81.5708C112.951 81.4782 113.166 81.4704 113.263 81.6503C113.363 81.8243 113.381 82.0698 113.386 82.3014C113.385 82.7826 113.316 83.2674 113.235 83.7468C113.07 84.7116 112.847 85.6706 112.641 86.6228C112.544 87.1089 112.462 87.603 112.559 88.1087C112.59 88.2715 112.668 88.4348 112.791 88.5606C111.927 89.8776 111.027 91.1405 110.17 92.372C109.232 93.7132 108.324 95.0089 107.452 96.2557C103.95 101.221 101.036 105.358 98.9904 108.254C96.9616 111.158 95.8014 112.822 95.8014 112.822L95.8454 112.858C95.8454 112.858 96.1477 112.455 96.7238 111.695C97.2914 110.939 98.1217 109.821 99.1857 108.4C100.233 106.971 101.509 105.237 102.973 103.253C104.437 101.269 106.061 99.0076 107.829 96.5331C109.531 94.1383 111.398 91.5708 113.247 88.7431C113.426 88.7546 113.607 88.7308 113.764 88.673C114.23 88.497 114.619 88.1958 114.987 87.8838C115.352 87.5632 115.684 87.212 115.991 86.8415C116.606 86.1005 117.138 85.305 117.574 84.4556C117.678 84.2391 117.782 84.0226 117.853 83.7755L117.873 83.7628ZM95.6608 78.9036C95.5366 78.0442 95.6362 77.1296 95.8548 76.2648C95.9653 75.8367 96.1122 75.4038 96.3107 75.0476C96.3596 74.9601 96.4111 74.8812 96.4679 74.8196C96.4766 74.8016 96.4905 74.8009 96.4963 74.7889C96.5232 74.8462 96.5524 74.9269 96.5703 75.017C96.6473 75.3945 96.6477 75.8464 96.6347 76.2695C96.6159 76.7048 96.5721 77.1353 96.5144 77.5666C96.4046 78.4319 96.2418 79.2939 96.0682 80.136C96.0574 80.116 96.0353 80.1054 96.0245 80.0854C95.8266 79.7755 95.7286 79.3286 95.6637 78.8976L95.6608 78.9036ZM115.772 86.6178C115.482 86.9816 115.167 87.3261 114.824 87.6426C114.484 87.9531 114.114 88.2417 113.71 88.4029C113.618 88.4398 113.523 88.4681 113.43 88.4756C113.436 88.4636 113.439 88.4576 113.445 88.4456C113.906 87.7123 114.393 86.9836 114.91 86.2622C115.424 85.5468 115.965 84.83 116.576 84.1831C116.729 84.0199 116.885 83.8653 117.046 83.7281C117.204 83.5969 117.396 83.4523 117.522 83.4166C117.53 83.4719 117.517 83.5694 117.487 83.6589C117.431 83.8613 117.344 84.0711 117.248 84.2695C116.841 85.0881 116.337 85.8823 115.756 86.6098L115.772 86.6178Z" fill="#ADADAD"/>
</g>
<path d="M144.938 120.245H123.222C121.412 120.245 119.944 121.708 119.944 123.513V145.163C119.944 146.968 121.412 148.431 123.222 148.431H144.938C146.749 148.431 148.217 146.968 148.217 145.163V123.513C148.217 121.708 146.749 120.245 144.938 120.245Z" fill="#455A64"/>
<g opacity="0.2">
<path d="M143.753 120.069C142.396 122.436 141.043 124.806 139.686 127.173C138.792 128.731 137.69 130.449 135.918 130.773C134.075 131.112 132.262 129.778 130.4 130.005C129.08 130.166 127.962 131.116 127.263 132.241C126.564 133.367 126.217 134.671 125.873 135.95C125.555 137.124 125.062 138.477 123.888 138.819C123.189 139.024 122.419 138.782 121.828 138.357C121.237 137.932 120.792 137.34 120.355 136.758V143.5C120.355 143.5 123.245 145.725 125.955 143.5C128.665 141.276 126.142 135.189 130.389 133.866C134.635 132.543 137.962 137.109 141.043 132.279C144.127 127.449 147.009 121.091 147.009 121.091C147.009 121.091 146.942 120.528 145.346 120.297L143.749 120.066L143.753 120.069Z" fill="white"/>
</g>
<g opacity="0.3">
<path d="M140.579 140.355C144.17 136.775 144.17 130.97 140.579 127.39C136.988 123.809 131.165 123.809 127.574 127.39C123.982 130.97 123.982 136.775 127.574 140.355C131.165 143.936 136.988 143.936 140.579 140.355Z" fill="#263238"/>
</g>
<path d="M143.503 146.512C143.499 146.489 143.839 146.538 144.422 146.333C144.71 146.229 145.054 146.05 145.379 145.744C145.704 145.442 146.011 144.999 146.157 144.44C146.235 144.16 146.254 143.858 146.247 143.53C146.247 143.206 146.247 142.863 146.243 142.509C146.243 141.797 146.239 141.022 146.235 140.191C146.232 138.525 146.228 136.632 146.22 134.537C146.22 132.443 146.213 130.147 146.209 127.683C146.209 127.069 146.209 126.442 146.209 125.805C146.198 125.168 146.269 124.516 146.004 123.927C145.761 123.338 145.297 122.835 144.71 122.544C144.418 122.399 144.097 122.306 143.764 122.272C143.439 122.246 143.08 122.265 142.736 122.261C137.181 122.261 131.073 122.265 124.661 122.268C123.884 122.265 123.129 122.619 122.628 123.196C122.377 123.483 122.187 123.822 122.082 124.188C121.97 124.553 121.966 124.926 121.97 125.321C121.97 126.878 121.97 128.41 121.97 129.92C121.97 132.935 121.966 135.842 121.962 138.611C121.962 139.997 121.962 141.346 121.959 142.658C121.977 143.314 121.891 143.97 122.086 144.559C122.273 145.148 122.669 145.655 123.166 145.986C123.671 146.318 124.261 146.463 124.852 146.437C125.447 146.437 126.033 146.437 126.605 146.437C127.753 146.437 128.852 146.441 129.903 146.445C134.101 146.456 137.499 146.467 139.854 146.475C141.024 146.482 141.936 146.489 142.561 146.493C142.863 146.497 143.099 146.501 143.263 146.504C143.42 146.504 143.503 146.516 143.503 146.516C143.503 146.516 143.42 146.523 143.263 146.527C143.099 146.527 142.863 146.53 142.561 146.538C141.936 146.542 141.024 146.549 139.854 146.557C137.499 146.564 134.097 146.575 129.903 146.586C128.852 146.586 127.753 146.59 126.605 146.594C126.033 146.594 125.447 146.594 124.852 146.594C124.25 146.624 123.607 146.471 123.076 146.121C122.549 145.77 122.127 145.234 121.925 144.607C121.824 144.294 121.787 143.959 121.787 143.635C121.787 143.31 121.787 142.986 121.787 142.658C121.787 141.346 121.787 139.997 121.783 138.611C121.783 135.842 121.783 132.935 121.775 129.92C121.775 128.414 121.775 126.878 121.775 125.321C121.768 124.94 121.775 124.519 121.895 124.132C122.007 123.74 122.209 123.379 122.478 123.07C123.013 122.451 123.828 122.071 124.658 122.074C131.069 122.074 137.177 122.078 142.732 122.082C143.084 122.089 143.417 122.071 143.775 122.097C144.127 122.13 144.471 122.231 144.781 122.388C145.405 122.697 145.899 123.237 146.157 123.863C146.288 124.176 146.355 124.512 146.366 124.844C146.377 125.172 146.366 125.488 146.37 125.809C146.37 126.446 146.37 127.072 146.37 127.687C146.366 130.151 146.362 132.443 146.359 134.541C146.355 136.636 146.347 138.529 146.344 140.195C146.344 141.026 146.34 141.801 146.336 142.513C146.336 142.871 146.336 143.21 146.332 143.534C146.336 143.858 146.314 144.179 146.232 144.462C146.075 145.036 145.761 145.487 145.42 145.789C145.084 146.098 144.729 146.273 144.437 146.374C144.142 146.475 143.903 146.501 143.746 146.512C143.585 146.516 143.506 146.512 143.506 146.512H143.503Z" fill="#263238"/>
<path d="M132.325 133.87C132.325 134.936 131.458 135.801 130.389 135.801C129.319 135.801 128.452 134.936 128.452 133.87C128.452 132.804 129.319 131.94 130.389 131.94C131.458 131.94 132.325 132.804 132.325 133.87Z" fill="#263238"/>
<path d="M139.704 133.87C139.704 134.936 138.837 135.801 137.768 135.801C136.699 135.801 135.832 134.936 135.832 133.87C135.832 132.804 136.699 131.94 137.768 131.94C138.837 131.94 139.704 132.804 139.704 133.87Z" fill="#263238"/>
<path d="M143.275 133.87C143.275 133.87 143.267 133.822 143.256 133.721C143.248 133.613 143.237 133.471 143.226 133.285C143.218 133.188 143.211 133.084 143.204 132.965C143.192 132.849 143.166 132.719 143.144 132.581C143.099 132.305 143.058 131.984 142.949 131.638C142.785 130.93 142.452 130.099 141.929 129.212C141.402 128.332 140.639 127.411 139.604 126.633C138.572 125.861 137.267 125.205 135.764 124.94C134.273 124.687 132.587 124.732 130.979 125.339C130.572 125.47 130.187 125.671 129.79 125.861C129.417 126.085 129.024 126.293 128.676 126.577C128.306 126.83 127.985 127.147 127.645 127.452C127.338 127.792 127.017 128.12 126.755 128.503C126.213 129.253 125.742 130.087 125.454 131.004C125.159 131.914 124.998 132.883 124.983 133.866C124.994 134.85 125.155 135.819 125.45 136.729C125.734 137.646 126.209 138.48 126.751 139.229C127.017 139.613 127.338 139.945 127.641 140.28C127.981 140.586 128.303 140.903 128.673 141.156C129.02 141.44 129.413 141.648 129.79 141.872C130.187 142.062 130.568 142.263 130.979 142.394C132.583 143.001 134.269 143.05 135.764 142.792C137.267 142.528 138.572 141.872 139.604 141.1C140.639 140.321 141.402 139.401 141.929 138.521C142.452 137.638 142.789 136.803 142.949 136.099C143.058 135.752 143.099 135.432 143.144 135.156C143.166 135.018 143.192 134.891 143.204 134.772C143.211 134.657 143.218 134.548 143.226 134.452C143.241 134.269 143.248 134.124 143.256 134.016C143.263 133.919 143.271 133.866 143.275 133.866C143.278 133.866 143.278 133.919 143.275 134.016C143.275 134.124 143.267 134.269 143.263 134.452C143.263 134.548 143.256 134.657 143.252 134.772C143.241 134.891 143.218 135.018 143.2 135.156C143.162 135.435 143.125 135.76 143.02 136.11C142.867 136.826 142.542 137.672 142.018 138.57C141.491 139.464 140.729 140.403 139.682 141.201C138.639 141.991 137.319 142.666 135.79 142.945C134.273 143.214 132.553 143.173 130.916 142.554C130.497 142.423 130.108 142.218 129.704 142.025C129.323 141.797 128.919 141.585 128.564 141.298C128.187 141.041 127.854 140.717 127.51 140.407C127.196 140.064 126.867 139.725 126.598 139.334C126.045 138.57 125.559 137.716 125.267 136.781C124.964 135.849 124.8 134.862 124.789 133.855C124.804 132.849 124.964 131.861 125.267 130.933C125.559 129.998 126.045 129.148 126.598 128.384C126.867 127.993 127.196 127.657 127.51 127.311C127.858 127.001 128.187 126.677 128.564 126.42C128.919 126.133 129.323 125.921 129.704 125.693C130.108 125.5 130.501 125.298 130.916 125.164C132.553 124.549 134.273 124.508 135.79 124.773C137.319 125.049 138.639 125.723 139.682 126.517C140.729 127.315 141.491 128.254 142.018 129.148C142.542 130.046 142.867 130.896 143.02 131.612C143.121 131.966 143.159 132.286 143.2 132.566C143.218 132.704 143.241 132.834 143.252 132.95C143.256 133.069 143.26 133.173 143.263 133.27C143.267 133.453 143.275 133.598 143.275 133.706C143.275 133.803 143.275 133.855 143.275 133.855V133.87Z" fill="#263238"/>
</g>
<defs>
<clipPath id="clip0_226_1681">
<rect width="108" height="138" fill="white" transform="translate(64.1719 31)"/>
</clipPath>
<clipPath id="clip1_226_1681">
<rect width="23.8467" height="36.3867" fill="white" transform="translate(96.6797 72.9077) rotate(25.6764)"/>
</clipPath>
</defs>
</svg>
