<svg width="286" height="200" viewBox="0 0 286 200" fill="none" xmlns="http://www.w3.org/2000/svg">
<g clip-path="url(#clip0_226_1523)">
<path d="M123.376 60.2417H158.897V87.3895H123.376V60.2417Z" fill="#979797" stroke="#111827" stroke-width="0.5"/>
<path d="M158.897 59.9917C158.897 60.1856 158.809 60.3969 158.597 60.6266C158.384 60.8577 158.057 61.0926 157.616 61.3241C156.733 61.7869 155.438 62.2111 153.818 62.5702C150.581 63.2876 146.098 63.7333 141.137 63.7333C136.176 63.7333 131.692 63.2876 128.455 62.5702C126.835 62.2111 125.541 61.7869 124.658 61.3241C124.216 61.0926 123.889 60.8577 123.676 60.6266C123.464 60.3969 123.376 60.1856 123.376 59.9917C123.376 59.7978 123.464 59.5864 123.676 59.3567C123.889 59.1256 124.216 58.8908 124.658 58.6592C125.541 58.1965 126.836 57.7722 128.456 57.4131C131.693 56.6958 136.177 56.25 141.137 56.25C146.097 56.25 150.58 56.6958 153.817 57.4131C155.438 57.7722 156.732 58.1965 157.615 58.6592C158.057 58.8908 158.384 59.1256 158.597 59.3567C158.809 59.5864 158.897 59.7978 158.897 59.9917Z" fill="#6E6E6E" stroke="#111827" stroke-width="0.5"/>
<path d="M143.18 74.0628L143.652 73.9808L143.647 73.9756C149.004 72.9601 154.723 70.4513 158.897 68.3284V87.6394C158.897 87.8333 158.809 88.0446 158.597 88.2744C158.384 88.5054 158.057 88.7403 157.616 88.9718C156.733 89.4346 155.438 89.8589 153.818 90.218C150.581 90.9353 146.098 91.381 141.137 91.381C136.176 91.381 131.692 90.9353 128.455 90.218C126.835 89.8589 125.541 89.4346 124.658 88.9718C124.216 88.7403 123.889 88.5054 123.676 88.2744C123.464 88.0446 123.376 87.8333 123.376 87.6394V65.6148C125.799 67.5901 128.974 69.9072 132.353 71.6379C135.92 73.4643 139.752 74.6576 143.18 74.0628Z" fill="#808484" stroke="#111827" stroke-width="0.5"/>
<path d="M123.376 59.9897C123.376 59.7998 123.46 59.5932 123.663 59.3688C123.868 59.143 124.181 58.913 124.605 58.6856C125.453 58.2311 126.699 57.8125 128.261 57.4554C131.311 56.7583 135.517 56.3066 140.207 56.2531C139.707 58.0828 139.142 60.8627 139.307 63.712C134.821 63.612 130.831 63.1627 127.952 62.4794C126.482 62.1303 125.315 61.7235 124.523 61.2795C123.711 60.8247 123.376 60.3811 123.376 59.9897Z" fill="#5C5E5E" stroke="#111827" stroke-width="0.5"/>
<path d="M123.376 59.9917C123.376 59.7978 123.464 59.5864 123.676 59.3567C123.889 59.1256 124.216 58.8907 124.658 58.6592C125.541 58.1965 126.835 57.7722 128.455 57.4131C131.692 56.6958 136.176 56.25 141.137 56.25C146.098 56.25 150.581 56.6958 153.818 57.4131C155.438 57.7722 156.733 58.1965 157.616 58.6592C158.057 58.8907 158.384 59.1256 158.597 59.3567C158.809 59.5864 158.897 59.7978 158.897 59.9917C158.897 60.1856 158.809 60.3969 158.597 60.6266C158.384 60.8577 158.057 61.0926 157.616 61.3241C156.733 61.7869 155.438 62.2111 153.818 62.5702C150.581 63.2876 146.098 63.7333 141.137 63.7333C136.176 63.7333 131.692 63.2876 128.455 62.5702C126.835 62.2111 125.541 61.7869 124.658 61.3241C124.216 61.0926 123.889 60.8577 123.676 60.6266C123.464 60.3969 123.376 60.1856 123.376 59.9917ZM123.5 59.9917C123.5 60.2435 123.656 60.4682 123.858 60.6563C124.068 60.8508 124.369 61.045 124.749 61.2356C125.511 61.6177 126.634 62.0068 128.104 62.3562C131.047 63.0557 135.414 63.6042 141.137 63.6042C146.859 63.6042 151.226 63.0557 154.169 62.3562C155.639 62.0068 156.763 61.6177 157.525 61.2356C157.905 61.045 158.205 60.8508 158.415 60.6563C158.618 60.4682 158.774 60.2435 158.774 59.9917C158.774 59.7398 158.618 59.5151 158.415 59.327C158.205 59.1325 157.905 58.9384 157.525 58.7478C156.763 58.3656 155.639 57.9765 154.169 57.6271C151.226 56.9277 146.859 56.3791 141.137 56.3791C135.414 56.3791 131.047 56.9277 128.104 57.6271C126.634 57.9765 125.511 58.3656 124.749 58.7478C124.369 58.9384 124.068 59.1325 123.858 59.327C123.656 59.5151 123.5 59.7398 123.5 59.9917Z" fill="#ACB7B7" stroke="#111827" stroke-width="0.5"/>
<path d="M145.572 65.3855C145.572 65.4154 145.547 65.4372 145.523 65.4372C145.5 65.4372 145.475 65.4154 145.475 65.3855C145.475 65.3545 145.499 65.3337 145.523 65.3337C145.548 65.3337 145.572 65.3545 145.572 65.3855Z" fill="#818189" stroke="#111827" stroke-width="0.5"/>
<path d="M147.442 66.5136C147.442 66.5089 147.444 66.5016 147.45 66.4957C147.456 66.4898 147.464 66.4865 147.471 66.4865C147.478 66.4865 147.486 66.4898 147.492 66.4957C147.498 66.5016 147.5 66.5089 147.5 66.5136C147.5 66.5266 147.489 66.5408 147.471 66.5408C147.453 66.5408 147.442 66.5266 147.442 66.5136Z" fill="#818189" stroke="#111827" stroke-width="0.5"/>
<path d="M145.275 67.1763C145.275 67.1233 145.319 67.0762 145.377 67.0762C145.435 67.0762 145.479 67.1233 145.479 67.1763C145.479 67.2249 145.439 67.2744 145.377 67.2744C145.317 67.2744 145.275 67.2251 145.275 67.1763Z" fill="#818189" stroke="#111827" stroke-width="0.5"/>
<path d="M150.252 65.6912C150.252 65.722 150.228 65.7449 150.199 65.7449C150.173 65.7449 150.149 65.7241 150.149 65.6912C150.149 65.6572 150.176 65.6355 150.199 65.6355C150.226 65.6355 150.252 65.6584 150.252 65.6912Z" fill="#818189" stroke="#111827" stroke-width="0.5"/>
<path d="M152.291 68.9866C152.291 69.0086 152.274 69.0226 152.258 69.0226C152.242 69.0226 152.225 69.0086 152.225 68.9866C152.225 68.9647 152.242 68.9507 152.258 68.9507C152.274 68.9507 152.291 68.9647 152.291 68.9866Z" fill="#818189" stroke="#111827" stroke-width="0.5"/>
<path d="M140.42 67.0302C140.42 67.0581 140.399 67.076 140.377 67.076C140.357 67.076 140.336 67.0603 140.336 67.0302C140.336 67.0012 140.358 66.9844 140.377 66.9844C140.398 66.9844 140.42 67.0034 140.42 67.0302Z" fill="#818189" stroke="#111827" stroke-width="0.5"/>
<path d="M134.695 65.9791C134.695 66.0031 134.678 66.017 134.66 66.017C134.642 66.017 134.625 66.0031 134.625 65.9791C134.625 65.9563 134.643 65.9412 134.66 65.9412C134.677 65.9412 134.695 65.9563 134.695 65.9791Z" fill="#818189" stroke="#111827" stroke-width="0.5"/>
<path d="M140.42 70.3554C140.42 70.3833 140.399 70.4012 140.377 70.4012C140.357 70.4012 140.336 70.3855 140.336 70.3554C140.336 70.3264 140.358 70.3096 140.377 70.3096C140.398 70.3096 140.42 70.3286 140.42 70.3554Z" fill="#818189" stroke="#111827" stroke-width="0.5"/>
<path d="M142.588 65.5038C142.588 65.5373 142.584 65.5671 142.578 65.5926C142.572 65.5671 142.568 65.5373 142.568 65.5038C142.568 65.4698 142.572 65.4396 142.578 65.414C142.584 65.4396 142.588 65.4698 142.588 65.5038ZM142.537 65.6838C142.537 65.6838 142.537 65.6831 142.538 65.6822C142.537 65.6835 142.537 65.6839 142.537 65.6838ZM142.618 65.6822C142.619 65.6831 142.62 65.6838 142.62 65.6838C142.62 65.6839 142.619 65.6835 142.618 65.6822ZM142.619 65.3239C142.619 65.324 142.618 65.3246 142.617 65.3254C142.618 65.3243 142.619 65.3238 142.619 65.3239ZM142.539 65.3254C142.538 65.3246 142.538 65.324 142.538 65.3239C142.538 65.3238 142.538 65.3243 142.539 65.3254Z" fill="#818189" stroke="#111827" stroke-width="0.5"/>
<path d="M155.346 63.7407C155.346 63.7312 155.354 63.7195 155.37 63.7195C155.385 63.7195 155.393 63.7312 155.393 63.7407C155.393 63.7503 155.385 63.762 155.37 63.762C155.354 63.762 155.346 63.7503 155.346 63.7407Z" fill="#818189" stroke="#111827" stroke-width="0.5"/>
<path d="M125.505 63.1708C125.505 63.2243 125.465 63.262 125.417 63.262C125.37 63.262 125.33 63.2243 125.33 63.1708C125.33 63.1172 125.37 63.0796 125.417 63.0796C125.465 63.0796 125.505 63.1172 125.505 63.1708Z" fill="#818189" stroke="#111827" stroke-width="0.5"/>
<path d="M124.63 64.1964C124.63 64.1785 124.645 64.1594 124.669 64.1594C124.694 64.1594 124.708 64.1785 124.708 64.1964C124.708 64.2143 124.694 64.2334 124.669 64.2334C124.646 64.2334 124.63 64.2138 124.63 64.1964Z" fill="#818189" stroke="#111827" stroke-width="0.5"/>
<mask id="path-18-inside-1_226_1523" fill="white">
<path d="M126.574 65.5374C126.574 65.6202 126.46 65.6872 126.32 65.6872C126.179 65.6872 126.066 65.6202 126.066 65.5374C126.066 65.4545 126.179 65.3855 126.32 65.3855C126.46 65.3855 126.574 65.4526 126.574 65.5374Z"/>
</mask>
<path d="M126.574 65.5374C126.574 65.6202 126.46 65.6872 126.32 65.6872C126.179 65.6872 126.066 65.6202 126.066 65.5374C126.066 65.4545 126.179 65.3855 126.32 65.3855C126.46 65.3855 126.574 65.4526 126.574 65.5374Z" fill="#818189"/>
<path d="M126.074 65.5374C126.074 65.3308 126.212 65.2324 126.245 65.2129C126.289 65.1869 126.317 65.1872 126.32 65.1872V66.1872C126.463 66.1872 126.618 66.154 126.754 66.0738C126.879 66.0001 127.074 65.8267 127.074 65.5374H126.074ZM126.32 65.1872C126.323 65.1872 126.351 65.1869 126.394 65.2129C126.428 65.2324 126.566 65.3308 126.566 65.5374H125.566C125.566 65.8267 125.761 66.0001 125.886 66.0738C126.022 66.154 126.176 66.1872 126.32 66.1872V65.1872ZM126.566 65.5374C126.566 65.7417 126.43 65.8394 126.398 65.8588C126.354 65.8851 126.326 65.8855 126.32 65.8855V64.8855C126.174 64.8855 126.018 64.9204 125.882 65.0019C125.758 65.0766 125.566 65.2502 125.566 65.5374H126.566ZM126.32 65.8855C126.317 65.8855 126.288 65.8858 126.243 65.8591C126.207 65.8374 126.074 65.7388 126.074 65.5374H127.074C127.074 65.2511 126.884 65.0766 126.756 65.0002C126.619 64.9187 126.463 64.8855 126.32 64.8855V65.8855Z" fill="#111827" mask="url(#path-18-inside-1_226_1523)"/>
<path d="M125.505 67.196C125.505 67.153 125.541 67.1156 125.587 67.1156C125.636 67.1156 125.669 67.1529 125.669 67.196C125.669 67.2188 125.66 67.2375 125.648 67.2499C125.636 67.2626 125.615 67.2744 125.587 67.2744C125.537 67.2744 125.505 67.2352 125.505 67.196Z" fill="#818189" stroke="#111827" stroke-width="0.5"/>
<path d="M103.542 95.9491L68.6836 71.0118V65.4508L103.542 89.0874V95.9491Z" fill="#808484" stroke="#111827" stroke-width="0.5"/>
<path d="M104.042 96.1431V89.1748L134.695 85.2472V91.3461L104.042 96.1431Z" fill="#4E5051" stroke="#111827" stroke-width="0.5"/>
<path d="M103.854 88.6948L69.1458 65.16L94.3927 62.6659L134.159 84.8117L103.854 88.6948Z" fill="#A7A7AF" stroke="#111827" stroke-width="0.5"/>
<path d="M109.812 92.3469C109.812 93.492 108.893 94.4161 107.765 94.4161C106.636 94.4161 105.718 93.492 105.718 92.3469C105.718 91.2017 106.636 90.2776 107.765 90.2776C108.893 90.2776 109.812 91.2017 109.812 92.3469Z" fill="#303035" stroke="#111827" stroke-width="0.5"/>
<mask id="path-25-inside-2_226_1523" fill="white">
<path d="M107.765 90.0276C107.052 90.0276 106.413 90.357 105.991 90.8717C106.388 90.5404 106.897 90.3412 107.452 90.3412C108.722 90.3412 109.749 91.3805 109.749 92.6604C109.749 93.2205 109.552 93.7353 109.224 94.1356C109.735 93.7096 110.06 93.0667 110.06 92.3449C110.06 91.063 109.03 90.0256 107.763 90.0256L107.765 90.0276Z"/>
</mask>
<path d="M107.765 90.0276C107.052 90.0276 106.413 90.357 105.991 90.8717C106.388 90.5404 106.897 90.3412 107.452 90.3412C108.722 90.3412 109.749 91.3805 109.749 92.6604C109.749 93.2205 109.552 93.7353 109.224 94.1356C109.735 93.7096 110.06 93.0667 110.06 92.3449C110.06 91.063 109.03 90.0256 107.763 90.0256L107.765 90.0276Z" fill="#252528"/>
<path d="M107.765 90.0276V90.5276H108.964L108.12 89.6758L107.765 90.0276ZM105.991 90.8717L105.605 90.5547L106.312 91.2554L105.991 90.8717ZM109.224 94.1356L108.837 93.8187L109.544 94.5199L109.224 94.1356ZM107.763 90.0256V89.5256H106.564L107.407 90.3775L107.763 90.0256ZM107.765 89.5276C106.894 89.5276 106.116 89.9303 105.605 90.5547L106.378 91.1886C106.71 90.7836 107.209 90.5276 107.765 90.5276V89.5276ZM106.312 91.2554C106.622 90.9962 107.019 90.8412 107.452 90.8412V89.8412C106.776 89.8412 106.153 90.0846 105.671 90.488L106.312 91.2554ZM107.452 90.8412C108.441 90.8412 109.249 91.6518 109.249 92.6604H110.249C110.249 91.1092 109.003 89.8412 107.452 89.8412V90.8412ZM109.249 92.6604C109.249 93.1014 109.094 93.5049 108.837 93.8187L109.61 94.4526C110.01 93.9656 110.249 93.3397 110.249 92.6604H109.249ZM109.544 94.5199C110.166 94.002 110.56 93.22 110.56 92.3449H109.56C109.56 92.9134 109.305 93.4172 108.904 93.7513L109.544 94.5199ZM110.56 92.3449C110.56 90.7911 109.311 89.5256 107.763 89.5256V90.5256C108.75 90.5256 109.56 91.3348 109.56 92.3449H110.56ZM107.407 90.3775L107.409 90.3794L108.12 89.6758L108.118 89.6738L107.407 90.3775Z" fill="#111827" mask="url(#path-25-inside-2_226_1523)"/>
<path d="M116.9 91.2761C116.9 92.422 115.98 93.3453 114.853 93.3453C113.725 93.3453 112.806 92.422 112.806 91.2761C112.806 90.1301 113.725 89.2068 114.853 89.2068C115.98 89.2068 116.9 90.1319 116.9 91.2761Z" fill="#414144" stroke="#111827" stroke-width="0.5"/>
<path d="M114.851 89.2049H114.939C116.025 89.2525 116.896 90.1569 116.896 91.2721C116.896 91.3322 116.893 91.3916 116.888 91.4504C116.746 90.2777 115.82 89.3483 114.652 89.2145C114.717 89.2081 114.784 89.2049 114.851 89.2049Z" fill="#252528" stroke="#111827" stroke-width="0.5"/>
<path d="M124.22 90.2228C124.22 91.3688 123.301 92.2921 122.173 92.2921C121.046 92.2921 120.126 91.3688 120.126 90.2228C120.126 89.0768 121.046 88.1536 122.173 88.1536C123.301 88.1536 124.22 89.0787 124.22 90.2228Z" fill="#414144" stroke="#111827" stroke-width="0.5"/>
<path d="M131.308 89.152C131.308 90.298 130.389 91.2213 129.261 91.2213C128.134 91.2213 127.214 90.298 127.214 89.152C127.214 88.006 128.134 87.0828 129.261 87.0828C130.389 87.0828 131.308 88.0079 131.308 89.152Z" fill="#414144" stroke="#111827" stroke-width="0.5"/>
<path opacity="0.33" d="M103.542 95.9489L82.3516 80.7896C83.2311 81.3426 84.1232 81.8953 85.019 82.44C89.2805 85.0315 93.634 87.4488 97.0886 88.8547C98.8129 89.5564 100.333 90.0147 101.515 90.1079C102.341 90.1731 103.056 90.061 103.542 89.6797V95.9489Z" fill="#414144" stroke="#111827" stroke-width="0.5"/>
<g style="mix-blend-mode:screen" opacity="0.32">
<path d="M114.116 74.6522L114.497 74.8888V74.8879C120.097 78.3902 124.931 82.1189 128.499 85.5367L107.167 88.2698C106.847 88.0758 106.525 87.8785 106.203 87.6794C99.3801 83.4513 93.6673 78.8764 89.9458 74.9029C88.0838 72.9148 86.7304 71.0878 85.9822 69.5389C85.228 67.9773 85.121 66.7687 85.6165 65.9532C86.1112 65.1395 87.2245 64.6894 88.9437 64.6615C90.6493 64.6339 92.8747 65.0251 95.4732 65.8013C100.666 67.3526 107.293 70.4242 114.116 74.6522Z" fill="#CACAD8"/>
<path d="M114.116 74.6522L114.497 74.8888V74.8879C120.097 78.3902 124.931 82.1189 128.499 85.5367L107.167 88.2698C106.847 88.0758 106.525 87.8785 106.203 87.6794C99.3801 83.4513 93.6673 78.8764 89.9458 74.9029C88.0838 72.9148 86.7304 71.0878 85.9822 69.5389C85.228 67.9773 85.121 66.7687 85.6165 65.9532C86.1112 65.1395 87.2245 64.6894 88.9437 64.6615C90.6493 64.6339 92.8747 65.0251 95.4732 65.8013C100.666 67.3526 107.293 70.4242 114.116 74.6522Z" stroke="#111827" stroke-width="0.5"/>
</g>
<path d="M105.645 89.5416L70.7871 64.6023V59.0433L105.645 82.678V89.5416Z" fill="#808484" stroke="#111827" stroke-width="0.5"/>
<path d="M106.146 89.7356V82.7654L136.799 78.8378V84.9367L106.146 89.7356Z" fill="#3B3E3F" stroke="#111827" stroke-width="0.5"/>
<path d="M105.958 82.2854L71.2493 58.7525L96.4962 56.2565L136.263 78.4023L105.958 82.2854Z" fill="#CACAD8" stroke="#111827" stroke-width="0.5"/>
<path d="M111.913 85.9374C111.913 87.0825 110.994 88.0067 109.866 88.0067C108.738 88.0067 107.819 87.0825 107.819 85.9374C107.819 84.7923 108.738 83.8682 109.866 83.8682C110.994 83.8682 111.913 84.7923 111.913 85.9374Z" fill="#303035" stroke="#111827" stroke-width="0.5"/>
<mask id="path-37-inside-3_226_1523" fill="white">
<path d="M109.866 83.6182C109.153 83.6182 108.515 83.9475 108.093 84.4623C108.489 84.1309 108.999 83.9318 109.554 83.9318C110.823 83.9318 111.851 84.9711 111.851 86.251C111.851 86.8111 111.653 87.3259 111.325 87.7262C111.837 87.3002 112.161 86.6573 112.161 85.9355C112.161 84.6536 111.132 83.6162 109.864 83.6162L109.866 83.6182Z"/>
</mask>
<path d="M109.866 83.6182C109.153 83.6182 108.515 83.9475 108.093 84.4623C108.489 84.1309 108.999 83.9318 109.554 83.9318C110.823 83.9318 111.851 84.9711 111.851 86.251C111.851 86.8111 111.653 87.3259 111.325 87.7262C111.837 87.3002 112.161 86.6573 112.161 85.9355C112.161 84.6536 111.132 83.6162 109.864 83.6162L109.866 83.6182Z" fill="#252528"/>
<path d="M109.866 83.6182V84.1182H111.066L110.221 83.2661L109.866 83.6182ZM108.093 84.4623L107.706 84.1453L108.413 84.8459L108.093 84.4623ZM111.325 87.7262L110.939 87.4093L111.645 88.1105L111.325 87.7262ZM109.864 83.6162V83.1162H108.664L109.509 83.9683L109.864 83.6162ZM109.866 83.1182C108.996 83.1182 108.218 83.5209 107.706 84.1453L108.479 84.7792C108.811 84.3742 109.311 84.1182 109.866 84.1182V83.1182ZM108.413 84.8459C108.724 84.5868 109.121 84.4318 109.554 84.4318V83.4318C108.877 83.4318 108.255 83.6751 107.772 84.0786L108.413 84.8459ZM109.554 84.4318C110.542 84.4318 111.351 85.2424 111.351 86.251H112.351C112.351 84.6998 111.104 83.4318 109.554 83.4318V84.4318ZM111.351 86.251C111.351 86.692 111.196 87.0955 110.939 87.4093L111.712 88.0432C112.111 87.5562 112.351 86.9302 112.351 86.251H111.351ZM111.645 88.1105C112.267 87.5926 112.661 86.8106 112.661 85.9355H111.661C111.661 86.504 111.407 87.0078 111.005 87.3419L111.645 88.1105ZM112.661 85.9355C112.661 84.3817 111.412 83.1162 109.864 83.1162V84.1162C110.851 84.1162 111.661 84.9254 111.661 85.9355H112.661ZM109.509 83.9683L109.511 83.9703L110.221 83.2661L110.219 83.2641L109.509 83.9683Z" fill="#111827" mask="url(#path-37-inside-3_226_1523)"/>
<path d="M119.001 84.8666C119.001 86.0126 118.082 86.9359 116.954 86.9359C115.827 86.9359 114.907 86.0126 114.907 84.8666C114.907 83.7206 115.827 82.7974 116.954 82.7974C118.082 82.7974 119.001 83.7225 119.001 84.8666Z" fill="#414144" stroke="#111827" stroke-width="0.5"/>
<path d="M116.954 82.7954H117.045C118.13 82.8431 119.001 83.7474 119.001 84.8627C119.001 84.9228 118.999 84.9822 118.994 85.0409C118.851 83.868 117.925 82.9384 116.756 82.8049C116.822 82.7986 116.888 82.7954 116.954 82.7954Z" fill="#252528" stroke="#111827" stroke-width="0.5"/>
<path d="M126.324 83.8134C126.324 84.9594 125.404 85.8827 124.277 85.8827C123.15 85.8827 122.23 84.9594 122.23 83.8134C122.23 82.6674 123.15 81.7441 124.277 81.7441C125.404 81.7441 126.324 82.6693 126.324 83.8134Z" fill="#303035" stroke="#111827" stroke-width="0.5"/>
<path d="M133.41 82.7426C133.41 83.8877 132.491 84.8119 131.363 84.8119C130.235 84.8119 129.316 83.8877 129.316 82.7426C129.316 81.5975 130.235 80.6733 131.363 80.6733C132.491 80.6733 133.41 81.5975 133.41 82.7426Z" fill="#303035" stroke="#111827" stroke-width="0.5"/>
<path opacity="0.33" d="M105.645 89.5395L84.4551 74.3801C85.3346 74.9332 86.2267 75.4859 87.1225 76.0306C91.384 78.6221 95.7375 81.0393 99.1921 82.4452C100.916 83.147 102.437 83.6052 103.619 83.6985C104.445 83.7637 105.16 83.6516 105.645 83.2703V89.5395Z" fill="#414144" stroke="#111827" stroke-width="0.5"/>
<g style="mix-blend-mode:screen" opacity="0.32">
<path d="M116.217 68.2428C121.981 71.8136 126.951 75.6339 130.6 79.1292L109.269 81.8623C108.948 81.6683 108.627 81.4709 108.304 81.2717C101.482 77.0437 95.7688 72.4688 92.0474 68.4954C90.1854 66.5073 88.8319 64.6803 88.0838 63.1314C87.3296 61.5698 87.2225 60.3611 87.7181 59.5457C88.2129 58.7314 89.3261 58.281 91.0454 58.2529C92.7509 58.225 94.9764 58.616 97.575 59.3921C102.665 60.9123 109.133 63.8933 115.813 67.9923L116.217 68.2428Z" fill="#CACAD8"/>
<path d="M116.217 68.2428C121.981 71.8136 126.951 75.6339 130.6 79.1292L109.269 81.8623C108.948 81.6683 108.627 81.4709 108.304 81.2717C101.482 77.0437 95.7688 72.4688 92.0474 68.4954C90.1854 66.5073 88.8319 64.6803 88.0838 63.1314C87.3296 61.5698 87.2225 60.3611 87.7181 59.5457C88.2129 58.7314 89.3261 58.281 91.0454 58.2529C92.7509 58.225 94.9764 58.616 97.575 59.3921C102.665 60.9123 109.133 63.8933 115.813 67.9923L116.217 68.2428Z" stroke="#111827" stroke-width="0.5"/>
</g>
<path d="M69.041 66.6437C69.041 66.6164 69.0628 66.591 69.0957 66.591C69.1286 66.591 69.1504 66.6164 69.1504 66.6437C69.1504 66.6711 69.1286 66.6965 69.0957 66.6965C69.0628 66.6965 69.041 66.6711 69.041 66.6437Z" fill="#6D6D72" stroke="#111827" stroke-width="0.5"/>
<path d="M70.0039 66.8607C70.0039 66.908 69.9668 66.9455 69.9199 66.9455C69.873 66.9455 69.8359 66.908 69.8359 66.8607C69.8359 66.8134 69.873 66.7759 69.9199 66.7759C69.9668 66.7759 70.0039 66.8134 70.0039 66.8607Z" fill="#6D6D72" stroke="#111827" stroke-width="0.5"/>
<path d="M69.5313 67.5333C69.5313 67.5826 69.4922 67.6221 69.4434 67.6221C69.3945 67.6221 69.3555 67.5826 69.3555 67.5333C69.3555 67.484 69.3945 67.4446 69.4434 67.4446C69.4922 67.4446 69.5313 67.484 69.5313 67.5333Z" fill="#6D6D72" stroke="#111827" stroke-width="0.5"/>
<path d="M68.7344 65.8885C68.7344 65.8257 68.7835 65.7726 68.8516 65.7726C68.9196 65.7726 68.9688 65.8257 68.9688 65.8885C68.9688 65.9513 68.9196 66.0044 68.8516 66.0044C68.7859 66.0044 68.7344 65.9517 68.7344 65.8885Z" fill="#6D6D72" stroke="#111827" stroke-width="0.5"/>
<path d="M69.0527 67.977C69.0527 68.0323 69.0078 68.0776 68.9531 68.0776C68.8984 68.0776 68.8535 68.0323 68.8535 67.977C68.8535 67.9218 68.8984 67.8765 68.9531 67.8765C69.0078 67.8765 69.0527 67.9218 69.0527 67.977Z" fill="#6D6D72" stroke="#111827" stroke-width="0.5"/>
<path d="M70.4961 68.1092C70.4961 68.0464 70.5472 67.9913 70.6152 67.9913C70.6833 67.9913 70.7344 68.0464 70.7344 68.1092C70.7344 68.172 70.6833 68.2271 70.6152 68.2271C70.5472 68.2271 70.4961 68.172 70.4961 68.1092Z" fill="#6D6D72" stroke="#111827" stroke-width="0.5"/>
<path d="M70.4844 67.0836C70.4844 67.1171 70.459 67.1427 70.4258 67.1427C70.3926 67.1427 70.3672 67.1171 70.3672 67.0836C70.3672 67.0501 70.3926 67.0244 70.4258 67.0244C70.459 67.0244 70.4844 67.0501 70.4844 67.0836Z" fill="#6D6D72" stroke="#111827" stroke-width="0.5"/>
<path d="M71.0156 59.5084C71.0156 59.5399 70.9902 59.5675 70.957 59.5675C70.9238 59.5675 70.8984 59.5419 70.8984 59.5084C70.8984 59.4749 70.9238 59.4492 70.957 59.4492C70.9902 59.4492 71.0156 59.4749 71.0156 59.5084Z" fill="#6D6D72" stroke="#111827" stroke-width="0.5"/>
<path d="M71.2559 60.3112C71.2559 60.3605 71.2168 60.3999 71.168 60.3999C71.1191 60.3999 71.0801 60.3605 71.0801 60.3112C71.0801 60.2619 71.1191 60.2224 71.168 60.2224C71.2168 60.2224 71.2559 60.2619 71.2559 60.3112Z" fill="#6D6D72" stroke="#111827" stroke-width="0.5"/>
<path d="M72.6973 60.7765C72.6973 60.8278 72.6543 60.8712 72.6035 60.8712C72.5527 60.8712 72.5098 60.8298 72.5098 60.7765C72.5098 60.7233 72.5527 60.6819 72.6035 60.6819C72.6543 60.6819 72.6973 60.7233 72.6973 60.7765Z" fill="#6D6D72" stroke="#111827" stroke-width="0.5"/>
<path d="M72.8418 61.6799C72.8418 61.7469 72.7891 61.8002 72.7227 61.8002C72.6563 61.8002 72.6035 61.7469 72.6035 61.6799C72.6035 61.6128 72.6563 61.5596 72.7227 61.5596C72.7891 61.5596 72.8418 61.6128 72.8418 61.6799Z" fill="#6D6D72" stroke="#111827" stroke-width="0.5"/>
<path d="M72.1328 60.0449C72.1328 60.1001 72.0898 60.1435 72.0352 60.1435C71.9805 60.1435 71.9375 60.1001 71.9375 60.0449C71.9375 59.9897 71.9805 59.9463 72.0352 59.9463C72.0898 59.9463 72.1328 59.9897 72.1328 60.0449Z" fill="#6D6D72" stroke="#111827" stroke-width="0.5"/>
<path d="M74.0081 61.4116C74.0081 61.4688 73.9631 61.5142 73.9065 61.5142C73.8499 61.5142 73.8069 61.4688 73.8069 61.4116C73.8069 61.3544 73.8518 61.311 73.9065 61.311C73.9612 61.311 74.0081 61.3564 74.0081 61.4116Z" fill="#6D6D72" stroke="#111827" stroke-width="0.5"/>
<path d="M74.0081 62.311C74.0081 62.3642 73.9846 62.4096 73.9573 62.4096C73.9299 62.4096 73.9065 62.3662 73.9065 62.311C73.9065 62.2558 73.9299 62.2144 73.9573 62.2144C73.9846 62.2144 74.0081 62.2577 74.0081 62.311Z" fill="#6D6D72" stroke="#111827" stroke-width="0.5"/>
<path d="M90.0259 81.0523C90.0259 81.1135 89.9771 81.1608 89.9185 81.1608C89.8599 81.1608 89.811 81.1135 89.811 81.0523C89.811 80.9912 89.8579 80.9438 89.9185 80.9438C89.979 80.9438 90.0259 80.9932 90.0259 81.0523Z" fill="#6D6D72" stroke="#111827" stroke-width="0.5"/>
<path d="M90.9067 81.6126C90.9067 81.5636 90.9461 81.5204 91.0005 81.5204C91.0549 81.5204 91.0942 81.5636 91.0942 81.6126C91.0942 81.6616 91.0549 81.7048 91.0005 81.7048C90.9461 81.7048 90.9067 81.6616 90.9067 81.6126Z" fill="#6D6D72" stroke="#111827" stroke-width="0.5"/>
<path d="M92.4636 82.1627C92.4636 82.1473 92.4776 82.1297 92.4988 82.1297C92.52 82.1297 92.5339 82.1473 92.5339 82.1627C92.5339 82.1782 92.52 82.1958 92.4988 82.1958C92.4776 82.1958 92.4636 82.1782 92.4636 82.1627Z" fill="#6D6D72" stroke="#111827" stroke-width="0.5"/>
<path d="M91.5476 82.9397C91.5476 82.8749 91.6006 82.8179 91.6707 82.8179C91.7407 82.8179 91.7937 82.8749 91.7937 82.9397C91.7937 83.0045 91.7407 83.0615 91.6707 83.0615C91.6006 83.0615 91.5476 83.0045 91.5476 82.9397Z" fill="#6D6D72" stroke="#111827" stroke-width="0.5"/>
<path d="M93.749 83.7255C93.7489 83.7252 93.7488 83.7249 93.7488 83.7248C93.7488 83.7247 93.7489 83.7244 93.749 83.7241L93.7496 83.7232C93.7498 83.7229 93.7504 83.7225 93.7514 83.722C93.7526 83.7215 93.7539 83.7213 93.7546 83.7213C93.7554 83.7213 93.7567 83.7215 93.7579 83.722C93.7589 83.7225 93.7594 83.7229 93.7597 83.7232L93.7603 83.7241C93.7604 83.7244 93.7605 83.7247 93.7605 83.7248C93.7605 83.7249 93.7604 83.7252 93.7603 83.7255L93.7597 83.7264C93.7594 83.7266 93.7589 83.7271 93.7579 83.7275C93.7567 83.7281 93.7554 83.7283 93.7546 83.7283C93.7539 83.7283 93.7526 83.7281 93.7514 83.7275C93.7504 83.7271 93.7498 83.7266 93.7496 83.7264L93.749 83.7255Z" fill="#6D6D72" stroke="#111827" stroke-width="0.5"/>
<path d="M93.9871 85.1426C93.9871 85.1054 94.0166 85.0721 94.0593 85.0721C94.102 85.0721 94.1316 85.1054 94.1316 85.1426C94.1316 85.1798 94.102 85.2131 94.0593 85.2131C94.0166 85.2131 93.9871 85.1798 93.9871 85.1426Z" fill="#6D6D72" stroke="#111827" stroke-width="0.5"/>
<path d="M96.4597 85.1426C96.4597 85.1054 96.4893 85.0721 96.532 85.0721C96.5747 85.0721 96.6042 85.1054 96.6042 85.1426C96.6042 85.1798 96.5747 85.2131 96.532 85.2131C96.4893 85.2131 96.4597 85.1798 96.4597 85.1426Z" fill="#6D6D72" stroke="#111827" stroke-width="0.5"/>
<path d="M95.53 84.2315C95.53 84.1845 95.5674 84.1433 95.6199 84.1433C95.6723 84.1433 95.7097 84.1845 95.7097 84.2315C95.7097 84.2786 95.6723 84.3198 95.6199 84.3198C95.5674 84.3198 95.53 84.2786 95.53 84.2315Z" fill="#6D6D72" stroke="#111827" stroke-width="0.5"/>
<path d="M98.7625 86.5429C98.7625 86.5018 98.7959 86.4645 98.8425 86.4645C98.8891 86.4645 98.9226 86.5018 98.9226 86.5429C98.9226 86.584 98.8891 86.6213 98.8425 86.6213C98.7959 86.6213 98.7625 86.584 98.7625 86.5429Z" fill="#6D6D72" stroke="#111827" stroke-width="0.5"/>
<path d="M103.614 82.3167C103.614 82.2657 103.656 82.2205 103.712 82.2205C103.768 82.2205 103.81 82.2657 103.81 82.3167C103.81 82.3677 103.768 82.4128 103.712 82.4128C103.656 82.4128 103.614 82.3677 103.614 82.3167Z" fill="#545459" stroke="#111827" stroke-width="0.5"/>
<path d="M104.956 83.0285C104.956 83.011 104.97 82.9934 104.993 82.9934C105.004 82.9934 105.013 82.9982 105.018 83.0033C105.024 83.0085 105.028 83.0174 105.028 83.0285C105.028 83.0377 105.024 83.0456 105.019 83.051C105.014 83.0566 105.004 83.0615 104.993 83.0615C104.983 83.0615 104.973 83.0569 104.966 83.0497C104.959 83.0427 104.956 83.0344 104.956 83.0285Z" fill="#545459" stroke="#111827" stroke-width="0.5"/>
<path d="M104.845 84.1309C104.845 84.0839 104.884 84.0407 104.937 84.0407C104.989 84.0407 105.028 84.0839 105.028 84.1309C105.028 84.178 104.989 84.2212 104.937 84.2212C104.884 84.2212 104.845 84.178 104.845 84.1309Z" fill="#545459" stroke="#111827" stroke-width="0.5"/>
<path d="M102.257 80.6758C102.257 80.6386 102.288 80.6033 102.331 80.6033C102.374 80.6033 102.405 80.6386 102.405 80.6758C102.405 80.713 102.374 80.7483 102.331 80.7483C102.288 80.7483 102.257 80.713 102.257 80.6758Z" fill="#545459" stroke="#111827" stroke-width="0.5"/>
<path d="M103.462 83.9693C103.462 83.9203 103.503 83.8751 103.558 83.8751C103.612 83.8751 103.653 83.9203 103.653 83.9693C103.653 84.0183 103.612 84.0635 103.558 84.0635C103.501 84.0635 103.462 84.0182 103.462 83.9693Z" fill="#545459" stroke="#111827" stroke-width="0.5"/>
<path d="M105.089 85.4978C105.089 85.4586 105.12 85.4233 105.165 85.4233C105.21 85.4233 105.241 85.4586 105.241 85.4978C105.241 85.5369 105.21 85.5723 105.165 85.5723C105.12 85.5723 105.089 85.5369 105.089 85.4978Z" fill="#545459" stroke="#111827" stroke-width="0.5"/>
<path d="M100.833 80.8809C100.833 80.8712 100.837 80.8596 100.846 80.8504C100.855 80.8412 100.868 80.836 100.88 80.836C100.892 80.836 100.904 80.8412 100.913 80.8504C100.923 80.8596 100.927 80.8712 100.927 80.8809C100.927 80.8905 100.923 80.9022 100.913 80.9114C100.904 80.9206 100.892 80.9258 100.88 80.9258C100.868 80.9258 100.855 80.9206 100.846 80.9114C100.837 80.9022 100.833 80.8905 100.833 80.8809Z" fill="#545459" stroke="#111827" stroke-width="0.5"/>
<path d="M102.083 81.8571C102.083 81.8253 102.09 81.7979 102.1 81.7757C102.121 81.7709 102.143 81.7683 102.167 81.7683C102.191 81.7683 102.213 81.7709 102.234 81.7757C102.244 81.7979 102.251 81.8253 102.251 81.8571C102.251 81.8888 102.244 81.9162 102.234 81.9384C102.213 81.9432 102.191 81.9458 102.167 81.9458C102.143 81.9458 102.121 81.9432 102.1 81.9384C102.09 81.9162 102.083 81.8888 102.083 81.8571Z" fill="#545459" stroke="#111827" stroke-width="0.5"/>
<path d="M99.4148 79.2933C99.4148 79.2443 99.4541 79.201 99.5085 79.201C99.5609 79.201 99.6023 79.2442 99.6023 79.2933C99.6023 79.3424 99.5609 79.3855 99.5085 79.3855C99.4541 79.3855 99.4148 79.3423 99.4148 79.2933Z" fill="#545459" stroke="#111827" stroke-width="0.5"/>
<mask id="path-77-inside-4_226_1523" fill="white">
<path d="M104.622 86.7974C104.622 86.9374 104.552 87.0518 104.466 87.0518C104.38 87.0518 104.31 86.9374 104.31 86.7974C104.31 86.6574 104.38 86.543 104.466 86.543C104.552 86.543 104.622 86.6574 104.622 86.7974Z"/>
</mask>
<path d="M104.622 86.7974C104.622 86.9374 104.552 87.0518 104.466 87.0518C104.38 87.0518 104.31 86.9374 104.31 86.7974C104.31 86.6574 104.38 86.543 104.466 86.543C104.552 86.543 104.622 86.6574 104.622 86.7974Z" fill="#545459"/>
<path d="M104.122 86.7974C104.122 86.7895 104.123 86.7595 104.15 86.7154C104.172 86.6803 104.269 86.5518 104.466 86.5518V87.5518C104.749 87.5518 104.924 87.3661 105.002 87.2388C105.086 87.1025 105.122 86.9453 105.122 86.7974H104.122ZM104.466 86.5518C104.663 86.5518 104.76 86.6803 104.781 86.7154C104.809 86.7595 104.81 86.7895 104.81 86.7974H103.81C103.81 86.9453 103.846 87.1025 103.929 87.2388C104.008 87.3661 104.183 87.5518 104.466 87.5518V86.5518ZM104.81 86.7974C104.81 86.8052 104.809 86.8352 104.781 86.8794C104.76 86.9144 104.663 87.043 104.466 87.043V86.043C104.183 86.043 104.008 86.2287 103.929 86.3559C103.846 86.4923 103.81 86.6495 103.81 86.7974H104.81ZM104.466 87.043C104.269 87.043 104.172 86.9144 104.15 86.8794C104.123 86.8352 104.122 86.8052 104.122 86.7974H105.122C105.122 86.6495 105.086 86.4923 105.002 86.3559C104.924 86.2287 104.749 86.043 104.466 86.043V87.043Z" fill="#111827" mask="url(#path-77-inside-4_226_1523)"/>
<path d="M93.9597 127.93V121.004L99.1591 122.662V130.04L93.9597 127.93Z" fill="#818189" stroke="#111827" stroke-width="0.5"/>
<path d="M114.089 112.005L114.066 112.015L114.046 112.029L99.3678 122.204L94.086 120.519L102.073 107.147L189.185 71.3481L202.015 73.6678L114.089 112.005Z" fill="#CACACA" stroke="#111827" stroke-width="0.5"/>
<path d="M202.619 90.8532L114.426 133.531L99.6592 130.212V122.611L114.311 112.454L202.619 73.9498V90.8532Z" fill="#717171" stroke="#111827" stroke-width="0.5"/>
<path d="M99.6592 122.611L113.945 112.708L114.203 133L99.6592 130.205V122.611Z" fill="#636368" stroke="#111827" stroke-width="0.5"/>
<path d="M202.015 73.6678L114.188 111.962L102.546 106.952L189.185 71.3481L202.015 73.6678Z" fill="#636368" stroke="#111827" stroke-width="0.5"/>
<path d="M116.298 112.999C116.298 113.037 116.258 113.101 116.169 113.101C116.08 113.101 116.04 113.037 116.04 112.999C116.04 112.962 116.08 112.898 116.169 112.898C116.258 112.898 116.298 112.962 116.298 112.999Z" fill="#636368" stroke="#111827" stroke-width="0.5"/>
<path d="M119.193 111.966C119.193 111.966 119.193 111.966 119.193 111.966C119.193 111.966 119.193 111.967 119.193 111.967C119.192 111.968 119.191 111.97 119.188 111.973C119.182 111.978 119.171 111.984 119.154 111.984C119.137 111.984 119.125 111.978 119.119 111.973C119.117 111.97 119.115 111.968 119.115 111.967C119.115 111.967 119.115 111.966 119.115 111.966C119.115 111.966 119.115 111.966 119.115 111.966C119.115 111.966 119.115 111.966 119.115 111.966C119.115 111.966 119.115 111.966 119.115 111.965C119.115 111.965 119.117 111.962 119.119 111.96C119.125 111.954 119.137 111.948 119.154 111.948C119.171 111.948 119.182 111.954 119.188 111.96C119.191 111.962 119.192 111.965 119.193 111.965C119.193 111.966 119.193 111.966 119.193 111.966C119.193 111.966 119.193 111.966 119.193 111.966Z" fill="#636368" stroke="#111827" stroke-width="0.5"/>
<path d="M116.966 115.684C116.966 115.695 116.962 115.707 116.949 115.72C116.935 115.732 116.912 115.743 116.882 115.743C116.852 115.743 116.829 115.732 116.816 115.72C116.802 115.707 116.798 115.695 116.798 115.684C116.798 115.674 116.802 115.661 116.816 115.648C116.83 115.635 116.853 115.624 116.882 115.624C116.911 115.624 116.934 115.635 116.948 115.648C116.962 115.661 116.966 115.674 116.966 115.684Z" fill="#636368" stroke="#111827" stroke-width="0.5"/>
<path d="M118.875 114.384C118.888 114.384 118.896 114.388 118.9 114.392C118.896 114.396 118.888 114.4 118.875 114.4C118.863 114.4 118.854 114.396 118.848 114.392C118.853 114.388 118.862 114.384 118.875 114.384Z" fill="#636368" stroke="#111827" stroke-width="0.5"/>
<path d="M118.035 113.556C118.035 113.538 118.043 113.525 118.049 113.519C118.055 113.514 118.06 113.513 118.062 113.513C118.064 113.513 118.069 113.514 118.075 113.519C118.081 113.525 118.089 113.538 118.089 113.556C118.089 113.574 118.081 113.586 118.075 113.592C118.069 113.598 118.064 113.599 118.062 113.599C118.06 113.599 118.055 113.598 118.049 113.592C118.043 113.586 118.035 113.574 118.035 113.556Z" fill="#636368" stroke="#111827" stroke-width="0.5"/>
<path d="M115.32 113.95C115.32 113.926 115.331 113.907 115.341 113.898C115.351 113.888 115.362 113.886 115.368 113.886C115.375 113.886 115.387 113.889 115.398 113.899C115.409 113.909 115.419 113.928 115.419 113.95C115.419 113.975 115.408 113.993 115.398 114.002C115.388 114.012 115.377 114.015 115.368 114.015C115.36 114.015 115.35 114.012 115.341 114.004C115.332 113.995 115.32 113.976 115.32 113.95Z" fill="#636368" stroke="#111827" stroke-width="0.5"/>
<path d="M114.763 115.84C114.763 115.773 114.814 115.745 114.847 115.745C114.864 115.745 114.882 115.752 114.898 115.766C114.914 115.781 114.929 115.807 114.929 115.84C114.929 115.908 114.873 115.934 114.847 115.934C114.832 115.934 114.811 115.928 114.794 115.911C114.775 115.894 114.763 115.868 114.763 115.84Z" fill="#636368" stroke="#111827" stroke-width="0.5"/>
<mask id="path-91-inside-5_226_1523" fill="white">
<path d="M115.368 117.311C115.368 117.445 115.251 117.553 115.107 117.553C114.962 117.553 114.845 117.445 114.845 117.311C114.845 117.177 114.962 117.068 115.107 117.068C115.251 117.068 115.368 117.177 115.368 117.311Z"/>
</mask>
<path d="M115.368 117.311C115.368 117.445 115.251 117.553 115.107 117.553C114.962 117.553 114.845 117.445 114.845 117.311C114.845 117.177 114.962 117.068 115.107 117.068C115.251 117.068 115.368 117.177 115.368 117.311Z" fill="#636368"/>
<path d="M114.868 117.311C114.868 117.133 115.012 117.053 115.107 117.053V118.053C115.491 118.053 115.868 117.756 115.868 117.311H114.868ZM115.107 117.053C115.202 117.053 115.345 117.133 115.345 117.311H114.345C114.345 117.756 114.723 118.053 115.107 118.053V117.053ZM115.345 117.311C115.345 117.488 115.202 117.568 115.107 117.568V116.568C114.723 116.568 114.345 116.865 114.345 117.311H115.345ZM115.107 117.568C115.012 117.568 114.868 117.488 114.868 117.311H115.868C115.868 116.865 115.491 116.568 115.107 116.568V117.568Z" fill="#111827" mask="url(#path-91-inside-5_226_1523)"/>
<path d="M118.527 117.54C118.527 117.534 118.528 117.529 118.53 117.524C118.53 117.524 118.531 117.523 118.531 117.523C118.531 117.523 118.531 117.523 118.531 117.523C118.531 117.523 118.531 117.524 118.531 117.524C118.533 117.529 118.535 117.534 118.535 117.54C118.535 117.545 118.534 117.55 118.532 117.554C118.531 117.554 118.531 117.555 118.531 117.555C118.531 117.555 118.531 117.555 118.531 117.555C118.53 117.555 118.53 117.554 118.53 117.554C118.528 117.55 118.527 117.545 118.527 117.54Z" fill="#636368" stroke="#111827" stroke-width="0.5"/>
<path d="M122.3 110.583C122.312 110.583 122.321 110.587 122.326 110.592C122.322 110.596 122.313 110.6 122.3 110.6C122.287 110.6 122.279 110.595 122.275 110.592C122.28 110.588 122.288 110.583 122.3 110.583Z" fill="#636368" stroke="#111827" stroke-width="0.5"/>
<path d="M126.672 108.785C126.672 108.785 126.672 108.785 126.672 108.785C126.672 108.785 126.672 108.785 126.671 108.786C126.671 108.787 126.67 108.789 126.667 108.792C126.661 108.797 126.65 108.803 126.633 108.803C126.616 108.803 126.604 108.797 126.598 108.792C126.595 108.789 126.594 108.787 126.594 108.786C126.593 108.785 126.594 108.785 126.594 108.785C126.594 108.785 126.594 108.785 126.594 108.785C126.594 108.785 126.594 108.785 126.594 108.785C126.594 108.785 126.593 108.785 126.594 108.784C126.594 108.783 126.595 108.781 126.598 108.779C126.604 108.773 126.616 108.767 126.633 108.767C126.65 108.767 126.661 108.773 126.667 108.779C126.67 108.781 126.671 108.783 126.671 108.784C126.672 108.785 126.672 108.785 126.672 108.785C126.672 108.785 126.672 108.785 126.672 108.785Z" fill="#636368" stroke="#111827" stroke-width="0.5"/>
<mask id="path-96-inside-6_226_1523" fill="white">
<path d="M116.304 120.32C116.304 120.453 116.189 120.559 116.048 120.559C115.907 120.559 115.792 120.453 115.792 120.32C115.792 120.188 115.907 120.084 116.048 120.084C116.189 120.084 116.304 120.19 116.304 120.32Z"/>
</mask>
<path d="M116.304 120.32C116.304 120.453 116.189 120.559 116.048 120.559C115.907 120.559 115.792 120.453 115.792 120.32C115.792 120.188 115.907 120.084 116.048 120.084C116.189 120.084 116.304 120.19 116.304 120.32Z" fill="#636368"/>
<path d="M115.804 120.32C115.804 120.143 115.947 120.059 116.048 120.059V121.059C116.43 121.059 116.804 120.762 116.804 120.32H115.804ZM116.048 120.059C116.149 120.059 116.292 120.143 116.292 120.32H115.292C115.292 120.762 115.666 121.059 116.048 121.059V120.059ZM116.292 120.32C116.292 120.503 116.143 120.584 116.048 120.584V119.584C115.672 119.584 115.292 119.873 115.292 120.32H116.292ZM116.048 120.584C115.95 120.584 115.804 120.503 115.804 120.32H116.804C116.804 119.878 116.427 119.584 116.048 119.584V120.584Z" fill="#111827" mask="url(#path-96-inside-6_226_1523)"/>
<path d="M106.35 127.792C109.439 125.624 112.662 121.861 113.978 115.387L114.203 133.479L100.621 130.426C100.899 130.357 101.219 130.269 101.572 130.158C102.853 129.753 104.576 129.038 106.35 127.792Z" fill="#56565B" stroke="#111827" stroke-width="0.5"/>
<path d="M106.526 138.136V131.211L111.724 132.868V140.246L106.526 138.136Z" fill="#818189" stroke="#111827" stroke-width="0.5"/>
<path d="M126.654 122.211L126.631 122.221L126.611 122.235L111.932 132.41L106.653 130.727L114.638 117.352L201.75 81.5539L214.58 83.8736L126.654 122.211Z" fill="#CACACA" stroke="#111827" stroke-width="0.5"/>
<path d="M215.184 101.061L126.991 143.737L112.224 140.418V132.816L126.876 122.66L215.184 84.1557V101.061Z" fill="#717171" stroke="#111827" stroke-width="0.5"/>
<path opacity="0.67" d="M214.862 84.5662C214.984 84.4698 215.091 84.3842 215.183 84.3097V101.063L142.746 136.116C155.382 128.363 171.959 116.63 186.103 106.259C194.155 100.354 201.421 94.8887 206.727 90.8463C209.379 88.8252 211.542 87.1597 213.068 85.9728C213.831 85.3794 214.436 84.9053 214.862 84.5662Z" fill="#5F5F63" stroke="#111827" stroke-width="0.5"/>
<path d="M112.224 132.816L126.51 122.914L126.767 143.207L112.224 140.411V132.816Z" fill="#636368" stroke="#111827" stroke-width="0.5"/>
<path d="M214.58 83.8736L126.753 122.168L115.111 117.158L201.75 81.5539L214.58 83.8736Z" fill="#636368" stroke="#111827" stroke-width="0.5"/>
<path d="M128.863 123.205C128.863 123.243 128.823 123.306 128.734 123.306C128.645 123.306 128.605 123.243 128.605 123.205C128.605 123.168 128.645 123.104 128.734 123.104C128.823 123.104 128.863 123.168 128.863 123.205Z" fill="#636368" stroke="#111827" stroke-width="0.5"/>
<path d="M131.758 122.172C131.758 122.172 131.758 122.172 131.758 122.172C131.758 122.172 131.758 122.172 131.757 122.173C131.757 122.174 131.756 122.176 131.753 122.178C131.747 122.184 131.736 122.19 131.719 122.19C131.701 122.19 131.69 122.184 131.684 122.178C131.681 122.176 131.68 122.174 131.68 122.173C131.679 122.172 131.679 122.172 131.679 122.172C131.679 122.172 131.679 122.172 131.679 122.172C131.679 122.172 131.679 122.172 131.679 122.172C131.679 122.172 131.679 122.172 131.68 122.171C131.68 122.17 131.681 122.168 131.684 122.166C131.69 122.16 131.701 122.154 131.719 122.154C131.736 122.154 131.747 122.16 131.753 122.166C131.756 122.168 131.757 122.17 131.757 122.171C131.758 122.172 131.758 122.172 131.758 122.172C131.758 122.172 131.758 122.172 131.758 122.172Z" fill="#636368" stroke="#111827" stroke-width="0.5"/>
<path d="M129.531 125.891C129.531 125.901 129.527 125.914 129.513 125.927C129.499 125.94 129.476 125.951 129.447 125.951C129.418 125.951 129.395 125.94 129.381 125.927C129.367 125.914 129.363 125.901 129.363 125.891C129.363 125.881 129.367 125.869 129.381 125.856C129.395 125.843 129.418 125.832 129.447 125.832C129.476 125.832 129.499 125.843 129.513 125.856C129.527 125.869 129.531 125.881 129.531 125.891Z" fill="#636368" stroke="#111827" stroke-width="0.5"/>
<path d="M131.439 124.591C131.451 124.591 131.46 124.595 131.465 124.6C131.46 124.604 131.452 124.608 131.439 124.608C131.426 124.608 131.418 124.603 131.414 124.6C131.419 124.596 131.427 124.591 131.439 124.591Z" fill="#636368" stroke="#111827" stroke-width="0.5"/>
<path d="M130.599 123.763C130.599 123.746 130.608 123.733 130.614 123.727C130.62 123.721 130.625 123.721 130.627 123.721C130.628 123.721 130.634 123.721 130.64 123.727C130.646 123.733 130.654 123.746 130.654 123.763C130.654 123.781 130.646 123.794 130.64 123.8C130.634 123.806 130.628 123.806 130.627 123.806C130.625 123.806 130.62 123.806 130.614 123.8C130.608 123.794 130.599 123.781 130.599 123.763Z" fill="#636368" stroke="#111827" stroke-width="0.5"/>
<path d="M127.884 124.156C127.884 124.132 127.895 124.113 127.906 124.104C127.916 124.095 127.926 124.091 127.935 124.091C127.943 124.091 127.953 124.095 127.962 124.103C127.972 124.112 127.984 124.13 127.984 124.156C127.984 124.181 127.973 124.199 127.962 124.209C127.952 124.218 127.942 124.221 127.935 124.221C127.928 124.221 127.917 124.218 127.906 124.208C127.895 124.197 127.884 124.179 127.884 124.156Z" fill="#636368" stroke="#111827" stroke-width="0.5"/>
<path d="M127.328 126.045C127.328 125.977 127.381 125.951 127.41 125.951C127.425 125.951 127.445 125.957 127.463 125.974C127.481 125.991 127.494 126.017 127.494 126.045C127.494 126.112 127.44 126.14 127.41 126.14C127.393 126.14 127.374 126.133 127.359 126.119C127.343 126.104 127.328 126.078 127.328 126.045Z" fill="#636368" stroke="#111827" stroke-width="0.5"/>
<mask id="path-112-inside-7_226_1523" fill="white">
<path d="M127.933 127.518C127.933 127.653 127.816 127.761 127.671 127.761C127.527 127.761 127.41 127.653 127.41 127.518C127.41 127.384 127.527 127.276 127.671 127.276C127.816 127.276 127.933 127.384 127.933 127.518Z"/>
</mask>
<path d="M127.933 127.518C127.933 127.653 127.816 127.761 127.671 127.761C127.527 127.761 127.41 127.653 127.41 127.518C127.41 127.384 127.527 127.276 127.671 127.276C127.816 127.276 127.933 127.384 127.933 127.518Z" fill="#636368"/>
<path d="M127.433 127.518C127.433 127.341 127.576 127.261 127.671 127.261V128.261C128.055 128.261 128.433 127.964 128.433 127.518H127.433ZM127.671 127.261C127.766 127.261 127.91 127.341 127.91 127.518H126.91C126.91 127.964 127.287 128.261 127.671 128.261V127.261ZM127.91 127.518C127.91 127.696 127.766 127.776 127.671 127.776V126.776C127.287 126.776 126.91 127.073 126.91 127.518H127.91ZM127.671 127.776C127.576 127.776 127.433 127.696 127.433 127.518H128.433C128.433 127.073 128.055 126.776 127.671 126.776V127.776Z" fill="#111827" mask="url(#path-112-inside-7_226_1523)"/>
<path d="M131.092 127.745C131.092 127.74 131.093 127.735 131.095 127.731C131.095 127.731 131.095 127.73 131.095 127.729C131.095 127.729 131.095 127.729 131.095 127.729C131.096 127.73 131.096 127.731 131.096 127.731C131.098 127.735 131.099 127.74 131.099 127.745C131.099 127.751 131.098 127.756 131.096 127.761C131.096 127.761 131.096 127.761 131.095 127.762C131.095 127.762 131.095 127.762 131.095 127.762C131.095 127.761 131.095 127.761 131.095 127.761C131.093 127.756 131.092 127.751 131.092 127.745Z" fill="#636368" stroke="#111827" stroke-width="0.5"/>
<path d="M134.867 120.791C134.878 120.791 134.888 120.795 134.893 120.8C134.888 120.804 134.879 120.808 134.867 120.808C134.854 120.808 134.846 120.803 134.842 120.8C134.846 120.795 134.855 120.791 134.867 120.791Z" fill="#636368" stroke="#111827" stroke-width="0.5"/>
<path d="M139.236 118.993C139.236 118.993 139.236 118.993 139.236 118.993C139.236 118.993 139.236 118.993 139.236 118.994C139.236 118.994 139.235 118.997 139.232 118.999C139.226 119.005 139.214 119.011 139.197 119.011C139.18 119.011 139.169 119.005 139.163 118.999C139.16 118.997 139.159 118.994 139.158 118.994C139.158 118.993 139.158 118.993 139.158 118.993C139.158 118.993 139.158 118.993 139.158 118.993C139.158 118.993 139.158 118.993 139.158 118.993C139.158 118.993 139.158 118.993 139.158 118.992C139.159 118.991 139.16 118.989 139.163 118.986C139.169 118.981 139.18 118.975 139.197 118.975C139.214 118.975 139.226 118.981 139.232 118.986C139.235 118.989 139.236 118.991 139.236 118.992C139.236 118.993 139.236 118.993 139.236 118.993C139.236 118.993 139.236 118.993 139.236 118.993Z" fill="#636368" stroke="#111827" stroke-width="0.5"/>
<mask id="path-117-inside-8_226_1523" fill="white">
<path d="M128.869 130.528C128.869 130.658 128.753 130.765 128.613 130.765C128.472 130.765 128.357 130.658 128.357 130.528C128.357 130.398 128.472 130.29 128.613 130.29C128.753 130.29 128.869 130.396 128.869 130.528Z"/>
</mask>
<path d="M128.869 130.528C128.869 130.658 128.753 130.765 128.613 130.765C128.472 130.765 128.357 130.658 128.357 130.528C128.357 130.398 128.472 130.29 128.613 130.29C128.753 130.29 128.869 130.396 128.869 130.528Z" fill="#636368"/>
<path d="M128.369 130.528C128.369 130.346 128.515 130.265 128.613 130.265V131.265C128.992 131.265 129.369 130.971 129.369 130.528H128.369ZM128.613 130.265C128.711 130.265 128.857 130.346 128.857 130.528H127.857C127.857 130.971 128.234 131.265 128.613 131.265V130.265ZM128.857 130.528C128.857 130.705 128.716 130.79 128.613 130.79V129.79C128.228 129.79 127.857 130.091 127.857 130.528H128.857ZM128.613 130.79C128.512 130.79 128.369 130.706 128.369 130.528H129.369C129.369 130.086 128.995 129.79 128.613 129.79V130.79Z" fill="#111827" mask="url(#path-117-inside-8_226_1523)"/>
<path d="M113.186 140.634C113.464 140.565 113.784 140.477 114.136 140.366C115.417 139.961 117.141 139.245 118.915 138C122.003 135.831 125.226 132.069 126.543 125.595L126.767 143.687L113.186 140.634Z" fill="#56565B" stroke="#111827" stroke-width="0.5"/>
<path d="M99.0613 115.627L99.2915 109.089L104.432 110.816L104.188 117.782L99.0613 115.627Z" fill="#818189" stroke="#111827" stroke-width="0.5"/>
<path d="M119.712 101.146L119.69 101.154L119.669 101.166L104.657 110.365L99.4451 108.614L107.855 96.2097L196.111 64.9246L208.815 67.4994L119.712 101.146Z" fill="#CACACA" stroke="#111827" stroke-width="0.5"/>
<path d="M208.892 83.7812L119.33 121.547L104.682 117.958L104.934 110.782L119.911 101.605L209.452 67.7933L208.892 83.7812Z" fill="#717171" stroke="#111827" stroke-width="0.5"/>
<path d="M119.54 101.832L119.125 121.038L104.682 117.952L104.934 110.782L119.54 101.832Z" fill="#636368" stroke="#111827" stroke-width="0.5"/>
<path d="M208.815 67.4994L119.808 101.109L108.369 96.0276L196.111 64.9246L208.815 67.4994Z" fill="#A7A7AF" stroke="#111827" stroke-width="0.5"/>
<path d="M121.882 102.168C121.882 102.179 121.877 102.196 121.854 102.215C121.831 102.234 121.794 102.249 121.749 102.248C121.703 102.247 121.669 102.23 121.649 102.21C121.629 102.192 121.624 102.174 121.624 102.161L121.374 102.153L121.624 102.161C121.625 102.15 121.63 102.133 121.652 102.114C121.675 102.095 121.712 102.08 121.758 102.081C121.803 102.082 121.838 102.1 121.858 102.119C121.878 102.137 121.883 102.155 121.882 102.168L122.132 102.176L121.882 102.168Z" fill="#636368" stroke="#111827" stroke-width="0.5"/>
<path d="M124.771 101.271C124.781 101.271 124.789 101.273 124.795 101.276C124.789 101.278 124.78 101.28 124.768 101.28L124.768 101.28L124.765 101.28C124.756 101.279 124.748 101.277 124.742 101.275C124.749 101.272 124.759 101.27 124.771 101.271Z" fill="#636368" stroke="#111827" stroke-width="0.5"/>
<path d="M122.461 104.729C122.461 104.729 122.461 104.729 122.461 104.729C122.461 104.73 122.46 104.738 122.446 104.749C122.432 104.761 122.406 104.773 122.373 104.772C122.341 104.771 122.317 104.758 122.304 104.746C122.298 104.74 122.295 104.735 122.293 104.732C122.292 104.729 122.292 104.728 122.292 104.727C122.292 104.727 122.292 104.727 122.292 104.727C122.292 104.727 122.292 104.719 122.307 104.707C122.321 104.695 122.347 104.684 122.379 104.684C122.411 104.686 122.435 104.698 122.449 104.711C122.455 104.717 122.458 104.722 122.459 104.725C122.461 104.727 122.461 104.728 122.461 104.729Z" fill="#636368" stroke="#111827" stroke-width="0.5"/>
<mask id="path-128-inside-9_226_1523" fill="white">
<path d="M124.689 103.575C124.685 103.711 124.556 103.815 124.402 103.811C124.247 103.807 124.128 103.693 124.132 103.559C124.136 103.423 124.265 103.318 124.419 103.322C124.574 103.326 124.695 103.438 124.689 103.575Z"/>
</mask>
<path d="M124.689 103.575C124.685 103.711 124.556 103.815 124.402 103.811C124.247 103.807 124.128 103.693 124.132 103.559C124.136 103.423 124.265 103.318 124.419 103.322C124.574 103.326 124.695 103.438 124.689 103.575Z" fill="#636368"/>
<path d="M124.689 103.575L124.189 103.553L124.189 103.56L124.689 103.575ZM124.132 103.559L124.632 103.573L124.632 103.573L124.132 103.559ZM124.189 103.56C124.192 103.466 124.239 103.396 124.285 103.359C124.329 103.322 124.376 103.31 124.414 103.311L124.389 104.311C124.749 104.32 125.175 104.065 125.189 103.589L124.189 103.56ZM124.414 103.311C124.458 103.312 124.508 103.33 124.551 103.37C124.594 103.411 124.635 103.482 124.632 103.573L123.632 103.544C123.619 104.007 124.012 104.301 124.389 104.311L124.414 103.311ZM124.632 103.573C124.629 103.667 124.582 103.737 124.536 103.775C124.492 103.811 124.445 103.823 124.407 103.822L124.432 102.822C124.072 102.813 123.646 103.068 123.632 103.544L124.632 103.573ZM124.407 103.822C124.366 103.821 124.317 103.805 124.273 103.764C124.227 103.722 124.185 103.647 124.189 103.553L125.188 103.596C125.209 103.118 124.799 102.832 124.432 102.822L124.407 103.822Z" fill="#111827" mask="url(#path-128-inside-9_226_1523)"/>
<path d="M123.626 102.803C123.626 102.803 123.626 102.803 123.626 102.803C123.626 102.803 123.626 102.803 123.626 102.803C123.626 102.803 123.625 102.803 123.625 102.802C123.624 102.802 123.621 102.8 123.618 102.797C123.612 102.792 123.602 102.778 123.6 102.756H123.627H123.628H123.628H123.655C123.653 102.779 123.641 102.793 123.635 102.798C123.632 102.801 123.629 102.802 123.628 102.803C123.627 102.803 123.627 102.803 123.626 102.803ZM123.656 102.749L123.628 102.748L123.628 102.748L123.627 102.748L123.599 102.747C123.599 102.747 123.599 102.746 123.599 102.745C123.601 102.722 123.613 102.707 123.62 102.701C123.624 102.697 123.627 102.696 123.628 102.696C123.628 102.696 123.628 102.696 123.628 102.696C123.629 102.696 123.629 102.696 123.629 102.696C123.63 102.696 123.63 102.696 123.63 102.696C123.631 102.697 123.634 102.698 123.637 102.702C123.644 102.708 123.655 102.724 123.656 102.747C123.656 102.748 123.656 102.749 123.656 102.749ZM123.626 102.803L123.626 102.803L123.626 102.803Z" fill="#636368" stroke="#111827" stroke-width="0.5"/>
<path d="M120.947 102.977C120.958 102.988 120.971 103.009 120.972 103.038L120.923 103.037L120.922 103.037L120.873 103.036C120.874 103.005 120.889 102.985 120.9 102.976C120.911 102.967 120.92 102.966 120.924 102.966C120.925 102.966 120.925 102.966 120.925 102.966C120.929 102.966 120.937 102.968 120.947 102.977ZM120.972 103.046H120.923H120.921H120.873C120.873 103.044 120.873 103.042 120.873 103.04C120.873 103.04 120.873 103.039 120.873 103.038L120.922 103.04L120.923 103.04L120.972 103.042C120.972 103.043 120.972 103.044 120.972 103.044C120.972 103.045 120.972 103.046 120.972 103.046ZM120.923 103.049L120.971 103.05C120.969 103.078 120.955 103.096 120.944 103.105C120.934 103.113 120.924 103.115 120.92 103.114C120.92 103.114 120.92 103.114 120.919 103.114C120.916 103.114 120.907 103.112 120.897 103.102C120.886 103.092 120.875 103.073 120.873 103.048L120.921 103.049L120.923 103.049Z" fill="#636368" stroke="#111827" stroke-width="0.5"/>
<path d="M120.339 104.711L120.335 104.813L120.335 104.813L120.253 104.811C120.255 104.771 120.275 104.743 120.292 104.729C120.306 104.717 120.322 104.712 120.337 104.711C120.338 104.711 120.338 104.711 120.339 104.711ZM120.253 104.813L120.334 104.817L120.335 104.817L120.334 104.828L120.334 104.828L120.33 104.917C120.319 104.917 120.303 104.912 120.287 104.897C120.27 104.882 120.252 104.852 120.253 104.813ZM120.336 104.917L120.338 104.817L120.419 104.821C120.417 104.859 120.398 104.886 120.382 104.9C120.365 104.913 120.348 104.917 120.336 104.917ZM120.419 104.815L120.338 104.813L120.338 104.8L120.338 104.8L120.34 104.711C120.341 104.711 120.341 104.711 120.342 104.712C120.356 104.713 120.372 104.719 120.387 104.733C120.403 104.748 120.42 104.777 120.419 104.815Z" fill="#636368" stroke="#111827" stroke-width="0.5"/>
<mask id="path-133-inside-10_226_1523" fill="white">
<path d="M120.81 106.223C120.806 106.349 120.685 106.45 120.54 106.444C120.396 106.44 120.283 106.334 120.286 106.206C120.29 106.079 120.411 105.979 120.556 105.985C120.701 105.989 120.814 106.095 120.81 106.223Z"/>
</mask>
<path d="M120.81 106.223C120.806 106.349 120.685 106.45 120.54 106.444C120.396 106.44 120.283 106.334 120.286 106.206C120.29 106.079 120.411 105.979 120.556 105.985C120.701 105.989 120.814 106.095 120.81 106.223Z" fill="#636368"/>
<path d="M120.81 106.223L121.31 106.239L121.31 106.238L120.81 106.223ZM120.54 106.444L120.561 105.945L120.554 105.944L120.54 106.444ZM120.286 106.206L119.787 106.19L119.787 106.19L120.286 106.206ZM120.556 105.985L120.536 106.484L120.542 106.484L120.556 105.985ZM120.31 106.208C120.313 106.109 120.362 106.037 120.41 105.997C120.458 105.958 120.512 105.943 120.561 105.945L120.52 106.944C120.883 106.959 121.295 106.699 121.31 106.239L120.31 106.208ZM120.554 105.944C120.601 105.946 120.654 105.964 120.7 106.007C120.747 106.051 120.789 106.127 120.786 106.221L119.787 106.19C119.773 106.65 120.164 106.934 120.527 106.944L120.554 105.944ZM120.786 106.221C120.783 106.32 120.734 106.392 120.686 106.432C120.639 106.471 120.584 106.486 120.536 106.484L120.576 105.485C120.213 105.47 119.801 105.73 119.787 106.19L120.786 106.221ZM120.542 106.484C120.496 106.483 120.442 106.465 120.396 106.422C120.349 106.377 120.307 106.302 120.31 106.208L121.31 106.238C121.324 105.779 120.933 105.495 120.57 105.485L120.542 106.484Z" fill="#111827" mask="url(#path-133-inside-10_226_1523)"/>
<path d="M123.96 106.549C123.96 106.547 123.959 106.545 123.959 106.543H123.96H123.964H123.965C123.965 106.546 123.964 106.549 123.963 106.551C123.963 106.552 123.963 106.554 123.962 106.555C123.961 106.553 123.961 106.551 123.96 106.549ZM123.966 106.535L123.964 106.535L123.961 106.535L123.958 106.535C123.959 106.534 123.959 106.533 123.959 106.533C123.959 106.528 123.96 106.524 123.961 106.519C123.962 106.518 123.962 106.516 123.963 106.515C123.963 106.517 123.964 106.518 123.964 106.52C123.965 106.524 123.966 106.528 123.966 106.533C123.966 106.534 123.966 106.534 123.966 106.535Z" fill="#636368" stroke="#111827" stroke-width="0.5"/>
<mask id="path-136-inside-11_226_1523" fill="white">
<path d="M128.242 100.078C128.238 100.214 128.109 100.319 127.955 100.315C127.8 100.311 127.681 100.196 127.685 100.062C127.689 99.9261 127.818 99.8216 127.972 99.8255C128.127 99.8295 128.246 99.9439 128.242 100.078Z"/>
</mask>
<path d="M128.242 100.078C128.238 100.214 128.109 100.319 127.955 100.315C127.8 100.311 127.681 100.196 127.685 100.062C127.689 99.9261 127.818 99.8216 127.972 99.8255C128.127 99.8295 128.246 99.9439 128.242 100.078Z" fill="#636368"/>
<path d="M128.242 100.078L127.742 100.063L127.742 100.064L128.242 100.078ZM127.685 100.062L128.185 100.077L128.185 100.077L127.685 100.062ZM127.742 100.064C127.745 99.9698 127.792 99.8999 127.838 99.8622C127.882 99.8258 127.929 99.8138 127.967 99.8148L127.942 100.814C128.302 100.824 128.728 100.569 128.742 100.092L127.742 100.064ZM127.967 99.8148C128.011 99.8159 128.061 99.833 128.104 99.8736C128.147 99.9146 128.188 99.9858 128.185 100.077L127.185 100.048C127.172 100.51 127.565 100.805 127.942 100.814L127.967 99.8148ZM128.185 100.077C128.182 100.17 128.135 100.24 128.089 100.278C128.045 100.314 127.998 100.326 127.959 100.325L127.985 99.3257C127.625 99.3165 127.199 99.5716 127.185 100.048L128.185 100.077ZM127.959 100.325C127.916 100.324 127.866 100.307 127.823 100.267C127.78 100.226 127.739 100.154 127.742 100.063L128.742 100.093C128.755 99.6301 128.362 99.3353 127.985 99.3257L127.959 100.325Z" fill="#111827" mask="url(#path-136-inside-11_226_1523)"/>
<path d="M132.353 98.4839C132.362 98.4842 132.37 98.486 132.376 98.4883C132.369 98.491 132.36 98.493 132.349 98.4929C132.339 98.4924 132.331 98.4905 132.325 98.4881C132.332 98.4855 132.342 98.4836 132.353 98.4839Z" fill="#636368" stroke="#111827" stroke-width="0.5"/>
<mask id="path-139-inside-12_226_1523" fill="white">
<path d="M121.646 109.105C121.642 109.229 121.523 109.326 121.382 109.322C121.242 109.318 121.13 109.213 121.134 109.089C121.138 108.965 121.257 108.868 121.398 108.872C121.538 108.876 121.65 108.98 121.646 109.105Z"/>
</mask>
<path d="M121.646 109.105C121.642 109.229 121.523 109.326 121.382 109.322C121.242 109.318 121.13 109.213 121.134 109.089C121.138 108.965 121.257 108.868 121.398 108.872C121.538 108.876 121.65 108.98 121.646 109.105Z" fill="#636368"/>
<path d="M121.146 109.089C121.149 108.988 121.2 108.914 121.248 108.874C121.296 108.835 121.349 108.82 121.396 108.822L121.368 109.821C121.717 109.831 122.131 109.583 122.146 109.12L121.146 109.089ZM121.396 108.822C121.446 108.823 121.5 108.842 121.546 108.886C121.593 108.93 121.637 109.007 121.634 109.105L120.634 109.073C120.62 109.53 121.011 109.811 121.368 109.821L121.396 108.822ZM121.634 109.105C121.631 109.205 121.58 109.279 121.532 109.319C121.484 109.358 121.431 109.373 121.384 109.372L121.412 108.372C121.063 108.362 120.649 108.611 120.634 109.073L121.634 109.105ZM121.384 109.372C121.334 109.37 121.28 109.351 121.234 109.308C121.187 109.264 121.143 109.187 121.146 109.089L122.146 109.12C122.16 108.663 121.769 108.382 121.412 108.372L121.384 109.372Z" fill="#111827" mask="url(#path-139-inside-12_226_1523)"/>
<path d="M105.695 118.204C105.961 118.149 106.262 118.079 106.593 117.991C107.886 117.647 109.632 117.022 111.446 115.896C114.603 113.936 117.952 110.469 119.485 104.373L119.11 121.49L105.695 118.204Z" fill="#56565B" stroke="#111827" stroke-width="0.5"/>
<path d="M183.953 94.2972L208.8 83.6112L208.9 83.5682L208.892 83.7812L183.953 94.2972Z" fill="#3B3E3F" stroke="#111827" stroke-width="0.5"/>
<path d="M215.184 101.061L215.178 101.064L215.182 100.925L215.184 100.854V101.061Z" fill="#3B3E3F" stroke="#111827" stroke-width="0.5"/>
<g style="mix-blend-mode:multiply" opacity="0.09">
<path d="M127.004 122.437L127.001 122.275L126.852 122.211L122.976 120.543L209.19 84.198L215.184 84.031V101.06L127.266 143.116L127.004 122.437Z" fill="#AAA59B"/>
<path d="M127.004 122.437L127.001 122.275L126.852 122.211L122.976 120.543L209.19 84.198L215.184 84.031V101.06L127.266 143.116L127.004 122.437Z" stroke="#111827" stroke-width="0.5"/>
</g>
</g>
<defs>
<clipPath id="clip0_226_1523">
<rect width="147" height="88" fill="white" transform="translate(68.4336 56)"/>
</clipPath>
</defs>
</svg>
