<svg width="286" height="200" viewBox="0 0 286 200" fill="none" xmlns="http://www.w3.org/2000/svg">
<g opacity="0.3">
<path d="M170.973 140.201L160.578 147.441L160.512 147.345L149.123 142.076L149.057 141.981L148.063 129.472L158.457 122.232L158.524 122.328L169.945 127.644L170.012 127.74L171.006 140.249L170.973 140.201ZM160.565 146.811L170.482 139.904L169.45 127.848L158.5 122.7L148.582 129.608L149.615 141.663L160.565 146.811Z" fill="#006380"/>
<path d="M197.029 119.355L188.732 125.134L188.666 125.038L179.558 120.807L179.491 120.712L178.68 110.702L186.976 104.923L187.043 105.019L196.151 109.25L196.217 109.346L197.029 119.355ZM188.69 124.667L196.605 119.154L195.769 109.516L187.019 105.391L179.104 110.904L179.939 120.542L188.69 124.667Z" fill="#006380"/>
<path d="M194.98 153.217L186.206 159.327L186.14 159.232L176.494 154.737L176.428 154.641L175.555 144.035L184.328 137.924L184.395 138.02L194.041 142.515L194.107 142.611L194.98 153.217ZM186.131 158.812L194.523 152.967L193.659 142.781L184.404 138.44L176.012 144.285L176.876 154.471L186.131 158.812Z" fill="#006380"/>
<path d="M193.856 175.291L188.754 178.845L183.213 176.175L182.63 170.052L187.732 166.498L193.273 169.168L193.856 175.291ZM188.812 178.521L193.628 175.167L193.13 169.268L187.769 166.756L182.954 170.11L183.451 176.009L188.812 178.521Z" fill="#006380"/>
<path d="M168.377 165.856L164.086 168.845L159.392 166.578L158.893 161.39L163.185 158.401L167.879 160.667L168.377 165.856ZM164.048 168.587L168.149 165.731L167.736 160.766L163.222 158.658L159.122 161.514L159.535 166.479L164.048 168.587Z" fill="#006380"/>
<path d="M209.233 137.895L204.322 141.316L198.928 138.756L198.398 132.809L203.309 129.389L208.703 131.948L209.233 137.895ZM204.332 141.025L209.005 137.77L208.512 132.081L203.346 129.646L198.674 132.901L199.167 138.59L204.332 141.025Z" fill="#006380"/>
<path d="M208.896 119.109L203.984 122.53L198.59 119.971L198.06 114.024L202.971 110.603L208.365 113.163L208.896 119.109ZM203.947 122.273L208.619 119.018L208.126 113.329L202.961 110.894L198.288 114.149L198.781 119.838L203.947 122.273Z" fill="#006380"/>
<path d="M188.488 92.6568L183.005 96.4761L176.992 93.638L176.414 87.014L181.897 83.1948L187.91 86.0328L188.488 92.6568ZM182.981 96.1375L188.178 92.5175L187.672 86.1989L181.921 83.5333L176.724 87.1533L177.23 93.472L182.981 96.1375Z" fill="#006380"/>
<path d="M147.925 95.9276L144.873 98.0531L141.517 96.4875L141.212 92.7964L144.263 90.6709L147.62 92.2365L147.925 95.9276ZM144.902 97.8911L147.811 95.8653L147.524 92.303L144.282 90.7997L141.374 92.8256L141.66 96.3879L144.902 97.8911Z" fill="#006380"/>
<path d="M137.637 123.959L133.25 127.015L128.475 124.734L127.991 119.464L132.378 116.409L137.153 118.689L137.637 123.959ZM133.26 126.724L137.409 123.834L136.977 118.741L132.349 116.571L128.201 119.46L128.633 124.553L133.26 126.724Z" fill="#006380"/>
<path d="M135.906 144.044L131.09 147.398L125.858 144.868L125.299 139.083L130.114 135.728L135.347 138.259L135.906 144.044ZM131.1 147.107L135.63 143.952L135.156 138.391L130.105 136.019L125.575 139.174L126.049 144.735L131.1 147.107Z" fill="#006380"/>
<path d="M170.877 107.124L163.677 112.138L155.821 108.384L155.755 108.288L155.037 99.6325L162.237 94.6177L170.092 98.3726L170.159 98.4682L170.877 107.124ZM163.635 111.671L170.453 106.922L169.758 98.6051L162.198 95.0705L155.38 99.8196L156.074 108.137L163.635 111.671Z" fill="#006380"/>
<path d="M148.505 129.803L137.38 123.996L137.518 123.687L148.644 129.493L148.505 129.803Z" fill="#006380"/>
<path d="M155.251 99.8381L147.715 95.9318L147.839 95.7033L155.375 99.6097L155.251 99.8381Z" fill="#006380"/>
<path d="M179.601 120.564L169.302 127.738L169.502 128.024L179.801 120.851L179.601 120.564Z" fill="#006380"/>
<path d="M163.351 158.639L163.046 158.71L160.388 146.863L160.693 146.793L163.351 158.639Z" fill="#006380"/>
<path d="M176.6 154.379L167.636 160.623L167.835 160.91L176.799 154.666L176.6 154.379Z" fill="#006380"/>
<path d="M187.898 166.737L187.593 166.808L186.007 159.041L186.36 158.937L187.898 166.737Z" fill="#006380"/>
<path d="M179.042 111.018L170.538 107.146L170.677 106.837L179.166 110.789L179.042 111.018Z" fill="#006380"/>
<path d="M177.016 93.2662L169.721 98.3474L169.92 98.6341L177.216 93.5529L177.016 93.2662Z" fill="#006380"/>
<path d="M119.65 74.9545L109.256 82.1944L109.189 82.0988L97.8007 76.8301L97.7341 76.7346L96.7401 64.226L107.134 56.9861L107.201 57.0817L118.623 62.3981L118.689 62.4937L119.683 75.0023L119.65 74.9545ZM109.275 81.6128L119.193 74.705L118.16 62.6492L107.21 57.5012L97.2925 64.409L98.3252 76.4648L109.275 81.6128Z" fill="#006380"/>
<path d="M145.739 54.1567L137.443 59.9353L137.376 59.8398L128.268 55.6086L128.202 55.513L127.39 45.5033L135.687 39.7246L135.753 39.8202L144.861 44.0513L144.928 44.1469L145.739 54.1567ZM137.4 59.468L145.315 53.955L144.48 44.317L135.729 40.192L127.814 45.7049L128.65 55.3429L137.4 59.468Z" fill="#006380"/>
<path d="M143.657 87.9704L134.884 94.0811L134.818 93.9855L125.172 89.4904L125.105 89.3948L124.233 78.7889L133.006 72.6781L133.073 72.7737L142.718 77.2689L142.785 77.3645L143.657 87.9704ZM134.842 93.6138L143.234 87.7687L142.37 77.5824L133.115 73.2411L124.723 79.0861L125.587 89.2725L134.842 93.6138Z" fill="#006380"/>
<path d="M142.533 110.045L137.432 113.598L131.89 110.929L131.307 104.805L136.409 101.252L141.951 103.921L142.533 110.045ZM137.489 113.274L142.305 109.92L141.807 104.021L136.447 101.509L131.631 104.864L132.128 110.763L137.489 113.274Z" fill="#006380"/>
<path d="M117.054 100.609L112.763 103.598L108.069 101.332L107.571 96.1432L111.862 93.1543L116.556 95.4205L117.054 100.609ZM112.725 103.341L116.826 100.485L116.413 95.5201L111.9 93.4119L107.799 96.268L108.212 101.232L112.725 103.341Z" fill="#006380"/>
<path d="M157.911 72.6482L153 76.0689L147.605 73.5095L147.075 67.5626L151.986 64.1419L157.38 66.7013L157.911 72.6482ZM153.01 75.7781L157.682 72.5235L157.189 66.8342L152.024 64.3995L147.351 67.6541L147.844 73.3435L153.01 75.7781Z" fill="#006380"/>
<path d="M157.559 53.9441L152.648 57.3648L147.253 54.8054L146.723 48.8585L151.634 45.4378L157.028 47.9972L157.559 53.9441ZM152.657 57.074L157.33 53.8194L156.837 48.1301L151.672 45.6954L146.999 48.95L147.492 54.6394L152.657 57.074Z" fill="#006380"/>
<path d="M137.165 27.4103L131.682 31.2295L125.669 28.3914L125.091 21.7674L130.575 17.9482L136.588 20.7862L137.165 27.4103ZM131.692 30.9387L136.889 27.3187L136.383 21.0001L130.631 18.3345L125.434 21.9545L125.941 28.2732L131.692 30.9387Z" fill="#006380"/>
<path d="M96.6352 30.7291L93.5837 32.8546L90.2272 31.289L89.9223 27.5979L92.9738 25.4724L96.3303 27.038L96.6352 30.7291ZM93.5315 32.678L96.44 30.6522L96.154 27.0899L92.945 25.6344L90.0365 27.6603L90.3226 31.2226L93.5648 32.7258L93.5315 32.678Z" fill="#006380"/>
<path d="M86.3475 58.7605L81.9609 61.8158L77.1857 59.535L76.7018 54.2653L81.0884 51.2099L85.8636 53.4907L86.3475 58.7605ZM81.9708 61.5251L86.119 58.6357L85.6872 53.5426L81.0596 51.3719L76.9114 54.2612L77.3432 59.3544L81.9708 61.5251Z" fill="#006380"/>
<path d="M84.6166 78.8448L79.8009 82.1991L74.5687 79.6688L74.0092 73.8839L78.8249 70.5296L84.0571 73.0599L84.6166 78.8448ZM79.8108 81.9083L84.3404 78.7533L83.8664 73.1928L78.815 70.8204L74.2854 73.9754L74.7594 79.536L79.8108 81.9083Z" fill="#006380"/>
<path d="M119.554 41.8771L112.354 46.8919L104.499 43.137L104.432 43.0414L103.714 34.3859L110.914 29.3711L118.769 33.126L118.836 33.2216L119.554 41.8771ZM112.345 46.4723L119.163 41.7232L118.469 33.4063L110.909 29.8717L104.09 34.6208L104.785 42.9377L112.345 46.4723Z" fill="#006380"/>
<path d="M97.1829 64.5564L86.0573 58.7499L86.2291 58.4882L97.3547 64.2948L97.1829 64.5564Z" fill="#006380"/>
<path d="M103.962 34.6396L96.3923 30.6854L96.5164 30.457L104.086 34.4112L103.962 34.6396Z" fill="#006380"/>
<path d="M128.312 55.3656L118.013 62.5391L118.212 62.8258L128.511 55.6523L128.312 55.3656Z" fill="#006380"/>
<path d="M112.028 93.3931L111.723 93.4636L109.066 81.6168L109.404 81.5942L112.028 93.3931Z" fill="#006380"/>
<path d="M125.262 89.2142L116.298 95.4578L116.498 95.7445L125.462 89.5009L125.262 89.2142Z" fill="#006380"/>
<path d="M136.608 101.538L136.303 101.609L134.684 93.7943L135.022 93.7716L136.608 101.538Z" fill="#006380"/>
<path d="M127.752 45.8191L119.249 41.9476L119.387 41.6381L127.843 45.5429L127.752 45.8191Z" fill="#006380"/>
<path d="M125.726 28.0677L118.431 33.1489L118.631 33.4357L125.926 28.3544L125.726 28.0677Z" fill="#006380"/>
</g>
<path d="M159.902 117.676C158.408 120.529 156.863 123.332 155.325 126.153C155.184 126.415 155.561 126.638 155.727 126.383C157.495 123.715 159.084 120.893 160.534 118.04C160.744 117.618 160.119 117.255 159.902 117.669V117.676ZM156.429 120.363C154.565 123.23 152.637 126.44 151.348 129.619C151.277 129.798 151.565 129.907 151.667 129.747C153.448 126.753 155.395 123.798 156.965 120.683C157.137 120.325 156.646 120.031 156.429 120.363ZM190.089 93.8972C172.483 111.631 158.97 132.856 142.321 151.426C145.373 142.738 148.558 134.088 151.884 125.508C155.254 116.827 159.091 108.305 162.289 99.5594C166.834 98.9146 171.328 97.5933 175.828 96.6549C180.425 95.7037 185.059 94.9696 189.655 94.0312C189.776 94.0057 189.859 93.9355 189.923 93.8589C189.981 93.8844 190.032 93.9036 190.089 93.9036V93.8972Z" fill="#99CAE7"/>
<path d="M172.279 77.4341C177.016 83.1346 182.621 88.7266 188.704 93.0291C184.478 93.6036 180.278 94.4654 176.097 95.3335C171.418 96.3102 166.49 97.1528 161.996 98.8125C163.802 95.4548 165.238 91.88 166.777 88.3946C168.354 84.8262 169.611 80.5301 172.216 77.5554C172.248 77.5171 172.267 77.4788 172.279 77.4405V77.4341Z" fill="#99CAE7"/>
<path d="M160.444 98.8956C154.265 95.857 147.837 93.2653 141.472 90.5523C142.57 90.048 143.668 89.5437 144.766 89.0586C153.275 85.3242 161.868 81.7622 170.492 78.2896C168.634 81.0217 167.543 84.3539 166.247 87.335C164.574 91.1651 162.742 94.9633 161.414 98.9275C161.102 98.9275 160.795 98.9211 160.489 98.9211C160.476 98.9148 160.47 98.902 160.45 98.8956H160.444Z" fill="#99CAE7"/>
<path d="M157.891 98.9083C145.737 98.8572 133.48 98.8445 121.377 99.6233C127.741 97.2677 133.908 94.1206 140.1 91.2034C145.947 93.9291 151.858 96.6868 157.891 98.9083Z" fill="#3395D0"/>
<path d="M128.539 80.262C128.29 80.1471 128.073 80.4855 128.322 80.6387C130.799 82.1324 133.55 83.5049 136.302 84.4305C136.653 84.5454 136.895 83.9836 136.55 83.8241C133.901 82.5984 131.201 81.4685 128.539 80.262ZM132.395 83.7666C130.109 82.7197 127.626 81.9218 125.245 81.1494C125.054 81.0855 124.907 81.3983 125.105 81.4877C127.416 82.4644 129.809 83.4921 132.21 84.2071C132.459 84.2837 132.644 83.8815 132.395 83.773V83.7666ZM134.935 87.6797C127.148 84.1177 119.5 80.0769 111.584 76.7958C111.527 76.7 111.47 76.6043 111.412 76.5085C116.5 76.3106 121.3 73.1699 126.222 72.0273C126.382 71.989 126.49 71.8996 126.554 71.7911C136.876 73.2274 147.549 72.921 157.891 71.9826C158.095 71.9634 158.242 71.8613 158.331 71.7336C162.595 73.4572 166.911 75.0786 171.175 76.8022C162.678 80.1408 154.239 83.6517 145.87 87.2967C143.892 88.1585 141.874 89.0075 139.844 89.8565C138.197 89.1479 136.563 88.4266 134.942 87.6797H134.935Z" fill="#3395D0"/>
<path d="M119.947 100.913C120.228 100.932 120.515 100.734 120.439 100.409C134.042 100.606 147.703 100.102 161.319 100C157.438 107.979 154.31 116.387 151.093 124.634C147.652 133.443 144.39 142.316 141.256 151.241C141.249 151.196 141.249 151.158 141.23 151.119C137.636 142.661 134.1 134.171 130.518 125.713C127.039 117.491 124.014 108.873 119.954 100.913H119.947Z" fill="#3395D0"/>
<path d="M112.051 77.6001C119.551 81.9664 127.678 85.4838 135.542 89.0968C136.512 89.5373 137.476 89.9905 138.453 90.4374C132.146 93.0802 125.769 95.8251 120.062 99.3424C117.445 92.1673 115.798 84.29 112.051 77.6001Z" fill="#3395D0"/>
<path d="M119.373 100.562C122.105 109.467 126.235 118.104 129.797 126.709C133.04 134.522 136.366 142.31 139.71 150.072C135.702 146.44 132.338 142.189 128.922 137.988C125.016 133.207 121.147 128.394 117.311 123.542C109.478 113.648 102.048 103.428 94.0938 93.6292C102.048 96.9167 110.895 98.6466 119.245 100.549C119.29 100.562 119.328 100.562 119.373 100.562ZM123.298 115.595C122.086 114.025 121 112.531 120.202 110.705C120.132 110.546 119.864 110.66 119.922 110.82C120.496 112.678 121.434 114.58 122.807 115.984C123.049 116.227 123.528 115.889 123.305 115.595H123.298ZM120.611 108.771C120.483 108.592 120.215 108.739 120.311 108.937C120.751 109.792 121.23 110.635 121.651 111.497C122.079 112.352 122.392 113.278 122.864 114.114C122.979 114.312 123.298 114.178 123.241 113.954C122.788 112.154 121.69 110.258 120.611 108.765V108.771Z" fill="#3395D0"/>
<path d="M110.895 76.9299C113.838 84.2837 116.175 91.8099 118.977 99.2084C110.678 97.3189 102.495 94.6059 94.1514 92.9909C99.9923 87.9607 105.348 82.2921 110.838 76.8916C110.857 76.9044 110.876 76.9171 110.895 76.9299Z" fill="#3395D0"/>
<path d="M155.324 126.16C156.863 123.332 158.408 120.529 159.901 117.682C160.118 117.261 160.744 117.631 160.533 118.053C159.084 120.906 157.495 123.734 155.726 126.396C155.567 126.645 155.184 126.428 155.324 126.166V126.16Z" fill="#414056"/>
<path d="M156.429 120.363C156.646 120.025 157.138 120.325 156.965 120.683C155.395 123.798 153.448 126.753 151.667 129.747C151.571 129.907 151.277 129.798 151.348 129.62C152.631 126.447 154.559 123.23 156.429 120.363Z" fill="#414056"/>
<path d="M136.295 84.4305C133.544 83.4985 130.799 82.126 128.316 80.6387C128.073 80.4919 128.284 80.1472 128.533 80.2621C131.195 81.4685 133.895 82.5984 136.544 83.8241C136.889 83.9837 136.64 84.5454 136.295 84.4305Z" fill="#414056"/>
<path d="M125.099 81.4812C124.907 81.3982 125.048 81.0791 125.239 81.1429C127.62 81.9153 130.103 82.7196 132.389 83.7602C132.631 83.8687 132.452 84.2708 132.203 84.1942C129.803 83.4857 127.409 82.4515 125.099 81.4748V81.4812Z" fill="#414056"/>
<path d="M120.611 108.771C121.696 110.265 122.794 112.161 123.241 113.961C123.299 114.184 122.986 114.325 122.865 114.12C122.392 113.284 122.079 112.358 121.652 111.503C121.224 110.641 120.745 109.799 120.311 108.943C120.215 108.745 120.477 108.592 120.611 108.777V108.771Z" fill="#414056"/>
<path d="M120.203 110.699C121 112.524 122.086 114.025 123.299 115.588C123.522 115.876 123.05 116.22 122.801 115.978C121.428 114.58 120.49 112.671 119.915 110.814C119.864 110.654 120.126 110.539 120.196 110.699H120.203Z" fill="#414056"/>
<path d="M126.388 71.0697C136.94 71.4017 147.345 71.7272 157.891 70.8208C158.14 70.7952 158.306 70.9165 158.382 71.0825L158.331 71.7272C158.242 71.8549 158.101 71.9571 157.891 71.9762C147.543 72.9146 136.87 73.221 126.554 71.7847C126.497 71.8932 126.388 71.9826 126.222 72.0209C121.3 73.1635 116.494 76.2979 111.412 76.5021L111.208 75.9021C116.04 74.2551 120.937 72.0017 125.928 70.9612C126.114 70.9229 126.267 70.9676 126.388 71.0634V71.0697Z" fill="#414056"/>
<path d="M140.1 91.2034C133.908 94.1207 127.741 97.2677 121.377 99.6233C133.487 98.8445 145.737 98.8572 157.891 98.9083C151.858 96.6868 145.947 93.9292 140.1 91.2034ZM135.542 89.0968C127.677 85.4901 119.551 81.9728 112.051 77.6001C115.791 84.29 117.438 92.1673 120.062 99.3424C125.775 95.8251 132.152 93.0801 138.453 90.4374C137.476 89.9841 136.512 89.5309 135.542 89.0968ZM94.0937 93.6291C102.054 103.428 109.478 113.648 117.311 123.542C121.147 128.387 125.016 133.201 128.922 137.988C132.344 142.182 135.708 146.434 139.71 150.072C136.365 142.31 133.04 134.528 129.797 126.709C126.235 118.104 122.105 109.473 119.373 100.562C119.328 100.562 119.29 100.562 119.245 100.549C110.895 98.6466 102.048 96.9167 94.0937 93.6291ZM110.838 76.8915C105.348 82.292 99.9921 87.9669 94.1512 92.9908C102.494 94.6058 110.678 97.3124 118.977 99.2083C116.174 91.8098 113.838 84.2836 110.895 76.9298C110.876 76.917 110.857 76.9043 110.838 76.8915ZM161.989 98.8062C166.483 97.1465 171.411 96.3038 176.09 95.3272C180.271 94.4654 184.472 93.5972 188.698 93.0227C182.614 88.7266 177.009 83.1282 172.273 77.4277C172.26 77.466 172.241 77.5043 172.209 77.5426C169.605 80.5173 168.341 84.8135 166.77 88.3819C165.225 91.8673 163.796 95.4421 161.989 98.7998V98.8062ZM151.086 124.634C154.303 116.386 157.438 107.979 161.312 99.9999C147.703 100.102 134.042 100.606 120.432 100.408C120.509 100.734 120.228 100.932 119.941 100.913C124.001 108.879 127.026 117.491 130.505 125.713C134.087 134.171 137.623 142.661 141.217 151.119C141.236 151.158 141.236 151.196 141.242 151.241C144.37 142.316 147.639 133.443 151.08 124.634H151.086ZM170.485 78.2895C161.861 81.7621 153.275 85.3242 144.76 89.0585C143.662 89.5437 142.564 90.048 141.466 90.5523C147.83 93.2717 154.265 95.857 160.438 98.8956C160.457 98.9019 160.463 98.9147 160.476 98.9211C160.783 98.9211 161.089 98.9275 161.402 98.9275C162.729 94.9633 164.562 91.1651 166.234 87.335C167.53 84.3539 168.621 81.0153 170.479 78.2895H170.485ZM190.37 92.9142C190.632 93.1057 190.645 93.4249 190.517 93.6419C190.996 93.5972 191.449 94.21 191.015 94.6441C182.104 103.619 174.22 113.514 166.489 123.504C162.551 128.585 158.65 133.686 154.622 138.697C150.754 143.516 146.911 148.534 142.187 152.556C141.996 152.715 141.76 152.626 141.67 152.46C141.504 152.492 141.319 152.447 141.191 152.351C141.006 152.447 140.757 152.453 140.553 152.287C135.797 148.374 131.98 143.548 128.112 138.805C124.071 133.858 120.075 128.879 116.123 123.874C108.329 113.993 100.381 104.13 93.3532 93.693C93.2702 93.5781 93.3085 93.4504 93.3851 93.3546C93.2511 93.2653 93.1872 93.0738 93.3341 92.9014C98.626 86.9328 104.639 81.5132 110.333 75.9212C110.576 75.6786 110.895 75.7616 111.074 75.9531C111.119 75.9404 111.157 75.9212 111.202 75.9084L111.406 76.5085C111.463 76.6042 111.521 76.7 111.578 76.7957C119.487 80.0769 127.135 84.1113 134.929 87.6797C136.557 88.4202 138.191 89.1479 139.832 89.8565C141.862 89.0075 143.879 88.1584 145.858 87.2967C154.227 83.6517 162.666 80.1407 171.162 76.8021C166.898 75.0786 162.583 73.4572 158.318 71.7336L158.37 71.0889C163.017 71.7974 167.926 73.6295 171.998 75.9659C172.241 76.0999 172.286 76.3872 172.215 76.617C172.273 76.617 172.343 76.6362 172.407 76.6872C178.618 81.9217 183.763 88.0563 190.351 92.9142H190.37ZM142.321 151.426C158.97 132.856 172.484 111.631 190.089 93.8972C190.032 93.8972 189.981 93.8781 189.923 93.8526C189.86 93.9292 189.777 93.9994 189.655 94.0249C185.059 94.9697 180.425 95.7038 175.828 96.6485C171.328 97.5869 166.834 98.9083 162.289 99.5531C159.097 108.298 155.254 116.821 151.884 125.502C148.552 134.088 145.373 142.731 142.321 151.419V151.426Z" fill="#414056"/>
<mask id="path-58-inside-1_226_1748" fill="white">
<path d="M114.126 143.877C114.197 143.798 114.265 143.717 114.332 143.635C114.382 143.573 114.431 143.51 114.478 143.447C114.494 143.425 114.51 143.404 114.526 143.383C114.588 143.297 114.649 143.21 114.707 143.121C114.722 143.099 114.737 143.077 114.751 143.054C114.78 143.01 114.808 142.965 114.836 142.919C114.863 142.874 114.891 142.828 114.917 142.782C114.957 142.713 114.996 142.642 115.033 142.572C115.083 142.478 115.131 142.382 115.176 142.285C115.199 142.236 115.221 142.187 115.242 142.138C115.307 141.991 115.366 141.841 115.42 141.688C115.438 141.637 115.456 141.586 115.473 141.535C115.489 141.483 115.505 141.431 115.521 141.379C115.536 141.327 115.551 141.275 115.565 141.222C115.587 141.143 115.607 141.064 115.625 140.984C115.693 140.691 115.742 140.39 115.769 140.083C115.774 140.028 115.778 139.972 115.782 139.916C115.791 139.775 115.795 139.634 115.795 139.491C115.795 138.863 115.708 138.257 115.544 137.681C115.529 137.629 115.513 137.577 115.497 137.525C115.425 137.292 115.339 137.065 115.243 136.844C115.221 136.795 115.199 136.746 115.176 136.698C115.154 136.649 115.131 136.601 115.107 136.553C115.083 136.506 115.058 136.458 115.034 136.411C114.971 136.293 114.905 136.177 114.836 136.064C114.808 136.018 114.78 135.973 114.751 135.928C114.737 135.906 114.722 135.884 114.708 135.862C114.664 135.795 114.619 135.73 114.573 135.665C114.557 135.643 114.542 135.622 114.526 135.6C114.495 135.557 114.463 135.515 114.431 135.473C114.366 135.389 114.299 135.307 114.231 135.226C114.171 135.156 114.11 135.087 114.048 135.019C114.029 134.999 114.011 134.979 113.992 134.959C113.965 134.93 113.937 134.902 113.91 134.873C113.892 134.855 113.873 134.836 113.854 134.817C113.751 134.714 113.643 134.614 113.533 134.517C113.507 134.494 113.48 134.471 113.453 134.449C113.303 134.321 113.146 134.201 112.985 134.087C112.955 134.066 112.925 134.045 112.894 134.024C112.653 133.86 112.4 133.712 112.137 133.58C112.118 133.57 112.098 133.56 112.078 133.551C112.053 133.539 112.028 133.527 112.003 133.515C111.984 133.506 111.965 133.497 111.945 133.488C111.544 133.303 111.12 133.156 110.68 133.054L110.647 133.046C110.171 132.938 109.676 132.881 109.168 132.881H109.167C106.839 132.881 104.791 134.079 103.609 135.89L90.1614 129.062C90.1909 129.011 90.2198 128.96 90.2481 128.909C90.2858 128.841 90.3225 128.772 90.3586 128.703C90.4126 128.599 90.4647 128.495 90.515 128.389C90.9511 127.472 91.2463 126.476 91.3731 125.428C91.3847 125.332 91.3948 125.236 91.4036 125.14C91.408 125.091 91.412 125.043 91.4155 124.994C91.4174 124.97 91.4189 124.946 91.4208 124.922C91.4274 124.825 91.4324 124.727 91.4362 124.629C91.4381 124.58 91.4397 124.531 91.4406 124.482C91.4422 124.408 91.4431 124.334 91.4431 124.26C91.4431 123.594 91.3756 122.944 91.2466 122.316C91.2425 122.297 91.2384 122.277 91.2343 122.258C91.201 122.101 91.1643 121.946 91.1235 121.792C91.1081 121.734 91.0924 121.677 91.0761 121.62C90.9621 121.219 90.8227 120.829 90.6597 120.452C90.6443 120.416 90.6286 120.38 90.6126 120.345C90.5966 120.309 90.5806 120.273 90.5643 120.238C90.5071 120.113 90.4472 119.991 90.385 119.87C90.3671 119.835 90.3492 119.8 90.331 119.766C90.3037 119.714 90.276 119.663 90.2478 119.612C90.2101 119.544 90.1718 119.476 90.1325 119.409C90.0933 119.342 90.0534 119.276 90.0126 119.209C89.9922 119.177 89.9718 119.144 89.9507 119.111C89.93 119.078 89.909 119.045 89.8879 119.013C89.8669 118.98 89.8456 118.948 89.8239 118.916C89.7916 118.868 89.7589 118.819 89.7256 118.772C89.7036 118.74 89.6813 118.708 89.6587 118.677C89.6361 118.645 89.6135 118.614 89.5909 118.583C89.5108 118.473 89.4289 118.366 89.3444 118.26C89.2961 118.2 89.2474 118.14 89.1978 118.081C89.1356 118.007 89.0725 117.933 89.0085 117.861C88.6964 117.511 88.3591 117.183 87.9996 116.881L97.3724 103.941L97.3878 103.947L97.4305 103.964L97.4594 103.975C97.4745 103.981 97.4899 103.987 97.5049 103.993L97.5316 104.003C97.548 104.009 97.564 104.015 97.5803 104.021L97.6104 104.032C97.6249 104.037 97.6396 104.042 97.6544 104.047L97.6902 104.06L97.7304 104.074L97.7652 104.085L97.8061 104.099L97.8415 104.11L97.883 104.123L97.9194 104.134L97.9593 104.147L97.997 104.158L98.0365 104.169L98.0745 104.18L98.1144 104.191L98.1511 104.201L98.1919 104.211L98.2306 104.221L98.2698 104.231L98.3094 104.24L98.3486 104.25L98.3876 104.258L98.4281 104.268L98.4667 104.276L98.5078 104.285L98.5461 104.293L98.5879 104.301L98.6252 104.308L98.6683 104.316L98.7056 104.322L98.7483 104.33L98.7869 104.336L98.8275 104.343L98.8683 104.349L98.9097 104.355L98.9483 104.36L98.992 104.366L99.0303 104.371L99.0739 104.377L99.1119 104.381C99.1267 104.382 99.1418 104.384 99.1565 104.386L99.1942 104.39C99.2093 104.391 99.2243 104.392 99.2394 104.394L99.2768 104.397C99.2918 104.399 99.3069 104.4 99.322 104.401L99.3597 104.404C99.375 104.406 99.3901 104.407 99.4055 104.408L99.4426 104.41C99.4579 104.411 99.4736 104.412 99.489 104.413L99.5258 104.414C99.5415 104.415 99.5568 104.416 99.5725 104.417L99.6096 104.418C99.6269 104.419 99.6441 104.419 99.6617 104.42L99.6928 104.421C99.712 104.421 99.7311 104.421 99.7503 104.422L99.7773 104.422C99.8052 104.423 99.8335 104.423 99.8614 104.423C100.033 104.423 100.203 104.416 100.371 104.403C100.736 104.376 101.093 104.319 101.438 104.235C101.465 104.228 101.491 104.222 101.518 104.215C101.597 104.194 101.676 104.172 101.754 104.149C101.78 104.141 101.807 104.134 101.833 104.125C101.884 104.109 101.936 104.092 101.987 104.075C102.167 104.015 102.343 103.947 102.516 103.871C102.54 103.861 102.565 103.85 102.589 103.839C102.687 103.795 102.784 103.748 102.879 103.7C102.903 103.687 102.927 103.675 102.95 103.663C102.998 103.638 103.045 103.612 103.091 103.586C103.161 103.547 103.23 103.507 103.299 103.466C103.344 103.438 103.389 103.41 103.434 103.381C103.546 103.309 103.656 103.235 103.763 103.157C103.785 103.141 103.806 103.125 103.827 103.109C103.864 103.081 103.901 103.054 103.938 103.025C104.014 102.966 104.088 102.905 104.161 102.843C104.194 102.815 104.227 102.787 104.259 102.758C104.299 102.723 104.338 102.687 104.377 102.651C104.416 102.615 104.454 102.578 104.492 102.542C104.549 102.486 104.605 102.43 104.66 102.373C104.696 102.335 104.733 102.296 104.768 102.257C104.786 102.237 104.804 102.217 104.821 102.198C104.891 102.118 104.96 102.038 105.026 101.955C105.076 101.894 105.125 101.831 105.173 101.767C105.189 101.746 105.205 101.725 105.22 101.703C105.283 101.618 105.343 101.53 105.402 101.442C105.417 101.42 105.431 101.397 105.446 101.375C105.474 101.33 105.502 101.285 105.53 101.24C105.558 101.194 105.585 101.149 105.611 101.102C105.651 101.033 105.69 100.963 105.728 100.892C105.778 100.798 105.825 100.702 105.87 100.605C105.893 100.557 105.915 100.508 105.937 100.459C106.001 100.311 106.061 100.161 106.115 100.008C106.133 99.9572 106.15 99.9062 106.167 99.8548C106.184 99.8035 106.2 99.7515 106.215 99.6995C106.231 99.6475 106.246 99.5952 106.26 99.5426C106.281 99.4637 106.301 99.3845 106.32 99.3043C106.388 99.0112 106.436 98.7106 106.463 98.4038C106.468 98.348 106.472 98.292 106.476 98.2359C106.485 98.0956 106.49 97.9541 106.49 97.8113C106.49 96.1 105.838 94.5406 104.768 93.367C104.732 93.3278 104.696 93.289 104.659 93.2508C104.604 93.1935 104.549 93.1371 104.492 93.0817C104.454 93.0447 104.415 93.0084 104.377 92.9724C104.338 92.9364 104.298 92.9007 104.259 92.8656C104.179 92.7955 104.098 92.7272 104.016 92.6608C103.985 92.6361 103.954 92.6114 103.922 92.5869C103.891 92.5625 103.859 92.5384 103.827 92.5146C103.806 92.4986 103.784 92.483 103.763 92.4673C103.677 92.405 103.59 92.3446 103.501 92.286C103.479 92.2713 103.456 92.2569 103.434 92.2425C103.389 92.2137 103.344 92.1858 103.298 92.1579C103.23 92.1166 103.161 92.0762 103.091 92.0374C103.045 92.0114 102.998 91.986 102.95 91.961C102.927 91.9485 102.903 91.9362 102.879 91.924C102.784 91.8755 102.687 91.8288 102.589 91.7847C102.565 91.7737 102.54 91.7628 102.515 91.7521C102.441 91.7199 102.367 91.6889 102.292 91.6594C102.191 91.62 102.09 91.583 101.987 91.5483C101.936 91.531 101.884 91.5141 101.832 91.4982C101.806 91.49 101.78 91.4822 101.754 91.4744C101.676 91.4512 101.597 91.4293 101.518 91.4089C101.491 91.402 101.465 91.3955 101.438 91.3889C101.092 91.3046 100.736 91.2477 100.371 91.2201C100.203 91.2073 100.033 91.2007 99.8611 91.2007C96.2006 91.2007 93.2332 94.1601 93.2332 97.8107C93.2332 97.9253 93.2363 98.0393 93.242 98.1526C93.2429 98.1705 93.2438 98.1883 93.2451 98.2062L93.246 98.2224C93.2476 98.2456 93.2492 98.2688 93.2507 98.292L93.2514 98.3023C93.2529 98.3242 93.2548 98.3461 93.2567 98.3681L93.258 98.3831C93.2602 98.4097 93.2627 98.436 93.2652 98.4623L93.2668 98.4789C93.269 98.4993 93.2712 98.5193 93.2733 98.5397L93.2755 98.5603C93.2777 98.5797 93.2799 98.5988 93.2825 98.6183L93.2853 98.6417C93.2875 98.6605 93.29 98.679 93.2925 98.6978L93.296 98.7232C93.2985 98.7419 93.3013 98.7604 93.3041 98.7792L93.3076 98.8033C93.3104 98.8218 93.3132 98.84 93.3161 98.8584L93.3201 98.8841C93.323 98.902 93.3261 98.9195 93.3292 98.937L93.334 98.964C93.3371 98.9815 93.3402 98.9987 93.3434 99.0162L93.3484 99.0438C93.3515 99.061 93.355 99.0786 93.3584 99.0958L93.3638 99.123C93.3672 99.1403 93.371 99.1575 93.3745 99.1747L93.3801 99.2019C93.3839 99.2188 93.3873 99.2354 93.3911 99.2524L93.3977 99.2815C93.4015 99.2981 93.4052 99.315 93.4093 99.3316L93.4159 99.3588C93.42 99.376 93.4244 99.3933 93.4285 99.4102L93.4351 99.4365C93.4391 99.4531 93.4435 99.47 93.4479 99.4866L93.4555 99.5157C93.4599 99.532 93.4643 99.548 93.4686 99.5642L93.4762 99.5915C93.4809 99.6081 93.4856 99.6247 93.4903 99.6413L93.4985 99.6688C93.5032 99.6854 93.5082 99.702 93.5132 99.7183L93.5211 99.744C93.5261 99.7606 93.5314 99.7775 93.5365 99.7941L93.5449 99.821C93.5503 99.8373 93.5553 99.8536 93.5606 99.8699L93.5694 99.8965C93.5748 99.9128 93.5801 99.9287 93.5858 99.945L93.5949 99.971C93.6005 99.9876 93.6065 100.004 93.6125 100.021L93.6209 100.044C93.6272 100.061 93.6332 100.078 93.6398 100.095L93.6479 100.117C93.6545 100.134 93.6608 100.152 93.6677 100.169L93.6759 100.191C93.6828 100.208 93.6894 100.226 93.6966 100.243L93.7041 100.262C93.7114 100.28 93.7186 100.298 93.7261 100.316L93.733 100.333C93.7409 100.352 93.7487 100.371 93.7569 100.39L93.76 100.397C93.7691 100.418 93.7786 100.44 93.788 100.461L93.7905 100.467C93.8034 100.496 93.8165 100.525 93.8297 100.554C93.8564 100.612 93.8837 100.67 93.912 100.727C93.9261 100.755 93.9403 100.784 93.955 100.812V100.813C93.9654 100.832 93.9754 100.851 93.9855 100.87L93.9918 100.883C94.0009 100.9 94.01 100.917 94.0194 100.934L94.0288 100.952C94.0382 100.969 94.0476 100.987 94.0571 101.004L94.0662 101.02C94.0753 101.037 94.0847 101.053 94.0938 101.069L94.1051 101.089C94.1139 101.104 94.1227 101.119 94.1318 101.135L94.1447 101.157C94.1535 101.172 94.1626 101.187 94.1713 101.202L94.1845 101.224L94.2112 101.267L94.226 101.291L94.2524 101.333L94.2674 101.357L94.2938 101.398L94.3104 101.424L94.3365 101.463L94.3531 101.488L94.3808 101.529L94.3968 101.552L94.4254 101.593L94.442 101.617L94.4696 101.655L94.4879 101.681L94.5152 101.718L94.5343 101.744L94.5616 101.781L94.5811 101.806L94.609 101.843L94.6288 101.868L94.6574 101.904L94.6775 101.929L94.7061 101.965L94.7265 101.99L94.7566 102.026L94.7751 102.048L94.8069 102.086L94.8263 102.108L94.8574 102.144L94.8775 102.167L94.9092 102.203L94.9296 102.225L94.9613 102.26L94.9821 102.282L95.0147 102.318L95.0348 102.339L95.0678 102.374L95.0894 102.396L95.1224 102.43L95.1394 102.447L95.178 102.486L95.184 102.492C95.253 102.56 95.3237 102.628 95.3959 102.693L95.4015 102.698L95.4411 102.734L95.46 102.751L95.4961 102.782L95.5187 102.802L95.5519 102.831L95.5786 102.853L95.6107 102.88L95.638 102.903L95.6725 102.931L95.6983 102.952L95.7328 102.98L95.7598 103.001L95.795 103.029L95.821 103.049L95.8562 103.075L95.8841 103.096L95.9187 103.122L95.9473 103.143L95.9815 103.168L96.0107 103.189L96.0446 103.213L96.0757 103.235L96.1083 103.257L96.1344 103.275L86.8734 116.061L86.853 116.048C86.8373 116.038 86.8212 116.029 86.8055 116.019C86.7823 116.005 86.7588 115.991 86.7355 115.977C86.7022 115.957 86.6686 115.937 86.635 115.917C86.6181 115.908 86.6015 115.898 86.5845 115.888C86.5339 115.859 86.4831 115.831 86.4319 115.803C86.3807 115.774 86.3292 115.747 86.2774 115.72C86.2429 115.701 86.2083 115.684 86.1735 115.666C86.1041 115.63 86.0341 115.596 85.9634 115.562C85.9283 115.545 85.8928 115.528 85.8573 115.512C85.8042 115.487 85.7505 115.462 85.6969 115.439C85.6611 115.423 85.625 115.407 85.5892 115.392C85.5713 115.384 85.5531 115.376 85.5352 115.369C85.4808 115.346 85.4265 115.323 85.3716 115.301C85.3351 115.286 85.2984 115.272 85.2617 115.258C85.2435 115.251 85.2249 115.244 85.2064 115.237C85.1511 115.216 85.0956 115.196 85.04 115.176C84.9471 115.142 84.8538 115.111 84.7596 115.08C84.6843 115.056 84.6086 115.032 84.5326 115.01C84.5134 115.004 84.4946 114.998 84.4755 114.993C84.4371 114.982 84.3992 114.971 84.3608 114.96C84.2842 114.939 84.207 114.919 84.1298 114.899C84.0984 114.892 84.0666 114.884 84.0352 114.876C83.9721 114.861 83.9087 114.847 83.845 114.833C83.6858 114.798 83.5253 114.767 83.3633 114.741C83.3037 114.731 83.2437 114.722 83.1834 114.713C83.1633 114.71 83.1432 114.707 83.1231 114.704C83.0427 114.693 82.962 114.683 82.881 114.673C82.8609 114.671 82.8405 114.669 82.8201 114.667C82.7592 114.66 82.6983 114.654 82.6371 114.649C82.5146 114.638 82.3918 114.63 82.2681 114.623C82.2063 114.62 82.1444 114.618 82.0822 114.616C81.9786 114.613 81.8747 114.611 81.7705 114.611C79.7679 114.611 77.9078 115.218 76.3642 116.257L64.9402 103.235C65.0102 103.152 65.0783 103.067 65.1446 102.98C65.1766 102.938 65.2083 102.896 65.2391 102.853C65.3323 102.724 65.4209 102.592 65.5047 102.457C65.5327 102.412 65.56 102.366 65.587 102.32C65.614 102.275 65.64 102.228 65.6658 102.182C65.7559 102.02 65.8394 101.853 65.916 101.682C65.9242 101.664 65.9324 101.646 65.9402 101.627C65.9644 101.572 65.9876 101.517 66.0102 101.461C66.0404 101.387 66.0693 101.312 66.0966 101.236C66.1242 101.161 66.1503 101.085 66.1751 101.008C66.1917 100.957 66.2074 100.905 66.2228 100.853C66.2611 100.724 66.2953 100.593 66.3255 100.461C66.3314 100.434 66.3374 100.408 66.3431 100.382C66.3544 100.328 66.3653 100.275 66.3754 100.222C66.3854 100.168 66.3952 100.114 66.404 100.06C66.4128 100.006 66.4209 99.9522 66.4285 99.8977C66.4435 99.7891 66.4558 99.6795 66.4655 99.5692C66.4696 99.521 66.4734 99.4725 66.4765 99.4243C66.4796 99.3757 66.4821 99.3272 66.4843 99.2783C66.4884 99.181 66.4906 99.0829 66.4903 98.9843C66.4903 98.8437 66.4853 98.7022 66.4762 98.5597C66.4467 98.1044 66.3713 97.6629 66.2554 97.2389C66.2482 97.2123 66.2407 97.186 66.2332 97.1597C66.1952 97.0278 66.1534 96.8982 66.1079 96.7701C66.0806 96.6934 66.0517 96.6173 66.0215 96.5418C66.0014 96.4914 65.9807 96.4416 65.9597 96.3919C65.9276 96.3173 65.8947 96.2437 65.8601 96.1708C65.8372 96.1222 65.8137 96.0737 65.7895 96.0258C65.6567 95.7618 65.5069 95.5085 65.3417 95.2668C65.3116 95.2229 65.2811 95.1794 65.2501 95.1362C65.2347 95.1146 65.219 95.0933 65.203 95.0717C65.1713 95.0288 65.1392 94.9865 65.1069 94.9445C64.9279 94.7138 64.7339 94.4955 64.5266 94.291C64.4701 94.2353 64.4127 94.1805 64.3543 94.1266C63.0679 92.9445 61.3171 92.2691 59.4335 92.3909C55.7827 92.632 53.0137 95.7765 53.2504 99.4196C53.258 99.5339 53.2683 99.6475 53.2815 99.7599L53.2847 99.7863C53.2869 99.8038 53.2888 99.8213 53.291 99.8389L53.2966 99.8805L53.3019 99.919C53.3051 99.9419 53.3085 99.9644 53.312 99.987L53.3139 99.9995C53.318 100.026 53.3223 100.054 53.3267 100.081V100.083C53.3308 100.106 53.3349 100.129 53.339 100.152L53.3412 100.164C53.3453 100.186 53.3494 100.209 53.3537 100.231L53.3563 100.244C53.3603 100.265 53.3644 100.286 53.3685 100.306L53.3723 100.325C53.3764 100.344 53.3804 100.364 53.3845 100.383L53.3892 100.405C53.3933 100.424 53.3977 100.443 53.4021 100.462L53.4071 100.484C53.4115 100.503 53.4162 100.522 53.4206 100.542L53.4257 100.563C53.4304 100.581 53.4351 100.6 53.4398 100.619L53.4454 100.642C53.4501 100.66 53.4549 100.678 53.4596 100.696L53.4662 100.72C53.4712 100.738 53.4762 100.756 53.4812 100.775L53.4875 100.797C53.4925 100.815 53.4979 100.833 53.5029 100.851L53.5101 100.875C53.5151 100.892 53.5205 100.91 53.5258 100.927L53.5337 100.952C53.539 100.97 53.5443 100.987 53.55 101.004L53.5578 101.028C53.5635 101.046 53.5691 101.063 53.5751 101.08L53.583 101.104C53.5889 101.121 53.5949 101.139 53.6009 101.156L53.609 101.18C53.615 101.197 53.6209 101.214 53.6272 101.231L53.636 101.255C53.6423 101.272 53.6486 101.289 53.6552 101.307L53.6633 101.328C53.6699 101.346 53.6765 101.363 53.6831 101.38L53.6922 101.404C53.6988 101.421 53.7057 101.438 53.7126 101.455L53.7214 101.476C53.7286 101.494 53.7356 101.511 53.7428 101.528L53.7519 101.55C53.7591 101.567 53.7663 101.584 53.7735 101.601L53.7827 101.622C53.7902 101.639 53.798 101.657 53.8056 101.674L53.8134 101.692C53.8216 101.71 53.8298 101.728 53.8382 101.746L53.8461 101.763C53.8546 101.782 53.863 101.8 53.8718 101.818L53.8787 101.832C53.8878 101.851 53.8969 101.87 53.906 101.889L53.9126 101.902C53.9221 101.922 53.9315 101.941 53.9412 101.96L53.944 101.966C53.9962 102.068 54.0505 102.17 54.1076 102.269C54.1268 102.303 54.1459 102.335 54.1657 102.368L54.1663 102.37C54.1786 102.39 54.1908 102.41 54.2031 102.43L54.2065 102.436C54.2182 102.455 54.2298 102.474 54.2414 102.493L54.248 102.503C54.2587 102.52 54.2696 102.537 54.2806 102.554L54.2904 102.57C54.301 102.586 54.3117 102.603 54.3227 102.619L54.3334 102.635C54.3437 102.651 54.3538 102.666 54.3642 102.681L54.3773 102.701C54.3874 102.716 54.3974 102.73 54.4075 102.745L54.4216 102.765C54.432 102.78 54.4423 102.795 54.4527 102.81L54.4665 102.829L54.497 102.871L54.5136 102.894L54.5438 102.934L54.5598 102.955L54.5909 102.996L54.6072 103.018L54.6373 103.056L54.6558 103.08L54.6863 103.118L54.7042 103.14L54.735 103.178L54.7538 103.201L54.7852 103.239L54.8037 103.26L54.8354 103.297L54.8552 103.32L54.8873 103.357L54.9061 103.378L54.9391 103.415L54.9588 103.436L54.9912 103.472L55.0122 103.494L55.0443 103.529L55.0653 103.551L55.0983 103.585L55.1187 103.606L55.1535 103.641L55.1727 103.66L55.2082 103.695L55.2282 103.715L55.2647 103.751L55.2813 103.767L55.3209 103.804L55.3372 103.819L55.378 103.857L55.3928 103.871L55.4355 103.909L55.4524 103.924L55.4933 103.96L55.5083 103.973C55.5962 104.05 55.686 104.123 55.7777 104.195L55.7922 104.206C55.8069 104.218 55.822 104.229 55.8368 104.241L55.8537 104.254L55.8952 104.285L55.9168 104.301L55.9558 104.33L55.9799 104.347L56.016 104.373L56.0443 104.393L56.0795 104.417L56.1083 104.437L56.1441 104.462L56.173 104.481L56.2095 104.505L56.2383 104.524L56.2741 104.547L56.3046 104.567L56.3401 104.589L56.3705 104.609L56.4073 104.631L56.4371 104.649L56.4745 104.671L56.5052 104.69L56.5413 104.711L56.5737 104.729L56.6104 104.75L56.6412 104.767L56.6789 104.788L56.7103 104.805L56.7483 104.825L56.7793 104.842L56.8176 104.862L56.849 104.878L56.8877 104.897L56.92 104.913L56.958 104.932L56.991 104.948L57.029 104.966L57.0635 104.982L57.0999 104.999L57.1351 105.015L57.1721 105.032L57.2073 105.047L57.2447 105.064L57.2792 105.078L57.3175 105.095L57.3524 105.109L57.39 105.124L57.4271 105.139L57.4641 105.154L57.4974 105.167L57.5386 105.182L57.5709 105.194L57.6123 105.209L57.6538 105.224L57.6868 105.236C57.7047 105.242 57.7222 105.248 57.7401 105.254L57.7762 105.266C57.7963 105.273 57.8168 105.28 57.8368 105.286L57.8733 105.297L57.9128 105.31L57.9496 105.321L57.9891 105.333L58.0249 105.343L58.0661 105.355L58.1015 105.364L58.1433 105.376L58.1788 105.385L58.2212 105.396L58.2566 105.405L58.2987 105.415L58.3377 105.424L58.376 105.433L58.4158 105.442L58.4554 105.451L58.4931 105.459L58.5339 105.468L58.5716 105.475L58.6136 105.483L58.6507 105.49L58.6928 105.498L58.7308 105.505L58.7722 105.512L58.8115 105.518L58.852 105.524L58.8906 105.53L58.9333 105.536L58.9719 105.541L59.0121 105.547L59.0532 105.552L59.0937 105.556L59.133 105.561L59.1757 105.565L59.2149 105.569L59.2573 105.573L59.2956 105.577C59.3104 105.578 59.3251 105.579 59.3402 105.58L59.3776 105.583C59.3923 105.584 59.4071 105.585 59.4218 105.586L59.4598 105.589C59.4746 105.59 59.4897 105.59 59.5044 105.591L59.5421 105.593C59.5575 105.594 59.5729 105.594 59.5883 105.595L59.6244 105.596C59.6401 105.597 59.6561 105.597 59.6721 105.598L59.7073 105.599C59.723 105.599 59.7383 105.6 59.754 105.6L59.7911 105.601C59.8062 105.601 59.8216 105.601 59.8366 105.601H59.8743C59.8897 105.601 59.9054 105.601 59.9208 105.601H59.9578C59.9735 105.6 59.9889 105.6 60.0046 105.599L60.042 105.598L60.0847 105.597L60.1261 105.596C60.1434 105.595 60.1607 105.594 60.1779 105.593L60.209 105.591C60.2373 105.59 60.2652 105.588 60.2935 105.586C61.6738 105.497 62.9275 104.993 63.9411 104.203L75.2716 117.118C73.3242 118.883 72.1012 121.428 72.1012 124.259C72.1012 124.426 72.1056 124.593 72.1141 124.758L72.1154 124.778C72.1166 124.801 72.1179 124.824 72.1191 124.847L72.1213 124.884C72.1229 124.907 72.1245 124.93 72.1261 124.954L72.1286 124.987C72.1304 125.012 72.1323 125.036 72.1342 125.06L72.1367 125.088C72.1389 125.114 72.1411 125.14 72.1436 125.166L72.1458 125.189C72.1581 125.317 72.1728 125.445 72.1901 125.572L72.1907 125.576C72.1945 125.603 72.1983 125.631 72.2023 125.658L72.2055 125.68C72.2093 125.705 72.213 125.73 72.2168 125.754L72.2215 125.784C72.2253 125.808 72.2294 125.832 72.2334 125.857L72.2385 125.886C72.2425 125.91 72.2466 125.934 72.251 125.958L72.2567 125.989C72.2608 126.012 72.2651 126.035 72.2692 126.057L72.2758 126.092C72.2802 126.114 72.2846 126.137 72.289 126.159L72.2959 126.194C72.3003 126.216 72.305 126.237 72.3094 126.259L72.3173 126.297C72.322 126.318 72.3267 126.34 72.3314 126.361L72.3389 126.396C72.344 126.418 72.3493 126.441 72.3546 126.463L72.3615 126.493C72.3672 126.517 72.3728 126.541 72.3788 126.564L72.3848 126.588C72.3911 126.613 72.3976 126.639 72.4042 126.665L72.4068 126.674C72.4382 126.796 72.4721 126.917 72.5082 127.037L72.5126 127.052C72.5198 127.076 72.5273 127.1 72.5349 127.124L72.543 127.151C72.5499 127.173 72.5568 127.194 72.5637 127.216L72.5747 127.25C72.5813 127.27 72.5882 127.291 72.5948 127.311L72.6071 127.347C72.614 127.367 72.6209 127.387 72.6278 127.407L72.6407 127.444C72.6476 127.464 72.6545 127.483 72.6614 127.503L72.6752 127.541C72.6821 127.56 72.6893 127.58 72.6966 127.599L72.7104 127.636C72.7176 127.656 72.7251 127.675 72.7324 127.695L72.7465 127.731C72.754 127.751 72.7616 127.77 72.7694 127.79L72.7839 127.826C72.7917 127.845 72.7996 127.865 72.8074 127.884L72.8222 127.92C72.83 127.939 72.8379 127.959 72.846 127.978L72.8598 128.01C72.8686 128.031 72.8777 128.052 72.8865 128.073L72.8875 128.075C72.922 128.155 72.9578 128.235 72.9945 128.314L73.0093 128.346C73.0178 128.363 73.0263 128.381 73.0347 128.399L73.0536 128.439C73.0617 128.455 73.0699 128.472 73.0781 128.488L73.0985 128.53C73.1069 128.547 73.1151 128.563 73.1236 128.58L73.144 128.62C73.1525 128.637 73.1606 128.653 73.1691 128.67L73.1911 128.712C73.1993 128.728 73.2077 128.744 73.2159 128.759L73.2388 128.802C73.2473 128.817 73.2555 128.833 73.2639 128.848L73.2872 128.891C73.296 128.907 73.3044 128.922 73.3132 128.938L73.3362 128.979C73.3449 128.994 73.3537 129.01 73.3628 129.026L73.3873 129.068C73.3961 129.083 73.4049 129.098 73.4137 129.114L73.4379 129.155C73.447 129.17 73.4561 129.185 73.4652 129.201L73.4903 129.242C73.4994 129.257 73.5085 129.272 73.5176 129.287L73.5421 129.327C73.5669 129.367 73.5924 129.407 73.6178 129.447L73.6238 129.456L73.6476 129.493C73.658 129.509 73.6687 129.525 73.679 129.541L73.7054 129.581C73.7155 129.596 73.7252 129.611 73.7352 129.626L73.7616 129.664C73.772 129.679 73.782 129.695 73.7927 129.71L73.8197 129.749C73.8301 129.763 73.8401 129.778 73.8505 129.793L73.8772 129.831C73.8878 129.846 73.8988 129.861 73.9095 129.876L73.9365 129.913C73.9472 129.928 73.9578 129.943 73.9685 129.957L73.9968 129.995C74.0078 130.01 74.0184 130.025 74.0294 130.039L74.0571 130.076C74.0684 130.091 74.0797 130.106 74.091 130.12L74.1189 130.156C74.1302 130.171 74.1418 130.186 74.1531 130.2L74.1814 130.236C74.1933 130.251 74.2056 130.267 74.2175 130.282L74.2439 130.315C74.2568 130.33 74.2696 130.346 74.2828 130.362L74.3086 130.393C74.3221 130.41 74.3359 130.426 74.3497 130.443L74.3736 130.471C74.3952 130.497 74.4169 130.522 74.4389 130.547L74.4442 130.554L74.4772 130.592L74.48 130.595L74.5149 130.635L74.5164 130.636L74.5519 130.676L74.5541 130.679L74.5896 130.718L74.5918 130.72L74.627 130.759L74.6307 130.763L74.6662 130.801H74.6665L74.7039 130.842L74.7058 130.844L74.7425 130.883L74.7438 130.884C74.7711 130.913 74.7984 130.941 74.826 130.97C74.9362 131.083 75.0493 131.194 75.1651 131.302C75.2518 131.383 75.3403 131.462 75.4298 131.54L75.433 131.543L75.4706 131.575L75.4763 131.58L75.5127 131.611L75.5193 131.617L75.5573 131.648L75.5617 131.652L75.5981 131.682L75.6069 131.69L75.6421 131.719L75.6499 131.725L75.6848 131.753L75.6948 131.762L75.7272 131.788L75.7403 131.798L75.7711 131.823L75.7846 131.833L75.8173 131.859L75.8283 131.867L75.8606 131.892L75.8747 131.903L75.9083 131.929L75.9168 131.936L75.9526 131.963L75.9645 131.972L75.9972 131.996L76.0101 132.005L76.0443 132.031L76.054 132.038L76.0889 132.063L76.1021 132.073L76.135 132.097L76.1466 132.105L76.1818 132.13L76.1928 132.138L76.227 132.162L76.2408 132.172L76.2757 132.196L76.2807 132.199C76.3708 132.261 76.4622 132.322 76.5545 132.381C76.5853 132.401 76.6161 132.42 76.6471 132.44L76.654 132.444L76.6886 132.465L76.703 132.475C76.7187 132.484 76.7341 132.494 76.7498 132.503L76.7891 132.527L76.8004 132.533L76.8324 132.553L76.8506 132.563L76.8792 132.58L76.9008 132.593L76.931 132.61L76.9489 132.62L76.98 132.638L77.0001 132.65L77.0277 132.666L77.0494 132.678L77.082 132.696L77.0971 132.704L77.1301 132.723L77.1489 132.733L77.1806 132.75L77.1988 132.76L77.2299 132.776L77.2506 132.787L77.2801 132.803L77.3021 132.815L77.3316 132.83L77.3511 132.84L77.3838 132.857L77.4035 132.867L77.4334 132.882L77.456 132.893L77.4852 132.907L77.5081 132.919L77.5373 132.933L77.5577 132.942L77.59 132.958L77.6092 132.967L77.6422 132.983L77.6635 132.993L77.6918 133.006L77.7194 133.019L77.7448 133.031L77.7681 133.041L77.7985 133.055L77.8167 133.063L77.8519 133.079L77.8679 133.086L77.9037 133.102L77.9219 133.11L77.9571 133.125L77.9706 133.13L78.0105 133.147L78.0277 133.154L78.0623 133.169C78.0927 133.181 78.1235 133.194 78.154 133.206C78.169 133.212 78.1841 133.219 78.1992 133.224L78.2237 133.234L78.2466 133.243L78.2777 133.255L78.3119 133.269L78.3304 133.276L78.364 133.289L78.386 133.297L78.4139 133.307L78.4406 133.317L78.4689 133.327L78.4953 133.337L78.5238 133.347L78.5499 133.356L78.5807 133.367L78.6045 133.375L78.635 133.385L78.6601 133.394L78.6903 133.404L78.7154 133.412L78.7439 133.422L78.7725 133.431L78.7973 133.439L78.8284 133.449L78.8529 133.457L78.8846 133.467L78.9094 133.475L78.9396 133.484L78.9684 133.493L78.9932 133.5L79.0237 133.509L79.0526 133.518L79.0771 133.525L79.111 133.535L79.1333 133.541L79.1669 133.55L79.1911 133.557L79.2221 133.566L79.2485 133.573L79.2774 133.581L79.3063 133.588L79.333 133.595L79.3634 133.603L79.3889 133.61L79.4212 133.618L79.4482 133.624L79.4765 133.631L79.5107 133.639L79.5336 133.645L79.5669 133.653L79.5923 133.659L79.6222 133.665L79.6501 133.671L79.6749 133.677L79.7098 133.684L79.728 133.688L79.7657 133.696L79.8074 133.705L79.8234 133.708C79.842 133.712 79.8608 133.716 79.8793 133.72L79.8818 133.72C79.901 133.724 79.9204 133.728 79.9399 133.731L79.9603 133.735L79.9996 133.742L80.0153 133.745L80.0573 133.753L80.0793 133.757L80.117 133.763L80.1349 133.766L80.1763 133.773L80.1974 133.777L80.2338 133.783L80.2618 133.787L80.2928 133.792L80.3183 133.795L80.3534 133.801L80.3795 133.804L80.4103 133.809L80.4385 133.813L80.4724 133.817L80.4957 133.82L80.5305 133.825L80.5582 133.829L80.5905 133.833L80.6162 133.836L80.6498 133.84L80.6784 133.843L80.7082 133.846L80.7387 133.85L80.7695 133.853L80.7971 133.855L80.8304 133.859L80.8583 133.861L80.8894 133.864L80.9196 133.867L80.9497 133.869L80.9776 133.871L81.0109 133.874L81.0395 133.876L81.0703 133.878L81.1004 133.881L81.1312 133.882L81.1598 133.884L81.1927 133.886L81.2213 133.888L81.2514 133.889L81.2819 133.891L81.3145 133.892L81.3425 133.894L81.3805 133.895L81.4022 133.896L81.4427 133.898L81.464 133.898L81.5055 133.9L81.5249 133.9C81.5406 133.901 81.556 133.901 81.5717 133.901H81.5861C81.6025 133.902 81.6185 133.902 81.6348 133.902H81.648L81.691 133.903H81.7105C81.7309 133.903 81.7513 133.903 81.7717 133.903C81.876 133.903 81.9799 133.901 82.0835 133.898C82.1457 133.896 82.2075 133.894 82.2694 133.891C82.3931 133.884 82.5159 133.876 82.6383 133.865C82.6995 133.86 82.7605 133.854 82.8214 133.847C82.8418 133.845 82.8619 133.843 82.8823 133.84C82.9633 133.831 83.044 133.821 83.1244 133.809C83.1445 133.807 83.1646 133.804 83.1847 133.801C83.2449 133.792 83.3049 133.783 83.3646 133.773C83.5266 133.746 83.687 133.715 83.8462 133.681C83.91 133.667 83.9734 133.653 84.0365 133.638C84.0682 133.63 84.0996 133.622 84.131 133.614C84.2086 133.595 84.2855 133.575 84.3621 133.554C84.4004 133.543 84.4387 133.532 84.4767 133.521C84.4959 133.515 84.5147 133.51 84.5339 133.504C84.6098 133.482 84.6858 133.458 84.7609 133.434C84.8551 133.404 84.9486 133.372 85.0413 133.338C85.1157 133.312 85.1895 133.284 85.2629 133.256C85.2997 133.242 85.3361 133.228 85.3728 133.213C85.4275 133.191 85.4821 133.169 85.5364 133.146C85.5546 133.138 85.5725 133.13 85.5904 133.122C85.6444 133.099 85.6984 133.075 85.7518 133.051C85.7876 133.035 85.8231 133.019 85.8586 133.002C85.894 132.986 85.9295 132.969 85.9647 132.952C86.0174 132.927 86.0702 132.901 86.1223 132.875C86.1747 132.848 86.2266 132.821 86.2784 132.794C86.2956 132.785 86.3129 132.776 86.3302 132.767C86.3644 132.748 86.3989 132.73 86.4328 132.711C86.484 132.683 86.5349 132.654 86.5854 132.625C86.6024 132.615 86.619 132.606 86.636 132.596C86.6696 132.577 86.7032 132.557 86.7365 132.537C86.7864 132.507 86.8363 132.477 86.8856 132.446C86.9186 132.425 86.9515 132.404 86.9842 132.384C87.0495 132.342 87.1145 132.299 87.1789 132.256C87.2432 132.213 87.307 132.169 87.3701 132.124C87.4018 132.101 87.4332 132.079 87.4646 132.056C87.5233 132.013 87.5814 131.97 87.6392 131.926C87.6583 131.911 87.6775 131.896 87.6966 131.882C87.7271 131.858 87.7576 131.834 87.788 131.81C87.8791 131.738 87.9685 131.664 88.0568 131.589C88.0715 131.576 88.086 131.564 88.1007 131.551C88.1447 131.513 88.188 131.475 88.2314 131.436C88.2744 131.398 88.3174 131.359 88.3598 131.319C88.4022 131.28 88.4442 131.24 88.486 131.2C88.5139 131.173 88.5416 131.146 88.5689 131.119C88.5965 131.092 88.6238 131.064 88.6508 131.037C88.7052 130.982 88.7589 130.927 88.8119 130.871L88.8515 130.828C88.8779 130.8 88.9039 130.772 88.93 130.743L88.9689 130.7C89.0075 130.657 89.0461 130.614 89.0841 130.57C89.1064 130.544 89.1284 130.519 89.1504 130.493C89.1944 130.442 89.2374 130.39 89.2801 130.337C89.3014 130.311 89.3228 130.284 89.3438 130.258L89.3758 130.218L102.976 137.123C102.693 137.858 102.538 138.656 102.538 139.489C102.538 139.604 102.542 139.718 102.547 139.831C102.548 139.848 102.549 139.865 102.55 139.883L102.551 139.901C102.553 139.925 102.554 139.949 102.556 139.973L102.557 139.979C102.559 140.004 102.56 140.028 102.562 140.052L102.563 140.06C102.565 140.087 102.568 140.113 102.57 140.14L102.572 140.157C102.574 140.177 102.576 140.197 102.578 140.217L102.58 140.239C102.582 140.258 102.585 140.277 102.587 140.296L102.59 140.32C102.592 140.339 102.595 140.357 102.597 140.375L102.601 140.401C102.603 140.42 102.606 140.438 102.608 140.456L102.612 140.481C102.615 140.499 102.618 140.517 102.621 140.536L102.625 140.562C102.628 140.58 102.631 140.597 102.634 140.615L102.638 140.642C102.641 140.66 102.645 140.677 102.648 140.694L102.653 140.722C102.656 140.739 102.66 140.757 102.663 140.774L102.668 140.801C102.672 140.819 102.676 140.836 102.679 140.853L102.685 140.88C102.688 140.897 102.692 140.914 102.696 140.93L102.702 140.96C102.706 140.976 102.71 140.993 102.714 141.009L102.72 141.037C102.724 141.054 102.728 141.071 102.733 141.088L102.739 141.115C102.743 141.131 102.748 141.148 102.752 141.164L102.76 141.194C102.765 141.21 102.769 141.226 102.773 141.242L102.781 141.27C102.786 141.286 102.79 141.303 102.795 141.319L102.803 141.347C102.808 141.364 102.813 141.38 102.818 141.396L102.825 141.422C102.83 141.439 102.835 141.456 102.841 141.472L102.85 141.5C102.855 141.516 102.86 141.532 102.865 141.547L102.874 141.575C102.88 141.591 102.885 141.607 102.89 141.622L102.9 141.65C102.906 141.666 102.911 141.682 102.917 141.698L102.926 141.723C102.932 141.74 102.938 141.756 102.944 141.773L102.953 141.797C102.959 141.814 102.965 141.831 102.972 141.848L102.98 141.869C102.987 141.886 102.994 141.904 103.001 141.921L103.009 141.942C103.016 141.96 103.023 141.977 103.03 141.995L103.037 142.011C103.045 142.03 103.053 142.049 103.061 142.068L103.064 142.075C103.073 142.097 103.083 142.119 103.092 142.14L103.095 142.146C103.121 142.204 103.147 142.262 103.175 142.32C103.202 142.377 103.23 142.434 103.259 142.491V142.491C103.27 142.511 103.28 142.53 103.29 142.549L103.296 142.561C103.305 142.578 103.314 142.595 103.324 142.613L103.333 142.63C103.343 142.648 103.352 142.665 103.361 142.682L103.371 142.699C103.38 142.715 103.389 142.731 103.398 142.748L103.409 142.767C103.418 142.783 103.427 142.798 103.436 142.813L103.449 142.835C103.458 142.85 103.467 142.865 103.476 142.88L103.489 142.902L103.515 142.945L103.531 142.97L103.557 143.012L103.572 143.036L103.598 143.076L103.615 143.103L103.641 143.141L103.658 143.167L103.686 143.207L103.702 143.23L103.73 143.271L103.747 143.295L103.775 143.334L103.793 143.359L103.82 143.396L103.839 143.422L103.867 143.459L103.886 143.484L103.914 143.521L103.934 143.546L103.962 143.582L103.982 143.607L104.011 143.643L104.031 143.668L104.062 143.704L104.08 143.726L104.112 143.764L104.131 143.786L104.162 143.822L104.183 143.846L104.214 143.881L104.236 143.905L104.266 143.938L104.287 143.961L104.319 143.996L104.339 144.018L104.372 144.052L104.394 144.075L104.427 144.109L104.444 144.126L104.483 144.165L104.489 144.171C104.558 144.239 104.628 144.307 104.701 144.372L104.706 144.377L104.746 144.413L104.765 144.43L104.801 144.461L104.823 144.481L104.857 144.51L104.883 144.532L104.915 144.559L104.943 144.582L104.977 144.61L105.003 144.631L105.037 144.659L105.064 144.68L105.1 144.708L105.126 144.728L105.161 144.754L105.189 144.775L105.223 144.801L105.252 144.822L105.286 144.847L105.316 144.868L105.35 144.892L105.381 144.914L105.413 144.936L105.445 144.958L105.479 144.981L105.509 145.001L105.545 145.024L105.575 145.044L105.61 145.065L105.643 145.086L105.676 145.107L105.709 145.127L105.744 145.148L105.776 145.168L105.811 145.188L105.844 145.207L105.88 145.228L105.913 145.246L105.948 145.266L105.983 145.286L106.017 145.304L106.052 145.323L106.087 145.341L106.121 145.359L106.157 145.377L106.193 145.395L106.227 145.413L106.262 145.43L106.299 145.448L106.334 145.464L106.37 145.481L106.411 145.5L106.442 145.514L106.484 145.533L106.515 145.546L106.552 145.562L106.588 145.577L106.619 145.591C106.643 145.601 106.667 145.61 106.692 145.62L106.734 145.637L106.763 145.648C106.778 145.654 106.794 145.66 106.809 145.666L106.835 145.676C106.852 145.682 106.868 145.688 106.884 145.694L106.914 145.705C106.929 145.71 106.943 145.715 106.958 145.721L106.994 145.733L107.034 145.747L107.069 145.758L107.11 145.772L107.145 145.783L107.187 145.796L107.223 145.807L107.263 145.819L107.301 145.83L107.34 145.842L107.378 145.853L107.418 145.864L107.455 145.873L107.496 145.884L107.534 145.894L107.574 145.903L107.613 145.913L107.652 145.922L107.691 145.932L107.732 145.941L107.77 145.949L107.812 145.958L107.85 145.966L107.892 145.974L107.929 145.981L107.972 145.989L108.009 145.995L108.052 146.003L108.091 146.009L108.131 146.016L108.172 146.022L108.213 146.028L108.252 146.033L108.295 146.039L108.334 146.044L108.377 146.05L108.415 146.054C108.43 146.056 108.445 146.057 108.46 146.059L108.498 146.063C108.513 146.064 108.528 146.066 108.543 146.067L108.58 146.071C108.595 146.072 108.61 146.073 108.625 146.074L108.663 146.077C108.678 146.079 108.694 146.08 108.709 146.081L108.746 146.083C108.761 146.084 108.777 146.085 108.792 146.086L108.829 146.088C108.845 146.088 108.86 146.089 108.876 146.09L108.913 146.092C108.93 146.092 108.948 146.093 108.965 146.093L108.996 146.094C109.015 146.094 109.035 146.095 109.054 146.095L109.081 146.096C109.109 146.096 109.137 146.096 109.165 146.096C109.336 146.096 109.506 146.09 109.675 146.077C110.039 146.049 110.396 145.992 110.742 145.908C110.768 145.901 110.795 145.895 110.821 145.888C110.901 145.868 110.98 145.846 111.058 145.823C111.084 145.815 111.11 145.807 111.136 145.799C111.188 145.783 111.24 145.766 111.291 145.749C111.47 145.688 111.647 145.62 111.819 145.545C111.843 145.534 111.868 145.523 111.893 145.512C111.991 145.468 112.087 145.422 112.183 145.373C112.206 145.361 112.23 145.349 112.254 145.336C112.301 145.311 112.348 145.286 112.395 145.26C112.465 145.22 112.534 145.18 112.602 145.139C112.648 145.111 112.693 145.083 112.738 145.055C112.85 144.983 112.959 144.908 113.067 144.83C113.088 144.815 113.109 144.799 113.131 144.783C113.168 144.755 113.205 144.727 113.242 144.698C113.317 144.639 113.392 144.579 113.465 144.517C113.498 144.489 113.53 144.46 113.563 144.432C113.602 144.397 113.641 144.361 113.68 144.325C113.719 144.289 113.758 144.252 113.795 144.215C113.852 144.16 113.908 144.103 113.963 144.046C114 144.008 114.036 143.969 114.071 143.93C114.089 143.911 114.107 143.891 114.125 143.871L114.126 143.877Z"/>
</mask>
<path d="M114.126 143.877C114.197 143.798 114.265 143.717 114.332 143.635C114.382 143.573 114.431 143.51 114.478 143.447C114.494 143.425 114.51 143.404 114.526 143.383C114.588 143.297 114.649 143.21 114.707 143.121C114.722 143.099 114.737 143.077 114.751 143.054C114.78 143.01 114.808 142.965 114.836 142.919C114.863 142.874 114.891 142.828 114.917 142.782C114.957 142.713 114.996 142.642 115.033 142.572C115.083 142.478 115.131 142.382 115.176 142.285C115.199 142.236 115.221 142.187 115.242 142.138C115.307 141.991 115.366 141.841 115.42 141.688C115.438 141.637 115.456 141.586 115.473 141.535C115.489 141.483 115.505 141.431 115.521 141.379C115.536 141.327 115.551 141.275 115.565 141.222C115.587 141.143 115.607 141.064 115.625 140.984C115.693 140.691 115.742 140.39 115.769 140.083C115.774 140.028 115.778 139.972 115.782 139.916C115.791 139.775 115.795 139.634 115.795 139.491C115.795 138.863 115.708 138.257 115.544 137.681C115.529 137.629 115.513 137.577 115.497 137.525C115.425 137.292 115.339 137.065 115.243 136.844C115.221 136.795 115.199 136.746 115.176 136.698C115.154 136.649 115.131 136.601 115.107 136.553C115.083 136.506 115.058 136.458 115.034 136.411C114.971 136.293 114.905 136.177 114.836 136.064C114.808 136.018 114.78 135.973 114.751 135.928C114.737 135.906 114.722 135.884 114.708 135.862C114.664 135.795 114.619 135.73 114.573 135.665C114.557 135.643 114.542 135.622 114.526 135.6C114.495 135.557 114.463 135.515 114.431 135.473C114.366 135.389 114.299 135.307 114.231 135.226C114.171 135.156 114.11 135.087 114.048 135.019C114.029 134.999 114.011 134.979 113.992 134.959C113.965 134.93 113.937 134.902 113.91 134.873C113.892 134.855 113.873 134.836 113.854 134.817C113.751 134.714 113.643 134.614 113.533 134.517C113.507 134.494 113.48 134.471 113.453 134.449C113.303 134.321 113.146 134.201 112.985 134.087C112.955 134.066 112.925 134.045 112.894 134.024C112.653 133.86 112.4 133.712 112.137 133.58C112.118 133.57 112.098 133.56 112.078 133.551C112.053 133.539 112.028 133.527 112.003 133.515C111.984 133.506 111.965 133.497 111.945 133.488C111.544 133.303 111.12 133.156 110.68 133.054L110.647 133.046C110.171 132.938 109.676 132.881 109.168 132.881H109.167C106.839 132.881 104.791 134.079 103.609 135.89L90.1614 129.062C90.1909 129.011 90.2198 128.96 90.2481 128.909C90.2858 128.841 90.3225 128.772 90.3586 128.703C90.4126 128.599 90.4647 128.495 90.515 128.389C90.9511 127.472 91.2463 126.476 91.3731 125.428C91.3847 125.332 91.3948 125.236 91.4036 125.14C91.408 125.091 91.412 125.043 91.4155 124.994C91.4174 124.97 91.4189 124.946 91.4208 124.922C91.4274 124.825 91.4324 124.727 91.4362 124.629C91.4381 124.58 91.4397 124.531 91.4406 124.482C91.4422 124.408 91.4431 124.334 91.4431 124.26C91.4431 123.594 91.3756 122.944 91.2466 122.316C91.2425 122.297 91.2384 122.277 91.2343 122.258C91.201 122.101 91.1643 121.946 91.1235 121.792C91.1081 121.734 91.0924 121.677 91.0761 121.62C90.9621 121.219 90.8227 120.829 90.6597 120.452C90.6443 120.416 90.6286 120.38 90.6126 120.345C90.5966 120.309 90.5806 120.273 90.5643 120.238C90.5071 120.113 90.4472 119.991 90.385 119.87C90.3671 119.835 90.3492 119.8 90.331 119.766C90.3037 119.714 90.276 119.663 90.2478 119.612C90.2101 119.544 90.1718 119.476 90.1325 119.409C90.0933 119.342 90.0534 119.276 90.0126 119.209C89.9922 119.177 89.9718 119.144 89.9507 119.111C89.93 119.078 89.909 119.045 89.8879 119.013C89.8669 118.98 89.8456 118.948 89.8239 118.916C89.7916 118.868 89.7589 118.819 89.7256 118.772C89.7036 118.74 89.6813 118.708 89.6587 118.677C89.6361 118.645 89.6135 118.614 89.5909 118.583C89.5108 118.473 89.4289 118.366 89.3444 118.26C89.2961 118.2 89.2474 118.14 89.1978 118.081C89.1356 118.007 89.0725 117.933 89.0085 117.861C88.6964 117.511 88.3591 117.183 87.9996 116.881L97.3724 103.941L97.3878 103.947L97.4305 103.964L97.4594 103.975C97.4745 103.981 97.4899 103.987 97.5049 103.993L97.5316 104.003C97.548 104.009 97.564 104.015 97.5803 104.021L97.6104 104.032C97.6249 104.037 97.6396 104.042 97.6544 104.047L97.6902 104.06L97.7304 104.074L97.7652 104.085L97.8061 104.099L97.8415 104.11L97.883 104.123L97.9194 104.134L97.9593 104.147L97.997 104.158L98.0365 104.169L98.0745 104.18L98.1144 104.191L98.1511 104.201L98.1919 104.211L98.2306 104.221L98.2698 104.231L98.3094 104.24L98.3486 104.25L98.3876 104.258L98.4281 104.268L98.4667 104.276L98.5078 104.285L98.5461 104.293L98.5879 104.301L98.6252 104.308L98.6683 104.316L98.7056 104.322L98.7483 104.33L98.7869 104.336L98.8275 104.343L98.8683 104.349L98.9097 104.355L98.9483 104.36L98.992 104.366L99.0303 104.371L99.0739 104.377L99.1119 104.381C99.1267 104.382 99.1418 104.384 99.1565 104.386L99.1942 104.39C99.2093 104.391 99.2243 104.392 99.2394 104.394L99.2768 104.397C99.2918 104.399 99.3069 104.4 99.322 104.401L99.3597 104.404C99.375 104.406 99.3901 104.407 99.4055 104.408L99.4426 104.41C99.4579 104.411 99.4736 104.412 99.489 104.413L99.5258 104.414C99.5415 104.415 99.5568 104.416 99.5725 104.417L99.6096 104.418C99.6269 104.419 99.6441 104.419 99.6617 104.42L99.6928 104.421C99.712 104.421 99.7311 104.421 99.7503 104.422L99.7773 104.422C99.8052 104.423 99.8335 104.423 99.8614 104.423C100.033 104.423 100.203 104.416 100.371 104.403C100.736 104.376 101.093 104.319 101.438 104.235C101.465 104.228 101.491 104.222 101.518 104.215C101.597 104.194 101.676 104.172 101.754 104.149C101.78 104.141 101.807 104.134 101.833 104.125C101.884 104.109 101.936 104.092 101.987 104.075C102.167 104.015 102.343 103.947 102.516 103.871C102.54 103.861 102.565 103.85 102.589 103.839C102.687 103.795 102.784 103.748 102.879 103.7C102.903 103.687 102.927 103.675 102.95 103.663C102.998 103.638 103.045 103.612 103.091 103.586C103.161 103.547 103.23 103.507 103.299 103.466C103.344 103.438 103.389 103.41 103.434 103.381C103.546 103.309 103.656 103.235 103.763 103.157C103.785 103.141 103.806 103.125 103.827 103.109C103.864 103.081 103.901 103.054 103.938 103.025C104.014 102.966 104.088 102.905 104.161 102.843C104.194 102.815 104.227 102.787 104.259 102.758C104.299 102.723 104.338 102.687 104.377 102.651C104.416 102.615 104.454 102.578 104.492 102.542C104.549 102.486 104.605 102.43 104.66 102.373C104.696 102.335 104.733 102.296 104.768 102.257C104.786 102.237 104.804 102.217 104.821 102.198C104.891 102.118 104.96 102.038 105.026 101.955C105.076 101.894 105.125 101.831 105.173 101.767C105.189 101.746 105.205 101.725 105.22 101.703C105.283 101.618 105.343 101.53 105.402 101.442C105.417 101.42 105.431 101.397 105.446 101.375C105.474 101.33 105.502 101.285 105.53 101.24C105.558 101.194 105.585 101.149 105.611 101.102C105.651 101.033 105.69 100.963 105.728 100.892C105.778 100.798 105.825 100.702 105.87 100.605C105.893 100.557 105.915 100.508 105.937 100.459C106.001 100.311 106.061 100.161 106.115 100.008C106.133 99.9572 106.15 99.9062 106.167 99.8548C106.184 99.8035 106.2 99.7515 106.215 99.6995C106.231 99.6475 106.246 99.5952 106.26 99.5426C106.281 99.4637 106.301 99.3845 106.32 99.3043C106.388 99.0112 106.436 98.7106 106.463 98.4038C106.468 98.348 106.472 98.292 106.476 98.2359C106.485 98.0956 106.49 97.9541 106.49 97.8113C106.49 96.1 105.838 94.5406 104.768 93.367C104.732 93.3278 104.696 93.289 104.659 93.2508C104.604 93.1935 104.549 93.1371 104.492 93.0817C104.454 93.0447 104.415 93.0084 104.377 92.9724C104.338 92.9364 104.298 92.9007 104.259 92.8656C104.179 92.7955 104.098 92.7272 104.016 92.6608C103.985 92.6361 103.954 92.6114 103.922 92.5869C103.891 92.5625 103.859 92.5384 103.827 92.5146C103.806 92.4986 103.784 92.483 103.763 92.4673C103.677 92.405 103.59 92.3446 103.501 92.286C103.479 92.2713 103.456 92.2569 103.434 92.2425C103.389 92.2137 103.344 92.1858 103.298 92.1579C103.23 92.1166 103.161 92.0762 103.091 92.0374C103.045 92.0114 102.998 91.986 102.95 91.961C102.927 91.9485 102.903 91.9362 102.879 91.924C102.784 91.8755 102.687 91.8288 102.589 91.7847C102.565 91.7737 102.54 91.7628 102.515 91.7521C102.441 91.7199 102.367 91.6889 102.292 91.6594C102.191 91.62 102.09 91.583 101.987 91.5483C101.936 91.531 101.884 91.5141 101.832 91.4982C101.806 91.49 101.78 91.4822 101.754 91.4744C101.676 91.4512 101.597 91.4293 101.518 91.4089C101.491 91.402 101.465 91.3955 101.438 91.3889C101.092 91.3046 100.736 91.2477 100.371 91.2201C100.203 91.2073 100.033 91.2007 99.8611 91.2007C96.2006 91.2007 93.2332 94.1601 93.2332 97.8107C93.2332 97.9253 93.2363 98.0393 93.242 98.1526C93.2429 98.1705 93.2438 98.1883 93.2451 98.2062L93.246 98.2224C93.2476 98.2456 93.2492 98.2688 93.2507 98.292L93.2514 98.3023C93.2529 98.3242 93.2548 98.3461 93.2567 98.3681L93.258 98.3831C93.2602 98.4097 93.2627 98.436 93.2652 98.4623L93.2668 98.4789C93.269 98.4993 93.2712 98.5193 93.2733 98.5397L93.2755 98.5603C93.2777 98.5797 93.2799 98.5988 93.2825 98.6183L93.2853 98.6417C93.2875 98.6605 93.29 98.679 93.2925 98.6978L93.296 98.7232C93.2985 98.7419 93.3013 98.7604 93.3041 98.7792L93.3076 98.8033C93.3104 98.8218 93.3132 98.84 93.3161 98.8584L93.3201 98.8841C93.323 98.902 93.3261 98.9195 93.3292 98.937L93.334 98.964C93.3371 98.9815 93.3402 98.9987 93.3434 99.0162L93.3484 99.0438C93.3515 99.061 93.355 99.0786 93.3584 99.0958L93.3638 99.123C93.3672 99.1403 93.371 99.1575 93.3745 99.1747L93.3801 99.2019C93.3839 99.2188 93.3873 99.2354 93.3911 99.2524L93.3977 99.2815C93.4015 99.2981 93.4052 99.315 93.4093 99.3316L93.4159 99.3588C93.42 99.376 93.4244 99.3933 93.4285 99.4102L93.4351 99.4365C93.4391 99.4531 93.4435 99.47 93.4479 99.4866L93.4555 99.5157C93.4599 99.532 93.4643 99.548 93.4686 99.5642L93.4762 99.5915C93.4809 99.6081 93.4856 99.6247 93.4903 99.6413L93.4985 99.6688C93.5032 99.6854 93.5082 99.702 93.5132 99.7183L93.5211 99.744C93.5261 99.7606 93.5314 99.7775 93.5365 99.7941L93.5449 99.821C93.5503 99.8373 93.5553 99.8536 93.5606 99.8699L93.5694 99.8965C93.5748 99.9128 93.5801 99.9287 93.5858 99.945L93.5949 99.971C93.6005 99.9876 93.6065 100.004 93.6125 100.021L93.6209 100.044C93.6272 100.061 93.6332 100.078 93.6398 100.095L93.6479 100.117C93.6545 100.134 93.6608 100.152 93.6677 100.169L93.6759 100.191C93.6828 100.208 93.6894 100.226 93.6966 100.243L93.7041 100.262C93.7114 100.28 93.7186 100.298 93.7261 100.316L93.733 100.333C93.7409 100.352 93.7487 100.371 93.7569 100.39L93.76 100.397C93.7691 100.418 93.7786 100.44 93.788 100.461L93.7905 100.467C93.8034 100.496 93.8165 100.525 93.8297 100.554C93.8564 100.612 93.8837 100.67 93.912 100.727C93.9261 100.755 93.9403 100.784 93.955 100.812V100.813C93.9654 100.832 93.9754 100.851 93.9855 100.87L93.9918 100.883C94.0009 100.9 94.01 100.917 94.0194 100.934L94.0288 100.952C94.0382 100.969 94.0476 100.987 94.0571 101.004L94.0662 101.02C94.0753 101.037 94.0847 101.053 94.0938 101.069L94.1051 101.089C94.1139 101.104 94.1227 101.119 94.1318 101.135L94.1447 101.157C94.1535 101.172 94.1626 101.187 94.1713 101.202L94.1845 101.224L94.2112 101.267L94.226 101.291L94.2524 101.333L94.2674 101.357L94.2938 101.398L94.3104 101.424L94.3365 101.463L94.3531 101.488L94.3808 101.529L94.3968 101.552L94.4254 101.593L94.442 101.617L94.4696 101.655L94.4879 101.681L94.5152 101.718L94.5343 101.744L94.5616 101.781L94.5811 101.806L94.609 101.843L94.6288 101.868L94.6574 101.904L94.6775 101.929L94.7061 101.965L94.7265 101.99L94.7566 102.026L94.7751 102.048L94.8069 102.086L94.8263 102.108L94.8574 102.144L94.8775 102.167L94.9092 102.203L94.9296 102.225L94.9613 102.26L94.9821 102.282L95.0147 102.318L95.0348 102.339L95.0678 102.374L95.0894 102.396L95.1224 102.43L95.1394 102.447L95.178 102.486L95.184 102.492C95.253 102.56 95.3237 102.628 95.3959 102.693L95.4015 102.698L95.4411 102.734L95.46 102.751L95.4961 102.782L95.5187 102.802L95.5519 102.831L95.5786 102.853L95.6107 102.88L95.638 102.903L95.6725 102.931L95.6983 102.952L95.7328 102.98L95.7598 103.001L95.795 103.029L95.821 103.049L95.8562 103.075L95.8841 103.096L95.9187 103.122L95.9473 103.143L95.9815 103.168L96.0107 103.189L96.0446 103.213L96.0757 103.235L96.1083 103.257L96.1344 103.275L86.8734 116.061L86.853 116.048C86.8373 116.038 86.8212 116.029 86.8055 116.019C86.7823 116.005 86.7588 115.991 86.7355 115.977C86.7022 115.957 86.6686 115.937 86.635 115.917C86.6181 115.908 86.6015 115.898 86.5845 115.888C86.5339 115.859 86.4831 115.831 86.4319 115.803C86.3807 115.774 86.3292 115.747 86.2774 115.72C86.2429 115.701 86.2083 115.684 86.1735 115.666C86.1041 115.63 86.0341 115.596 85.9634 115.562C85.9283 115.545 85.8928 115.528 85.8573 115.512C85.8042 115.487 85.7505 115.462 85.6969 115.439C85.6611 115.423 85.625 115.407 85.5892 115.392C85.5713 115.384 85.5531 115.376 85.5352 115.369C85.4808 115.346 85.4265 115.323 85.3716 115.301C85.3351 115.286 85.2984 115.272 85.2617 115.258C85.2435 115.251 85.2249 115.244 85.2064 115.237C85.1511 115.216 85.0956 115.196 85.04 115.176C84.9471 115.142 84.8538 115.111 84.7596 115.08C84.6843 115.056 84.6086 115.032 84.5326 115.01C84.5134 115.004 84.4946 114.998 84.4755 114.993C84.4371 114.982 84.3992 114.971 84.3608 114.96C84.2842 114.939 84.207 114.919 84.1298 114.899C84.0984 114.892 84.0666 114.884 84.0352 114.876C83.9721 114.861 83.9087 114.847 83.845 114.833C83.6858 114.798 83.5253 114.767 83.3633 114.741C83.3037 114.731 83.2437 114.722 83.1834 114.713C83.1633 114.71 83.1432 114.707 83.1231 114.704C83.0427 114.693 82.962 114.683 82.881 114.673C82.8609 114.671 82.8405 114.669 82.8201 114.667C82.7592 114.66 82.6983 114.654 82.6371 114.649C82.5146 114.638 82.3918 114.63 82.2681 114.623C82.2063 114.62 82.1444 114.618 82.0822 114.616C81.9786 114.613 81.8747 114.611 81.7705 114.611C79.7679 114.611 77.9078 115.218 76.3642 116.257L64.9402 103.235C65.0102 103.152 65.0783 103.067 65.1446 102.98C65.1766 102.938 65.2083 102.896 65.2391 102.853C65.3323 102.724 65.4209 102.592 65.5047 102.457C65.5327 102.412 65.56 102.366 65.587 102.32C65.614 102.275 65.64 102.228 65.6658 102.182C65.7559 102.02 65.8394 101.853 65.916 101.682C65.9242 101.664 65.9324 101.646 65.9402 101.627C65.9644 101.572 65.9876 101.517 66.0102 101.461C66.0404 101.387 66.0693 101.312 66.0966 101.236C66.1242 101.161 66.1503 101.085 66.1751 101.008C66.1917 100.957 66.2074 100.905 66.2228 100.853C66.2611 100.724 66.2953 100.593 66.3255 100.461C66.3314 100.434 66.3374 100.408 66.3431 100.382C66.3544 100.328 66.3653 100.275 66.3754 100.222C66.3854 100.168 66.3952 100.114 66.404 100.06C66.4128 100.006 66.4209 99.9522 66.4285 99.8977C66.4435 99.7891 66.4558 99.6795 66.4655 99.5692C66.4696 99.521 66.4734 99.4725 66.4765 99.4243C66.4796 99.3757 66.4821 99.3272 66.4843 99.2783C66.4884 99.181 66.4906 99.0829 66.4903 98.9843C66.4903 98.8437 66.4853 98.7022 66.4762 98.5597C66.4467 98.1044 66.3713 97.6629 66.2554 97.2389C66.2482 97.2123 66.2407 97.186 66.2332 97.1597C66.1952 97.0278 66.1534 96.8982 66.1079 96.7701C66.0806 96.6934 66.0517 96.6173 66.0215 96.5418C66.0014 96.4914 65.9807 96.4416 65.9597 96.3919C65.9276 96.3173 65.8947 96.2437 65.8601 96.1708C65.8372 96.1222 65.8137 96.0737 65.7895 96.0258C65.6567 95.7618 65.5069 95.5085 65.3417 95.2668C65.3116 95.2229 65.2811 95.1794 65.2501 95.1362C65.2347 95.1146 65.219 95.0933 65.203 95.0717C65.1713 95.0288 65.1392 94.9865 65.1069 94.9445C64.9279 94.7138 64.7339 94.4955 64.5266 94.291C64.4701 94.2353 64.4127 94.1805 64.3543 94.1266C63.0679 92.9445 61.3171 92.2691 59.4335 92.3909C55.7827 92.632 53.0137 95.7765 53.2504 99.4196C53.258 99.5339 53.2683 99.6475 53.2815 99.7599L53.2847 99.7863C53.2869 99.8038 53.2888 99.8213 53.291 99.8389L53.2966 99.8805L53.3019 99.919C53.3051 99.9419 53.3085 99.9644 53.312 99.987L53.3139 99.9995C53.318 100.026 53.3223 100.054 53.3267 100.081V100.083C53.3308 100.106 53.3349 100.129 53.339 100.152L53.3412 100.164C53.3453 100.186 53.3494 100.209 53.3537 100.231L53.3563 100.244C53.3603 100.265 53.3644 100.286 53.3685 100.306L53.3723 100.325C53.3764 100.344 53.3804 100.364 53.3845 100.383L53.3892 100.405C53.3933 100.424 53.3977 100.443 53.4021 100.462L53.4071 100.484C53.4115 100.503 53.4162 100.522 53.4206 100.542L53.4257 100.563C53.4304 100.581 53.4351 100.6 53.4398 100.619L53.4454 100.642C53.4501 100.66 53.4549 100.678 53.4596 100.696L53.4662 100.72C53.4712 100.738 53.4762 100.756 53.4812 100.775L53.4875 100.797C53.4925 100.815 53.4979 100.833 53.5029 100.851L53.5101 100.875C53.5151 100.892 53.5205 100.91 53.5258 100.927L53.5337 100.952C53.539 100.97 53.5443 100.987 53.55 101.004L53.5578 101.028C53.5635 101.046 53.5691 101.063 53.5751 101.08L53.583 101.104C53.5889 101.121 53.5949 101.139 53.6009 101.156L53.609 101.18C53.615 101.197 53.6209 101.214 53.6272 101.231L53.636 101.255C53.6423 101.272 53.6486 101.289 53.6552 101.307L53.6633 101.328C53.6699 101.346 53.6765 101.363 53.6831 101.38L53.6922 101.404C53.6988 101.421 53.7057 101.438 53.7126 101.455L53.7214 101.476C53.7286 101.494 53.7356 101.511 53.7428 101.528L53.7519 101.55C53.7591 101.567 53.7663 101.584 53.7735 101.601L53.7827 101.622C53.7902 101.639 53.798 101.657 53.8056 101.674L53.8134 101.692C53.8216 101.71 53.8298 101.728 53.8382 101.746L53.8461 101.763C53.8546 101.782 53.863 101.8 53.8718 101.818L53.8787 101.832C53.8878 101.851 53.8969 101.87 53.906 101.889L53.9126 101.902C53.9221 101.922 53.9315 101.941 53.9412 101.96L53.944 101.966C53.9962 102.068 54.0505 102.17 54.1076 102.269C54.1268 102.303 54.1459 102.335 54.1657 102.368L54.1663 102.37C54.1786 102.39 54.1908 102.41 54.2031 102.43L54.2065 102.436C54.2182 102.455 54.2298 102.474 54.2414 102.493L54.248 102.503C54.2587 102.52 54.2696 102.537 54.2806 102.554L54.2904 102.57C54.301 102.586 54.3117 102.603 54.3227 102.619L54.3334 102.635C54.3437 102.651 54.3538 102.666 54.3642 102.681L54.3773 102.701C54.3874 102.716 54.3974 102.73 54.4075 102.745L54.4216 102.765C54.432 102.78 54.4423 102.795 54.4527 102.81L54.4665 102.829L54.497 102.871L54.5136 102.894L54.5438 102.934L54.5598 102.955L54.5909 102.996L54.6072 103.018L54.6373 103.056L54.6558 103.08L54.6863 103.118L54.7042 103.14L54.735 103.178L54.7538 103.201L54.7852 103.239L54.8037 103.26L54.8354 103.297L54.8552 103.32L54.8873 103.357L54.9061 103.378L54.9391 103.415L54.9588 103.436L54.9912 103.472L55.0122 103.494L55.0443 103.529L55.0653 103.551L55.0983 103.585L55.1187 103.606L55.1535 103.641L55.1727 103.66L55.2082 103.695L55.2282 103.715L55.2647 103.751L55.2813 103.767L55.3209 103.804L55.3372 103.819L55.378 103.857L55.3928 103.871L55.4355 103.909L55.4524 103.924L55.4933 103.96L55.5083 103.973C55.5962 104.05 55.686 104.123 55.7777 104.195L55.7922 104.206C55.8069 104.218 55.822 104.229 55.8368 104.241L55.8537 104.254L55.8952 104.285L55.9168 104.301L55.9558 104.33L55.9799 104.347L56.016 104.373L56.0443 104.393L56.0795 104.417L56.1083 104.437L56.1441 104.462L56.173 104.481L56.2095 104.505L56.2383 104.524L56.2741 104.547L56.3046 104.567L56.3401 104.589L56.3705 104.609L56.4073 104.631L56.4371 104.649L56.4745 104.671L56.5052 104.69L56.5413 104.711L56.5737 104.729L56.6104 104.75L56.6412 104.767L56.6789 104.788L56.7103 104.805L56.7483 104.825L56.7793 104.842L56.8176 104.862L56.849 104.878L56.8877 104.897L56.92 104.913L56.958 104.932L56.991 104.948L57.029 104.966L57.0635 104.982L57.0999 104.999L57.1351 105.015L57.1721 105.032L57.2073 105.047L57.2447 105.064L57.2792 105.078L57.3175 105.095L57.3524 105.109L57.39 105.124L57.4271 105.139L57.4641 105.154L57.4974 105.167L57.5386 105.182L57.5709 105.194L57.6123 105.209L57.6538 105.224L57.6868 105.236C57.7047 105.242 57.7222 105.248 57.7401 105.254L57.7762 105.266C57.7963 105.273 57.8168 105.28 57.8368 105.286L57.8733 105.297L57.9128 105.31L57.9496 105.321L57.9891 105.333L58.0249 105.343L58.0661 105.355L58.1015 105.364L58.1433 105.376L58.1788 105.385L58.2212 105.396L58.2566 105.405L58.2987 105.415L58.3377 105.424L58.376 105.433L58.4158 105.442L58.4554 105.451L58.4931 105.459L58.5339 105.468L58.5716 105.475L58.6136 105.483L58.6507 105.49L58.6928 105.498L58.7308 105.505L58.7722 105.512L58.8115 105.518L58.852 105.524L58.8906 105.53L58.9333 105.536L58.9719 105.541L59.0121 105.547L59.0532 105.552L59.0937 105.556L59.133 105.561L59.1757 105.565L59.2149 105.569L59.2573 105.573L59.2956 105.577C59.3104 105.578 59.3251 105.579 59.3402 105.58L59.3776 105.583C59.3923 105.584 59.4071 105.585 59.4218 105.586L59.4598 105.589C59.4746 105.59 59.4897 105.59 59.5044 105.591L59.5421 105.593C59.5575 105.594 59.5729 105.594 59.5883 105.595L59.6244 105.596C59.6401 105.597 59.6561 105.597 59.6721 105.598L59.7073 105.599C59.723 105.599 59.7383 105.6 59.754 105.6L59.7911 105.601C59.8062 105.601 59.8216 105.601 59.8366 105.601H59.8743C59.8897 105.601 59.9054 105.601 59.9208 105.601H59.9578C59.9735 105.6 59.9889 105.6 60.0046 105.599L60.042 105.598L60.0847 105.597L60.1261 105.596C60.1434 105.595 60.1607 105.594 60.1779 105.593L60.209 105.591C60.2373 105.59 60.2652 105.588 60.2935 105.586C61.6738 105.497 62.9275 104.993 63.9411 104.203L75.2716 117.118C73.3242 118.883 72.1012 121.428 72.1012 124.259C72.1012 124.426 72.1056 124.593 72.1141 124.758L72.1154 124.778C72.1166 124.801 72.1179 124.824 72.1191 124.847L72.1213 124.884C72.1229 124.907 72.1245 124.93 72.1261 124.954L72.1286 124.987C72.1304 125.012 72.1323 125.036 72.1342 125.06L72.1367 125.088C72.1389 125.114 72.1411 125.14 72.1436 125.166L72.1458 125.189C72.1581 125.317 72.1728 125.445 72.1901 125.572L72.1907 125.576C72.1945 125.603 72.1983 125.631 72.2023 125.658L72.2055 125.68C72.2093 125.705 72.213 125.73 72.2168 125.754L72.2215 125.784C72.2253 125.808 72.2294 125.832 72.2334 125.857L72.2385 125.886C72.2425 125.91 72.2466 125.934 72.251 125.958L72.2567 125.989C72.2608 126.012 72.2651 126.035 72.2692 126.057L72.2758 126.092C72.2802 126.114 72.2846 126.137 72.289 126.159L72.2959 126.194C72.3003 126.216 72.305 126.237 72.3094 126.259L72.3173 126.297C72.322 126.318 72.3267 126.34 72.3314 126.361L72.3389 126.396C72.344 126.418 72.3493 126.441 72.3546 126.463L72.3615 126.493C72.3672 126.517 72.3728 126.541 72.3788 126.564L72.3848 126.588C72.3911 126.613 72.3976 126.639 72.4042 126.665L72.4068 126.674C72.4382 126.796 72.4721 126.917 72.5082 127.037L72.5126 127.052C72.5198 127.076 72.5273 127.1 72.5349 127.124L72.543 127.151C72.5499 127.173 72.5568 127.194 72.5637 127.216L72.5747 127.25C72.5813 127.27 72.5882 127.291 72.5948 127.311L72.6071 127.347C72.614 127.367 72.6209 127.387 72.6278 127.407L72.6407 127.444C72.6476 127.464 72.6545 127.483 72.6614 127.503L72.6752 127.541C72.6821 127.56 72.6893 127.58 72.6966 127.599L72.7104 127.636C72.7176 127.656 72.7251 127.675 72.7324 127.695L72.7465 127.731C72.754 127.751 72.7616 127.77 72.7694 127.79L72.7839 127.826C72.7917 127.845 72.7996 127.865 72.8074 127.884L72.8222 127.92C72.83 127.939 72.8379 127.959 72.846 127.978L72.8598 128.01C72.8686 128.031 72.8777 128.052 72.8865 128.073L72.8875 128.075C72.922 128.155 72.9578 128.235 72.9945 128.314L73.0093 128.346C73.0178 128.363 73.0263 128.381 73.0347 128.399L73.0536 128.439C73.0617 128.455 73.0699 128.472 73.0781 128.488L73.0985 128.53C73.1069 128.547 73.1151 128.563 73.1236 128.58L73.144 128.62C73.1525 128.637 73.1606 128.653 73.1691 128.67L73.1911 128.712C73.1993 128.728 73.2077 128.744 73.2159 128.759L73.2388 128.802C73.2473 128.817 73.2555 128.833 73.2639 128.848L73.2872 128.891C73.296 128.907 73.3044 128.922 73.3132 128.938L73.3362 128.979C73.3449 128.994 73.3537 129.01 73.3628 129.026L73.3873 129.068C73.3961 129.083 73.4049 129.098 73.4137 129.114L73.4379 129.155C73.447 129.17 73.4561 129.185 73.4652 129.201L73.4903 129.242C73.4994 129.257 73.5085 129.272 73.5176 129.287L73.5421 129.327C73.5669 129.367 73.5924 129.407 73.6178 129.447L73.6238 129.456L73.6476 129.493C73.658 129.509 73.6687 129.525 73.679 129.541L73.7054 129.581C73.7155 129.596 73.7252 129.611 73.7352 129.626L73.7616 129.664C73.772 129.679 73.782 129.695 73.7927 129.71L73.8197 129.749C73.8301 129.763 73.8401 129.778 73.8505 129.793L73.8772 129.831C73.8878 129.846 73.8988 129.861 73.9095 129.876L73.9365 129.913C73.9472 129.928 73.9578 129.943 73.9685 129.957L73.9968 129.995C74.0078 130.01 74.0184 130.025 74.0294 130.039L74.0571 130.076C74.0684 130.091 74.0797 130.106 74.091 130.12L74.1189 130.156C74.1302 130.171 74.1418 130.186 74.1531 130.2L74.1814 130.236C74.1933 130.251 74.2056 130.267 74.2175 130.282L74.2439 130.315C74.2568 130.33 74.2696 130.346 74.2828 130.362L74.3086 130.393C74.3221 130.41 74.3359 130.426 74.3497 130.443L74.3736 130.471C74.3952 130.497 74.4169 130.522 74.4389 130.547L74.4442 130.554L74.4772 130.592L74.48 130.595L74.5149 130.635L74.5164 130.636L74.5519 130.676L74.5541 130.679L74.5896 130.718L74.5918 130.72L74.627 130.759L74.6307 130.763L74.6662 130.801H74.6665L74.7039 130.842L74.7058 130.844L74.7425 130.883L74.7438 130.884C74.7711 130.913 74.7984 130.941 74.826 130.97C74.9362 131.083 75.0493 131.194 75.1651 131.302C75.2518 131.383 75.3403 131.462 75.4298 131.54L75.433 131.543L75.4706 131.575L75.4763 131.58L75.5127 131.611L75.5193 131.617L75.5573 131.648L75.5617 131.652L75.5981 131.682L75.6069 131.69L75.6421 131.719L75.6499 131.725L75.6848 131.753L75.6948 131.762L75.7272 131.788L75.7403 131.798L75.7711 131.823L75.7846 131.833L75.8173 131.859L75.8283 131.867L75.8606 131.892L75.8747 131.903L75.9083 131.929L75.9168 131.936L75.9526 131.963L75.9645 131.972L75.9972 131.996L76.0101 132.005L76.0443 132.031L76.054 132.038L76.0889 132.063L76.1021 132.073L76.135 132.097L76.1466 132.105L76.1818 132.13L76.1928 132.138L76.227 132.162L76.2408 132.172L76.2757 132.196L76.2807 132.199C76.3708 132.261 76.4622 132.322 76.5545 132.381C76.5853 132.401 76.6161 132.42 76.6471 132.44L76.654 132.444L76.6886 132.465L76.703 132.475C76.7187 132.484 76.7341 132.494 76.7498 132.503L76.7891 132.527L76.8004 132.533L76.8324 132.553L76.8506 132.563L76.8792 132.58L76.9008 132.593L76.931 132.61L76.9489 132.62L76.98 132.638L77.0001 132.65L77.0277 132.666L77.0494 132.678L77.082 132.696L77.0971 132.704L77.1301 132.723L77.1489 132.733L77.1806 132.75L77.1988 132.76L77.2299 132.776L77.2506 132.787L77.2801 132.803L77.3021 132.815L77.3316 132.83L77.3511 132.84L77.3838 132.857L77.4035 132.867L77.4334 132.882L77.456 132.893L77.4852 132.907L77.5081 132.919L77.5373 132.933L77.5577 132.942L77.59 132.958L77.6092 132.967L77.6422 132.983L77.6635 132.993L77.6918 133.006L77.7194 133.019L77.7448 133.031L77.7681 133.041L77.7985 133.055L77.8167 133.063L77.8519 133.079L77.8679 133.086L77.9037 133.102L77.9219 133.11L77.9571 133.125L77.9706 133.13L78.0105 133.147L78.0277 133.154L78.0623 133.169C78.0927 133.181 78.1235 133.194 78.154 133.206C78.169 133.212 78.1841 133.219 78.1992 133.224L78.2237 133.234L78.2466 133.243L78.2777 133.255L78.3119 133.269L78.3304 133.276L78.364 133.289L78.386 133.297L78.4139 133.307L78.4406 133.317L78.4689 133.327L78.4953 133.337L78.5238 133.347L78.5499 133.356L78.5807 133.367L78.6045 133.375L78.635 133.385L78.6601 133.394L78.6903 133.404L78.7154 133.412L78.7439 133.422L78.7725 133.431L78.7973 133.439L78.8284 133.449L78.8529 133.457L78.8846 133.467L78.9094 133.475L78.9396 133.484L78.9684 133.493L78.9932 133.5L79.0237 133.509L79.0526 133.518L79.0771 133.525L79.111 133.535L79.1333 133.541L79.1669 133.55L79.1911 133.557L79.2221 133.566L79.2485 133.573L79.2774 133.581L79.3063 133.588L79.333 133.595L79.3634 133.603L79.3889 133.61L79.4212 133.618L79.4482 133.624L79.4765 133.631L79.5107 133.639L79.5336 133.645L79.5669 133.653L79.5923 133.659L79.6222 133.665L79.6501 133.671L79.6749 133.677L79.7098 133.684L79.728 133.688L79.7657 133.696L79.8074 133.705L79.8234 133.708C79.842 133.712 79.8608 133.716 79.8793 133.72L79.8818 133.72C79.901 133.724 79.9204 133.728 79.9399 133.731L79.9603 133.735L79.9996 133.742L80.0153 133.745L80.0573 133.753L80.0793 133.757L80.117 133.763L80.1349 133.766L80.1763 133.773L80.1974 133.777L80.2338 133.783L80.2618 133.787L80.2928 133.792L80.3183 133.795L80.3534 133.801L80.3795 133.804L80.4103 133.809L80.4385 133.813L80.4724 133.817L80.4957 133.82L80.5305 133.825L80.5582 133.829L80.5905 133.833L80.6162 133.836L80.6498 133.84L80.6784 133.843L80.7082 133.846L80.7387 133.85L80.7695 133.853L80.7971 133.855L80.8304 133.859L80.8583 133.861L80.8894 133.864L80.9196 133.867L80.9497 133.869L80.9776 133.871L81.0109 133.874L81.0395 133.876L81.0703 133.878L81.1004 133.881L81.1312 133.882L81.1598 133.884L81.1927 133.886L81.2213 133.888L81.2514 133.889L81.2819 133.891L81.3145 133.892L81.3425 133.894L81.3805 133.895L81.4022 133.896L81.4427 133.898L81.464 133.898L81.5055 133.9L81.5249 133.9C81.5406 133.901 81.556 133.901 81.5717 133.901H81.5861C81.6025 133.902 81.6185 133.902 81.6348 133.902H81.648L81.691 133.903H81.7105C81.7309 133.903 81.7513 133.903 81.7717 133.903C81.876 133.903 81.9799 133.901 82.0835 133.898C82.1457 133.896 82.2075 133.894 82.2694 133.891C82.3931 133.884 82.5159 133.876 82.6383 133.865C82.6995 133.86 82.7605 133.854 82.8214 133.847C82.8418 133.845 82.8619 133.843 82.8823 133.84C82.9633 133.831 83.044 133.821 83.1244 133.809C83.1445 133.807 83.1646 133.804 83.1847 133.801C83.2449 133.792 83.3049 133.783 83.3646 133.773C83.5266 133.746 83.687 133.715 83.8462 133.681C83.91 133.667 83.9734 133.653 84.0365 133.638C84.0682 133.63 84.0996 133.622 84.131 133.614C84.2086 133.595 84.2855 133.575 84.3621 133.554C84.4004 133.543 84.4387 133.532 84.4767 133.521C84.4959 133.515 84.5147 133.51 84.5339 133.504C84.6098 133.482 84.6858 133.458 84.7609 133.434C84.8551 133.404 84.9486 133.372 85.0413 133.338C85.1157 133.312 85.1895 133.284 85.2629 133.256C85.2997 133.242 85.3361 133.228 85.3728 133.213C85.4275 133.191 85.4821 133.169 85.5364 133.146C85.5546 133.138 85.5725 133.13 85.5904 133.122C85.6444 133.099 85.6984 133.075 85.7518 133.051C85.7876 133.035 85.8231 133.019 85.8586 133.002C85.894 132.986 85.9295 132.969 85.9647 132.952C86.0174 132.927 86.0702 132.901 86.1223 132.875C86.1747 132.848 86.2266 132.821 86.2784 132.794C86.2956 132.785 86.3129 132.776 86.3302 132.767C86.3644 132.748 86.3989 132.73 86.4328 132.711C86.484 132.683 86.5349 132.654 86.5854 132.625C86.6024 132.615 86.619 132.606 86.636 132.596C86.6696 132.577 86.7032 132.557 86.7365 132.537C86.7864 132.507 86.8363 132.477 86.8856 132.446C86.9186 132.425 86.9515 132.404 86.9842 132.384C87.0495 132.342 87.1145 132.299 87.1789 132.256C87.2432 132.213 87.307 132.169 87.3701 132.124C87.4018 132.101 87.4332 132.079 87.4646 132.056C87.5233 132.013 87.5814 131.97 87.6392 131.926C87.6583 131.911 87.6775 131.896 87.6966 131.882C87.7271 131.858 87.7576 131.834 87.788 131.81C87.8791 131.738 87.9685 131.664 88.0568 131.589C88.0715 131.576 88.086 131.564 88.1007 131.551C88.1447 131.513 88.188 131.475 88.2314 131.436C88.2744 131.398 88.3174 131.359 88.3598 131.319C88.4022 131.28 88.4442 131.24 88.486 131.2C88.5139 131.173 88.5416 131.146 88.5689 131.119C88.5965 131.092 88.6238 131.064 88.6508 131.037C88.7052 130.982 88.7589 130.927 88.8119 130.871L88.8515 130.828C88.8779 130.8 88.9039 130.772 88.93 130.743L88.9689 130.7C89.0075 130.657 89.0461 130.614 89.0841 130.57C89.1064 130.544 89.1284 130.519 89.1504 130.493C89.1944 130.442 89.2374 130.39 89.2801 130.337C89.3014 130.311 89.3228 130.284 89.3438 130.258L89.3758 130.218L102.976 137.123C102.693 137.858 102.538 138.656 102.538 139.489C102.538 139.604 102.542 139.718 102.547 139.831C102.548 139.848 102.549 139.865 102.55 139.883L102.551 139.901C102.553 139.925 102.554 139.949 102.556 139.973L102.557 139.979C102.559 140.004 102.56 140.028 102.562 140.052L102.563 140.06C102.565 140.087 102.568 140.113 102.57 140.14L102.572 140.157C102.574 140.177 102.576 140.197 102.578 140.217L102.58 140.239C102.582 140.258 102.585 140.277 102.587 140.296L102.59 140.32C102.592 140.339 102.595 140.357 102.597 140.375L102.601 140.401C102.603 140.42 102.606 140.438 102.608 140.456L102.612 140.481C102.615 140.499 102.618 140.517 102.621 140.536L102.625 140.562C102.628 140.58 102.631 140.597 102.634 140.615L102.638 140.642C102.641 140.66 102.645 140.677 102.648 140.694L102.653 140.722C102.656 140.739 102.66 140.757 102.663 140.774L102.668 140.801C102.672 140.819 102.676 140.836 102.679 140.853L102.685 140.88C102.688 140.897 102.692 140.914 102.696 140.93L102.702 140.96C102.706 140.976 102.71 140.993 102.714 141.009L102.72 141.037C102.724 141.054 102.728 141.071 102.733 141.088L102.739 141.115C102.743 141.131 102.748 141.148 102.752 141.164L102.76 141.194C102.765 141.21 102.769 141.226 102.773 141.242L102.781 141.27C102.786 141.286 102.79 141.303 102.795 141.319L102.803 141.347C102.808 141.364 102.813 141.38 102.818 141.396L102.825 141.422C102.83 141.439 102.835 141.456 102.841 141.472L102.85 141.5C102.855 141.516 102.86 141.532 102.865 141.547L102.874 141.575C102.88 141.591 102.885 141.607 102.89 141.622L102.9 141.65C102.906 141.666 102.911 141.682 102.917 141.698L102.926 141.723C102.932 141.74 102.938 141.756 102.944 141.773L102.953 141.797C102.959 141.814 102.965 141.831 102.972 141.848L102.98 141.869C102.987 141.886 102.994 141.904 103.001 141.921L103.009 141.942C103.016 141.96 103.023 141.977 103.03 141.995L103.037 142.011C103.045 142.03 103.053 142.049 103.061 142.068L103.064 142.075C103.073 142.097 103.083 142.119 103.092 142.14L103.095 142.146C103.121 142.204 103.147 142.262 103.175 142.32C103.202 142.377 103.23 142.434 103.259 142.491V142.491C103.27 142.511 103.28 142.53 103.29 142.549L103.296 142.561C103.305 142.578 103.314 142.595 103.324 142.613L103.333 142.63C103.343 142.648 103.352 142.665 103.361 142.682L103.371 142.699C103.38 142.715 103.389 142.731 103.398 142.748L103.409 142.767C103.418 142.783 103.427 142.798 103.436 142.813L103.449 142.835C103.458 142.85 103.467 142.865 103.476 142.88L103.489 142.902L103.515 142.945L103.531 142.97L103.557 143.012L103.572 143.036L103.598 143.076L103.615 143.103L103.641 143.141L103.658 143.167L103.686 143.207L103.702 143.23L103.73 143.271L103.747 143.295L103.775 143.334L103.793 143.359L103.82 143.396L103.839 143.422L103.867 143.459L103.886 143.484L103.914 143.521L103.934 143.546L103.962 143.582L103.982 143.607L104.011 143.643L104.031 143.668L104.062 143.704L104.08 143.726L104.112 143.764L104.131 143.786L104.162 143.822L104.183 143.846L104.214 143.881L104.236 143.905L104.266 143.938L104.287 143.961L104.319 143.996L104.339 144.018L104.372 144.052L104.394 144.075L104.427 144.109L104.444 144.126L104.483 144.165L104.489 144.171C104.558 144.239 104.628 144.307 104.701 144.372L104.706 144.377L104.746 144.413L104.765 144.43L104.801 144.461L104.823 144.481L104.857 144.51L104.883 144.532L104.915 144.559L104.943 144.582L104.977 144.61L105.003 144.631L105.037 144.659L105.064 144.68L105.1 144.708L105.126 144.728L105.161 144.754L105.189 144.775L105.223 144.801L105.252 144.822L105.286 144.847L105.316 144.868L105.35 144.892L105.381 144.914L105.413 144.936L105.445 144.958L105.479 144.981L105.509 145.001L105.545 145.024L105.575 145.044L105.61 145.065L105.643 145.086L105.676 145.107L105.709 145.127L105.744 145.148L105.776 145.168L105.811 145.188L105.844 145.207L105.88 145.228L105.913 145.246L105.948 145.266L105.983 145.286L106.017 145.304L106.052 145.323L106.087 145.341L106.121 145.359L106.157 145.377L106.193 145.395L106.227 145.413L106.262 145.43L106.299 145.448L106.334 145.464L106.37 145.481L106.411 145.5L106.442 145.514L106.484 145.533L106.515 145.546L106.552 145.562L106.588 145.577L106.619 145.591C106.643 145.601 106.667 145.61 106.692 145.62L106.734 145.637L106.763 145.648C106.778 145.654 106.794 145.66 106.809 145.666L106.835 145.676C106.852 145.682 106.868 145.688 106.884 145.694L106.914 145.705C106.929 145.71 106.943 145.715 106.958 145.721L106.994 145.733L107.034 145.747L107.069 145.758L107.11 145.772L107.145 145.783L107.187 145.796L107.223 145.807L107.263 145.819L107.301 145.83L107.34 145.842L107.378 145.853L107.418 145.864L107.455 145.873L107.496 145.884L107.534 145.894L107.574 145.903L107.613 145.913L107.652 145.922L107.691 145.932L107.732 145.941L107.77 145.949L107.812 145.958L107.85 145.966L107.892 145.974L107.929 145.981L107.972 145.989L108.009 145.995L108.052 146.003L108.091 146.009L108.131 146.016L108.172 146.022L108.213 146.028L108.252 146.033L108.295 146.039L108.334 146.044L108.377 146.05L108.415 146.054C108.43 146.056 108.445 146.057 108.46 146.059L108.498 146.063C108.513 146.064 108.528 146.066 108.543 146.067L108.58 146.071C108.595 146.072 108.61 146.073 108.625 146.074L108.663 146.077C108.678 146.079 108.694 146.08 108.709 146.081L108.746 146.083C108.761 146.084 108.777 146.085 108.792 146.086L108.829 146.088C108.845 146.088 108.86 146.089 108.876 146.09L108.913 146.092C108.93 146.092 108.948 146.093 108.965 146.093L108.996 146.094C109.015 146.094 109.035 146.095 109.054 146.095L109.081 146.096C109.109 146.096 109.137 146.096 109.165 146.096C109.336 146.096 109.506 146.09 109.675 146.077C110.039 146.049 110.396 145.992 110.742 145.908C110.768 145.901 110.795 145.895 110.821 145.888C110.901 145.868 110.98 145.846 111.058 145.823C111.084 145.815 111.11 145.807 111.136 145.799C111.188 145.783 111.24 145.766 111.291 145.749C111.47 145.688 111.647 145.62 111.819 145.545C111.843 145.534 111.868 145.523 111.893 145.512C111.991 145.468 112.087 145.422 112.183 145.373C112.206 145.361 112.23 145.349 112.254 145.336C112.301 145.311 112.348 145.286 112.395 145.26C112.465 145.22 112.534 145.18 112.602 145.139C112.648 145.111 112.693 145.083 112.738 145.055C112.85 144.983 112.959 144.908 113.067 144.83C113.088 144.815 113.109 144.799 113.131 144.783C113.168 144.755 113.205 144.727 113.242 144.698C113.317 144.639 113.392 144.579 113.465 144.517C113.498 144.489 113.53 144.46 113.563 144.432C113.602 144.397 113.641 144.361 113.68 144.325C113.719 144.289 113.758 144.252 113.795 144.215C113.852 144.16 113.908 144.103 113.963 144.046C114 144.008 114.036 143.969 114.071 143.93C114.089 143.911 114.107 143.891 114.125 143.871L114.126 143.877Z" fill="#ECABC4" stroke="#414056" stroke-width="2" mask="url(#path-58-inside-1_226_1748)"/>
</svg>
