<svg width="286" height="200" viewBox="0 0 286 200" fill="none" xmlns="http://www.w3.org/2000/svg">
<path d="M173.478 37.3915C172.17 37.6863 172.263 38.9824 170.491 41.2449C168.364 43.9606 166.456 44.3549 166.625 45.8011C166.735 46.7509 167.695 47.7495 168.61 47.7873C169.057 47.8057 169.41 47.592 169.883 47.2585C171.878 45.85 177.256 40.1662 176.859 39.0368C176.472 37.935 174.736 37.1087 173.479 37.3925L173.478 37.3915Z" fill="#FF5C58" stroke="black"/>
<path d="M167.684 46.3943C167.616 45.8333 167.924 45.3764 168.279 44.8652C168.828 44.0729 171.917 41.8676 175.268 37.5951C174.683 37.3583 174.033 37.2662 173.478 37.3915C172.17 37.6863 172.263 38.9824 170.491 41.2448C168.364 43.9605 166.456 44.3548 166.625 45.8011C166.735 46.7508 167.695 47.7494 168.61 47.7872C168.656 47.789 168.7 47.7872 168.745 47.7844C168.336 47.5302 167.766 47.0631 167.685 46.3962L167.684 46.3943Z" fill="#DF5151"/>
<path d="M131.757 43.7856C131.901 44.9813 133.352 45.0808 135.616 46.9628C138.332 49.2225 138.504 50.9618 140.132 51.0161C141.202 51.0511 142.445 50.3446 142.614 49.5404C142.697 49.1479 142.509 48.8062 142.205 48.3419C140.92 46.3825 135.364 40.8369 134.056 41.0303C132.778 41.2183 131.618 42.6351 131.757 43.7856Z" fill="#FF5C58" stroke="black"/>
<path d="M140.94 50.1631C140.307 50.1446 139.843 49.8084 139.325 49.4233C138.523 48.8264 136.508 45.7901 132.234 42.2334C131.89 42.717 131.696 43.2771 131.758 43.7856C131.902 44.9813 133.353 45.0808 135.617 46.9628C138.333 49.2225 138.504 50.9617 140.133 51.0161C141.203 51.0511 142.445 50.3445 142.615 49.5403C142.623 49.4998 142.627 49.4602 142.63 49.4206C142.29 49.7467 141.692 50.1843 140.941 50.1621L140.94 50.1631Z" fill="#DF5151"/>
<path d="M118.396 53.9961C118.827 54.932 120.025 54.7081 122.347 55.7555C125.135 57.0121 125.73 58.3819 127.059 58.0843C127.931 57.889 128.749 57.0581 128.675 56.3737C128.639 56.0393 128.397 55.8025 128.029 55.4912C126.477 54.1775 120.534 50.8612 119.528 51.2905C118.546 51.7096 117.982 53.096 118.395 53.9951L118.396 53.9961Z" fill="#FF5C58" stroke="black"/>
<path d="M127.487 57.226C126.972 57.343 126.508 57.1689 125.99 56.9662C125.184 56.6521 122.761 54.6217 118.375 52.6421C118.224 53.1045 118.214 53.5974 118.397 53.9953C118.828 54.9313 120.026 54.7074 122.348 55.7548C125.136 57.0113 125.731 58.3812 127.06 58.0836C127.932 57.8883 128.75 57.0574 128.676 56.3729C128.672 56.3389 128.665 56.3057 128.657 56.2735C128.468 56.6078 128.101 57.0859 127.487 57.2251V57.226Z" fill="#DF5151"/>
<path d="M161.704 38.4472C160.899 39.0054 161.405 39.8769 160.948 41.9229C160.399 44.3788 159.214 45.1683 159.822 46.1235C160.222 46.7509 161.226 47.182 161.872 46.96C162.188 46.8513 162.359 46.6081 162.573 46.2488C163.475 44.7335 165.261 39.3426 164.603 38.6692C163.959 38.0115 162.477 37.9101 161.704 38.4463V38.4472Z" fill="#FF5C58" stroke="black"/>
<path d="M160.759 46.2478C160.521 45.8775 160.578 45.4777 160.649 45.0281C160.76 44.3308 162.147 41.9679 163.011 38.1035C162.526 38.0979 162.046 38.2103 161.703 38.4471C160.898 39.0053 161.404 39.8768 160.947 41.9228C160.398 44.3787 159.213 45.1681 159.821 46.1234C160.221 46.7508 161.225 47.1819 161.871 46.9599C161.903 46.9488 161.934 46.935 161.963 46.9212C161.593 46.8558 161.04 46.6872 160.757 46.2469L160.759 46.2478Z" fill="#DF5151"/>
<path d="M136.059 64.8736C136.722 62.7797 134.36 61.7387 131.987 57.2166C129.138 51.7879 130.167 48.7646 127.475 47.6941C125.706 46.9903 123.086 47.4298 122.193 48.6761C121.757 49.2841 121.813 49.9713 121.973 50.934C122.645 54.9965 127.774 67.6501 130.117 68.1143C132.403 68.5676 135.422 66.8882 136.06 64.8745L136.059 64.8736Z" fill="#FF5C58" stroke="black"/>
<path d="M147.483 58.696C147.206 57.1907 149.126 53.5087 150.722 51.717C152.055 50.22 155.057 46.8503 160.529 45.1691C169.296 42.4746 177.158 45.5348 179.597 46.714C180.761 47.2768 183.337 48.3832 182.856 49.2988C182.305 50.3481 179.891 52.3287 178.895 52.5921C177.164 53.05 176.586 52.3102 174.706 51.6645C173.388 51.2112 169.581 49.9031 166.229 49.9151C165.423 49.9179 160.964 49.9345 158.329 52.5544C155.786 55.0812 155.433 57.3151 154.95 59.2496C154.337 61.6936 147.837 60.6158 147.484 58.6969L147.483 58.696Z" fill="#FF5C58" stroke="black"/>
<path d="M125.473 48.6395C126.52 49.0513 127.044 49.8951 127.623 50.8522C128.519 52.3372 129.602 58.6465 134.084 67.1915C135.028 66.5872 135.777 65.7636 136.059 64.8728C136.722 62.7789 134.36 61.738 131.987 57.2158C129.138 51.7872 130.167 48.7638 127.475 47.6934C125.706 46.9896 123.086 47.429 122.193 48.6754C122.148 48.738 122.111 48.8025 122.076 48.867C122.893 48.5253 124.227 48.1503 125.474 48.6404L125.473 48.6395Z" fill="#DF5151"/>
<path d="M194.569 81.8846C193.114 77.7181 174.811 76.7453 163.464 85.0968C158.815 88.5182 153.121 95.4889 155.65 100.804C157.272 104.215 161.613 105.542 163.134 106.007C167.244 107.264 173.932 107.501 177.662 103.651C179.532 101.719 180.577 98.843 180.193 96.1899C179.652 92.4526 178.541 90.1036 177.442 88.8268C177.203 88.5504 177.118 88.2547 177.173 87.9544C177.767 87.7757 178.478 87.6172 179.313 87.55C179.693 87.5196 184.391 87.1963 186.356 89.6116C187.52 91.0413 186.962 92.4941 188.227 93.0477C189.033 93.4005 190.222 93.2319 190.759 92.6553C191.833 91.5019 190.334 88.6858 188.667 87.059C188.57 86.965 187.414 85.8716 185.637 85.0683C188.78 85.2258 190.559 86.5008 192.321 86.5008C193.718 86.5008 194.966 83.0168 194.57 81.8828L194.569 81.8846Z" fill="#DF5151" stroke="black"/>
<path d="M180.006 85.9599C178.519 85.9728 175.665 86.3311 175.299 87.6245C175.123 88.2426 175.662 88.5586 176.278 89.8538C177.104 91.5912 177.755 94.4303 176.553 95.4851C175.879 96.0765 174.818 95.8627 173.837 95.8056C171.193 95.6509 163.863 91.0458 157.841 90.7593C155.522 93.9734 154.16 97.6757 155.649 100.805C157.271 104.216 161.612 105.543 163.133 106.008C167.243 107.264 173.931 107.502 177.66 103.651C179.531 101.72 180.576 98.8437 180.192 96.1907C179.65 92.4534 178.54 90.1043 177.44 88.8276C177.202 88.5512 177.117 88.2555 177.172 87.9552C177.766 87.7765 178.477 87.618 179.312 87.5508C179.692 87.5204 184.39 87.197 186.355 89.6124C187.514 91.0357 186.968 92.4801 188.209 93.0393C188.257 91.1425 187.655 89.3913 186.463 88.1551C184.31 85.9212 180.815 85.9525 180.005 85.959L180.006 85.9599Z" fill="#BD4848"/>
<path d="M106.601 107.153C105.71 109.42 106.398 112.504 107.775 118.672C109.361 125.783 111.935 136.755 120.688 148.254C126.709 156.164 131.358 158.681 133.015 159.511C135.299 160.655 139.672 162.846 145.341 162.652C152.357 162.413 157.113 158.669 162.364 154.537C166.044 151.64 172.641 146.32 176.451 136.996C177.3 134.921 180.052 127.65 178.799 118.148C178.079 112.69 177.164 105.754 171.461 100.607C165.52 95.2438 157.616 94.7463 149.156 94.3244C137.037 93.7192 111.283 95.2226 106.601 107.152V107.153Z" fill="#E44541" stroke="black"/>
<path d="M178.799 118.148C178.079 112.691 177.164 105.754 171.461 100.608C167.652 97.1708 163.038 95.7328 157.988 95.0317C160.299 103.153 161.655 113.851 158.575 125.649C156.622 133.126 152.918 147.31 141.507 151.248C135.426 153.346 128.009 152.24 120.796 148.395C126.763 156.191 131.367 158.687 133.014 159.511C135.298 160.655 139.671 162.846 145.34 162.652C152.356 162.413 157.112 158.669 162.363 154.537C166.043 151.639 172.639 146.319 176.45 136.996C177.298 134.921 180.051 127.65 178.798 118.147L178.799 118.148Z" fill="#D63232"/>
<path d="M133.909 139.969C146.275 135.825 147.251 117.557 147.473 113.411C147.864 106.082 146.191 99.5798 143.87 94.2139C130.753 94.2802 110.68 96.7591 106.601 107.152C105.71 109.419 106.398 112.503 107.775 118.671C108.745 123.02 110.087 128.815 112.984 135.289C113.827 135.898 114.731 136.478 115.714 137.017C117.565 138.032 125.96 142.632 133.909 139.968V139.969Z" fill="#EF4C48" stroke="black"/>
<path d="M178.798 118.148C178.079 112.691 177.164 105.755 171.461 100.608C171.219 100.39 170.974 100.18 170.727 99.9778C171.333 101.791 171.863 103.711 172.283 105.738C173.205 110.185 175.337 121.205 169.968 133.771C168.427 137.378 164.642 145.915 155.081 152.656C151.165 155.417 146.18 158.932 138.871 159.444C136.451 159.613 134.173 159.422 132.062 159.004C132.444 159.22 132.763 159.385 133.014 159.51C135.299 160.654 139.671 162.845 145.341 162.651C152.356 162.412 157.113 158.668 162.364 154.536C166.044 151.639 172.64 146.319 176.451 136.995C177.299 134.92 180.052 127.649 178.798 118.147V118.148Z" fill="#FB9393"/>
<path d="M158.159 133.308C158.61 133.53 159.062 133.689 159.489 133.852C159.915 134.011 160.332 134.184 160.726 134.36C161.516 134.715 162.231 135.098 162.828 135.452C163.426 135.805 163.908 136.127 164.24 136.357C164.573 136.587 164.76 136.724 164.76 136.724C164.76 136.724 164.589 136.571 164.282 136.311C163.976 136.05 163.528 135.684 162.965 135.274C162.402 134.863 161.72 134.408 160.951 133.97C160.564 133.75 160.162 133.537 159.74 133.333C159.324 133.128 158.907 132.933 158.54 132.705C158.175 132.484 157.859 132.204 157.629 131.918C157.362 131.588 157.212 131.289 157.083 130.925C156.955 130.562 156.828 130.163 156.679 129.798C156.606 129.613 156.525 129.428 156.454 129.272C156.443 129.247 156.433 129.226 156.421 129.202C156.38 128.193 156.406 127.347 156.436 126.735C156.459 126.387 156.478 126.112 156.49 125.925C156.507 125.73 156.515 125.625 156.515 125.625H156.458C156.472 125.596 156.486 125.571 156.499 125.543C157.704 123.019 158.276 121.076 158.304 117.886C158.414 105.32 160.523 100.279 160.249 100.215C159.259 99.9842 156.896 105.105 155.846 108.069C154.553 111.718 155.333 116.806 154.232 120.504C153.002 124.638 152.443 125.369 150.123 128.62C149.414 129.612 148.705 130.521 147.999 131.367C147.144 131.547 145.963 131.753 144.537 131.826C144.363 131.836 144.182 131.842 144 131.848C143.857 131.756 143.471 131.511 142.942 131.175C142.772 131.067 142.588 130.95 142.393 130.826C142.199 130.705 141.993 130.578 141.781 130.446C141.355 130.184 140.902 129.9 140.419 129.63C140.297 129.563 140.176 129.499 140.048 129.434C139.935 129.377 139.795 129.311 139.675 129.259C139.424 129.149 139.175 129.055 138.933 128.976C138.449 128.817 137.997 128.72 137.616 128.659C137.425 128.63 137.252 128.608 137.1 128.594C136.947 128.576 136.816 128.572 136.707 128.563C136.493 128.556 136.37 128.552 136.37 128.552C136.37 128.552 136.495 128.573 136.714 128.609C136.823 128.632 136.956 128.654 137.108 128.691C137.26 128.724 137.431 128.768 137.616 128.82C137.986 128.927 138.415 129.075 138.851 129.276C139.07 129.377 139.29 129.49 139.506 129.616C139.618 129.682 139.712 129.74 139.827 129.814C139.93 129.881 140.035 129.954 140.137 130.027C140.549 130.324 140.958 130.65 141.343 130.954C141.536 131.107 141.721 131.254 141.898 131.395C142.071 131.535 142.235 131.668 142.385 131.79C142.405 131.806 142.423 131.82 142.441 131.836C142.317 131.83 142.192 131.825 142.068 131.817C141.228 131.751 140.29 131.574 139.328 131.373C137.397 130.961 135.337 130.424 133.291 129.862C132.262 129.581 131.248 129.291 130.243 128.999C129.238 128.709 128.255 128.41 127.276 128.148C126.303 127.885 125.291 127.692 124.332 127.686C123.379 127.676 122.494 127.76 121.685 127.898C120.073 128.18 118.825 128.665 117.986 129.034C117.566 129.219 117.247 129.383 117.03 129.494C116.815 129.608 116.7 129.668 116.7 129.668C116.7 129.668 116.819 129.614 117.042 129.512C117.267 129.415 117.597 129.27 118.029 129.11C118.889 128.791 120.161 128.385 121.745 128.201C122.532 128.111 123.405 128.081 124.303 128.14C125.203 128.199 126.104 128.424 127.036 128.735C127.966 129.043 128.928 129.398 129.91 129.745C130.89 130.094 131.898 130.447 132.9 130.785C134.529 131.337 136.163 131.869 137.765 132.339C137.696 132.379 137.629 132.417 137.557 132.461C137.412 132.55 137.271 132.643 137.114 132.748C136.978 132.843 136.819 132.956 136.665 133.073C136.359 133.302 136.056 133.572 135.77 133.812C135.481 134.052 135.207 134.223 134.82 134.357C134.485 134.472 134.08 134.535 133.662 134.518C133.241 134.507 132.792 134.441 132.34 134.382C131.884 134.32 131.44 134.277 131.005 134.248C130.139 134.192 129.34 134.198 128.662 134.235C127.983 134.27 127.426 134.333 127.038 134.384C126.651 134.434 126.431 134.469 126.431 134.469C126.431 134.469 126.656 134.456 127.05 134.446C127.445 134.435 128.01 134.431 128.688 134.464C129.367 134.496 130.159 134.569 131.002 134.708C131.42 134.777 131.858 134.864 132.295 134.967C132.736 135.068 133.196 135.185 133.686 135.248C134.178 135.313 134.68 135.302 135.178 135.187C135.624 135.092 136.098 134.873 136.446 134.637C136.8 134.404 137.098 134.195 137.401 134.017C137.55 133.928 137.693 133.85 137.851 133.765C137.989 133.693 138.138 133.617 138.275 133.553C138.832 133.29 139.319 133.119 139.663 133.01C139.766 132.978 139.857 132.951 139.933 132.929C140.563 133.084 141.192 133.22 141.838 133.31C142.837 133.437 143.729 133.475 144.587 133.482C145.154 133.485 145.685 133.465 146.182 133.435C145.318 134.375 144.474 135.245 143.662 136.08C142.549 137.224 141.962 137.767 141.514 138.186L141.46 138.14C141.46 138.14 141.416 138.199 141.333 138.311C141.297 138.359 141.249 138.418 141.195 138.488C140.9 138.77 140.626 139.053 140.224 139.516C140.003 139.715 139.75 139.922 139.46 140.125C139.114 140.368 138.702 140.62 138.269 140.823C138.104 140.897 137.921 140.964 137.732 141.027C137.574 140.996 137.409 140.963 137.232 140.928C137.02 140.887 136.797 140.845 136.566 140.801C136.102 140.714 135.608 140.618 135.095 140.539C134.966 140.52 134.839 140.502 134.707 140.487C134.589 140.473 134.448 140.459 134.325 140.449C134.073 140.429 133.828 140.42 133.597 140.42C133.134 140.419 132.724 140.454 132.389 140.499C132.221 140.522 132.072 140.546 131.941 140.57C131.81 140.593 131.702 140.62 131.61 140.639C131.432 140.682 131.331 140.707 131.331 140.707C131.331 140.707 131.442 140.693 131.636 140.668C131.735 140.659 131.852 140.644 131.992 140.635C132.13 140.624 132.288 140.616 132.462 140.609C132.81 140.599 133.222 140.605 133.667 140.647C133.889 140.667 134.118 140.697 134.35 140.735C134.47 140.756 134.572 140.775 134.699 140.801C134.811 140.824 134.93 140.851 135.046 140.879C135.514 140.993 135.992 141.129 136.44 141.254C136.526 141.278 136.604 141.3 136.688 141.324C136.247 141.434 135.784 141.536 135.312 141.634L135.244 141.612C135.244 141.612 135.241 141.628 135.237 141.65C134.54 141.794 133.821 141.927 133.097 142.054C132.465 142.164 131.837 142.265 131.211 142.362C130.587 142.461 129.969 142.546 129.371 142.656C128.775 142.762 128.195 142.926 127.731 143.196C127.268 143.463 126.884 143.77 126.563 144.09C125.926 144.734 125.561 145.408 125.337 145.888C125.226 146.129 125.152 146.326 125.101 146.461C125.053 146.596 125.027 146.669 125.027 146.669C125.027 146.669 125.058 146.6 125.116 146.47C125.177 146.342 125.265 146.154 125.394 145.925C125.652 145.472 126.066 144.844 126.739 144.271C127.073 143.988 127.478 143.718 127.939 143.5C128.399 143.281 128.943 143.17 129.541 143.106C130.138 143.041 130.773 142.998 131.415 142.943C132.055 142.891 132.712 142.833 133.358 142.767C133.884 142.713 134.406 142.656 134.923 142.594C134.886 142.67 134.845 142.746 134.798 142.825C134.699 142.991 134.574 143.173 134.428 143.336C134.28 143.497 134.078 143.656 133.864 143.817C133.433 144.135 132.936 144.455 132.434 144.768C132.182 144.926 131.929 145.078 131.676 145.229C131.424 145.38 131.172 145.524 130.935 145.675C130.697 145.824 130.478 145.995 130.333 146.193C130.189 146.39 130.087 146.59 130.016 146.787C129.877 147.178 129.864 147.536 129.87 147.784C129.873 147.909 129.884 148.008 129.89 148.075C129.899 148.143 129.903 148.179 129.903 148.179C129.903 148.179 129.902 148.143 129.899 148.076C129.898 148.01 129.896 147.912 129.903 147.79C129.917 147.547 129.963 147.2 130.132 146.834C130.217 146.652 130.336 146.464 130.49 146.289C130.644 146.114 130.858 145.971 131.107 145.841C131.354 145.709 131.622 145.581 131.892 145.446C132.16 145.313 132.435 145.175 132.704 145.034C133.244 144.752 133.778 144.463 134.259 144.165C134.498 144.014 134.728 143.863 134.925 143.683C135.118 143.501 135.264 143.323 135.394 143.146C135.568 142.907 135.688 142.68 135.778 142.484C136.246 142.42 136.709 142.353 137.156 142.276C137.495 142.214 137.827 142.148 138.151 142.07C137.089 143.526 136.021 145.309 135.442 147.33C133.74 153.28 136.91 158.486 137.057 158.456C137.188 158.43 134.886 154.218 136.286 149.097C137.096 146.135 138.824 144.047 140.741 141.898C140.739 142.053 140.739 142.211 140.749 142.377C140.773 142.818 140.827 143.277 140.959 143.787C141.104 144.298 141.339 144.785 141.593 145.283C141.762 145.607 141.943 145.935 142.131 146.262C142.119 146.283 142.109 146.3 142.095 146.323C141.972 146.544 141.813 146.87 141.713 147.279C141.664 147.485 141.625 147.703 141.615 147.954C141.611 148.205 141.652 148.457 141.701 148.715C141.802 149.231 141.948 149.771 142.104 150.312C142.181 150.581 142.264 150.853 142.347 151.117C142.43 151.382 142.517 151.642 142.586 151.892C142.656 152.142 142.693 152.377 142.662 152.598C142.631 152.82 142.566 153.027 142.481 153.208C142.309 153.574 142.065 153.846 141.882 154.026C141.791 154.117 141.711 154.184 141.657 154.23C141.603 154.275 141.573 154.299 141.573 154.299C141.573 154.299 141.605 154.277 141.665 154.235C141.723 154.191 141.809 154.129 141.911 154.043C142.114 153.872 142.389 153.612 142.602 153.248C142.709 153.065 142.796 152.859 142.851 152.629C142.907 152.398 142.89 152.139 142.842 151.883C142.794 151.626 142.732 151.365 142.675 151.099C142.617 150.833 142.56 150.565 142.507 150.295C142.402 149.757 142.308 149.217 142.257 148.718C142.234 148.471 142.219 148.23 142.243 148.023C142.271 147.816 142.327 147.608 142.39 147.429C142.443 147.273 142.506 147.136 142.57 147.01C142.831 147.444 143.099 147.879 143.374 148.314C143.692 148.82 144.024 149.328 144.352 149.823C144.678 150.318 145.011 150.802 145.302 151.272C145.595 151.742 145.812 152.2 145.884 152.661C145.957 153.123 145.948 153.572 145.887 153.98C145.761 154.802 145.433 155.469 145.172 155.921C145.041 156.148 144.921 156.322 144.84 156.442C144.757 156.56 144.711 156.622 144.711 156.622C144.711 156.622 144.762 156.561 144.857 156.447C144.949 156.332 145.085 156.163 145.239 155.941C145.544 155.497 145.941 154.841 146.153 154.001C146.256 153.581 146.31 153.124 146.281 152.633C146.254 152.14 146.063 151.624 145.81 151.131C145.559 150.634 145.275 150.138 144.998 149.629C144.719 149.119 144.444 148.606 144.174 148.085C143.8 147.362 143.438 146.637 143.115 145.932C143.17 145.958 143.225 145.985 143.284 146.013C143.448 146.092 143.626 146.178 143.814 146.269C144.003 146.362 144.202 146.461 144.409 146.562C144.82 146.765 145.26 146.981 145.675 147.204C145.778 147.26 145.881 147.317 145.977 147.374C146.086 147.439 146.172 147.491 146.271 147.555C146.462 147.677 146.643 147.805 146.814 147.934C147.155 148.192 147.444 148.456 147.675 148.687C147.79 148.803 147.892 148.911 147.978 149.008C148.066 149.104 148.135 149.19 148.197 149.26C148.31 149.402 148.375 149.483 148.375 149.483C148.375 149.483 148.326 149.4 148.239 149.255C148.19 149.184 148.138 149.095 148.066 148.995C147.997 148.893 147.914 148.78 147.817 148.656C147.621 148.408 147.367 148.12 147.048 147.821C146.889 147.672 146.714 147.52 146.523 147.371C146.431 147.298 146.321 147.217 146.229 147.15C146.125 147.075 146.024 147.005 145.918 146.935C145.501 146.659 145.082 146.404 144.693 146.165C144.497 146.046 144.309 145.931 144.131 145.822C143.949 145.713 143.778 145.61 143.619 145.515C143.187 145.257 142.858 145.061 142.693 144.962C142.505 144.493 142.34 144.035 142.266 143.621C142.196 143.189 142.184 142.743 142.202 142.351C142.238 141.557 142.414 140.903 142.562 140.452C142.637 140.226 142.708 140.049 142.753 139.934C142.806 139.809 142.833 139.742 142.833 139.742L142.787 139.735C145.135 137.502 146.578 137.071 150.154 133.484C151.447 132.186 152.708 130.959 153.845 129.593C153.86 129.686 153.875 129.779 153.891 129.873C153.947 130.195 154.011 130.529 154.083 130.875C154.12 131.044 154.16 131.217 154.198 131.392C154.241 131.571 154.286 131.754 154.33 131.938C154.513 132.665 154.738 133.423 155.001 134.192C155.263 134.962 155.562 135.742 155.866 136.52C155.972 136.794 156.086 137.07 156.198 137.345C156.188 137.368 156.18 137.386 156.169 137.411C156.008 137.784 155.796 138.324 155.611 138.984C155.563 139.151 155.521 139.318 155.475 139.505C155.438 139.67 155.395 139.865 155.361 140.059C155.288 140.441 155.244 140.854 155.191 141.232C155.138 141.612 155.051 141.929 154.856 142.298C154.686 142.615 154.433 142.942 154.117 143.218C153.802 143.501 153.433 143.76 153.064 144.029C152.691 144.298 152.338 144.571 152.002 144.85C151.334 145.405 150.756 145.962 150.285 146.458C149.813 146.952 149.447 147.384 149.198 147.689C148.948 147.994 148.812 148.173 148.812 148.173C148.812 148.173 148.967 148.008 149.248 147.728C149.528 147.448 149.937 147.055 150.454 146.611C150.969 146.167 151.595 145.675 152.301 145.198C152.651 144.961 153.027 144.724 153.414 144.499C153.802 144.271 154.214 144.041 154.612 143.75C155.015 143.459 155.373 143.104 155.66 142.674C155.923 142.295 156.125 141.803 156.225 141.386C156.331 140.966 156.411 140.604 156.516 140.261C156.567 140.091 156.62 139.935 156.678 139.762C156.732 139.612 156.791 139.453 156.85 139.309C156.882 139.231 156.913 139.16 156.945 139.085L157.125 139.479L157.253 139.754L157.379 140.046C157.532 140.417 157.666 140.781 157.779 141.17C158.009 141.937 158.166 142.717 158.277 143.48C158.499 145.008 158.541 146.466 158.533 147.713C158.528 148.962 158.455 150.006 158.407 150.736C158.346 151.465 158.311 151.883 158.311 151.883C158.311 151.883 158.393 151.471 158.536 150.75C158.667 150.026 158.858 148.992 159.006 147.737C159.156 146.484 159.283 145.01 159.233 143.412C159.208 142.614 159.137 141.785 158.986 140.941C158.977 140.891 158.964 140.839 158.955 140.79C159.106 140.863 159.268 140.941 159.44 141.024C159.629 141.117 159.828 141.215 160.035 141.317C160.446 141.52 160.886 141.736 161.301 141.959C161.404 142.015 161.507 142.072 161.603 142.129C161.712 142.194 161.799 142.246 161.897 142.31C162.088 142.432 162.27 142.56 162.44 142.689C162.781 142.947 163.07 143.211 163.301 143.442C163.416 143.558 163.518 143.666 163.604 143.762C163.693 143.859 163.761 143.945 163.823 144.015C163.936 144.157 164.001 144.238 164.001 144.238C164.001 144.238 163.952 144.155 163.865 144.01C163.817 143.938 163.764 143.85 163.693 143.749C163.624 143.648 163.54 143.535 163.443 143.41C163.248 143.164 162.994 142.874 162.674 142.576C162.515 142.427 162.34 142.275 162.149 142.125C162.057 142.053 161.947 141.972 161.855 141.904C161.751 141.83 161.65 141.76 161.545 141.69C161.127 141.413 160.708 141.159 160.319 140.92C160.124 140.801 159.936 140.686 159.757 140.577C159.575 140.468 159.404 140.365 159.245 140.27C159.067 140.164 158.909 140.069 158.77 139.985C158.741 139.877 158.715 139.767 158.683 139.659L158.59 139.357L158.485 139.043L158.289 138.448C158.034 137.654 157.801 136.856 157.591 136.066C157.378 135.264 157.175 134.488 157.01 133.738C156.893 133.209 156.801 132.7 156.721 132.2C156.781 132.269 156.841 132.339 156.903 132.401C157.272 132.777 157.697 133.069 158.151 133.29L158.159 133.308Z" fill="#7F1F29"/>
<path d="M115.953 119.327C114.254 120.798 114.141 123.033 114.266 124.738C114.352 125.902 114.635 129.734 118.604 132.737C118.86 132.931 124.157 137.333 127.374 135.587C135.231 131.321 133.18 122.719 129.056 118.363C125.925 115.055 120.399 115.477 115.952 119.327H115.953Z" fill="#FF685C"/>
<path d="M137.102 104.805C140.09 103.59 141.68 102.29 146.841 101.89C153.249 101.393 155.74 99.8618 159.051 99.7393C159.611 99.719 165.186 97.5754 166.55 88.414C166.686 87.4947 169.478 85.1687 180.444 83.3889C186.971 82.3295 192.792 82.1517 195.282 81.9537C198.983 81.6589 200.094 74.6412 198.243 72.5317C197.248 71.3977 199.346 70.447 198.336 70.4184C186.179 70.0748 173.771 74.0277 157.412 76.6089C143.105 78.8668 143.409 74.55 139.912 74.691C139.191 74.7195 137.538 74.807 136.171 75.8692C134.506 77.1616 133.542 79.6129 134.41 81.3669C135.577 83.7252 139.041 82.7901 142.774 86.0788C143.911 87.0802 145.786 90.3541 147.25 92.6239C147.889 93.6151 142.645 96.4874 139.472 98.0562C138.566 98.5048 137.24 99.0078 134.41 100.413C132.395 101.413 131.689 98.8337 131.135 99.3164C126.543 103.322 129.078 108.069 137.104 104.805H137.102Z" fill="#7AABED" stroke="black"/>
<path d="M147.672 79.4111C148.312 78.4789 149.088 77.7778 149.813 77.2601C143.051 77.1615 142.626 74.5813 139.91 74.6909C139.189 74.7195 137.536 74.807 136.169 75.8691C134.504 77.1615 133.54 79.6129 134.408 81.3668C135.575 83.7251 139.038 82.7901 142.772 86.0787C143.887 87.0607 145.711 90.2269 147.162 92.4894C147.13 90.6009 146.395 88.3735 146.332 85.8678C146.276 83.6514 146.223 81.5225 147.672 79.4111Z" fill="#578DE5"/>
<path d="M161.923 61.0128C159.997 60.2584 153.684 57.7002 145.546 58.5597C145.213 57.4579 144.895 56.0467 144.974 54.0744C145.213 48.0719 147.546 42.2591 147.63 41.2605C147.736 39.9847 142.553 38.8737 141.452 39.0542C140.076 39.2799 138.26 41.1159 135.95 55.5474C135.63 57.5445 135.471 59.5491 135.591 61.1759C133.141 62.2758 130.487 63.9109 128.172 66.3797C124.456 70.3455 123.557 74.5241 122.89 76.9827C119.955 87.793 125.112 99.7446 127.643 101.082C129.014 101.987 131.134 102.877 139.099 99.3162C145.262 96.5609 147.794 93.9171 147.25 92.6237C147.25 92.6219 143.294 85.5793 143.141 82.3496C142.662 72.2054 151.909 71.9106 155.761 73.9723C157.259 74.7737 158.058 75.542 158.658 76.477C172.513 73.8995 170.736 74.3186 172.27 73.9723L176.124 73.1008C174.849 71.2888 170.887 64.5263 161.924 61.0138L161.923 61.0128Z" fill="#FF5C58" stroke="black"/>
<path d="M128.836 96.5916C127.957 92.3568 127.19 90.3449 128.395 87.3455C129.028 85.7702 130.115 84.3332 131.703 82.231C133.296 80.1242 134.329 79.1137 135.011 78.2966C138.864 73.6814 138.209 67.209 137.878 63.936C137.579 60.9882 136.803 58.3793 135.858 56.1565C135.601 57.9482 135.482 59.7151 135.59 61.1761C133.14 62.276 130.485 63.9111 128.171 66.3799C124.454 70.3457 123.556 74.5243 122.889 76.9829C119.954 87.7932 125.111 99.7448 127.641 101.082C128.086 101.376 128.613 101.667 129.391 101.806C129.426 100.454 129.303 98.842 128.836 96.5916Z" fill="#D34A47"/>
<path d="M159.02 69.1766C157.499 68.5354 146.92 65.0828 140.506 74.6909C137.129 79.7492 138.666 89.5314 138.138 91.6731C136.484 98.3942 128.19 98.7728 125.694 98.7636C126.394 99.9695 127.082 100.786 127.64 101.081C129.012 101.986 131.132 102.876 139.096 99.3154C145.26 96.5601 147.792 93.9163 147.248 92.6229C147.248 92.6211 143.291 85.5785 143.138 82.3488C142.659 72.2046 151.906 71.9098 155.758 73.9714C157.257 74.7729 158.056 75.5411 158.656 76.4761C160.72 76.092 165.393 75.3127 166.825 75.0492C165.788 73.6822 161.917 70.3962 159.02 69.1757V69.1766Z" fill="#DF5151"/>
<path d="M158.61 73.3782C157.966 72.9526 152.657 69.5516 147.362 71.6077C143.685 73.0364 142.247 76.2302 141.849 77.1164C140.222 80.7321 141.214 84.4556 141.408 85.1824C141.499 85.5224 141.918 87.0359 142.511 89.314C142.96 91.0403 143.128 91.7451 142.952 92.658C142.807 93.4032 142.316 94.2222 141.188 95.6086C137.692 99.8986 132.196 100.638 131.484 100.723C129.826 100.922 128.327 100.834 127.066 100.634C127.269 100.833 127.464 100.987 127.643 101.082C129.015 101.987 131.135 102.877 139.1 99.3164C145.263 96.5611 147.795 93.9172 147.251 92.6239C147.251 92.622 143.294 85.5795 143.142 82.3498C142.662 72.2055 151.909 71.9107 155.762 73.9724C157.26 74.7738 158.059 75.5421 158.659 76.4771C159.66 76.291 160.577 76.1206 161.421 75.9649C160.708 75.053 159.792 74.1603 158.612 73.3782H158.61Z" fill="#BD4848"/>
<path d="M130.846 59.5417C104.973 65.1656 103.895 91.7689 105.861 93.7393C107.19 95.0714 110.465 94.2662 117.014 92.6569C119.069 92.1521 121.449 91.4649 122.246 90.1761C122.869 89.1693 122.33 86.8939 124.917 82.8544C125.729 81.5869 128.13 78.8067 131.087 77.4369C134.606 75.8064 130.728 73.9225 130.935 73.4057C132.303 69.9881 133.167 64.2278 130.038 61.3491C129.735 61.07 132.539 59.1732 130.847 59.5417H130.846Z" fill="#A7CBFF" stroke="black"/>
<path d="M130.934 73.4058C131.581 71.7882 132.115 69.6464 132.167 67.5332C129.468 68.7713 126.56 70.5658 123.983 73.1811C123.133 74.0433 120.664 76.6752 118.47 81.8366C116.845 85.6587 115.978 89.4411 115.602 93.0025C116.055 92.8919 116.524 92.7768 117.014 92.6561C119.068 92.1513 121.448 91.4641 122.245 90.1753C122.868 89.1685 122.329 86.8931 124.916 82.8536C125.728 81.5861 128.129 78.8059 131.087 77.4361C134.605 75.8056 130.727 73.9217 130.934 73.4049V73.4058Z" fill="#73AAE0"/>
<path d="M160.015 100.215C159.026 99.985 156.663 105.106 155.613 108.069C154.32 111.718 155.099 116.807 153.998 120.505C152.768 124.639 152.21 125.37 149.889 128.62C147.682 131.713 145.456 134.002 143.433 136.081C141.168 138.41 141.081 138.253 139.911 139.616C138.523 141.232 136.183 143.956 135.215 147.339C133.513 153.289 136.683 158.495 136.829 158.465C136.961 158.439 134.659 154.227 136.059 149.106C136.939 145.889 138.9 143.704 141.012 141.35C144.416 137.558 145.633 137.805 149.926 133.496C152.357 131.058 154.677 128.871 156.265 125.545C157.471 123.02 158.043 121.078 158.071 117.888C158.181 105.321 160.29 100.281 160.015 100.216V100.215Z" fill="#771319"/>
<path d="M140.937 139.483C140.937 139.483 140.915 139.552 140.875 139.681C140.832 139.821 140.775 140.018 140.716 140.271C140.601 140.778 140.476 141.509 140.522 142.385C140.546 142.826 140.6 143.285 140.732 143.795C140.877 144.306 141.112 144.793 141.366 145.292C141.882 146.284 142.503 147.306 143.146 148.323C143.464 148.829 143.796 149.337 144.124 149.832C144.45 150.328 144.783 150.811 145.074 151.281C145.367 151.751 145.584 152.209 145.656 152.67C145.729 153.132 145.72 153.581 145.659 153.989C145.533 154.811 145.205 155.478 144.944 155.93C144.813 156.157 144.693 156.331 144.612 156.451C144.529 156.569 144.483 156.631 144.483 156.631C144.483 156.631 144.534 156.571 144.629 156.456C144.721 156.341 144.857 156.173 145.011 155.95C145.315 155.507 145.713 154.85 145.925 154.011C146.028 153.591 146.082 153.133 146.053 152.642C146.026 152.149 145.835 151.633 145.582 151.14C145.331 150.644 145.047 150.147 144.77 149.638C144.491 149.128 144.216 148.615 143.946 148.094C143.409 147.057 142.892 146.013 142.489 145.031C142.292 144.542 142.116 144.064 142.039 143.632C141.969 143.2 141.957 142.755 141.975 142.362C142.011 141.568 142.187 140.914 142.335 140.463C142.41 140.237 142.481 140.06 142.526 139.945C142.579 139.82 142.606 139.753 142.606 139.753L140.937 139.482V139.483Z" fill="#771319"/>
<path d="M117.75 116.399C117.75 116.399 117.779 116.442 117.832 116.522C117.891 116.607 117.976 116.727 118.093 116.875C118.326 117.167 118.683 117.572 119.203 117.968C119.465 118.167 119.752 118.36 120.105 118.543C120.465 118.72 120.853 118.845 121.258 118.967C122.068 119.206 122.944 119.411 123.828 119.603C124.267 119.7 124.714 119.791 125.151 119.878C125.588 119.965 126.022 120.044 126.428 120.136C126.835 120.228 127.198 120.347 127.495 120.534C127.791 120.721 128.044 120.938 128.246 121.159C128.653 121.607 128.877 122.073 129.011 122.405C129.078 122.573 129.119 122.709 129.149 122.802C129.176 122.896 129.19 122.947 129.19 122.947C129.19 122.947 129.18 122.895 129.16 122.798C129.139 122.701 129.108 122.559 129.054 122.384C128.947 122.036 128.762 121.543 128.386 121.048C128.196 120.802 127.961 120.559 127.668 120.339C127.375 120.117 126.991 119.959 126.59 119.838C126.188 119.715 125.77 119.608 125.35 119.492C124.927 119.376 124.504 119.257 124.079 119.131C123.235 118.881 122.394 118.618 121.644 118.335C121.271 118.191 120.916 118.044 120.635 117.874C120.356 117.7 120.097 117.494 119.882 117.299C119.448 116.905 119.159 116.514 118.973 116.233C118.88 116.091 118.812 115.976 118.769 115.901C118.723 115.818 118.698 115.774 118.698 115.774L117.75 116.401V116.399Z" fill="#FB9393"/>
<path d="M154.006 57.1972C153.627 58.1774 152.979 59.2948 153.675 59.4099C161.202 60.6637 166.806 64.4166 168.48 65.6805C171.561 68.0056 173.696 70.8365 175.141 73.3219L176.124 73.0998C174.848 71.2879 170.887 64.5253 161.924 61.0128C160.846 60.5909 158.395 59.6043 155.019 58.9668C155.473 57.0986 155.909 54.9587 158.33 52.5535C160.966 49.9336 165.424 49.917 166.23 49.9142C169.583 49.9013 173.389 51.2103 174.707 51.6636C176.588 52.3103 177.165 53.0491 178.896 52.5921C178.988 52.5682 179.095 52.524 179.21 52.4724C175.547 50.326 159.456 43.0891 154.007 57.1972H154.006Z" fill="#DF5151"/>
<path d="M137.242 111.825C137.242 111.825 137.298 111.828 137.403 111.833C137.515 111.836 137.674 111.841 137.876 111.837C138.278 111.828 138.854 111.79 139.512 111.627C139.844 111.544 140.184 111.44 140.551 111.281C140.917 111.114 141.25 110.897 141.59 110.665C142.265 110.2 142.945 109.666 143.619 109.12C143.953 108.849 144.289 108.569 144.613 108.294C144.939 108.02 145.255 107.743 145.567 107.496C145.879 107.246 146.193 107.043 146.533 106.928C146.873 106.813 147.216 106.748 147.535 106.722C148.179 106.671 148.737 106.766 149.121 106.854C149.314 106.898 149.465 106.943 149.567 106.973C149.669 107.006 149.724 107.023 149.724 107.023C149.724 107.023 149.67 107.002 149.568 106.962C149.466 106.924 149.317 106.868 149.124 106.809C148.74 106.693 148.179 106.555 147.509 106.557C147.173 106.56 146.817 106.598 146.448 106.691C146.077 106.784 145.716 106.98 145.38 107.208C145.042 107.437 144.708 107.685 144.364 107.931C144.02 108.179 143.673 108.425 143.318 108.669C142.614 109.155 141.9 109.629 141.216 110.025C140.875 110.221 140.539 110.401 140.224 110.514C139.906 110.623 139.569 110.7 139.269 110.75C138.659 110.852 138.135 110.846 137.769 110.827C137.585 110.817 137.441 110.801 137.346 110.791C137.242 110.779 137.188 110.772 137.188 110.772L137.24 111.823L137.242 111.825Z" fill="#FB9393"/>
<path d="M137.672 119.267C137.672 119.267 137.711 119.269 137.783 119.271C137.86 119.274 137.97 119.277 138.108 119.275C138.385 119.269 138.782 119.243 139.234 119.13C139.462 119.073 139.695 119.002 139.949 118.893C140.199 118.779 140.43 118.628 140.663 118.47C141.127 118.149 141.596 117.782 142.058 117.407C142.289 117.221 142.519 117.028 142.743 116.839C142.967 116.651 143.185 116.461 143.4 116.29C143.615 116.117 143.831 115.978 144.064 115.899C144.297 115.82 144.534 115.775 144.754 115.757C145.197 115.722 145.581 115.787 145.845 115.848C145.978 115.879 146.082 115.91 146.152 115.93C146.222 115.952 146.261 115.964 146.261 115.964C146.261 115.964 146.223 115.95 146.153 115.922C146.083 115.896 145.981 115.857 145.847 115.817C145.583 115.738 145.197 115.642 144.736 115.643C144.505 115.645 144.26 115.671 144.007 115.735C143.752 115.799 143.503 115.933 143.272 116.091C143.039 116.248 142.809 116.419 142.573 116.588C142.336 116.758 142.098 116.928 141.853 117.096C141.369 117.43 140.877 117.756 140.407 118.029C140.173 118.163 139.941 118.287 139.724 118.365C139.505 118.44 139.274 118.493 139.068 118.527C138.648 118.596 138.288 118.593 138.036 118.58C137.91 118.572 137.81 118.562 137.745 118.555C137.673 118.546 137.636 118.542 137.636 118.542L137.672 119.265V119.267Z" fill="#FB9393"/>
<path d="M142.079 145.992C142.079 145.992 142.059 146.021 142.023 146.076C141.984 146.136 141.93 146.221 141.868 146.332C141.745 146.553 141.586 146.878 141.486 147.287C141.436 147.493 141.398 147.712 141.388 147.962C141.384 148.214 141.425 148.465 141.474 148.723C141.575 149.239 141.72 149.78 141.876 150.32C141.954 150.589 142.036 150.861 142.12 151.126C142.203 151.391 142.289 151.651 142.359 151.9C142.429 152.15 142.466 152.386 142.435 152.607C142.404 152.828 142.339 153.035 142.254 153.217C142.082 153.582 141.838 153.854 141.655 154.035C141.563 154.125 141.484 154.192 141.43 154.238C141.375 154.283 141.345 154.307 141.345 154.307C141.345 154.307 141.377 154.285 141.437 154.243C141.496 154.2 141.582 154.137 141.684 154.051C141.887 153.88 142.161 153.62 142.375 153.256C142.481 153.073 142.569 152.868 142.624 152.637C142.68 152.406 142.663 152.147 142.615 151.891C142.567 151.634 142.505 151.373 142.447 151.107C142.39 150.841 142.333 150.574 142.28 150.303C142.175 149.765 142.081 149.225 142.03 148.727C142.006 148.479 141.992 148.239 142.016 148.031C142.044 147.824 142.099 147.617 142.162 147.437C142.289 147.074 142.461 146.791 142.592 146.599C142.658 146.503 142.715 146.428 142.752 146.38C142.793 146.329 142.815 146.3 142.815 146.3L142.081 145.992H142.079Z" fill="#771319"/>
<path d="M135.78 141.866C135.78 141.866 135.771 141.899 135.752 141.96C135.732 142.027 135.703 142.121 135.658 142.239C135.569 142.473 135.422 142.801 135.167 143.153C135.038 143.33 134.891 143.508 134.698 143.69C134.5 143.87 134.271 144.02 134.032 144.172C133.551 144.472 133.017 144.76 132.477 145.041C132.208 145.181 131.933 145.32 131.665 145.454C131.396 145.588 131.128 145.716 130.88 145.848C130.632 145.979 130.418 146.121 130.263 146.296C130.109 146.472 129.99 146.659 129.905 146.841C129.735 147.208 129.69 147.554 129.676 147.797C129.669 147.919 129.671 148.016 129.672 148.084C129.675 148.151 129.676 148.186 129.676 148.186C129.676 148.186 129.672 148.15 129.663 148.083C129.656 148.015 129.646 147.916 129.643 147.792C129.637 147.543 129.65 147.185 129.789 146.794C129.861 146.598 129.962 146.397 130.106 146.201C130.251 146.003 130.469 145.831 130.708 145.682C130.945 145.531 131.197 145.387 131.449 145.236C131.702 145.086 131.955 144.933 132.207 144.776C132.71 144.463 133.206 144.143 133.637 143.824C133.851 143.665 134.054 143.504 134.201 143.343C134.347 143.179 134.473 142.999 134.571 142.833C134.771 142.497 134.876 142.189 134.937 141.971C134.967 141.861 134.985 141.772 134.998 141.715C135.01 141.653 135.016 141.619 135.016 141.619L135.779 141.866L135.78 141.866Z" fill="#771319"/>
<path d="M139.052 120.109C139.052 120.109 139.045 120.142 139.03 120.205C139.016 120.274 138.997 120.369 138.98 120.492C138.947 120.737 138.919 121.091 138.978 121.507C139.009 121.717 139.054 121.934 139.139 122.172C139.23 122.411 139.363 122.635 139.505 122.864C139.794 123.32 140.134 123.786 140.483 124.249C140.657 124.48 140.838 124.711 141.014 124.936C141.191 125.16 141.371 125.381 141.53 125.594C141.69 125.809 141.813 126.019 141.866 126.237C141.92 126.455 141.936 126.669 141.924 126.867C141.899 127.263 141.771 127.592 141.666 127.816C141.613 127.929 141.564 128.016 141.531 128.075C141.495 128.134 141.477 128.165 141.477 128.165C141.477 128.165 141.499 128.135 141.539 128.077C141.578 128.019 141.636 127.933 141.699 127.823C141.825 127.601 141.987 127.274 142.052 126.867C142.083 126.663 142.089 126.444 142.055 126.211C142.021 125.977 141.909 125.737 141.766 125.511C141.626 125.282 141.469 125.055 141.315 124.821C141.16 124.588 141.006 124.353 140.855 124.113C140.555 123.637 140.263 123.157 140.029 122.702C139.913 122.475 139.81 122.253 139.754 122.051C139.703 121.847 139.678 121.635 139.67 121.447C139.653 121.068 139.709 120.749 139.759 120.529C139.785 120.418 139.811 120.332 139.829 120.275C139.848 120.214 139.859 120.181 139.859 120.181L139.051 120.11L139.052 120.109Z" fill="#FB9393"/>
<path d="M117.716 115.374C117.716 115.374 117.673 115.41 117.59 115.478C117.502 115.552 117.38 115.658 117.236 115.799C116.949 116.081 116.569 116.506 116.268 117.085C116.118 117.377 115.986 117.691 115.896 118.068C115.817 118.448 115.819 118.847 115.831 119.261C115.864 120.087 115.972 120.971 116.098 121.86C116.16 122.301 116.231 122.75 116.304 123.188C116.376 123.625 116.458 124.058 116.511 124.466C116.565 124.875 116.565 125.249 116.446 125.572C116.327 125.894 116.147 126.181 115.942 126.42C115.524 126.901 115.005 127.209 114.622 127.404C114.43 127.502 114.267 127.57 114.156 127.616C114.044 127.661 113.984 127.685 113.984 127.685C113.984 127.685 114.048 127.665 114.167 127.626C114.285 127.585 114.46 127.527 114.668 127.441C115.083 127.268 115.655 126.992 116.147 126.532C116.392 126.299 116.611 126.025 116.776 125.7C116.943 125.374 116.988 124.972 116.974 124.563C116.963 124.152 116.926 123.728 116.899 123.301C116.871 122.872 116.845 122.44 116.829 122.008C116.795 121.144 116.78 120.285 116.833 119.506C116.862 119.12 116.904 118.748 117.007 118.443C117.118 118.14 117.278 117.849 117.443 117.604C117.777 117.108 118.17 116.752 118.462 116.516C118.609 116.398 118.733 116.311 118.814 116.254C118.904 116.193 118.951 116.16 118.951 116.16L117.714 115.373L117.716 115.374Z" fill="#FB9393"/>
<path d="M142.456 139.19C142.456 139.19 142.406 139.247 142.312 139.352C142.21 139.464 142.065 139.621 141.869 139.812C141.477 140.192 140.884 140.71 140.063 141.191C139.648 141.433 139.2 141.661 138.658 141.865C138.11 142.059 137.53 142.174 136.929 142.283C135.724 142.492 134.432 142.641 133.132 142.773C132.486 142.839 131.83 142.896 131.189 142.95C130.547 143.004 129.912 143.047 129.315 143.113C128.716 143.176 128.173 143.287 127.713 143.506C127.251 143.724 126.847 143.993 126.513 144.277C125.84 144.85 125.427 145.478 125.168 145.932C125.039 146.159 124.951 146.348 124.89 146.476C124.832 146.606 124.801 146.675 124.801 146.675C124.801 146.675 124.827 146.603 124.875 146.467C124.925 146.333 124.999 146.135 125.111 145.894C125.335 145.414 125.699 144.741 126.337 144.097C126.658 143.775 127.042 143.468 127.505 143.201C127.969 142.931 128.549 142.768 129.145 142.661C129.743 142.552 130.361 142.466 130.985 142.368C131.611 142.271 132.239 142.17 132.871 142.059C134.128 141.84 135.38 141.602 136.507 141.318C137.068 141.175 137.605 141.022 138.041 140.825C138.475 140.621 138.887 140.369 139.232 140.127C139.932 139.635 140.423 139.125 140.747 138.754C140.908 138.567 141.028 138.413 141.105 138.312C141.188 138.201 141.232 138.141 141.232 138.141L142.456 139.189V139.19Z" fill="#771319"/>
<path d="M122.442 105.137C122.442 105.137 122.563 105.181 122.788 105.262C122.904 105.303 123.045 105.355 123.213 105.416C123.405 105.49 123.627 105.576 123.875 105.672C124.116 105.77 124.367 105.885 124.647 106.007C124.923 106.145 125.223 106.277 125.536 106.452C126.163 106.785 126.857 107.204 127.554 107.749C128.249 108.293 128.952 108.963 129.543 109.77C129.841 110.175 130.103 110.609 130.319 111.045C130.452 111.301 130.545 111.526 130.639 111.761C130.731 111.995 130.81 112.226 130.883 112.452C131.026 112.903 131.136 113.316 131.262 113.678C131.387 114.042 131.53 114.362 131.726 114.677C131.821 114.836 131.937 114.989 132.057 115.144C132.183 115.293 132.319 115.459 132.452 115.582C132.698 115.828 133.057 116.093 133.442 116.337C134.224 116.834 135.122 117.307 135.991 117.779C136.863 118.252 137.705 118.689 138.553 119.085C138.986 119.282 139.41 119.474 139.826 119.663C140.255 119.855 140.696 120.083 141.08 120.332C141.176 120.396 141.271 120.461 141.365 120.524C141.452 120.587 141.537 120.65 141.623 120.712C141.804 120.847 141.969 120.98 142.128 121.115C142.446 121.385 142.728 121.665 142.985 121.941C143.495 122.497 143.894 123.045 144.208 123.545C144.52 124.046 144.757 124.496 144.934 124.872C145.111 125.248 145.238 125.547 145.315 125.753C145.396 125.958 145.438 126.067 145.438 126.067C145.438 126.067 145.378 125.964 145.267 125.771C145.157 125.578 144.986 125.299 144.755 124.952C144.525 124.606 144.225 124.197 143.85 123.754C143.474 123.312 143.012 122.84 142.459 122.384C142.18 122.158 141.881 121.934 141.555 121.725C141.391 121.622 141.222 121.519 141.054 121.426C140.971 121.378 140.87 121.327 140.778 121.277C140.69 121.233 140.6 121.188 140.51 121.144C140.14 120.97 139.76 120.832 139.327 120.701C138.882 120.565 138.428 120.426 137.966 120.284C137.034 119.987 136.072 119.635 135.131 119.275C134.189 118.911 133.231 118.56 132.237 118.102C131.737 117.867 131.235 117.609 130.721 117.231C130.468 117.049 130.265 116.866 130.05 116.674C129.843 116.476 129.637 116.273 129.451 116.051C129.073 115.613 128.759 115.123 128.516 114.659C128.27 114.193 128.084 113.764 127.901 113.4C127.81 113.217 127.719 113.047 127.627 112.888C127.534 112.733 127.433 112.571 127.349 112.458C127.136 112.153 126.916 111.892 126.684 111.658C126.215 111.187 125.688 110.811 125.158 110.503C124.629 110.196 124.093 109.963 123.598 109.78C123.357 109.683 123.109 109.614 122.895 109.538C122.669 109.474 122.461 109.41 122.279 109.362C122.101 109.319 121.943 109.279 121.805 109.245C121.638 109.207 121.495 109.176 121.38 109.15C121.143 109.098 121.017 109.07 121.017 109.07L122.441 105.139L122.442 105.137Z" fill="#FB9393"/>
<path d="M163.043 95.0142C163.92 93.1295 170.859 96.8253 172.877 97.6746C174.777 98.4742 180.952 101.419 182.583 107.166C184.171 112.764 180.895 125.505 178.678 123.496C172.063 117.502 167.439 118.157 161.543 115.289C156.304 112.74 155.509 103.095 155.65 100.806C155.874 97.1873 161.32 98.7239 163.043 95.0151V95.0142Z" fill="#FFA5A4" stroke="black"/>
<path d="M171.239 115.553C169.255 114.833 168.071 115.147 166.226 114.013C165.489 113.56 164.037 112.501 163.268 110.768C162.343 108.68 163.383 107.81 162.579 106.021C161.705 104.078 159.899 103.815 158.527 102.543C157.709 101.785 157.008 100.633 156.791 98.8032C156.15 99.2325 155.71 99.8313 155.65 100.804C155.509 103.094 156.304 112.738 161.543 115.287C167.439 118.156 172.063 117.501 178.678 123.494C178.785 123.592 178.896 123.653 179.008 123.684C178.362 122.345 177.506 120.97 176.37 119.655C174.822 117.864 173.55 116.392 171.24 115.552L171.239 115.553Z" fill="#F98080"/>
<path d="M162.847 87.3453C161.779 89.359 160.594 98.7644 146.92 99.7391C143.906 99.9537 141.549 101.331 138.54 102.69C135.351 104.13 134.871 104.722 133.247 104.854C131.573 104.989 130.146 104.666 129.057 104.255C129.799 105.938 132.578 106.643 137.102 104.804C140.09 103.589 141.68 102.289 146.841 101.889C153.249 101.392 155.318 101.782 158.537 101.081C171.157 98.3324 158.537 86.1643 180.443 83.3878C187.011 82.555 192.791 82.1506 195.281 81.9526C196.466 81.8577 196.562 79.7002 197.204 78.6095C192.653 78.0669 167.397 78.7578 162.847 87.3453Z" fill="#568BE8"/>
<path d="M198.56 70.469C196.829 69.9679 194.531 72.1161 193.428 75.2676C192.325 78.419 192.834 81.3797 194.565 81.8808C196.296 82.382 198.594 80.2337 199.697 77.0823C200.8 73.9309 200.291 70.9702 198.56 70.469ZM198.751 76.8096C197.834 79.4305 196.134 81.0527 195.086 81.0527C195.007 81.0527 194.936 81.0425 194.866 81.0223C194.418 80.8933 194.063 80.2973 193.913 79.4304C193.725 78.3333 193.893 76.9156 194.373 75.543C195.29 72.9222 196.99 71.3 198.038 71.3C198.117 71.3 198.188 71.3101 198.258 71.3304C199.15 71.5883 199.786 73.8517 198.75 76.8106L198.751 76.8096Z" fill="#9CD0FF"/>
<path d="M195.123 81.0692C195.042 81.0692 194.968 81.0591 194.897 81.0388C194.436 80.909 194.069 80.3129 193.917 79.4433C193.722 78.3443 193.895 76.9248 194.391 75.5485C195.336 72.9231 197.086 71.2981 198.166 71.2981C198.247 71.2981 198.321 71.3082 198.392 71.3285C199.312 71.5874 199.966 73.8544 198.899 76.8179C197.955 79.4433 196.204 81.0683 195.124 81.0683L195.123 81.0692Z" fill="#776174"/>
<path d="M149.958 132.869C149.958 132.869 149.826 132.897 149.579 132.95C149.312 133.005 148.933 133.08 148.445 133.16C147.47 133.316 146.059 133.493 144.358 133.484C143.5 133.478 142.608 133.438 141.609 133.313C140.609 133.173 139.65 132.929 138.665 132.665C136.706 132.126 134.683 131.468 132.668 130.786C131.667 130.448 130.659 130.094 129.679 129.746C128.697 129.399 127.735 129.043 126.805 128.736C125.873 128.425 124.971 128.2 124.072 128.141C123.172 128.081 122.3 128.112 121.514 128.201C119.929 128.386 118.657 128.792 117.797 129.111C117.365 129.271 117.036 129.416 116.811 129.513C116.588 129.615 116.469 129.669 116.469 129.669C116.469 129.669 116.584 129.608 116.798 129.495C117.016 129.384 117.334 129.221 117.755 129.035C118.593 128.667 119.843 128.182 121.454 127.899C122.263 127.761 123.147 127.677 124.101 127.686C125.059 127.693 126.071 127.885 127.044 128.149C128.023 128.411 129.006 128.71 130.011 129C131.017 129.292 132.03 129.582 133.06 129.863C135.106 130.424 137.166 130.962 139.096 131.374C140.059 131.575 140.996 131.752 141.837 131.818C142.68 131.876 143.545 131.869 144.304 131.829C145.842 131.749 147.099 131.517 147.965 131.327C148.399 131.23 148.737 131.142 148.957 131.084C149.195 131.018 149.323 130.983 149.323 130.983L149.958 132.871V132.869Z" fill="#771319"/>
<path d="M109.783 103.888C109.783 103.888 109.894 103.958 110.103 104.088C110.327 104.231 110.64 104.433 111.03 104.706C111.807 105.254 112.891 106.079 114.01 107.222C114.573 107.799 115.132 108.421 115.688 109.172C116.233 109.932 116.663 110.735 117.093 111.568C117.939 113.233 118.728 115.022 119.49 116.819C119.87 117.712 120.242 118.62 120.598 119.506C120.958 120.392 121.295 121.27 121.654 122.095C122.01 122.924 122.418 123.675 122.965 124.316C123.511 124.956 124.115 125.519 124.711 125.985C125.917 126.922 127.1 127.502 127.938 127.866C128.358 128.048 128.699 128.173 128.929 128.258C129.163 128.34 129.286 128.384 129.286 128.384C129.286 128.384 129.159 128.348 128.922 128.279C128.685 128.207 128.336 128.103 127.903 127.945C127.037 127.629 125.803 127.116 124.498 126.226C123.846 125.777 123.189 125.242 122.565 124.599C121.936 123.954 121.427 123.151 121.004 122.327C120.574 121.499 120.175 120.645 119.752 119.78C119.331 118.915 118.902 118.046 118.457 117.172C117.573 115.433 116.659 113.701 115.726 112.138C115.257 111.362 114.784 110.618 114.283 110.013C113.773 109.411 113.193 108.838 112.657 108.358C111.571 107.384 110.543 106.698 109.81 106.244C109.442 106.019 109.144 105.851 108.949 105.743C108.736 105.627 108.622 105.565 108.622 105.565L109.785 103.891L109.783 103.888Z" fill="#FB9393"/>
<path d="M156.282 125.626C156.282 125.626 156.274 125.73 156.257 125.926C156.245 126.113 156.226 126.387 156.203 126.736C156.167 127.437 156.14 128.443 156.21 129.649C156.227 129.95 156.251 130.264 156.282 130.588C156.3 130.753 156.317 130.92 156.336 131.09C156.356 131.255 156.378 131.423 156.399 131.593C156.492 132.282 156.62 133.005 156.786 133.756C156.95 134.506 157.153 135.282 157.367 136.083C157.577 136.874 157.81 137.672 158.066 138.466L158.261 139.061L158.366 139.375L158.459 139.677C158.584 140.101 158.688 140.538 158.762 140.956C158.914 141.799 158.984 142.629 159.009 143.427C159.059 145.025 158.932 146.498 158.782 147.752C158.635 149.007 158.443 150.04 158.312 150.764C158.169 151.486 158.087 151.898 158.087 151.898C158.087 151.898 158.122 151.48 158.183 150.751C158.232 150.02 158.304 148.977 158.309 147.728C158.317 146.48 158.275 145.023 158.053 143.494C157.941 142.732 157.785 141.951 157.555 141.185C157.441 140.796 157.309 140.43 157.154 140.061L157.028 139.769L156.9 139.494L156.631 138.906C156.278 138.119 155.946 137.323 155.64 136.534C155.336 135.756 155.037 134.976 154.775 134.206C154.512 133.437 154.288 132.678 154.104 131.952C154.06 131.768 154.015 131.585 153.972 131.406C153.933 131.231 153.894 131.058 153.857 130.889C153.785 130.544 153.721 130.21 153.665 129.887C153.442 128.6 153.348 127.513 153.301 126.753C153.283 126.37 153.27 126.069 153.26 125.865C153.254 125.668 153.251 125.564 153.251 125.564L156.284 125.628L156.282 125.626Z" fill="#771319"/>
<path d="M169.318 76.84C172.367 72.1668 174.741 64.939 175.684 64.1183C176.825 63.1252 179.922 64.5521 180.704 65.4218C181.412 66.2103 177.135 74.6872 177.135 74.6872C174.804 75.741 168.6 77.9399 169.318 76.84Z" fill="#7AABED" stroke="black"/>
<path d="M130.177 110.908C130.177 110.908 130.249 110.918 130.385 110.936C130.51 110.954 130.705 110.978 130.95 111.003C131.441 111.053 132.147 111.106 133.001 111.095C133.212 111.093 133.443 111.085 133.66 111.074C133.91 111.06 134.136 111.046 134.377 111.024C134.866 110.981 135.368 110.903 135.957 110.828C136.54 110.746 137.263 110.741 137.868 110.853C138.548 110.969 139.162 111.196 139.713 111.5C140.261 111.799 140.736 112.141 141.2 112.457C141.658 112.774 142.126 113.073 142.584 113.345C143.505 113.892 144.413 114.347 145.21 114.703C146.007 115.061 146.692 115.325 147.176 115.502C147.66 115.679 147.941 115.772 147.941 115.772C147.941 115.772 147.651 115.704 147.149 115.574C146.646 115.443 145.93 115.243 145.086 114.956C144.242 114.672 143.271 114.299 142.265 113.827C141.759 113.589 141.252 113.332 140.744 113.05C140.238 112.773 139.742 112.49 139.24 112.278C138.746 112.061 138.214 111.935 137.731 111.896C137.17 111.852 136.722 111.903 136.208 112.017C135.697 112.131 135.144 112.271 134.617 112.366C134.351 112.417 134.081 112.458 133.851 112.493C133.588 112.53 133.354 112.559 133.118 112.584C132.182 112.684 131.392 112.698 130.841 112.694C130.563 112.691 130.35 112.685 130.195 112.678C130.053 112.672 129.976 112.669 129.976 112.669L130.179 110.908H130.177Z" fill="#FB9393"/>
<path d="M157.578 137.458C157.578 137.458 157.549 137.504 157.496 137.591C157.446 137.671 157.371 137.798 157.281 137.956C157.101 138.275 156.857 138.74 156.624 139.321C156.566 139.464 156.506 139.623 156.452 139.774C156.393 139.947 156.34 140.103 156.29 140.273C156.185 140.616 156.105 140.978 155.999 141.398C155.899 141.815 155.698 142.307 155.434 142.686C155.147 143.116 154.789 143.471 154.386 143.762C153.988 144.053 153.576 144.283 153.188 144.511C152.802 144.736 152.426 144.973 152.075 145.21C151.369 145.687 150.744 146.179 150.228 146.623C149.711 147.066 149.303 147.459 149.022 147.74C148.741 148.02 148.586 148.185 148.586 148.185C148.586 148.185 148.723 148.007 148.972 147.701C149.221 147.396 149.587 146.965 150.059 146.47C150.529 145.974 151.108 145.417 151.776 144.862C152.113 144.583 152.465 144.31 152.838 144.041C153.207 143.773 153.576 143.513 153.891 143.23C154.206 142.954 154.46 142.628 154.63 142.31C154.825 141.942 154.912 141.624 154.965 141.244C155.018 140.866 155.062 140.453 155.135 140.071C155.17 139.877 155.212 139.682 155.249 139.518C155.295 139.329 155.337 139.163 155.385 138.996C155.571 138.335 155.782 137.796 155.943 137.423C156.025 137.236 156.09 137.093 156.14 136.99C156.185 136.895 156.21 136.844 156.21 136.844L157.578 137.458Z" fill="#771319"/>
<path d="M139.984 132.853C139.984 132.853 139.933 132.867 139.834 132.894C139.745 132.918 139.605 132.958 139.434 133.012C139.09 133.121 138.601 133.292 138.046 133.554C137.908 133.619 137.76 133.694 137.621 133.766C137.463 133.852 137.321 133.929 137.172 134.019C136.868 134.197 136.571 134.406 136.217 134.639C135.869 134.875 135.395 135.094 134.949 135.189C134.452 135.303 133.949 135.315 133.456 135.249C132.967 135.187 132.507 135.07 132.065 134.968C131.627 134.865 131.191 134.779 130.772 134.71C129.931 134.571 129.137 134.498 128.459 134.466C127.78 134.432 127.216 134.437 126.821 134.448C126.427 134.458 126.201 134.471 126.201 134.471C126.201 134.471 126.42 134.435 126.809 134.385C127.196 134.335 127.754 134.272 128.431 134.237C129.109 134.2 129.909 134.194 130.774 134.25C131.209 134.279 131.654 134.322 132.11 134.384C132.562 134.442 133.01 134.509 133.432 134.52C133.849 134.536 134.254 134.474 134.589 134.359C134.978 134.225 135.25 134.053 135.539 133.813C135.826 133.574 136.13 133.304 136.435 133.075C136.588 132.957 136.748 132.845 136.884 132.75C137.041 132.643 137.182 132.552 137.327 132.463C137.899 132.109 138.412 131.861 138.778 131.701C138.962 131.62 139.104 131.562 139.21 131.52C139.307 131.483 139.358 131.462 139.358 131.462L139.984 132.855V132.853Z" fill="#771319"/>
<path d="M153.513 127.62C153.513 127.62 153.55 127.662 153.622 127.738C153.687 127.808 153.786 127.921 153.907 128.062C154.148 128.347 154.482 128.765 154.829 129.3C154.916 129.431 155.005 129.578 155.089 129.717C155.183 129.878 155.267 130.024 155.35 130.182C155.523 130.503 155.675 130.845 155.864 131.241C156.046 131.636 156.344 132.087 156.68 132.418C157.049 132.794 157.474 133.086 157.928 133.307C158.378 133.529 158.831 133.688 159.258 133.851C159.684 134.01 160.101 134.183 160.494 134.359C161.284 134.714 162 135.098 162.597 135.451C163.195 135.804 163.676 136.126 164.009 136.356C164.341 136.586 164.528 136.724 164.528 136.724C164.528 136.724 164.358 136.571 164.051 136.31C163.744 136.049 163.297 135.684 162.733 135.274C162.171 134.862 161.489 134.407 160.72 133.969C160.332 133.749 159.931 133.536 159.509 133.332C159.093 133.127 158.676 132.932 158.309 132.704C157.944 132.483 157.628 132.203 157.397 131.918C157.131 131.587 156.981 131.288 156.852 130.924C156.724 130.561 156.597 130.162 156.448 129.797C156.375 129.612 156.293 129.428 156.223 129.271C156.14 129.093 156.065 128.937 155.985 128.779C155.668 128.159 155.35 127.663 155.117 127.321C154.999 127.15 154.905 127.02 154.836 126.927C154.772 126.84 154.738 126.794 154.738 126.794L153.515 127.617L153.513 127.62Z" fill="#771319"/>
<path d="M134.404 117.502C134.404 117.502 134.342 118.205 134.25 119.259C134.227 119.52 134.202 119.802 134.176 120.101C134.155 120.403 134.132 120.721 134.108 121.051C134.065 121.708 134.012 122.409 134.012 123.087C134.013 123.256 134.018 123.426 134.03 123.587C134.043 123.77 134.06 123.915 134.084 124.085C134.133 124.413 134.208 124.734 134.302 125.042C134.488 125.659 134.754 126.218 135.018 126.682C135.152 126.914 135.283 127.124 135.408 127.305C135.528 127.49 135.65 127.641 135.743 127.771C135.943 128.023 136.057 128.165 136.057 128.165C136.057 128.165 135.918 128.039 135.676 127.818C135.562 127.702 135.412 127.568 135.26 127.4C135.102 127.235 134.932 127.043 134.754 126.827C134.401 126.393 134.024 125.856 133.711 125.231C133.555 124.919 133.412 124.586 133.296 124.238C133.24 124.069 133.183 123.872 133.14 123.708C133.094 123.523 133.057 123.344 133.023 123.162C132.894 122.438 132.823 121.732 132.75 121.071C132.715 120.742 132.682 120.423 132.65 120.121C132.622 119.815 132.596 119.527 132.572 119.259L132.417 117.502H134.402H134.404Z" fill="#FB9393"/>
<path d="M143.172 132.617C143.172 132.617 142.765 132.286 142.155 131.789C142.004 131.667 141.84 131.534 141.667 131.394C141.491 131.254 141.305 131.106 141.113 130.953C140.727 130.649 140.319 130.323 139.906 130.026C139.804 129.953 139.698 129.88 139.596 129.814C139.48 129.739 139.386 129.681 139.274 129.615C139.058 129.489 138.839 129.376 138.62 129.276C138.183 129.074 137.754 128.925 137.384 128.82C137.2 128.768 137.028 128.724 136.876 128.69C136.725 128.653 136.591 128.632 136.482 128.608L136.138 128.551C136.138 128.551 136.261 128.555 136.476 128.563C136.584 128.572 136.715 128.575 136.868 128.593C137.021 128.607 137.194 128.63 137.384 128.658C137.766 128.719 138.217 128.817 138.701 128.975C138.943 129.054 139.193 129.148 139.443 129.258C139.565 129.311 139.703 129.376 139.817 129.433C139.945 129.497 140.065 129.562 140.187 129.629C140.671 129.899 141.123 130.183 141.549 130.445C141.761 130.577 141.967 130.704 142.161 130.825C142.356 130.948 142.54 131.065 142.71 131.174C143.383 131.602 143.831 131.887 143.831 131.887L143.172 132.615V132.617Z" fill="#771319"/>
<path d="M138.631 141.957C138.631 141.957 138.152 141.818 137.434 141.608C137.256 141.557 137.064 141.502 136.86 141.443C136.654 141.385 136.437 141.323 136.212 141.26C135.764 141.135 135.286 141 134.818 140.885C134.701 140.858 134.583 140.83 134.471 140.807C134.344 140.781 134.241 140.762 134.122 140.742C133.89 140.703 133.661 140.673 133.439 140.653C132.994 140.611 132.582 140.605 132.234 140.615C132.06 140.621 131.902 140.629 131.764 140.641C131.625 140.65 131.508 140.665 131.408 140.674C131.214 140.698 131.103 140.713 131.103 140.713C131.103 140.713 131.204 140.688 131.382 140.645C131.474 140.626 131.581 140.6 131.713 140.577C131.843 140.552 131.993 140.528 132.161 140.505C132.496 140.461 132.905 140.426 133.369 140.427C133.6 140.427 133.844 140.436 134.097 140.455C134.219 140.464 134.36 140.479 134.479 140.493C134.611 140.509 134.738 140.526 134.867 140.545C135.38 140.625 135.874 140.72 136.338 140.807C136.569 140.851 136.792 140.894 137.004 140.934C137.218 140.976 137.419 141.016 137.606 141.054C138.343 141.2 138.834 141.298 138.834 141.298L138.631 141.96V141.957Z" fill="#771319"/>
<path d="M141.949 145.489C141.949 145.489 142.392 145.703 143.056 146.023C143.22 146.102 143.398 146.188 143.586 146.279C143.775 146.372 143.974 146.471 144.181 146.572C144.592 146.775 145.031 146.991 145.447 147.214C145.55 147.27 145.653 147.327 145.749 147.384C145.858 147.449 145.944 147.501 146.043 147.565C146.234 147.687 146.415 147.815 146.586 147.944C146.927 148.202 147.216 148.466 147.447 148.697C147.562 148.813 147.664 148.921 147.75 149.018C147.838 149.114 147.907 149.2 147.969 149.27C148.082 149.412 148.147 149.493 148.147 149.493C148.147 149.493 148.098 149.41 148.011 149.265C147.962 149.194 147.91 149.105 147.838 149.005C147.769 148.903 147.686 148.79 147.589 148.666C147.393 148.419 147.139 148.13 146.82 147.831C146.661 147.682 146.486 147.53 146.295 147.381C146.203 147.308 146.093 147.227 146.001 147.16C145.897 147.085 145.796 147.015 145.69 146.945C145.273 146.669 144.854 146.414 144.465 146.175C144.269 146.056 144.081 145.941 143.903 145.832C143.721 145.723 143.55 145.62 143.39 145.525C142.764 145.15 142.345 144.9 142.345 144.9L141.948 145.488L141.949 145.489Z" fill="#771319"/>
<path d="M157.578 140.249C157.578 140.249 158.021 140.463 158.685 140.782C158.849 140.862 159.027 140.947 159.215 141.038C159.404 141.131 159.603 141.23 159.81 141.331C160.221 141.535 160.661 141.751 161.076 141.973C161.179 142.03 161.282 142.087 161.378 142.144C161.487 142.208 161.574 142.261 161.672 142.324C161.863 142.447 162.044 142.575 162.215 142.704C162.556 142.962 162.845 143.225 163.076 143.457C163.191 143.573 163.293 143.68 163.379 143.777C163.468 143.874 163.536 143.96 163.598 144.03C163.711 144.171 163.776 144.253 163.776 144.253C163.776 144.253 163.727 144.17 163.64 144.025C163.592 143.953 163.539 143.865 163.468 143.764C163.398 143.663 163.315 143.55 163.218 143.425C163.022 143.178 162.768 142.889 162.449 142.591C162.29 142.441 162.115 142.289 161.924 142.14C161.832 142.067 161.722 141.986 161.63 141.919C161.526 141.845 161.425 141.774 161.32 141.704C160.902 141.428 160.483 141.174 160.094 140.934C159.898 140.816 159.711 140.7 159.532 140.592C159.35 140.483 159.179 140.38 159.02 140.285C158.393 139.91 157.975 139.659 157.975 139.659L157.577 140.247L157.578 140.249Z" fill="#771319"/>
<path d="M128.69 100.639C127.44 95.9051 123.894 93.2327 123.657 84.637C123.586 82.0585 117.482 84.158 115.373 84.8839C106.866 87.8096 103.281 95.7724 102.69 98.1316C99.8919 109.269 105.961 121.156 108.437 118.362C110.215 116.355 112.642 114.861 115.204 113.567C116.32 113.65 117.845 113.541 119.005 113.307C122.958 112.509 125.098 109.76 124.848 108.808C127.87 106.879 129.708 104.494 128.691 100.639H128.69Z" fill="#FFA5A4" stroke="black"/>
<path d="M128.689 100.639C127.44 95.9051 123.893 93.2327 123.657 84.637C123.631 83.7158 122.835 83.3934 121.727 83.3906C121.891 84.0935 122.06 84.8903 122.22 85.7719C122.46 87.092 122.66 88.4996 122.882 90.8864C123.236 94.6882 123.411 96.5886 123.323 97.5752C123.224 98.6871 122.85 102.88 119.354 106.428C117.913 107.89 114.004 111.983 108.767 111.149C106.028 110.713 103.628 109.041 102.084 106.678C102.798 114.446 106.602 120.431 108.436 118.361C108.547 118.236 108.661 118.112 108.776 117.991C111.17 115.485 114.572 113.944 118.219 113.438C118.491 113.4 118.756 113.356 119.002 113.307C121.889 112.723 123.809 111.1 124.537 109.897C125.069 109.018 125.767 108.235 126.564 107.533C128.509 105.821 129.493 103.691 128.687 100.639H128.689Z" fill="#F98080"/>
<path d="M115.456 87.3481C114.964 86.9068 111.795 88.6525 109.606 90.3622C106.835 92.5252 105.752 94.538 105.391 95.2731C104.956 96.1612 103.573 98.9837 104.781 99.8552C105.48 100.36 106.871 100.083 107.78 99.6083C109.631 98.6419 109.571 96.8134 110.456 94.4818C112.222 89.8307 115.988 87.8252 115.455 87.3471L115.456 87.3481Z" fill="#FFC1C0"/>
<path d="M134.553 68.7073C134.935 64.5086 133.713 60.9939 131.824 60.8571C129.934 60.7203 128.092 64.0132 127.71 68.2119C127.328 72.4107 128.55 75.9254 130.44 76.0622C132.33 76.199 134.171 72.9061 134.553 68.7073Z" fill="#603E4E"/>
<path d="M195.123 81.0692C195.042 81.0692 194.968 81.0591 194.897 81.0388C194.436 80.909 194.069 80.3129 193.917 79.4433C193.722 78.3443 193.895 76.9248 194.391 75.5485C195.336 72.9231 197.086 71.2981 198.166 71.2981C198.247 71.2981 198.321 71.3082 198.392 71.3285C199.312 71.5874 199.966 73.8544 198.899 76.8179C197.955 79.4433 196.204 81.0683 195.124 81.0683L195.123 81.0692Z" fill="#603E4E"/>
<path d="M198.392 71.3292C198.319 71.309 198.246 71.2988 198.166 71.2988C197.829 71.2988 197.426 71.4573 197.004 71.7548C197.529 72.6373 197.702 74.4724 196.898 76.7017C196.248 78.51 195.214 79.8439 194.281 80.4988C194.452 80.7835 194.663 80.9723 194.897 81.0387C194.969 81.0589 195.043 81.0691 195.123 81.0691C196.203 81.0691 197.954 79.4441 198.899 76.8186C199.966 73.8552 199.311 71.5881 198.392 71.3292Z" fill="#776174"/>
<path d="M131.872 59.3768C129.427 59.2 127.075 63.1234 126.618 68.1402C126.162 73.157 127.773 77.3678 130.218 77.5447C132.663 77.7216 135.015 73.7982 135.472 68.7814C135.928 63.7645 134.317 59.5537 131.872 59.3768ZM134.555 68.7086C134.173 72.9074 132.331 76.1998 130.441 76.0634C128.551 75.9262 127.33 72.4118 127.712 68.213C128.094 64.0142 129.935 60.7218 131.825 60.8581C133.715 60.9954 134.937 64.5098 134.555 68.7086Z" fill="#BFF1FC"/>
<path d="M149.954 79.097C149.954 79.097 150.472 78.9874 151.386 78.8253C151.842 78.7415 152.399 78.653 153.036 78.5462C153.674 78.4384 154.394 78.3278 155.181 78.209C155.968 78.0911 156.819 77.9557 157.722 77.8313C158.623 77.7033 159.573 77.5679 160.558 77.4278C161.047 77.3597 161.545 77.2897 162.049 77.2187C162.533 77.1524 163.054 77.0326 163.561 76.9405C164.582 76.7443 165.626 76.5803 166.596 76.3509C167.078 76.2376 167.599 76.093 168.1 75.9705C168.602 75.8424 169.093 75.7098 169.56 75.5716C170.025 75.4288 170.464 75.2741 170.855 75.0861C171.051 74.9922 171.236 74.889 171.413 74.7757C171.503 74.7204 171.587 74.6596 171.674 74.6016L171.799 74.5076L171.862 74.4607L171.87 74.4551C171.882 74.4459 171.801 74.5187 171.839 74.4837L171.855 74.468L171.887 74.4376C171.887 74.4376 171.878 74.4413 171.877 74.445C171.879 74.445 171.898 74.4174 171.908 74.4045C171.932 74.3759 171.96 74.3298 171.986 74.293C172.04 74.211 172.092 74.1226 172.145 74.0323C172.252 73.8517 172.356 73.6647 172.456 73.4777C172.653 73.0964 172.845 72.7233 173.032 72.3594C173.406 71.6261 173.725 70.9159 174.046 70.2683C174.666 68.9593 175.182 67.8695 175.544 67.1058C175.904 66.3384 176.123 65.9009 176.123 65.9009C176.123 65.9009 176.063 66.3771 175.893 67.1988C175.728 68.0224 175.447 69.1886 175.022 70.5704C174.82 71.265 174.553 72.0029 174.266 72.7878C174.123 73.1802 173.965 73.5809 173.784 73.9899C173.694 74.1953 173.599 74.4026 173.495 74.6145C173.441 74.7204 173.384 74.8282 173.32 74.9397C173.284 74.9986 173.256 75.0511 173.213 75.1156C173.189 75.1497 173.178 75.1709 173.145 75.216C173.107 75.2649 173.067 75.3137 173.028 75.3588L172.998 75.3911L172.982 75.4067L172.935 75.4509L172.926 75.4592L172.849 75.5246L172.696 75.6554C172.589 75.7384 172.483 75.8249 172.369 75.9042C172.142 76.0626 171.9 76.2091 171.65 76.339C171.151 76.6052 170.622 76.7959 170.101 76.9608C169.58 77.1275 169.059 77.2565 168.542 77.3818C168.022 77.508 167.52 77.6231 166.971 77.7355C165.875 77.9483 164.811 78.0469 163.769 78.1436C162.721 78.2339 161.691 78.3232 160.692 78.4089C159.698 78.4808 158.738 78.5508 157.827 78.6171C156.917 78.6862 156.055 78.7322 155.26 78.7848C154.465 78.8327 153.735 78.8769 153.089 78.9165C152.442 78.9533 151.879 78.9856 151.414 79.0123C150.484 79.0666 149.954 79.097 149.954 79.097Z" fill="#BBE2FF"/>
<path d="M178.622 73.917C178.622 73.917 178.679 73.894 178.785 73.8516C178.892 73.8083 179.05 73.7521 179.258 73.6904C179.675 73.5605 180.268 73.4002 180.989 73.2353C181.35 73.1533 181.74 73.0649 182.156 72.9857C182.571 72.9055 183.009 72.8134 183.465 72.7406C183.92 72.666 184.389 72.5767 184.87 72.5122C185.35 72.4449 185.839 72.3758 186.326 72.3077C186.816 72.246 187.305 72.1888 187.789 72.1382C188.271 72.0829 188.749 72.0516 189.21 72.0092C190.133 71.9346 190.998 71.8876 191.743 71.872C192.486 71.8508 193.109 71.8627 193.545 71.8793C193.982 71.9014 194.229 71.9254 194.229 71.9254C194.229 71.9254 193.985 71.9797 193.56 72.0553C193.349 72.0949 193.092 72.1492 192.796 72.199C192.501 72.2524 192.169 72.3187 191.806 72.3768C191.443 72.4403 191.05 72.5131 190.633 72.5757C190.217 72.6439 189.778 72.7195 189.322 72.783C188.867 72.8493 188.398 72.9267 187.919 72.9903C187.44 73.0548 186.953 73.1193 186.467 73.1847C185.979 73.2427 185.491 73.3007 185.012 73.3578C184.532 73.4186 184.057 73.4592 183.599 73.5098C183.14 73.5605 182.696 73.5983 182.275 73.636C181.855 73.6775 181.455 73.7079 181.086 73.7346C180.351 73.7963 179.73 73.8304 179.304 73.8617C179.09 73.8783 178.917 73.8848 178.802 73.9014C178.685 73.9124 178.623 73.9179 178.623 73.9179L178.622 73.917Z" fill="#BBE2FF"/>
<path d="M131.825 60.859C131.389 60.8277 130.956 60.9806 130.543 61.2827C131.843 62.3523 132.587 65.3056 132.277 68.7094C131.983 71.9401 130.825 74.6318 129.446 75.6405C129.749 75.8902 130.083 76.0376 130.441 76.0643C132.331 76.2015 134.172 72.9083 134.554 68.7094C134.937 64.5106 133.715 60.9963 131.825 60.859Z" fill="#776174"/>
<path d="M142.927 62.73C142.927 62.73 143.293 62.5641 143.967 62.3034C144.301 62.1708 144.715 62.0262 145.197 61.8723C145.68 61.7231 146.23 61.5591 146.844 61.4172C147.457 61.2763 148.132 61.1464 148.856 61.0432C149.579 60.9373 150.352 60.8765 151.157 60.8507C151.358 60.8406 151.561 60.8415 151.766 60.8406H152.075L152.404 60.8526C152.805 60.8691 153.199 60.8857 153.614 60.917C154.047 60.9686 154.484 61.0202 154.922 61.0727C155.348 61.1436 155.772 61.2247 156.199 61.3021C156.625 61.385 157.039 61.502 157.464 61.5904C157.885 61.6899 158.294 61.817 158.708 61.9285C159.119 62.0473 159.515 62.1892 159.909 62.3302C160.302 62.4711 160.669 62.648 161.035 62.8147C161.395 62.9897 161.731 63.1887 162.059 63.3822C162.385 63.5793 162.683 63.7976 162.977 64.004C163.27 64.2103 163.532 64.4379 163.795 64.6442C164.049 64.8607 164.285 65.0772 164.508 65.2881C164.949 65.7128 165.323 66.1264 165.63 66.5078C165.942 66.8846 166.182 67.2365 166.371 67.5294C166.56 67.8214 166.694 68.0591 166.778 68.2267C166.864 68.3916 166.905 68.4828 166.905 68.4828L166.708 68.6413C166.708 68.6413 166.61 68.5971 166.435 68.5086C166.345 68.4663 166.24 68.4091 166.117 68.3437C165.992 68.2792 165.845 68.2083 165.691 68.1217C165.537 68.0342 165.361 67.9449 165.172 67.8463C164.987 67.7459 164.787 67.6372 164.572 67.5202C164.151 67.2917 163.676 67.0347 163.159 66.7537C162.648 66.4848 162.094 66.1937 161.51 65.886C161.212 65.7441 160.918 65.5847 160.612 65.4327C160.301 65.2872 160 65.1168 159.683 64.9602C159.365 64.8063 159.052 64.6295 158.729 64.4636C158.398 64.3107 158.079 64.1219 157.739 63.9662C157.397 63.816 157.057 63.6465 156.701 63.5084C156.345 63.3739 155.984 63.2394 155.616 63.1205C155.244 63.0146 154.871 62.9096 154.501 62.8046C154.132 62.7226 153.763 62.6406 153.399 62.5595C153.01 62.4904 152.603 62.4398 152.214 62.3725L151.953 62.3292L151.672 62.297C151.485 62.2758 151.299 62.2528 151.114 62.2399C149.634 62.1091 148.225 62.1478 147.019 62.2601C145.813 62.3725 144.813 62.5595 144.114 62.7032C143.419 62.8479 143.02 62.9547 143.02 62.9547L142.927 62.7336V62.73Z" fill="#EA3636"/>
<path d="M124.678 63.981C124.678 63.981 124.421 64.1127 123.971 64.343C123.524 64.5751 122.892 64.9114 122.157 65.3471C121.788 65.5627 121.4 65.8132 120.992 66.0785C120.583 66.3438 120.164 66.6405 119.737 66.9537C119.311 67.2641 118.876 67.6114 118.46 67.9578C118.246 68.142 118.03 68.3281 117.813 68.5151C117.608 68.703 117.404 68.8919 117.198 69.0798C116.997 69.2769 116.796 69.4741 116.595 69.6703C116.401 69.8729 116.208 70.0747 116.016 70.2755C115.83 70.4818 115.646 70.6864 115.463 70.889C115.289 71.0972 115.109 71.299 114.942 71.5035C114.606 71.9134 114.289 72.316 114 72.7084C113.855 72.9046 113.714 73.0944 113.583 73.2832C113.45 73.4702 113.32 73.6508 113.203 73.8295C113.083 74.0064 112.97 74.1777 112.865 74.3417C112.758 74.5047 112.655 74.6595 112.565 74.8078C112.382 75.1053 112.223 75.3651 112.092 75.5798C111.834 76.0146 111.687 76.2624 111.687 76.2624C111.687 76.2624 111.706 76.1933 111.744 76.0643C111.782 75.9353 111.838 75.7465 111.921 75.5088C112.005 75.2721 112.105 74.9819 112.243 74.6576C112.377 74.3315 112.536 73.9658 112.734 73.5771C113.117 72.7941 113.637 71.9079 114.283 71.0152C114.606 70.5694 114.962 70.1217 115.343 69.6841C115.535 69.4667 115.734 69.2521 115.934 69.0374C116.143 68.8301 116.352 68.622 116.561 68.4128C116.779 68.2102 117.004 68.013 117.225 67.8141C117.446 67.6206 117.67 67.4502 117.891 67.2687C118.127 67.0762 118.353 66.9141 118.586 66.7464C118.818 66.5815 119.049 66.4221 119.282 66.2747C120.21 65.676 121.125 65.2062 121.93 64.8681C122.331 64.693 122.705 64.5549 123.04 64.4406C123.372 64.3218 123.667 64.2389 123.909 64.1698C124.152 64.1007 124.345 64.0565 124.475 64.0261C124.606 63.9975 124.676 63.9819 124.676 63.9819L124.678 63.981Z" fill="#DEEEF9"/>
<path d="M144.908 59.2332C145.036 59.2977 145.178 59.3179 146.066 59.2332C147.019 59.142 147.639 59.1641 147.638 59.0121C147.633 58.5828 147.579 58.1287 147.548 57.645C147.488 57.9297 147.455 58.1922 147.46 58.4188C146.834 58.4465 146.197 58.4916 145.547 58.5598C145.214 57.458 144.896 56.0467 144.974 54.0745C145.214 48.0719 147.547 42.2592 147.631 41.2606C147.655 40.9677 147.398 40.6839 146.979 40.4214C141.548 53.1219 144.341 58.9458 144.909 59.2332H144.908Z" fill="#DF5151"/>
<path d="M167.869 97.9364C168.373 97.5357 172.046 98.818 174.718 100.406C175.736 101.01 177.455 102.05 178.661 103.698C181.167 107.119 180.017 111.179 179.076 111.244C178.334 111.296 178.303 108.819 175.548 105.207C171.994 100.549 167.272 98.4099 167.868 97.9355L167.869 97.9364Z" fill="#FFC1C0"/>
</svg>
