<svg width="286" height="200" viewBox="0 0 286 200" fill="none" xmlns="http://www.w3.org/2000/svg">
<g clip-path="url(#clip0_226_1887)">
<path d="M20.3603 73.6539C21.7597 73.6539 22.894 72.517 22.894 71.1146C22.894 69.7121 21.7597 68.5752 20.3603 68.5752C18.961 68.5752 17.8267 69.7121 17.8267 71.1146C17.8267 72.517 18.961 73.6539 20.3603 73.6539Z" fill="#EBEBEB"/>
<path d="M11.439 72.3907C12.2461 72.3907 12.9003 71.735 12.9003 70.9262C12.9003 70.1174 12.2461 69.4617 11.439 69.4617C10.632 69.4617 9.97778 70.1174 9.97778 70.9262C9.97778 71.735 10.632 72.3907 11.439 72.3907Z" fill="#EBEBEB"/>
<path d="M27.6922 66.4041C28.4992 66.4041 29.1535 65.7485 29.1535 64.9396C29.1535 64.1308 28.4992 63.4751 27.6922 63.4751C26.8852 63.4751 26.231 64.1308 26.231 64.9396C26.231 65.7485 26.8852 66.4041 27.6922 66.4041Z" fill="#EBEBEB"/>
<path d="M22.894 79.5463C23.2975 79.5463 23.6246 79.2185 23.6246 78.814C23.6246 78.4096 23.2975 78.0818 22.894 78.0818C22.4904 78.0818 22.1633 78.4096 22.1633 78.814C22.1633 79.2185 22.4904 79.5463 22.894 79.5463Z" fill="#EBEBEB"/>
<path d="M92.7178 189.488C94.1171 189.488 95.2515 188.351 95.2515 186.949C95.2515 185.547 94.1171 184.41 92.7178 184.41C91.3185 184.41 90.1841 185.547 90.1841 186.949C90.1841 188.351 91.3185 189.488 92.7178 189.488Z" fill="#EBEBEB"/>
<path d="M108.617 189.878C109.424 189.878 110.078 189.222 110.078 188.413C110.078 187.605 109.424 186.949 108.617 186.949C107.809 186.949 107.155 187.605 107.155 188.413C107.155 189.222 107.809 189.878 108.617 189.878Z" fill="#EBEBEB"/>
<path d="M98.4818 179.699C99.2888 179.699 99.943 179.044 99.943 178.235C99.943 177.426 99.2888 176.77 98.4818 176.77C97.6747 176.77 97.0205 177.426 97.0205 178.235C97.0205 179.044 97.6747 179.699 98.4818 179.699Z" fill="#EBEBEB"/>
<path d="M79.5837 191C79.9872 191 80.3143 190.672 80.3143 190.268C80.3143 189.863 79.9872 189.536 79.5837 189.536C79.1801 189.536 78.853 189.863 78.853 190.268C78.853 190.672 79.1801 191 79.5837 191Z" fill="#EBEBEB"/>
<path d="M92.7179 176.967C93.1214 176.967 93.4486 176.639 93.4486 176.235C93.4486 175.831 93.1214 175.503 92.7179 175.503C92.3144 175.503 91.9873 175.831 91.9873 176.235C91.9873 176.639 92.3144 176.967 92.7179 176.967Z" fill="#EBEBEB"/>
<path d="M82.3396 41.5373C80.1392 41.1905 77.9003 41.5545 75.9434 42.6336C75.858 42.6807 75.7939 42.7364 75.7469 42.7963C74.4993 41.9698 73.0594 41.5074 71.581 41.396C71.0854 41.1862 70.6881 40.8993 70.6582 40.5396C70.5983 40.2527 70.5257 39.97 70.4445 39.6917C70.9487 38.908 71.3931 38.0302 71.5554 37.6062C72.0425 36.9939 72.4655 36.3344 72.8201 35.6364C72.9227 35.6964 73.0423 35.7392 73.1705 35.752C75.1445 35.9576 77.1611 35.7306 79.0454 35.1011C79.3915 34.9855 79.6179 34.6344 79.5197 34.2661C79.4257 33.9278 79.0368 33.6752 78.6865 33.7908C76.9646 34.3646 75.1658 34.5701 73.3585 34.4074C73.7345 33.3968 73.9737 32.3348 74.0592 31.2471C74.1361 30.2794 74.0677 29.3116 73.8926 28.3566C73.8242 27.9969 73.3927 27.7914 73.0594 27.8813C72.6834 27.9841 72.521 28.3523 72.5851 28.7163C73.0808 31.367 72.3672 34.1933 70.7949 36.3772C70.2822 36.7798 69.7139 37.0324 69.1371 37.0538C67.8339 35.2253 65.8813 33.8978 63.6125 33.4139C62.8264 33.0028 62.4376 32.7117 62.0103 31.7353C62.1086 31.0373 62.1641 30.335 62.1726 29.6327C62.2068 29.5985 62.241 29.5599 62.2709 29.5214C63.463 27.9498 65.2746 26.9007 67.2144 26.5581C67.5733 26.4939 67.7784 26.0528 67.6887 25.7231C67.5861 25.3419 67.2187 25.1878 66.8555 25.2477C65.0396 25.5689 63.3904 26.4553 62.0829 27.7271C61.9376 26.3611 61.6257 25.0122 61.1301 23.7233C61.0019 23.3807 60.6729 23.1452 60.2969 23.2479C59.9722 23.3379 59.6945 23.7361 59.8227 24.083C60.7669 26.5581 61.0489 29.2388 60.6259 31.8424C60.1389 32.4847 59.6133 33.0971 59.0835 33.5895C58.7844 33.6794 58.4896 33.7822 58.2033 33.9021C57.0113 34.022 55.6397 33.5167 54.5075 32.9857C54.469 32.96 54.4263 32.9343 54.3879 32.9086C54.3836 32.8915 54.3793 32.8787 54.3708 32.8615C53.5077 30.9517 53.6743 28.6521 54.7297 26.8578C55.174 26.1042 54.0033 25.4233 53.5632 26.1727C52.5207 27.9498 52.2387 30.0567 52.6959 32.0308C51.068 31.3413 49.2948 30.9988 47.5388 31.0587C46.4877 31.093 45.4409 31.2728 44.4411 31.594C43.6165 31.8595 43.9711 33.1699 44.8 32.9001C47.7738 31.9409 51.0637 32.4333 53.7 34.0691C54.4562 35.0712 54.375 36.1974 54.0161 37.4007C53.0975 38.831 52.5592 40.531 52.5592 42.3595C52.5592 42.3895 52.5592 42.4195 52.5592 42.4494C52.4865 43.0061 52.2003 43.9182 51.1235 44.0039C48.5514 43.7512 46.0604 42.4794 44.4753 40.4197C44.2531 40.1285 43.8942 39.9743 43.5524 40.1756C43.2661 40.3426 43.0867 40.8094 43.3088 41.1005C44.6248 42.8134 46.4279 44.0767 48.4275 44.779C46.7868 46.8687 44.0779 47.9864 41.4502 47.7765C41.0871 47.7466 40.7751 48.1106 40.7751 48.4531C40.7751 48.8428 41.0871 49.0997 41.4502 49.1297C44.6248 49.3824 47.7481 47.8964 49.6666 45.3742C49.7178 45.3057 49.7477 45.2286 49.7563 45.1515C50.1921 45.2457 50.6322 45.3143 51.0723 45.3571C51.0723 45.3571 51.0723 45.3656 51.0723 45.3699C52.9266 45.5541 53.9819 47.2755 53.9819 47.2755V47.267C54.4819 48.0549 55.0971 48.7657 55.8106 49.3652C56.0499 49.7635 56.2465 50.1575 56.0115 50.5686C55.9901 50.6028 55.9773 50.6371 55.9645 50.667C53.6487 53.3563 49.8674 54.3926 46.4706 53.2792C45.6417 53.0094 45.2871 54.3155 46.1117 54.5853C48.2865 55.2961 50.7219 55.2704 52.8582 54.4483C52.9394 54.4183 53.0163 54.3797 53.0975 54.3455C53.623 56.568 53.1231 58.9189 51.7687 60.7603C51.5508 61.0557 51.7217 61.5182 52.0123 61.6852C52.3541 61.8865 52.7215 61.7366 52.9351 61.4411C54.5417 59.2615 55.0501 56.3624 54.3451 53.7545C54.3451 53.746 54.3409 53.7417 54.3366 53.7331C55.2253 53.2193 56.0286 52.5769 56.7293 51.8232C56.7293 51.8275 56.7335 51.8361 56.7335 51.8404C57.0027 51.6348 57.4684 51.0739 58.0965 50.7827C59.1989 51.258 60.4166 51.5192 61.6941 51.5192C63.0485 51.5192 64.3303 51.2237 65.484 50.6927H65.4797C66.1847 50.5172 66.9538 50.3844 67.5947 50.6842C67.9108 51.0524 68.2655 51.3865 68.6457 51.6905C68.0561 54.6881 69.0516 57.9169 71.282 60.0194C71.9143 60.6189 72.8714 59.6597 72.239 59.0602C70.4744 57.3944 69.59 54.9107 69.8805 52.5127C70.3206 52.7611 70.7821 52.9752 71.2521 53.155C73.5935 54.05 76.1742 54.0457 78.6438 53.9943C79.5111 53.9772 79.5154 52.6197 78.6438 52.6411C76.3493 52.6883 73.9908 52.7097 71.8032 51.9217C70.5086 51.4593 69.3165 50.6842 68.4748 49.6093C68.4748 49.5965 68.4748 49.5879 68.4748 49.5751C68.4449 48.9542 68.7825 48.2776 68.9619 47.9221C69.9062 46.6846 70.5428 45.1986 70.7564 43.5757C70.859 43.2845 71.0384 42.8777 71.282 42.7149C72.6919 42.792 74.0763 43.2631 75.2385 44.0767C76.7083 45.1044 77.7508 46.6889 78.1951 48.4189C78.413 49.2625 79.7162 48.907 79.4983 48.0592C79.0668 46.372 78.1353 44.8518 76.8621 43.6784C78.4259 42.882 80.2417 42.5651 81.9764 42.8391C82.3353 42.8948 82.7028 42.7449 82.8096 42.3638C82.8993 42.0426 82.6985 41.5887 82.3353 41.5288L82.3396 41.5373Z" fill="#EBEBEB"/>
<path d="M61.6427 45.2286C63.4172 45.2286 64.8558 43.7868 64.8558 42.0083C64.8558 40.2298 63.4172 38.7881 61.6427 38.7881C59.8682 38.7881 58.4297 40.2298 58.4297 42.0083C58.4297 43.7868 59.8682 45.2286 61.6427 45.2286Z" fill="#E0E0E0"/>
<path d="M216.403 30.7888C217.202 32.8743 218.637 34.63 220.547 35.7948C220.629 35.8461 220.71 35.8718 220.787 35.8847C220.697 37.3792 221.017 38.8651 221.658 40.2012C221.722 40.7364 221.68 41.2246 221.381 41.4302C221.163 41.6229 220.953 41.8284 220.757 42.0425C219.825 41.9954 218.847 42.0511 218.398 42.1196C217.625 42.004 216.843 41.9654 216.061 42.0083C216.061 41.8884 216.035 41.7642 215.984 41.6443C215.172 39.8286 213.972 38.1885 212.485 36.8696C212.211 36.6255 211.793 36.6084 211.528 36.8782C211.28 37.1265 211.259 37.5933 211.536 37.8374C212.895 39.045 213.967 40.5052 214.732 42.1539C213.673 42.3337 212.63 42.6592 211.652 43.1259C210.776 43.5413 209.973 44.0851 209.238 44.7189C208.96 44.9587 208.998 45.434 209.246 45.6781C209.524 45.9522 209.926 45.9094 210.203 45.6696C212.246 43.9139 215.044 43.1216 217.719 43.3914C218.321 43.6355 218.825 43.9995 219.133 44.492C218.206 46.5389 218.035 48.8984 218.749 51.108C218.787 51.9944 218.731 52.4783 218.099 53.339C217.45 53.6003 216.813 53.9043 216.202 54.2469C216.155 54.234 216.108 54.2255 216.057 54.2169C214.1 53.9685 212.293 52.9194 211.024 51.4035C210.789 51.1208 210.306 51.168 210.067 51.412C209.789 51.6947 209.84 52.0886 210.075 52.3713C211.259 53.7844 212.852 54.7736 214.604 55.2746C213.493 56.084 212.485 57.0303 211.618 58.1009C211.387 58.3835 211.348 58.786 211.626 59.0601C211.865 59.2999 212.352 59.3384 212.583 59.0515C214.249 56.9961 216.424 55.4074 218.885 54.4738C219.684 54.5766 220.479 54.7265 221.167 54.9406C221.393 55.1547 221.628 55.3603 221.876 55.5487C222.577 56.5207 222.825 57.9681 222.936 59.2143C222.936 59.2614 222.936 59.3085 222.932 59.3556C222.923 59.3684 222.91 59.3813 222.902 59.3941C221.684 61.0984 219.616 62.1048 217.535 62.0834C216.664 62.0748 216.659 63.4323 217.527 63.4408C219.586 63.4579 221.547 62.6486 223.021 61.2654C223.239 63.0212 223.829 64.7341 224.76 66.2286C225.316 67.1193 225.991 67.9414 226.773 68.648C227.414 69.2304 228.371 68.2712 227.721 67.6845C225.405 65.5862 224.188 62.4816 224.282 59.3727C224.769 58.2165 225.786 57.724 227.003 57.4329C228.7 57.5185 230.439 57.1331 232.015 56.2167C232.041 56.1996 232.066 56.1867 232.092 56.1696C232.609 55.9555 233.541 55.7499 234.152 56.6406C235.22 59.0002 235.365 61.7964 234.378 64.2031C234.237 64.5414 234.284 64.931 234.63 65.128C234.916 65.2907 235.412 65.2137 235.553 64.8754C236.373 62.8798 236.566 60.6788 236.173 58.5933C238.8 58.9702 241.116 60.7644 242.253 63.1496C242.411 63.4794 242.876 63.5693 243.175 63.398C243.513 63.201 243.581 62.8028 243.423 62.473C242.052 59.5911 239.206 57.6213 236.07 57.2187C235.984 57.2059 235.908 57.2187 235.831 57.253C235.694 56.8291 235.536 56.4137 235.348 56.0069L235.356 56.0026C234.587 54.3025 235.549 52.5211 235.549 52.5211H235.544C235.976 51.6989 236.279 50.8082 236.442 49.8918C236.664 49.485 236.907 49.1168 237.382 49.1168C237.42 49.1168 237.459 49.1168 237.493 49.1082C240.975 49.7719 243.756 52.5383 244.496 56.0454C244.675 56.9019 245.983 56.555 245.803 55.7028C245.333 53.4589 244.09 51.3607 242.308 49.9133C242.24 49.8576 242.167 49.8105 242.099 49.7548C243.756 48.1875 246.038 47.4467 248.307 47.7036C248.67 47.7465 248.986 47.3696 248.986 47.0313C248.986 46.6331 248.679 46.3933 248.315 46.3504C245.628 46.0464 242.868 47.0527 240.966 48.9669C240.962 48.9712 240.958 48.9797 240.954 48.984C240.065 48.4701 239.108 48.0933 238.108 47.8621C238.112 47.8621 238.117 47.8535 238.121 47.8492C237.809 47.7208 237.091 47.5923 236.523 47.194C236.382 45.9993 236.002 44.8088 235.361 43.704C234.686 42.5307 233.788 41.5629 232.75 40.8264H232.759C232.25 40.3082 231.75 39.7087 231.686 39.0021C231.844 38.5439 231.96 38.0686 232.032 37.589C234.916 36.5998 237.211 34.1247 237.911 31.1357C238.112 30.2878 236.805 29.9324 236.604 30.7845C236.049 33.1483 234.344 35.1567 232.126 36.1031C232.118 35.5978 232.075 35.0882 231.994 34.5914C231.596 32.112 230.302 29.8724 229.02 27.757C228.571 27.0119 227.396 27.6885 227.849 28.4336C229.037 30.3991 230.233 32.4375 230.648 34.7328C230.891 36.0859 230.819 37.5119 230.315 38.7795C230.306 38.7837 230.298 38.7923 230.285 38.7966C229.764 39.1306 229.012 39.1777 228.61 39.1991C227.067 38.9979 225.465 39.1906 223.957 39.8115C223.654 39.8672 223.214 39.9143 222.949 39.7858C222.312 38.5225 222.026 37.088 222.145 35.6749C222.299 33.8849 223.145 32.1891 224.418 30.9387C225.038 30.3306 224.077 29.3757 223.457 29.9881C222.214 31.2085 221.368 32.7758 220.987 34.4673C219.518 33.508 218.338 32.0906 217.706 30.4462C217.574 30.1037 217.262 29.8596 216.881 29.9624C216.561 30.048 216.266 30.4462 216.399 30.7888H216.403Z" fill="#EBEBEB"/>
<path d="M228.762 51.3083C230.299 50.4191 230.825 48.4496 229.938 46.9094C229.051 45.3692 227.086 44.8415 225.549 45.7307C224.012 46.6199 223.486 48.5894 224.373 50.1296C225.26 51.6698 227.225 52.1976 228.762 51.3083Z" fill="#E0E0E0"/>
<path d="M172.348 128.891C173.279 131.319 174.95 133.361 177.172 134.714C177.266 134.774 177.359 134.804 177.449 134.822C177.347 136.56 177.718 138.29 178.466 139.845C178.543 140.47 178.487 141.035 178.141 141.275C177.885 141.502 177.646 141.737 177.415 141.986C176.33 141.93 175.193 141.994 174.672 142.076C173.77 141.939 172.86 141.896 171.955 141.943C171.955 141.802 171.925 141.66 171.865 141.523C170.921 139.408 169.519 137.502 167.793 135.969C167.477 135.687 166.99 135.661 166.682 135.978C166.396 136.269 166.37 136.808 166.691 137.091C168.272 138.496 169.523 140.196 170.412 142.114C169.177 142.324 167.968 142.701 166.827 143.245C165.81 143.729 164.875 144.362 164.02 145.095C163.696 145.373 163.743 145.93 164.029 146.208C164.354 146.529 164.819 146.478 165.14 146.199C167.515 144.152 170.771 143.232 173.886 143.549C174.591 143.836 175.176 144.26 175.531 144.829C174.45 147.21 174.253 149.955 175.082 152.529C175.129 153.561 175.061 154.122 174.326 155.128C173.57 155.432 172.83 155.787 172.117 156.186C172.061 156.168 172.006 156.16 171.95 156.151C169.677 155.864 167.571 154.644 166.092 152.88C165.819 152.554 165.259 152.606 164.982 152.888C164.661 153.214 164.717 153.676 164.99 154.002C166.366 155.646 168.225 156.798 170.258 157.38C168.968 158.322 167.793 159.423 166.785 160.673C166.515 161.003 166.468 161.47 166.793 161.787C167.075 162.065 167.635 162.112 167.904 161.778C169.844 159.384 172.373 157.539 175.24 156.451C176.167 156.567 177.095 156.742 177.894 156.995C178.158 157.243 178.432 157.483 178.718 157.701C179.534 158.836 179.821 160.515 179.949 161.967C179.949 162.022 179.944 162.078 179.94 162.134C179.927 162.146 179.915 162.164 179.906 162.176C178.487 164.159 176.082 165.328 173.659 165.307C172.642 165.298 172.638 166.874 173.651 166.883C176.048 166.904 178.329 165.962 180.047 164.352C180.303 166.394 180.987 168.39 182.072 170.128C182.717 171.169 183.508 172.124 184.414 172.946C185.161 173.623 186.272 172.505 185.52 171.824C182.824 169.379 181.41 165.769 181.517 162.155C182.085 160.81 183.264 160.237 184.683 159.898C186.657 159.997 188.678 159.547 190.515 158.485C190.545 158.468 190.575 158.447 190.605 158.429C191.207 158.177 192.292 157.937 193.002 158.978C194.245 161.727 194.416 164.981 193.262 167.782C193.1 168.176 193.156 168.63 193.557 168.857C193.89 169.045 194.467 168.959 194.63 168.561C195.587 166.236 195.805 163.679 195.347 161.251C198.407 161.693 201.103 163.778 202.419 166.553C202.602 166.938 203.145 167.041 203.495 166.84C203.888 166.613 203.965 166.15 203.782 165.761C202.188 162.408 198.877 160.117 195.224 159.646C195.125 159.633 195.031 159.646 194.946 159.684C194.788 159.192 194.6 158.708 194.386 158.237C194.386 158.237 194.395 158.232 194.399 158.232C193.506 156.254 194.621 154.181 194.621 154.181H194.617C195.121 153.222 195.471 152.186 195.664 151.12C195.924 150.649 196.206 150.216 196.757 150.216C196.804 150.216 196.843 150.216 196.886 150.208C200.936 150.978 204.179 154.199 205.038 158.28C205.247 159.273 206.768 158.871 206.559 157.881C206.008 155.273 204.568 152.828 202.491 151.145C202.414 151.081 202.329 151.025 202.248 150.961C204.175 149.137 206.832 148.276 209.469 148.572C209.892 148.619 210.259 148.182 210.259 147.788C210.259 147.326 209.9 147.043 209.477 146.996C206.354 146.64 203.141 147.814 200.928 150.041C200.919 150.049 200.919 150.053 200.91 150.062C199.876 149.467 198.761 149.026 197.599 148.756C197.603 148.756 197.608 148.743 197.612 148.739C197.249 148.589 196.416 148.439 195.753 147.977C195.587 146.585 195.147 145.202 194.403 143.913C193.617 142.547 192.57 141.425 191.365 140.564H191.374C190.784 139.96 190.199 139.262 190.126 138.44C190.314 137.905 190.442 137.357 190.528 136.796C193.886 135.644 196.552 132.762 197.373 129.289C197.603 128.3 196.087 127.889 195.852 128.882C195.202 131.636 193.22 133.969 190.643 135.074C190.635 134.483 190.583 133.892 190.489 133.314C190.028 130.428 188.52 127.824 187.033 125.362C186.507 124.497 185.144 125.281 185.67 126.15C187.054 128.437 188.443 130.813 188.93 133.481C189.216 135.057 189.131 136.714 188.541 138.187C188.528 138.196 188.52 138.2 188.507 138.209C187.9 138.598 187.024 138.654 186.559 138.68C184.764 138.444 182.897 138.667 181.145 139.395C180.79 139.459 180.282 139.515 179.974 139.365C179.235 137.896 178.902 136.222 179.043 134.577C179.222 132.496 180.205 130.522 181.688 129.066C182.41 128.355 181.29 127.246 180.568 127.957C179.124 129.379 178.137 131.203 177.697 133.169C175.984 132.051 174.612 130.407 173.877 128.488C173.723 128.09 173.36 127.807 172.916 127.923C172.54 128.021 172.198 128.484 172.352 128.886L172.348 128.891Z" fill="#EBEBEB"/>
<path d="M186.739 152.769C188.529 151.733 189.142 149.439 188.109 147.644C187.075 145.85 184.786 145.235 182.996 146.271C181.206 147.307 180.592 149.601 181.626 151.396C182.659 153.19 184.948 153.805 186.739 152.769Z" fill="#E0E0E0"/>
<path d="M76.973 152.713C77.3661 153.732 78.0626 154.588 78.9983 155.158C79.0367 155.183 79.0795 155.196 79.1136 155.201C79.0709 155.929 79.2247 156.657 79.5409 157.307C79.5708 157.569 79.5495 157.809 79.4042 157.907C79.2974 158.001 79.1948 158.1 79.1008 158.207C78.6479 158.185 78.1694 158.207 77.9472 158.245C77.5712 158.19 77.1867 158.168 76.8064 158.19C76.8064 158.13 76.7936 158.07 76.768 158.014C76.3706 157.128 75.7852 156.327 75.0589 155.685C74.9264 155.565 74.7213 155.556 74.5932 155.685C74.4735 155.809 74.4607 156.031 74.5932 156.151C75.2554 156.742 75.781 157.453 76.1527 158.258C75.6357 158.344 75.1272 158.502 74.6487 158.733C74.2214 158.939 73.8284 159.2 73.4695 159.509C73.3327 159.624 73.3541 159.86 73.4695 159.975C73.6062 160.108 73.8027 160.087 73.9352 159.975C74.935 159.119 76.298 158.729 77.6054 158.862C77.9002 158.982 78.148 159.162 78.2976 159.401C77.8447 160.399 77.7592 161.555 78.1096 162.635C78.1267 163.067 78.101 163.303 77.7934 163.727C77.4772 163.855 77.1653 164.005 76.8662 164.172C76.8449 164.168 76.8192 164.159 76.7936 164.159C75.8408 164.039 74.9563 163.525 74.3368 162.784C74.2214 162.647 73.9864 162.669 73.8711 162.784C73.7344 162.921 73.76 163.114 73.8711 163.251C74.4479 163.941 75.2255 164.425 76.0843 164.669C75.5417 165.063 75.0503 165.525 74.6273 166.052C74.5163 166.189 74.4949 166.386 74.6273 166.519C74.747 166.634 74.982 166.656 75.0931 166.519C75.9091 165.512 76.9688 164.741 78.1694 164.283C78.5582 164.335 78.947 164.407 79.2846 164.51C79.3956 164.617 79.511 164.716 79.6306 164.806C79.9725 165.281 80.0921 165.988 80.1476 166.596C80.1476 166.617 80.1476 166.643 80.1476 166.664C80.1434 166.668 80.1391 166.677 80.1305 166.681C79.5366 167.512 78.524 168.004 77.5071 167.996C77.0799 167.996 77.0799 168.655 77.5071 168.66C78.5112 168.668 79.4683 168.274 80.1904 167.598C80.2972 168.454 80.5834 169.293 81.0406 170.021C81.3141 170.458 81.6431 170.856 82.0233 171.203C82.3352 171.486 82.8052 171.019 82.4891 170.732C81.3568 169.709 80.7629 168.189 80.8099 166.673C81.0492 166.107 81.5448 165.868 82.1387 165.726C82.9676 165.769 83.8136 165.581 84.5869 165.131C84.5997 165.123 84.6126 165.114 84.6254 165.11C84.8775 165.003 85.3346 164.904 85.6337 165.341C86.155 166.493 86.2276 167.859 85.7448 169.037C85.6765 169.204 85.6978 169.392 85.8687 169.486C86.0097 169.568 86.249 169.529 86.3174 169.362C86.719 168.386 86.813 167.315 86.6207 166.296C87.9025 166.48 89.0348 167.358 89.5902 168.523C89.6671 168.685 89.8936 168.728 90.0431 168.643C90.2098 168.548 90.2397 168.351 90.1628 168.189C89.4919 166.78 88.1033 165.821 86.5737 165.624C86.531 165.619 86.4925 165.624 86.4584 165.641C86.3943 165.435 86.3131 165.23 86.2234 165.033C86.2234 165.033 86.2234 165.033 86.2276 165.033C85.8516 164.202 86.3216 163.333 86.3216 163.333C86.531 162.93 86.6805 162.498 86.7617 162.048C86.8728 161.851 86.9882 161.671 87.2189 161.671C87.236 161.671 87.2573 161.671 87.2744 161.671C88.975 161.997 90.3337 163.345 90.6968 165.058C90.7866 165.478 91.4232 165.307 91.3377 164.891C91.107 163.795 90.5003 162.772 89.6329 162.065C89.5988 162.039 89.5646 162.014 89.5304 161.988C90.3379 161.221 91.4531 160.862 92.5597 160.986C92.7349 161.007 92.8887 160.823 92.893 160.656C92.893 160.459 92.7434 160.344 92.564 160.322C91.2523 160.172 89.9064 160.665 88.975 161.603C88.975 161.603 88.975 161.607 88.9664 161.611C88.5306 161.363 88.0649 161.179 87.5778 161.063C87.5778 161.063 87.5778 161.059 87.5821 161.059C87.4282 160.994 87.0779 160.935 86.8044 160.738C86.7361 160.155 86.5481 159.573 86.2362 159.033C85.9072 158.459 85.4671 157.988 84.9629 157.629C84.7151 157.376 84.4716 157.081 84.4417 156.738C84.5186 156.515 84.5741 156.284 84.6083 156.049C86.0183 155.565 87.1377 154.357 87.4795 152.897C87.5778 152.481 86.9412 152.31 86.8429 152.725C86.5694 153.882 85.7405 154.862 84.6553 155.325C84.6553 155.076 84.6297 154.828 84.5912 154.588C84.3989 153.376 83.7623 152.284 83.1385 151.252C82.9206 150.888 82.3481 151.218 82.566 151.582C83.147 152.541 83.7324 153.539 83.9332 154.657C84.0528 155.316 84.0187 156.014 83.7709 156.631C83.7666 156.631 83.7623 156.635 83.758 156.639C83.5017 156.802 83.1385 156.828 82.942 156.836C82.19 156.738 81.4081 156.832 80.6689 157.136C80.5193 157.162 80.3057 157.188 80.1775 157.123C79.8656 156.507 79.7289 155.804 79.7845 155.115C79.8571 154.241 80.2715 153.411 80.8953 152.803C81.1987 152.503 80.7287 152.04 80.4254 152.336C79.8186 152.931 79.4042 153.698 79.2205 154.524C78.5027 154.053 77.9258 153.364 77.6182 152.558C77.5541 152.391 77.4003 152.272 77.2166 152.323C77.0585 152.366 76.9175 152.558 76.9816 152.725L76.973 152.713Z" fill="#EBEBEB"/>
<path d="M83.0125 162.731C83.7625 162.297 84.0194 161.336 83.5864 160.584C83.1534 159.833 82.1944 159.575 81.4444 160.009C80.6944 160.443 80.4375 161.404 80.8705 162.156C81.3035 162.908 82.2625 163.165 83.0125 162.731Z" fill="#E0E0E0"/>
<path d="M162.999 20.6357C163.392 21.6549 164.088 22.5114 165.024 23.0809C165.063 23.1066 165.105 23.1194 165.14 23.1237C165.097 23.8517 165.251 24.5797 165.567 25.2306C165.597 25.4918 165.575 25.7316 165.43 25.8301C165.323 25.9243 165.221 26.0228 165.127 26.1298C164.674 26.1084 164.195 26.1298 163.973 26.1684C163.597 26.1127 163.213 26.0913 162.832 26.1127C162.832 26.0528 162.819 25.9928 162.794 25.9371C162.396 25.0507 161.811 24.2499 161.085 23.6076C160.952 23.4877 160.747 23.4791 160.619 23.6076C160.499 23.7318 160.487 23.9545 160.619 24.0744C161.281 24.6653 161.807 25.3762 162.179 26.1812C161.662 26.2669 161.153 26.4253 160.675 26.6566C160.247 26.8621 159.854 27.1233 159.495 27.4316C159.359 27.5473 159.38 27.7828 159.495 27.8984C159.632 28.0312 159.829 28.0097 159.961 27.8984C160.961 27.042 162.324 26.6523 163.631 26.785C163.926 26.9049 164.174 27.0848 164.323 27.3246C163.871 28.3223 163.785 29.4785 164.135 30.5577C164.153 30.9902 164.127 31.2257 163.819 31.6496C163.503 31.7781 163.191 31.928 162.892 32.095C162.871 32.0907 162.845 32.0821 162.819 32.0821C161.867 31.9622 160.982 31.4484 160.363 30.7075C160.247 30.5705 160.012 30.5919 159.897 30.7075C159.76 30.8446 159.786 31.0373 159.897 31.1743C160.474 31.8637 161.251 32.3476 162.11 32.5917C161.568 32.9857 161.076 33.4482 160.653 33.9749C160.542 34.1119 160.521 34.3089 160.653 34.4416C160.773 34.5573 161.008 34.5787 161.119 34.4416C161.935 33.4353 162.995 32.6645 164.195 32.2063C164.584 32.2577 164.973 32.3305 165.31 32.4333C165.422 32.5403 165.537 32.6388 165.657 32.7288C165.998 33.2041 166.118 33.9107 166.174 34.5187C166.174 34.5401 166.174 34.5658 166.174 34.5872C166.169 34.5915 166.165 34.6001 166.156 34.6044C165.563 35.4351 164.55 35.9276 163.533 35.919C163.106 35.919 163.106 36.5785 163.533 36.5828C164.537 36.5913 165.494 36.1974 166.216 35.5208C166.323 36.3772 166.609 37.2165 167.066 37.9445C167.34 38.3813 167.669 38.7795 168.049 39.1264C168.361 39.409 168.831 38.9423 168.515 38.6554C167.383 37.6319 166.789 36.1117 166.836 34.5958C167.075 34.0306 167.571 33.7907 168.165 33.6494C168.993 33.6923 169.839 33.5038 170.613 33.0542C170.626 33.0456 170.638 33.0371 170.651 33.0328C170.903 32.9257 171.361 32.8272 171.66 33.264C172.181 34.416 172.254 35.782 171.771 36.9596C171.702 37.1266 171.724 37.315 171.895 37.4092C172.036 37.4906 172.275 37.4521 172.343 37.285C172.745 36.3087 172.839 35.2381 172.647 34.219C173.928 34.4031 175.061 35.281 175.616 36.4457C175.693 36.6085 175.919 36.6513 176.069 36.5656C176.236 36.4714 176.266 36.2744 176.189 36.1117C175.518 34.7029 174.129 33.7436 172.6 33.5467C172.557 33.5424 172.518 33.5467 172.484 33.5638C172.42 33.3582 172.339 33.1527 172.249 32.9557C172.249 32.9557 172.249 32.9557 172.254 32.9557C171.878 32.125 172.348 31.2557 172.348 31.2557C172.557 30.8531 172.706 30.4206 172.788 29.971C172.899 29.774 173.014 29.5942 173.245 29.5942C173.262 29.5942 173.283 29.5942 173.3 29.5942C175.001 29.9196 176.36 31.2685 176.723 32.9814C176.812 33.4011 177.449 33.2298 177.364 32.8144C177.133 31.7181 176.526 30.6947 175.659 29.9881C175.625 29.9624 175.59 29.9367 175.556 29.911C176.364 29.1445 177.479 28.7848 178.586 28.909C178.761 28.9304 178.915 28.7463 178.919 28.5793C178.919 28.3823 178.769 28.2667 178.59 28.2453C177.278 28.0954 175.932 28.5878 175.001 29.5256C175.001 29.5256 175.001 29.5299 174.992 29.5342C174.556 29.2858 174.091 29.1017 173.604 28.9861C173.604 28.9861 173.604 28.9818 173.608 28.9818C173.454 28.9176 173.104 28.8576 172.83 28.6606C172.762 28.0783 172.574 27.4959 172.262 26.9563C171.933 26.3825 171.493 25.9114 170.989 25.5517C170.741 25.2991 170.497 25.0036 170.468 24.661C170.544 24.4384 170.6 24.2071 170.634 23.9716C172.044 23.4877 173.164 22.2801 173.505 20.8199C173.604 20.4045 172.967 20.2332 172.869 20.6486C172.595 21.8048 171.766 22.7854 170.681 23.2479C170.681 22.9995 170.656 22.7512 170.617 22.5114C170.425 21.2995 169.788 20.2075 169.164 19.1755C168.946 18.8115 168.374 19.1412 168.592 19.5052C169.173 20.4645 169.758 21.4622 169.959 22.5799C170.079 23.2393 170.045 23.9373 169.797 24.554C169.792 24.554 169.788 24.5583 169.784 24.5625C169.528 24.7253 169.164 24.751 168.968 24.7595C168.216 24.661 167.434 24.7552 166.695 25.0593C166.545 25.085 166.332 25.1107 166.203 25.0464C165.892 24.4298 165.755 23.7275 165.81 23.0381C165.883 22.1645 166.297 21.3337 166.921 20.7257C167.225 20.4259 166.755 19.9634 166.451 20.2589C165.845 20.8541 165.43 21.6207 165.246 22.4471C164.529 21.9761 163.952 21.2866 163.644 20.4816C163.58 20.3146 163.426 20.1947 163.242 20.2461C163.084 20.2889 162.943 20.4816 163.007 20.6486L162.999 20.6357Z" fill="#EBEBEB"/>
<path d="M169.039 30.655C169.789 30.221 170.046 29.2599 169.613 28.5082C169.18 27.7565 168.221 27.499 167.471 27.933C166.721 28.3669 166.464 29.3281 166.897 30.0798C167.33 30.8315 168.289 31.089 169.039 30.655Z" fill="#E0E0E0"/>
<path d="M138.141 132.145C137.538 132.762 142.772 136.162 144.964 139.001C147.156 141.84 155.078 156.528 159.342 155.453C163.606 154.378 160.44 143.018 160.44 143.018C160.44 143.018 162.337 130.582 161.572 130.681C160.807 130.779 139.969 130.291 138.141 132.149V132.145Z" fill="#FF725E"/>
<g opacity="0.3">
<path d="M138.141 132.145C137.538 132.762 142.772 136.162 144.964 139.001C147.156 141.84 155.078 156.528 159.342 155.453C163.606 154.378 160.44 143.018 160.44 143.018C160.44 143.018 162.337 130.582 161.572 130.681C160.807 130.779 139.969 130.291 138.141 132.149V132.145Z" fill="black"/>
</g>
<path d="M83.3309 105.668C83.3309 105.668 83.6428 116.416 96.3882 118.755L107.578 119.846C107.578 119.846 107.89 135.271 126.075 135.579L140.221 133.866C140.221 133.866 161.982 133.25 175.971 134.492C179.957 134.847 185.772 135.417 191.523 133.391C197.274 131.366 216.852 112.841 197.112 89.7809C197.112 89.7809 198.821 79.3452 188.25 76.8486C188.25 76.8486 183.589 62.516 168.045 62.6702C168.045 62.6702 162.914 56.2811 155.142 58.9318C155.142 58.9318 140.221 52.1915 128.873 58.2894C128.873 58.2894 115.35 55.3475 105.245 66.4085C105.245 66.4085 94.3629 69.8343 91.5686 78.0905C91.5686 78.0905 78.1994 86.7363 82.2414 96.7481C82.2414 96.7481 79.9085 98.4996 80.3742 101.925C80.8399 105.351 83.3266 105.664 83.3266 105.664L83.3309 105.668Z" fill="#FF725E"/>
<path d="M163.853 94.1916C163.875 94.2258 163.204 94.2943 162.328 95.0566C161.905 95.442 161.448 96.0072 161.145 96.7866C160.85 97.5531 160.709 98.5594 161.068 99.57L161.106 99.6814L160.991 99.6514C159.495 99.2489 157.735 98.8549 155.744 98.6279C153.749 98.4053 151.527 98.3453 149.147 98.5466C144.4 98.9234 138.999 100.461 134.047 103.587L134.005 103.617L133.953 103.6C132.915 103.261 131.77 103.013 130.608 102.825C128.002 102.422 125.404 102.302 122.93 102.555C121.695 102.683 120.499 102.94 119.384 103.373C118.264 103.792 117.179 104.246 116.2 104.829C115.218 105.411 114.359 106.122 113.556 106.85C112.761 107.591 111.966 108.289 111.308 109.059C109.988 110.605 109.01 112.258 108.347 113.851C108.018 114.652 107.775 115.44 107.612 116.202C107.459 116.964 107.395 117.701 107.399 118.386C107.412 119.761 107.634 120.938 107.856 121.88C108.082 122.823 108.317 123.542 108.48 124.026C108.561 124.261 108.625 124.441 108.672 124.574C108.715 124.698 108.732 124.762 108.732 124.762C108.732 124.762 108.262 123.786 107.771 121.898C107.531 120.955 107.301 119.774 107.275 118.386C107.262 117.692 107.322 116.947 107.471 116.172C107.63 115.401 107.873 114.601 108.198 113.791C108.856 112.173 109.838 110.507 111.163 108.935C111.825 108.143 112.624 107.441 113.419 106.7C114.222 105.968 115.094 105.24 116.089 104.644C117.085 104.049 118.179 103.591 119.302 103.163C120.43 102.722 121.652 102.456 122.9 102.324C125.4 102.062 128.01 102.182 130.634 102.589C131.804 102.777 132.958 103.03 134.013 103.373L133.919 103.386C138.91 100.242 144.349 98.705 149.121 98.3453C151.514 98.1526 153.753 98.2211 155.753 98.4567C157.756 98.7007 159.517 99.1076 161.016 99.5229L160.94 99.6043C160.576 98.5551 160.734 97.5231 161.042 96.7395C161.358 95.9473 161.833 95.3777 162.268 94.9966C162.713 94.6112 163.123 94.4228 163.401 94.3072C163.687 94.213 163.836 94.1787 163.836 94.1787L163.853 94.1916Z" fill="#263238"/>
<path d="M183.277 92.7442C183.277 92.7442 183.264 92.8127 183.222 92.9411C183.179 93.0782 183.119 93.2709 183.042 93.515C182.893 94.0245 182.615 94.7525 182.243 95.6818C181.842 96.6025 181.337 97.7244 180.62 98.9577C180.278 99.5872 179.855 100.221 179.423 100.902C178.957 101.561 178.466 102.264 177.898 102.962C175.663 105.758 172.467 108.743 168.254 110.969C166.148 112.066 163.802 112.965 161.294 113.581C158.782 114.172 156.103 114.502 153.364 114.442C151.86 114.429 150.386 114.262 148.946 114.044C147.506 113.813 146.118 113.457 144.78 113.055L144.879 113.038C142.546 114.81 139.828 115.787 137.235 116.091C134.633 116.403 132.142 116.048 130.04 115.277L130.125 115.264C129.185 115.984 128.173 116.502 127.169 116.87C126.169 117.239 125.177 117.461 124.237 117.547C124.002 117.581 123.772 117.598 123.545 117.598C123.319 117.607 123.092 117.62 122.874 117.62C122.434 117.594 122.011 117.607 121.61 117.543C121.409 117.517 121.212 117.495 121.02 117.474C120.828 117.435 120.644 117.401 120.46 117.367C120.093 117.307 119.755 117.204 119.435 117.114C118.153 116.733 117.23 116.228 116.628 115.86C116.329 115.671 116.119 115.5 115.97 115.397C115.825 115.29 115.752 115.23 115.752 115.23C115.752 115.23 115.833 115.277 115.987 115.376C116.141 115.47 116.354 115.633 116.658 115.813C117.264 116.168 118.187 116.652 119.465 117.016C119.785 117.101 120.119 117.2 120.482 117.256C120.661 117.29 120.845 117.324 121.037 117.358C121.23 117.38 121.422 117.401 121.623 117.423C122.02 117.483 122.439 117.465 122.874 117.487C123.092 117.487 123.315 117.47 123.537 117.461C123.763 117.461 123.99 117.435 124.22 117.406C125.148 117.316 126.126 117.089 127.113 116.72C128.1 116.352 129.091 115.834 130.014 115.123L130.053 115.093L130.1 115.11C132.176 115.86 134.637 116.202 137.209 115.89C139.773 115.581 142.452 114.614 144.746 112.862L144.789 112.828L144.845 112.845C146.173 113.243 147.553 113.594 148.98 113.821C150.408 114.04 151.873 114.207 153.364 114.215C156.086 114.275 158.743 113.95 161.239 113.363C163.73 112.751 166.063 111.869 168.156 110.781C172.343 108.58 175.531 105.629 177.77 102.859C178.338 102.169 178.829 101.476 179.299 100.816C179.735 100.14 180.162 99.5101 180.508 98.8892C181.235 97.6687 181.748 96.5511 182.162 95.6389C182.547 94.714 182.837 93.9903 182.999 93.4893C183.085 93.2495 183.153 93.061 183.2 92.924C183.247 92.7955 183.277 92.7356 183.277 92.7356V92.7442Z" fill="#263238"/>
<path d="M118.085 126.368C118.085 126.368 118.059 126.218 118.051 125.953C118.046 125.687 118.042 125.298 118.059 124.818C118.102 123.867 118.196 122.514 118.756 121.135C119.32 119.756 120.324 118.759 121.183 118.313C121.61 118.086 121.99 117.971 122.255 117.924C122.52 117.877 122.669 117.877 122.669 117.889C122.682 117.936 122.071 117.971 121.255 118.45C120.448 118.913 119.499 119.889 118.956 121.221C118.418 122.557 118.294 123.885 118.213 124.827C118.14 125.777 118.115 126.368 118.081 126.368H118.085Z" fill="#263238"/>
<path d="M179.419 123.495C179.419 123.495 179.372 123.491 179.286 123.469C179.188 123.444 179.064 123.414 178.906 123.375C178.56 123.285 178.073 123.161 177.453 122.998C177.137 122.917 176.791 122.818 176.402 122.728C176.014 122.643 175.595 122.549 175.142 122.446C174.689 122.343 174.206 122.236 173.698 122.12C173.181 122.026 172.638 121.923 172.066 121.821C169.78 121.384 167.028 121.024 163.96 120.793C160.893 120.553 157.504 120.519 153.958 120.737C149.399 121.003 145.148 121.679 141.537 122.519C137.918 123.354 134.94 124.351 132.808 125.092L132.847 125.045C132.774 125.692 132.595 126.266 132.338 126.707C132.082 127.152 131.766 127.456 131.497 127.674C130.95 128.107 130.608 128.257 130.608 128.257C130.608 128.252 130.681 128.201 130.83 128.103C130.975 128 131.198 127.854 131.458 127.627C131.719 127.405 132.018 127.096 132.257 126.659C132.496 126.223 132.663 125.67 132.727 125.028V124.994L132.766 124.981C134.893 124.21 137.867 123.182 141.49 122.33C145.109 121.469 149.373 120.784 153.945 120.514C157.5 120.296 160.901 120.339 163.973 120.592C167.049 120.831 169.805 121.212 172.095 121.666C172.668 121.778 173.211 121.885 173.728 121.983C174.24 122.103 174.719 122.219 175.172 122.326C175.62 122.433 176.039 122.531 176.428 122.626C176.813 122.724 177.159 122.831 177.475 122.917C178.09 123.097 178.573 123.234 178.919 123.332C179.073 123.379 179.197 123.418 179.291 123.448C179.376 123.474 179.419 123.491 179.415 123.495H179.419Z" fill="#263238"/>
<path d="M190.895 117.29C190.895 117.29 190.934 117.26 191.011 117.209C191.1 117.153 191.211 117.076 191.357 116.986C191.66 116.789 192.104 116.494 192.651 116.078C193.741 115.252 195.283 113.95 196.672 111.92C197.364 110.91 197.996 109.711 198.436 108.34C198.872 106.97 199.129 105.433 199.047 103.814C198.966 102.204 198.548 100.512 197.646 99.0007C196.753 97.4976 195.411 96.1744 193.762 95.3223C192.745 94.7827 191.626 94.4915 190.562 94.4059L190.4 94.393L190.472 94.2474C191.216 92.7615 191.66 91.1514 191.557 89.5969C191.485 88.0425 190.899 86.6165 190.165 85.4089C189.425 84.197 188.468 83.2121 187.426 82.527C186.379 81.8375 185.268 81.4393 184.23 81.2337C183.192 81.0153 182.23 80.9811 181.388 81.0025C180.547 81.0239 179.829 81.0967 179.239 81.1481C178.663 81.1995 178.21 81.2423 177.889 81.2723C177.744 81.2808 177.629 81.2894 177.539 81.298C177.458 81.3023 177.419 81.3023 177.419 81.298C177.419 81.298 177.458 81.2851 177.539 81.2766C177.629 81.2637 177.744 81.2509 177.889 81.2337C178.21 81.1952 178.663 81.1395 179.235 81.071C179.82 81.0068 180.542 80.9211 181.388 80.8869C182.23 80.8526 183.204 80.8783 184.26 81.0881C185.311 81.2894 186.452 81.6834 187.524 82.3814C188.596 83.0751 189.579 84.0729 190.335 85.3061C191.087 86.5309 191.694 87.9868 191.771 89.5884C191.878 91.1856 191.425 92.8386 190.669 94.3502L190.579 94.1918C191.677 94.2817 192.822 94.5772 193.865 95.1339C195.557 96.0074 196.924 97.3606 197.834 98.9022C198.753 100.448 199.171 102.178 199.252 103.814C199.329 105.458 199.06 107.021 198.612 108.404C198.159 109.792 197.505 111 196.8 112.014C195.381 114.053 193.809 115.346 192.703 116.151C191.583 116.96 190.895 117.294 190.895 117.294V117.29Z" fill="#263238"/>
<path d="M152.052 97.9087C152.052 97.9087 151.933 97.9087 151.719 97.8659C151.612 97.8487 151.484 97.8188 151.339 97.7631C151.194 97.7117 151.023 97.6646 150.852 97.5747C150.493 97.4205 150.096 97.1764 149.694 96.8553C149.297 96.5255 148.904 96.1144 148.557 95.6263C148.224 95.1338 147.981 94.6157 147.81 94.1275C147.656 93.635 147.566 93.1768 147.549 92.7871C147.528 92.5944 147.541 92.4189 147.545 92.2647C147.545 92.1106 147.562 91.9778 147.583 91.8707C147.617 91.6566 147.643 91.541 147.66 91.541C147.703 91.5453 147.622 92.0206 147.707 92.77C147.746 93.1469 147.848 93.5879 148.006 94.059C148.181 94.5257 148.421 95.0225 148.741 95.4978C149.07 95.9688 149.45 96.3671 149.822 96.6968C150.207 97.0137 150.578 97.2664 150.92 97.4334C151.591 97.7759 152.065 97.8702 152.052 97.913V97.9087Z" fill="#263238"/>
<path d="M136.303 96.8638C136.303 96.8638 136.474 97.2406 136.543 97.9043C136.611 98.5638 136.56 99.4973 136.226 100.461C135.889 101.424 135.355 102.191 134.893 102.666C134.432 103.142 134.077 103.351 134.064 103.334C134.039 103.304 134.359 103.052 134.778 102.559C135.197 102.071 135.692 101.317 136.017 100.388C136.337 99.4588 136.414 98.5595 136.389 97.9129C136.363 97.2663 136.269 96.8723 136.308 96.8638H136.303Z" fill="#263238"/>
<path d="M122.673 102.426C122.673 102.426 122.614 102.444 122.503 102.452C122.391 102.465 122.221 102.456 122.007 102.426C121.584 102.358 120.969 102.109 120.413 101.561C119.862 101.018 119.354 100.191 119.161 99.1762C118.956 98.1656 119.025 97.0308 119.131 95.8746C119.251 94.7141 119.324 93.6178 119.26 92.6158C119.204 91.6137 119.059 90.7188 118.896 89.9779C118.73 89.2371 118.546 88.6504 118.414 88.2436C118.281 87.8411 118.2 87.6184 118.217 87.6099C118.226 87.6099 118.251 87.657 118.303 87.7597C118.35 87.8625 118.418 88.0124 118.499 88.2137C118.657 88.6119 118.867 89.1986 119.05 89.9394C119.238 90.6845 119.396 91.5881 119.465 92.5987C119.542 93.6135 119.473 94.7355 119.354 95.8917C119.243 97.0479 119.174 98.1527 119.362 99.1333C119.537 100.11 120.007 100.91 120.524 101.446C121.046 101.99 121.618 102.247 122.024 102.336C122.434 102.426 122.673 102.396 122.673 102.422V102.426Z" fill="#263238"/>
<path d="M112.641 107.552C112.59 107.527 113.111 107.004 113.291 105.916C113.483 104.855 113.214 103.249 112.193 101.921C111.163 100.598 109.826 99.7929 108.881 99.2362C108.433 98.9836 108.052 98.7652 107.741 98.5896C107.471 98.4354 107.326 98.3455 107.33 98.3327C107.339 98.3198 107.497 98.3841 107.779 98.5125C108.061 98.641 108.467 98.838 108.958 99.0992C109.924 99.6259 111.304 100.418 112.368 101.784C113.428 103.167 113.68 104.842 113.445 105.942C113.329 106.499 113.128 106.919 112.949 107.175C112.774 107.437 112.646 107.557 112.637 107.548L112.641 107.552Z" fill="#263238"/>
<path d="M107.621 115.526C107.621 115.526 107.51 115.538 107.301 115.543C107.066 115.543 106.758 115.543 106.373 115.543C105.972 115.517 105.48 115.474 104.912 115.41C104.348 115.307 103.703 115.222 103.007 115.02C101.614 114.656 99.9944 114.04 98.3622 113.046C96.7343 112.057 95.0808 110.712 93.6964 108.991C92.3164 107.269 91.3422 105.364 90.7782 103.535C90.5048 102.619 90.351 101.707 90.3467 100.85C90.3467 100.422 90.3766 100.011 90.4535 99.6171C90.5304 99.2274 90.65 98.8634 90.7739 98.5251C91.2781 97.1677 91.9105 96.1656 92.4275 95.5447C92.6796 95.2278 92.9231 95.0223 93.0897 94.8895C93.2649 94.7696 93.3632 94.714 93.3632 94.7182C93.3675 94.7268 93.2777 94.7953 93.1154 94.9238C92.9615 95.0694 92.7351 95.2792 92.4958 95.5961C92.0087 96.2256 91.402 97.2319 90.9235 98.5765C90.8081 98.9148 90.697 99.2703 90.6244 99.6514C90.5518 100.028 90.5261 100.435 90.5304 100.85C90.5432 101.685 90.697 102.576 90.9748 103.475C91.543 105.274 92.5086 107.15 93.8716 108.85C95.2389 110.55 96.8668 111.881 98.469 112.871C100.076 113.86 101.674 114.489 103.049 114.866C103.733 115.076 104.374 115.17 104.929 115.286C105.493 115.363 105.98 115.414 106.378 115.453C106.762 115.47 107.066 115.483 107.301 115.491C107.51 115.504 107.621 115.513 107.621 115.521V115.526Z" fill="#263238"/>
<path d="M96.9991 84.9805C96.9991 84.9805 96.9179 84.9805 96.7727 84.9677C96.5975 84.9462 96.3839 84.9248 96.1232 84.8949C95.5592 84.8349 94.7474 84.7493 93.7391 84.7578C92.735 84.7707 91.5258 84.8863 90.2825 85.3573C89.0562 85.8198 87.7659 86.6549 86.9797 87.9652C86.1978 89.267 86.0568 90.8514 86.5439 92.0676C87.0395 93.2966 88.065 94.0588 88.9622 94.4656C89.8766 94.881 90.6884 95.0352 91.2438 95.1251C91.8036 95.2065 92.1155 95.2236 92.1155 95.2407C92.1155 95.2493 92.0386 95.2493 91.889 95.2493C91.7395 95.2493 91.5173 95.2364 91.2353 95.2108C90.6713 95.1465 89.8467 95.018 88.9024 94.607C88.4324 94.4014 87.9368 94.1145 87.4839 93.712C87.031 93.3094 86.6165 92.7827 86.3559 92.1404C85.8304 90.86 85.9756 89.2071 86.7917 87.8496C87.6121 86.4793 88.9537 85.6271 90.2141 85.1604C91.4917 84.6893 92.7265 84.5908 93.7434 84.5951C94.7645 84.6079 95.5806 84.715 96.1403 84.8049C96.4223 84.8478 96.6359 84.8906 96.7855 84.9206C96.9308 84.9505 97.0077 84.9719 97.0077 84.9805H96.9991Z" fill="#263238"/>
<path d="M133.018 69.0764C133.018 69.0764 132.979 69.055 132.915 69.0036C132.838 68.9437 132.744 68.8709 132.625 68.7767C132.368 68.5754 131.997 68.2756 131.501 67.9159C130.514 67.2008 128.989 66.2116 126.865 65.6635C125.806 65.3894 124.609 65.2438 123.323 65.2181C122.037 65.201 120.657 65.3295 119.268 65.7234C117.884 66.1217 116.474 66.7426 115.179 67.6247C113.885 68.5154 112.731 69.6973 111.787 71.0719C111.582 71.376 111.39 71.6843 111.214 71.9798L111.18 72.0354H111.116C107.895 71.9584 104.899 73.1445 102.742 74.8617C101.648 75.7096 100.776 76.7116 100.088 77.7265C99.409 78.75 98.9262 79.7991 98.5886 80.784C97.9178 82.7667 97.8324 84.4882 97.8837 85.6444C97.8879 85.9356 97.9136 86.1925 97.9349 86.4152C97.952 86.6378 97.9734 86.8263 97.999 86.9804C98.0204 87.1217 98.0332 87.2373 98.046 87.3273C98.0546 87.4044 98.0588 87.4472 98.0546 87.4472C98.0546 87.4472 97.8751 86.822 97.7939 85.6486C97.717 84.4839 97.7811 82.7453 98.4391 80.7369C98.7724 79.7349 99.2509 78.6729 99.9345 77.628C100.627 76.596 101.507 75.5726 102.613 74.7033C104.797 72.9518 107.839 71.7357 111.12 71.8128L111.022 71.8684C111.197 71.573 111.39 71.2561 111.603 70.9477C112.56 69.5517 113.735 68.3484 115.055 67.4449C116.38 66.5456 117.803 65.929 119.213 65.5265C120.627 65.1325 122.028 65.0083 123.327 65.034C124.626 65.0683 125.835 65.2267 126.904 65.5136C129.053 66.0917 130.578 67.1109 131.552 67.8517C132.044 68.2243 132.411 68.5326 132.655 68.7467C132.77 68.8495 132.86 68.9308 132.928 68.9908C132.988 69.0464 133.018 69.0764 133.018 69.0807V69.0764Z" fill="#263238"/>
<path d="M106.049 78.0862C106.049 78.0862 106.117 78.0862 106.241 78.099C106.365 78.1076 106.549 78.1419 106.784 78.1975C107.249 78.3089 107.916 78.5401 108.642 78.9983C109.364 79.4651 110.146 80.1716 110.727 81.1651C111.313 82.15 111.633 83.4261 111.556 84.745C111.471 86.0683 110.996 87.293 110.291 88.1965C109.595 89.1086 108.728 89.7167 107.959 90.0893C107.177 90.4575 106.489 90.6031 106.014 90.6545C105.775 90.6802 105.591 90.6888 105.463 90.6845C105.339 90.6845 105.271 90.6802 105.271 90.6717C105.271 90.6502 105.536 90.646 106.002 90.5689C106.467 90.4918 107.134 90.3248 107.89 89.948C108.634 89.5668 109.467 88.963 110.129 88.0723C110.8 87.1902 111.248 86.0083 111.334 84.7322C111.407 83.4561 111.107 82.2271 110.552 81.2679C110.001 80.3044 109.253 79.6021 108.561 79.131C107.86 78.6643 107.215 78.4159 106.766 78.2789C106.314 78.1461 106.053 78.1076 106.053 78.0862H106.049Z" fill="#263238"/>
<path d="M119.969 74.2964C119.969 74.2964 120.059 74.472 120.153 74.8145C120.247 75.1571 120.345 75.6667 120.371 76.3005C120.431 77.5594 120.102 79.4008 118.918 80.9767C117.726 82.5482 116.051 83.3704 114.825 83.6531C114.205 83.8029 113.693 83.85 113.338 83.85C112.983 83.85 112.791 83.8286 112.791 83.8158C112.791 83.7644 113.581 83.8329 114.786 83.5032C115.978 83.1863 117.589 82.3641 118.743 80.8439C119.888 79.3194 120.234 77.538 120.217 76.3048C120.208 75.0543 119.926 74.305 119.973 74.2964H119.969Z" fill="#263238"/>
<path d="M129.617 93.7035C129.617 93.7035 129.629 93.4552 129.664 93.0098C129.698 92.5645 129.719 91.9178 129.655 91.1256C129.54 89.5498 128.98 87.3444 127.561 85.3703C126.139 83.3962 124.224 82.1715 122.768 81.5677C122.037 81.2594 121.417 81.071 120.986 80.9682C120.554 80.8611 120.311 80.8097 120.315 80.7926C120.315 80.784 120.379 80.7926 120.494 80.8012C120.61 80.8183 120.785 80.8311 121.003 80.8825C121.443 80.9639 122.075 81.1266 122.823 81.4221C124.314 81.9959 126.284 83.2249 127.737 85.2418C129.189 87.2588 129.732 89.5155 129.809 91.1171C129.852 91.9221 129.809 92.5773 129.749 93.0227C129.728 93.2453 129.685 93.4166 129.664 93.5322C129.642 93.6479 129.625 93.7078 129.617 93.7078V93.7035Z" fill="#263238"/>
<path d="M125.036 70.5709C125.036 70.5709 125.229 70.648 125.54 70.8493C125.852 71.0463 126.28 71.3803 126.728 71.8684C127.181 72.3523 127.647 73.0075 128.006 73.8126C128.369 74.6176 128.608 75.5769 128.621 76.6003C128.621 77.6238 128.39 78.5873 128.04 79.3923C127.69 80.2017 127.232 80.8654 126.788 81.3536C126.339 81.846 125.921 82.1843 125.609 82.3856C125.301 82.5912 125.117 82.6768 125.109 82.6682C125.079 82.6254 125.818 82.2443 126.668 81.2465C127.51 80.2787 128.407 78.5915 128.399 76.596C128.382 74.6005 127.467 72.9262 126.613 71.9669C125.754 70.982 125.006 70.6095 125.036 70.5667V70.5709Z" fill="#263238"/>
<path d="M131.069 70.9006C131.125 70.9092 130.877 72.0782 130.129 73.3329C129.39 74.5919 128.489 75.3713 128.454 75.3285C128.403 75.2814 129.219 74.4463 129.937 73.2216C130.663 72.0012 131.001 70.8835 131.069 70.9049V70.9006Z" fill="#263238"/>
<path d="M139.329 55.8829C139.329 55.8829 139.452 55.93 139.675 56.0414C139.79 56.1013 139.927 56.1699 140.089 56.2512C140.247 56.3497 140.427 56.4568 140.627 56.5809C141.422 57.0948 142.52 57.9684 143.52 59.3558C144.516 60.7261 145.43 62.6232 145.661 64.8842C145.917 67.1366 145.332 69.6974 143.913 71.8899C142.456 74.1466 140.303 75.7525 138.124 76.4805L138.188 76.352C139.162 79.5551 139.136 82.4499 138.888 84.4154C138.765 85.4046 138.598 86.1754 138.461 86.6979C138.397 86.9591 138.333 87.1561 138.295 87.2888C138.252 87.4216 138.23 87.4901 138.226 87.4901C138.222 87.4901 138.235 87.4173 138.265 87.2802C138.299 87.1261 138.346 86.9291 138.401 86.6807C138.512 86.1583 138.662 85.3832 138.769 84.3983C138.982 82.4413 138.974 79.5722 137.995 76.4077L137.966 76.3135L138.06 76.2835C140.192 75.5598 142.294 73.9796 143.725 71.7657C145.114 69.6118 145.695 67.1109 145.456 64.9013C145.242 62.6831 144.353 60.8075 143.388 59.4415C142.418 58.0626 141.345 57.1805 140.576 56.6495C140.384 56.521 140.209 56.4054 140.055 56.3026C139.901 56.217 139.769 56.1399 139.653 56.0756C139.435 55.9515 139.324 55.8829 139.329 55.8787V55.8829Z" fill="#263238"/>
<path d="M132.014 57.2917C132.014 57.2917 132.167 57.3731 132.407 57.5787C132.646 57.7799 132.962 58.1139 133.27 58.585C133.582 59.0517 133.872 59.6727 134.039 60.4006C134.21 61.1286 134.24 61.9722 134.043 62.8201C133.838 63.6637 133.436 64.4045 132.958 64.9784C132.484 65.5565 131.945 65.9761 131.458 66.2587C130.971 66.5414 130.54 66.6955 130.236 66.7683C129.933 66.8454 129.762 66.8582 129.758 66.8497C129.741 66.8026 130.446 66.7084 131.377 66.1217C132.296 65.5607 133.432 64.4002 133.825 62.7687C134.205 61.1329 133.706 59.5827 133.133 58.6706C132.56 57.7328 131.975 57.3303 132.009 57.296L132.014 57.2917Z" fill="#263238"/>
<path d="M167.887 62.045C167.887 62.045 167.767 62.0621 167.541 62.0749C167.314 62.0878 166.977 62.1135 166.545 62.1649C165.686 62.2634 164.443 62.4646 162.978 62.9614C162.247 63.2097 161.461 63.5309 160.67 63.9762C159.88 64.4173 159.085 64.9826 158.278 65.6078C156.675 66.8667 155.026 68.4555 153.847 70.4981C152.689 72.5621 151.638 74.5662 150.796 76.4332C149.959 78.3046 149.322 80.0432 148.925 81.5419C148.523 83.0407 148.31 84.2783 148.216 85.1433C148.151 85.5715 148.143 85.9098 148.113 86.1368C148.092 86.3637 148.075 86.4836 148.066 86.4836C148.057 86.4836 148.057 86.3637 148.066 86.1325C148.079 85.9055 148.075 85.563 148.126 85.1305C148.194 84.2612 148.386 83.0107 148.771 81.4991C149.151 79.9875 149.775 78.2318 150.608 76.3476C151.446 74.4634 152.492 72.4551 153.655 70.3825C154.86 68.3056 156.53 66.6997 158.154 65.4408C158.974 64.8156 159.777 64.2503 160.585 63.8092C161.392 63.3639 162.191 63.0513 162.931 62.8072C164.417 62.3276 165.674 62.1477 166.541 62.0749C166.973 62.0407 167.314 62.0278 167.541 62.0278C167.772 62.0278 167.891 62.0321 167.891 62.0407L167.887 62.045Z" fill="#263238"/>
<path d="M154.261 58.5807C154.261 58.6235 153.663 58.615 152.723 58.782C152.253 58.8633 151.702 59.0089 151.108 59.2145C150.519 59.4329 149.886 59.7198 149.258 60.0923C148.639 60.4735 148.087 60.8974 147.617 61.3171C147.156 61.7453 146.767 62.1649 146.477 62.5461C145.887 63.2997 145.618 63.835 145.579 63.8136C145.567 63.805 145.626 63.668 145.746 63.4282C145.806 63.304 145.883 63.1584 145.99 62.9957C146.092 62.833 146.203 62.6403 146.353 62.4476C146.635 62.0493 147.015 61.6125 147.476 61.1629C147.946 60.7261 148.506 60.285 149.143 59.8954C149.784 59.5142 150.433 59.2273 151.04 59.0132C151.651 58.812 152.219 58.6792 152.698 58.6193C152.937 58.5764 153.159 58.5679 153.347 58.555C153.539 58.5379 153.706 58.5379 153.843 58.5422C154.112 58.5465 154.261 58.5593 154.261 58.5764V58.5807Z" fill="#263238"/>
<path d="M157.863 87.6099C157.863 87.6099 158.043 87.58 158.338 87.4729C158.632 87.3659 159.043 87.1432 159.423 86.7321C159.812 86.3253 160.136 85.7258 160.371 85.0149C160.602 84.2998 160.794 83.4862 160.965 82.634C161.307 80.9211 161.435 79.341 161.478 78.1976C161.504 77.6238 161.499 77.1613 161.508 76.8401C161.508 76.519 161.516 76.3391 161.529 76.3391C161.546 76.3391 161.568 76.5147 161.593 76.8359C161.615 77.157 161.64 77.6238 161.636 78.1976C161.636 79.3495 161.529 80.9468 161.183 82.6768C161.008 83.5418 160.811 84.3554 160.564 85.0834C160.312 85.8114 159.957 86.4323 159.538 86.8434C159.124 87.2631 158.679 87.4729 158.363 87.5586C158.205 87.6014 158.081 87.6185 157.996 87.6228C157.91 87.6228 157.863 87.6228 157.863 87.6142V87.6099Z" fill="#263238"/>
<path d="M170.925 94.0933C170.861 94.0804 171.386 93.1897 171.369 91.6138C171.369 90.8345 171.19 89.9095 170.797 88.9589C170.399 88.0125 169.758 87.049 168.878 86.2568C167.985 85.4731 166.981 84.9164 166.016 84.5567C165.05 84.1927 164.131 84.0043 163.358 83.9101C162.58 83.8159 161.948 83.7988 161.508 83.7988C161.068 83.7988 160.824 83.8073 160.824 83.7902C160.824 83.7816 160.884 83.7731 160.999 83.756C161.115 83.7431 161.286 83.7174 161.504 83.7088C161.944 83.6789 162.585 83.6746 163.375 83.7474C164.161 83.8245 165.097 83.9958 166.088 84.3555C167.075 84.7109 168.109 85.2761 169.028 86.0812C169.938 86.8991 170.587 87.8969 170.985 88.8732C171.378 89.8538 171.544 90.8088 171.527 91.6096C171.514 92.4103 171.369 93.0484 171.211 93.4638C171.147 93.6779 171.057 93.8278 171.015 93.9348C170.963 94.0419 170.933 94.0933 170.929 94.089L170.925 94.0933Z" fill="#263238"/>
<path d="M160.944 71.0846C160.944 71.0846 161.034 71.0461 161.209 70.9947C161.384 70.939 161.649 70.8748 161.991 70.802C162.674 70.6564 163.687 70.5151 164.943 70.5451C166.195 70.5879 167.703 70.8148 169.229 71.4914C170.758 72.1509 172.258 73.3242 173.347 74.9172C174.428 76.5145 174.958 78.3773 174.834 80.0559C174.723 81.7345 174.057 83.1605 173.305 84.1626C172.536 85.1689 171.685 85.777 171.062 86.0938C170.745 86.248 170.498 86.3593 170.318 86.4107C170.143 86.4707 170.053 86.4964 170.049 86.4921C170.049 86.4835 170.134 86.445 170.301 86.3722C170.472 86.308 170.715 86.188 171.019 86.021C171.621 85.687 172.442 85.0704 173.181 84.0726C173.903 83.0792 174.535 81.6831 174.633 80.0473C174.74 78.4201 174.223 76.6044 173.168 75.0457C172.104 73.487 170.643 72.335 169.147 71.6799C167.652 71.0075 166.174 70.7635 164.939 70.7035C163.7 70.6564 162.696 70.772 162.012 70.8919C161.324 71.0075 160.952 71.1103 160.948 71.0889L160.944 71.0846Z" fill="#263238"/>
<path d="M173.873 75.4397C173.826 75.4312 174.005 74.7717 174.044 73.684C174.052 73.4142 174.057 73.1145 174.027 72.7976C174.018 72.4807 173.963 72.1424 173.916 71.787C173.792 71.0847 173.587 70.3182 173.279 69.5517C172.959 68.7894 172.561 68.1086 172.151 67.5219C171.933 67.2393 171.737 66.9609 171.519 66.7297C171.314 66.4856 171.1 66.2801 170.903 66.0916C170.113 65.3508 169.519 65.0125 169.545 64.974C169.553 64.9611 169.703 65.0425 169.963 65.2009C170.096 65.278 170.258 65.3765 170.429 65.5135C170.6 65.6463 170.809 65.7876 171.01 65.9803C171.215 66.1644 171.442 66.3657 171.655 66.6098C171.886 66.841 172.091 67.1194 172.318 67.4063C172.745 67.9972 173.155 68.6952 173.484 69.4746C173.8 70.2582 174.001 71.0419 174.121 71.7613C174.164 72.1253 174.215 72.4679 174.215 72.7933C174.236 73.1188 174.223 73.4185 174.206 73.6969C174.202 73.9752 174.155 74.2193 174.125 74.4377C174.099 74.6561 174.057 74.8402 174.018 74.9858C173.941 75.2856 173.894 75.4483 173.881 75.444L173.873 75.4397Z" fill="#263238"/>
<path d="M187.926 76.1164C187.917 76.1592 187.259 76.0308 186.182 76.0393C185.644 76.0393 185.007 76.0993 184.311 76.2192C183.615 76.3562 182.863 76.5618 182.106 76.8658C181.35 77.1784 180.671 77.5595 180.077 77.9492C179.491 78.3517 178.996 78.7543 178.611 79.1311C177.838 79.8762 177.458 80.4329 177.419 80.4072C177.406 80.3986 177.496 80.2573 177.671 80.0047C177.757 79.8762 177.868 79.7263 178.009 79.5636C178.15 79.4009 178.304 79.2039 178.5 79.0155C178.876 78.6172 179.372 78.1933 179.961 77.7779C180.56 77.3711 181.252 76.9771 182.021 76.656C182.794 76.3434 183.568 76.1421 184.277 76.0136C184.99 75.9023 185.64 75.8552 186.187 75.8766C186.46 75.8723 186.704 75.9066 186.922 75.9237C187.135 75.9408 187.319 75.9708 187.468 76.0008C187.768 76.0565 187.93 76.095 187.926 76.1121V76.1164Z" fill="#263238"/>
<path d="M196.223 112.674C196.223 112.674 196.266 112.738 196.322 112.879C196.373 113.016 196.441 113.226 196.501 113.5C196.625 114.048 196.732 114.862 196.646 115.868C196.565 116.87 196.287 118.057 195.732 119.264C195.176 120.476 194.36 121.705 193.331 122.836C192.297 123.97 191.096 124.852 189.891 125.413C188.686 125.987 187.494 126.227 186.499 126.321C185.499 126.42 184.691 126.381 184.136 126.368C183.858 126.36 183.645 126.36 183.499 126.364C183.354 126.377 183.277 126.381 183.277 126.373C183.277 126.364 183.35 126.347 183.495 126.321C183.64 126.3 183.858 126.287 184.136 126.283C184.691 126.27 185.499 126.283 186.482 126.167C187.46 126.052 188.626 125.799 189.801 125.229C190.981 124.668 192.151 123.803 193.164 122.686C194.177 121.572 194.988 120.36 195.544 119.179C196.099 117.992 196.39 116.836 196.488 115.856C196.591 114.871 196.51 114.066 196.411 113.522C196.364 113.248 196.309 113.038 196.27 112.897C196.232 112.755 196.21 112.682 196.215 112.678L196.223 112.674Z" fill="#263238"/>
<g opacity="0.3">
<path d="M162.794 94.4785C160.987 95.1123 159.316 96.1357 157.923 97.4547C150.98 95.0352 143.046 95.6219 136.53 99.0348C135.381 99.6386 134.261 100.328 133.009 100.662C131.45 101.077 129.809 100.91 128.198 100.816C124.562 100.615 120.862 100.838 117.401 101.968C113.94 103.099 110.723 105.193 108.659 108.199C106.6 111.205 105.814 115.17 107.014 118.617L107.42 119.217C107.104 115.491 108.715 111.8 111.458 108.764C114.201 105.728 117.982 103.052 122.033 102.495C126.083 101.938 129.971 102.739 133.988 103.488C142.238 98.9749 151.788 97.4461 160.91 99.7114C160.106 97.8358 160.978 95.412 162.794 94.4785Z" fill="black"/>
</g>
<g opacity="0.3">
<path d="M144.81 112.952C140.546 115.8 135.064 116.691 130.164 115.192C123.05 118.87 120.909 117.457 117.611 116.369C119.243 118.373 122.268 119.461 124.848 119.585C127.429 119.71 130.04 118.69 131.856 116.849C135.415 118.147 139.337 117.714 143.097 117.269C146.233 116.896 149.374 116.519 152.51 116.147C155.975 115.731 159.466 115.316 162.798 114.263C166.127 113.209 169.327 111.475 171.587 108.811C163.7 114.156 153.984 115.517 144.81 112.952Z" fill="black"/>
</g>
<g opacity="0.3">
<path d="M105.626 90.6503C107.134 91.1385 109.317 90.7017 110.71 89.9394C112.103 89.1772 113.158 87.8283 113.569 86.291C113.675 85.8842 113.761 85.426 114.09 85.1605C114.44 84.8778 114.936 84.9164 115.384 84.9035C116.854 84.8693 118.298 84.1499 119.209 82.9894C120.119 81.8289 120.478 80.253 120.161 78.8142C118.901 82.1886 114.85 84.2312 111.398 83.2292C111.283 86.2096 110.39 89.7553 105.63 90.6417" fill="black"/>
</g>
<g opacity="0.3">
<path d="M133.701 67.8046C130.928 64.0277 126.314 62.1093 121.674 62.7345C117.038 63.3597 112.731 66.1303 110.227 70.0913C107.869 70.1599 105.485 70.5239 103.323 71.4745C101.161 72.4252 99.2211 74.001 98.1102 76.0865C96.2644 79.5636 96.0336 83.8202 98.0546 87.4344C97.3624 83.1222 98.2512 79.508 100.584 76.7331C102.921 73.9582 107.83 71.6801 111.454 71.8685C112.731 68.8409 115.12 66.8197 118.277 65.9247C121.43 65.0298 124.998 64.9398 128.126 65.9376C131.249 66.9353 135.705 71.6629 135.71 72.3609C135.885 70.8065 135.15 69.7745 133.697 67.8004L133.701 67.8046Z" fill="black"/>
</g>
<g opacity="0.3">
<path d="M166.306 62.015C160.568 61.1586 154.693 64.3189 151.356 69.0722C148.019 73.8254 147.626 79.2724 148.066 85.0706C148.066 85.0706 150.189 75.2514 153.65 70.6138C157.863 64.9783 164.926 61.1672 166.306 62.015Z" fill="black"/>
</g>
<g opacity="0.3">
<path d="M161.619 77.7779C162.243 79.2082 162.465 80.8098 162.251 82.3556C165.221 82.33 167.942 84.2698 169.549 86.7706C168.468 85.6358 166.896 84.7066 165.302 84.227C163.708 83.7474 162.277 83.5033 160.824 83.9872C161.183 81.7604 161.764 79.6279 161.563 77.6238" fill="black"/>
</g>
<g opacity="0.3">
<path d="M201.094 102.435C200.406 100.255 198.855 98.3582 196.851 97.262C200.039 101.947 199.543 108.173 196.223 112.674C197.223 116.198 196.467 120.579 190.635 124.908C194.134 124.321 197.928 120.51 198.381 116.982C198.569 115.513 198.368 113.988 198.8 112.575C199.176 111.329 200.009 110.28 200.581 109.115C201.594 107.064 201.778 104.619 201.094 102.439V102.435Z" fill="black"/>
</g>
<g opacity="0.3">
<path d="M86.0525 90.4961C86.0653 90.5518 86.0824 90.6031 86.0952 90.6588C86.1123 90.5689 86.1294 90.4832 86.155 90.3933L86.0525 90.4961Z" fill="black"/>
</g>
<g opacity="0.3">
<path d="M92.0343 105.715C91.4148 104.794 90.8294 103.822 90.5688 102.743C89.9578 100.191 91.2524 97.6089 92.5043 95.3008C89.4878 95.6048 86.9242 94.0932 86.091 90.6545C85.5868 93.0012 86.232 95.7675 88.159 97.1678C87.3173 100.718 88.0223 104.615 90.0603 107.638C92.0984 110.665 95.4396 112.777 99.0415 113.32C96.3411 111.158 93.9698 108.58 92.0343 105.711V105.715Z" fill="black"/>
</g>
<path d="M155.419 132.809C155.069 133.43 150.694 137.125 152.125 141.669C153.988 147.578 162.901 147.779 169.912 146.413C180.214 144.405 185.097 139.99 185.097 134.085C185.097 129.327 155.424 132.809 155.424 132.809H155.419Z" fill="#FF725E"/>
<path d="M185.093 134.081C185.093 134.081 184.973 134.072 184.747 134.034C184.503 133.991 184.174 133.931 183.769 133.854C183.346 133.768 182.824 133.682 182.213 133.588C181.607 133.485 180.914 133.383 180.15 133.288C178.62 133.079 176.783 132.916 174.745 132.779C172.702 132.655 170.455 132.59 168.096 132.586C163.375 132.582 159.102 132.809 156.013 132.98C154.484 133.07 153.24 133.143 152.356 133.198C151.941 133.22 151.608 133.237 151.36 133.25C151.134 133.258 151.014 133.263 151.01 133.25C151.01 133.241 151.13 133.224 151.356 133.203C151.604 133.181 151.933 133.147 152.347 133.109C153.21 133.031 154.458 132.929 156.005 132.822C159.094 132.612 163.367 132.355 168.096 132.359C170.459 132.368 172.711 132.432 174.757 132.573C176.8 132.723 178.637 132.899 180.171 133.13C180.94 133.233 181.632 133.348 182.235 133.46C182.841 133.562 183.363 133.661 183.786 133.764C184.192 133.858 184.516 133.931 184.76 133.986C184.982 134.038 185.097 134.072 185.097 134.076L185.093 134.081Z" fill="#263238"/>
<g opacity="0.3">
<path d="M185.093 134.171C174.672 131.593 163.704 132.655 152.98 133.156C164.319 134.205 175.146 134.222 185.093 134.171Z" fill="black"/>
</g>
<g opacity="0.3">
<path d="M139.529 122.887C137.726 123.418 134.415 124.424 132.787 125.041C132.539 126.398 132.001 127.537 130.804 128.184C129.416 128.818 127.848 129.049 126.335 128.848C128.134 129.195 129.997 129.503 131.779 129.079C133.56 128.655 135.248 127.315 135.521 125.503C145.712 122.039 156.581 120.6 167.319 121.294C158.171 119.427 148.489 120.249 139.533 122.887H139.529Z" fill="black"/>
</g>
<g opacity="0.3">
<path d="M173.04 84.3169C173.07 84.2998 173.095 84.287 173.125 84.2698C175.492 82.9595 176.689 79.8292 175.783 77.2727C175.633 76.8445 175.428 76.4248 175.407 75.9709C175.386 75.5041 175.561 75.0588 175.68 74.6091C176.372 72.0013 174.92 68.9909 172.45 67.916C173.044 68.6012 174.937 71.3718 173.736 75.958C173.736 75.958 175.223 78.6302 174.629 80.9383" fill="black"/>
</g>
<g opacity="0.3">
<path d="M129.655 93.4293C130.95 92.2174 130.984 89.6652 130.501 87.9523C130.023 86.2394 128.899 84.7878 127.703 83.4731C128.946 82.5439 129.771 81.0794 129.916 79.5335C130.061 77.9876 129.527 76.3903 128.485 75.2427C128.297 76.7115 128.284 78.54 127.639 79.8718C126.989 81.2035 126.246 81.9658 124.947 82.6766C128.305 84.3553 129.882 89.1428 129.754 92.2603L129.651 93.4336L129.655 93.4293Z" fill="black"/>
</g>
<path d="M186.204 114.973C186.144 114.973 186.524 114.07 186.276 112.609C186.152 111.89 185.87 111.046 185.349 110.233C184.832 109.419 184.072 108.648 183.153 108.015C182.23 107.381 181.247 106.94 180.329 106.627C179.406 106.31 178.556 106.092 177.834 105.951C177.112 105.809 176.518 105.724 176.107 105.659C175.697 105.595 175.475 105.552 175.475 105.535C175.475 105.518 175.706 105.535 176.12 105.574C176.53 105.617 177.129 105.677 177.864 105.796C178.598 105.916 179.461 106.126 180.393 106.434C181.329 106.743 182.333 107.188 183.277 107.835C184.217 108.481 184.999 109.278 185.52 110.126C186.046 110.974 186.319 111.847 186.426 112.588C186.533 113.333 186.473 113.95 186.387 114.357C186.345 114.562 186.302 114.716 186.264 114.819C186.229 114.922 186.204 114.978 186.199 114.973H186.204Z" fill="#263238"/>
<g opacity="0.3">
<path d="M180.812 103.685C181.7 101.411 182.072 98.9363 181.888 96.4998C180.406 99.9041 178.06 103.03 175.428 105.647C178.898 105.848 182.44 107.15 184.922 109.586C184.867 107.043 183.175 104.615 180.812 103.685Z" fill="black"/>
</g>
<path d="M77.1013 131.199C72.6236 131.199 69.9232 130.475 69.4447 128.959C68.3338 125.426 78.977 119.478 88.1034 115.11L88.2872 115.496C75.7853 121.478 69.0644 126.338 69.8506 128.831C71.5469 134.218 107.019 128.008 147.31 115.265C187.601 102.521 220.206 87.2031 218.509 81.816C217.719 79.3024 209.306 79.2081 195.424 81.5591L195.352 81.1351C205.482 79.418 217.792 78.1205 218.915 81.6833C220.744 87.4857 189.344 102.418 147.438 115.667C116.5 125.452 89.727 131.194 77.097 131.194L77.1013 131.199Z" fill="#FF725E"/>
<g opacity="0.6">
<path d="M77.1015 131.199C72.6237 131.199 69.9234 130.475 69.4448 128.959C68.3382 125.439 78.9814 119.487 88.1036 115.111L88.2873 115.496C75.7898 121.487 69.0689 126.347 69.8508 128.831C71.547 134.222 107.019 128.009 147.31 115.265C187.601 102.521 220.206 87.2033 218.51 81.8162C217.719 79.3111 209.306 79.2169 195.424 81.5593L195.352 81.1353C205.482 79.4267 217.796 78.1292 218.915 81.6835C220.744 87.4859 189.344 102.418 147.438 115.667C116.5 125.452 89.7272 131.195 77.0972 131.195L77.1015 131.199Z" fill="black"/>
</g>
</g>
<defs>
<clipPath id="clip0_226_1887">
<rect width="239" height="172" fill="white" transform="translate(9.97778 19)"/>
</clipPath>
</defs>
</svg>
