<svg width="286" height="200" viewBox="0 0 286 200" fill="none" xmlns="http://www.w3.org/2000/svg">
<line x1="24.5529" y1="25.1093" x2="139.566" y2="108.759" stroke="#414056"/>
<path d="M90 136.321L146.034 53.8743L152.127 164.452L90 136.321Z" fill="#E1E1E1" stroke="#414056"/>
<path d="M210.789 129.663L146.034 53.8743L152.127 164.452L210.789 129.663Z" fill="white" stroke="#414056"/>
<path d="M165.676 112.455L245.911 62.5884L251.694 73.3245L165.676 112.455Z" fill="#F18B8B" stroke="#414056" stroke-linejoin="round"/>
<path d="M165.378 112.529L251.386 72.8193L256.497 86.6346L165.378 112.529Z" fill="#FEC576" stroke="#414056" stroke-linejoin="round"/>
<path d="M165.378 112.529L256.448 86.2174L259.281 100.718L165.378 112.529Z" fill="#FAE258" stroke="#414056" stroke-linejoin="round"/>
<path d="M165.402 112.627L259.255 100.75L258.759 115.674L165.402 112.627Z" fill="#CCD88E" stroke="#414056" stroke-linejoin="round"/>
<path d="M165.692 112.481L258.759 114.687L254.941 130.041L165.692 112.481Z" fill="#5FB7AE" stroke="#414056" stroke-linejoin="round"/>
<path d="M166.45 112.467L255.138 129.023L248.824 143.939L166.45 112.467Z" fill="#ADF1EA" stroke="#414056" stroke-linejoin="round"/>
<path d="M165.627 112.405L248.254 144.088L241.152 155.965L165.627 112.405Z" fill="#92B8D3" stroke="#414056" stroke-linejoin="round"/>
<path d="M165.461 112.508L241.194 155.963L231.184 166.272L165.461 112.508Z" fill="#DD91DC" stroke="#414056" stroke-linejoin="round"/>
</svg>
