<svg width="1088" height="300" viewBox="0 0 1088 300" fill="none" xmlns="http://www.w3.org/2000/svg">
<rect width="1088" height="300" rx="8" fill="#111827"/>
<g clip-path="url(#clip0_226_916)">
<path d="M741.51 217.56C743.321 217.56 744.79 216.091 744.79 214.28C744.79 212.469 743.321 211 741.51 211C739.698 211 738.23 212.469 738.23 214.28C738.23 216.091 739.698 217.56 741.51 217.56Z" fill="#79D3FE"/>
<path d="M746.5 271.88C747.439 271.88 748.2 271.119 748.2 270.18C748.2 269.241 747.439 268.48 746.5 268.48C745.561 268.48 744.8 269.241 744.8 270.18C744.8 271.119 745.561 271.88 746.5 271.88Z" fill="white"/>
<path d="M709.7 220.96C710.639 220.96 711.4 220.199 711.4 219.26C711.4 218.321 710.639 217.56 709.7 217.56C708.761 217.56 708 218.321 708 219.26C708 220.199 708.761 220.96 709.7 220.96Z" fill="#FFA163"/>
</g>
<g clip-path="url(#clip1_226_916)">
<path d="M999.75 46.8419C1001.13 48.0104 1003.2 47.8355 1004.37 46.4512C1005.54 45.067 1005.37 42.9976 1003.98 41.8291C1002.6 40.6606 1000.53 40.8355 999.36 42.2198C998.191 43.6041 998.366 45.6735 999.75 46.8419Z" fill="#79D3FE"/>
<path d="M968.525 91.5694C969.243 92.175 970.315 92.0844 970.921 91.3669C971.526 90.6495 971.436 89.5769 970.718 88.9713C970.001 88.3657 968.928 88.4564 968.323 89.1738C967.717 89.8913 967.808 90.9638 968.525 91.5694Z" fill="white"/>
<path d="M973.249 28.9212C973.967 29.5269 975.039 29.4362 975.645 28.7187C976.251 28.0013 976.16 26.9287 975.443 26.3231C974.725 25.7175 973.653 25.8082 973.047 26.5256C972.441 27.2431 972.532 28.3156 973.249 28.9212Z" fill="#FFA163"/>
</g>
<g clip-path="url(#clip2_226_916)">
<path d="M725.14 67.0101C725.14 69.0401 723.5 70.6801 721.47 70.6801C719.44 70.6801 717.8 69.0301 717.8 67.0101C717.8 64.9901 719.44 63.3401 721.47 63.3401C723.5 63.3401 725.14 64.9801 725.14 67.0101Z" fill="#79D3FE"/>
<path d="M555.7 50.4C556.639 50.4 557.4 49.6389 557.4 48.7C557.4 47.7611 556.639 47 555.7 47C554.761 47 554 47.7611 554 48.7C554 49.6389 554.761 50.4 555.7 50.4Z" fill="white"/>
<path d="M753.75 78.73C753.75 79.67 752.99 80.43 752.05 80.43C751.11 80.43 750.35 79.67 750.35 78.73C750.35 77.79 751.11 77.03 752.05 77.03C752.99 77.03 753.75 77.79 753.75 78.73Z" fill="#FFA163"/>
<path d="M702 109.67C702.939 109.67 703.7 108.909 703.7 107.97C703.7 107.031 702.939 106.27 702 106.27C701.061 106.27 700.3 107.031 700.3 107.97C700.3 108.909 701.061 109.67 702 109.67Z" fill="white"/>
</g>
<g clip-path="url(#clip3_226_916)">
<path d="M636.01 182.06H617.03C615.91 182.06 615 181.15 615 180.03C615 178.91 615.91 178 617.03 178H636.01C637.13 178 638.04 178.91 638.04 180.03C638.04 181.15 637.13 182.06 636.01 182.06Z" fill="#FE61CA"/>
<path d="M624.49 190.06H617.03C615.91 190.06 615 189.15 615 188.03C615 186.91 615.91 186 617.03 186H624.49C625.61 186 626.52 186.91 626.52 188.03C626.52 189.15 625.61 190.06 624.49 190.06Z" fill="#79D3FE"/>
</g>
<g clip-path="url(#clip4_226_916)">
<g opacity="0.5">
<path d="M579.39 231.5C565.64 231.5 554.5 242.64 554.5 256.39C554.5 270.14 565.64 281.28 579.39 281.28C593.14 281.28 604.28 270.14 604.28 256.39C604.28 242.64 593.13 231.5 579.39 231.5ZM579.39 272.2C570.66 272.2 563.58 265.12 563.58 256.39C563.58 247.66 570.66 240.58 579.39 240.58C588.12 240.58 595.2 247.66 595.2 256.39C595.2 265.12 588.12 272.2 579.39 272.2Z" stroke="#FE61CA" stroke-linejoin="round"/>
<path d="M579.39 231.5V240.58C588.12 240.58 595.2 247.66 595.2 256.39H604.28C604.27 242.64 593.13 231.5 579.39 231.5Z" stroke="#9D4EC5" stroke-linejoin="round"/>
</g>
</g>
<g clip-path="url(#clip5_226_916)">
<g opacity="0.5">
<path d="M1064.3 222.43L1023.46 273.18L1030.47 211.5" stroke="#0197F8" stroke-linejoin="round"/>
<path d="M1023.46 273.18L1045.89 236.05L1010.5 229.47L1023.46 273.18Z" stroke="#79D3FE" stroke-linejoin="round"/>
<path d="M1010.5 229.47L1030.47 211.5L1064.3 222.43L1045.89 236.05L1010.5 229.47Z" stroke="#79D3FE" stroke-linejoin="round"/>
</g>
</g>
<g clip-path="url(#clip6_226_916)">
<g opacity="0.75">
<path d="M1023.47 47.5L1041.85 67.93" stroke="#FFA163" stroke-linejoin="round"/>
<path d="M999.5 69.0701L1017.88 89.5001" stroke="#FFA163" stroke-linejoin="round"/>
<path d="M1045.89 55.99L1021.92 77.57L999.5 69.07L1023.47 47.5L1045.89 55.99Z" stroke="#FFCDA8" stroke-linejoin="round"/>
<path d="M1064.27 76.4199L1040.3 97.9899L1017.88 89.4999L1041.85 67.9299L1064.27 76.4199Z" stroke="#FFA163" stroke-linejoin="round"/>
<path d="M1021.92 77.5701L1040.3 97.9901" stroke="#FFCDA8" stroke-linejoin="round"/>
<path d="M1045.89 55.99L1064.27 76.42" stroke="#FFCDA8" stroke-linejoin="round"/>
</g>
</g>
<g clip-path="url(#clip7_226_916)">
<path d="M741.199 164.328C755.489 157.071 761.192 139.604 753.935 125.314C746.679 111.023 729.212 105.321 714.921 112.577C700.631 119.833 694.928 137.3 702.184 151.591C709.441 165.882 726.908 171.584 741.199 164.328Z" stroke="#FE61CA" stroke-width="2.61" stroke-linejoin="round"/>
<path d="M747.52 116.92C765.78 110.02 779.48 107.68 781.54 111.83C784.46 117.71 762.89 134.39 733.35 149.09C703.81 163.79 677.5 170.95 674.57 165.07C672.51 160.93 682.63 151.4 699.15 140.99" stroke="#FE61CA" stroke-width="2.61" stroke-linejoin="round"/>
<path d="M697.5 166C696.78 168.15 694.45 169.31 692.3 168.59C690.15 167.87 688.99 165.54 689.71 163.39C690.43 161.24 692.76 160.08 694.91 160.8C697.06 161.52 698.22 163.85 697.5 166Z" fill="#FE61CA"/>
<path d="M767.19 113.42C766.47 115.57 764.14 116.73 761.99 116.01C759.84 115.29 758.68 112.96 759.4 110.81C760.12 108.66 762.45 107.5 764.6 108.22C766.75 108.94 767.91 111.27 767.19 113.42Z" fill="#FE61CA"/>
</g>
<g clip-path="url(#clip8_226_916)">
<path d="M775.25 26H742.5C740.567 26 739 27.567 739 29.5C739 31.433 740.567 33 742.5 33H775.25C777.183 33 778.75 31.433 778.75 29.5C778.75 27.567 777.183 26 775.25 26Z" fill="#535FE9"/>
<path d="M755.37 46.8101H742.5C740.57 46.8101 739 45.2401 739 43.3101C739 41.3801 740.57 39.8101 742.5 39.8101H755.37C757.3 39.8101 758.87 41.3801 758.87 43.3101C758.87 45.2401 757.3 46.8101 755.37 46.8101Z" fill="#79D3FE"/>
</g>
<g clip-path="url(#clip9_226_916)">
<g opacity="0.5">
<path d="M838.624 178L779 249.411L824.389 287.308L884.013 215.897L838.624 178Z" stroke="#79D3FE" stroke-linejoin="round"/>
<path d="M826.344 192.707L791.286 234.696L836.675 272.593L871.733 230.605L826.344 192.707Z" stroke="#79D3FE" stroke-linejoin="round"/>
<path d="M814.737 206.609L802.893 220.794L848.282 258.692L860.126 244.506L814.737 206.609Z" stroke="#79D3FE" stroke-linejoin="round"/>
<path d="M790.387 258.912L850.007 187.512" stroke="#79D3FE" stroke-linejoin="round"/>
<path d="M801.687 268.362L861.317 196.952" stroke="#79D3FE" stroke-linejoin="round"/>
<path d="M812.997 277.802L872.627 206.392" stroke="#79D3FE" stroke-linejoin="round"/>
</g>
<g clip-path="url(#clip10_226_916)">
<path d="M934.411 149.425C933.98 145.012 932.28 140.833 931.069 136.584C929.811 132.172 928.693 127.736 927.971 123.208C927.273 118.831 926.97 114.36 927.121 109.936C927.203 107.771 927.424 105.641 927.832 103.51C928.169 101.741 928.786 99.785 928.367 97.9922C928.297 97.6779 909.888 102.975 909.445 104.081C908.677 105.99 908.665 108.237 908.374 110.262C908.095 112.241 908.013 114.244 907.838 116.234C907.501 120.216 907.116 124.302 905.987 128.155C904.904 131.869 902.68 134.57 900.223 137.469C898.989 138.924 897.766 140.379 896.462 141.753C895.146 143.138 893.493 144.617 892.643 146.34C892.212 147.213 934.585 151.345 934.399 149.436L934.411 149.425Z" fill="#FDBBA5"/>
<g style="mix-blend-mode:multiply" opacity="0.5">
<path d="M911.541 102.975C910.598 104.383 909.632 105.745 908.735 107.142C908.607 108.178 908.525 109.226 908.386 110.227C908.106 112.206 908.025 114.209 907.85 116.199C907.768 117.108 907.687 118.027 907.605 118.947C907.897 118.947 908.176 118.947 908.467 118.947C908.77 118.947 909.038 118.9 909.282 118.83C917.689 123.056 924.886 129.75 927.203 139.203C927.692 141.182 930.358 140.926 930.964 139.203C931.115 138.784 931.29 138.365 931.476 137.958C931.336 137.492 931.197 137.038 931.057 136.572C929.799 132.16 928.682 127.725 927.96 123.196C927.261 118.819 926.958 114.348 927.11 109.925C927.191 107.759 927.412 105.629 927.82 103.499C928.111 101.974 928.612 100.297 928.472 98.7139C927.96 98.5625 927.447 98.4112 926.947 98.2366C923.651 99.0515 915.419 101.473 911.53 102.975H911.541Z" fill="#FDBBA5"/>
</g>
<path d="M870.484 212.976C866.967 213.837 864.638 216.491 862.356 219.122C860.039 221.812 857.908 224.652 855.87 227.551C851.375 233.907 847.032 240.357 842.63 246.783C834.095 259.239 826.177 272.511 815.534 283.337C812.844 286.073 810.702 288.995 809.491 292.674C806.976 300.334 810.539 308.983 814.836 315.316C818.562 320.788 823.278 325.666 827.761 330.52C836.715 340.218 845.542 350.032 855.963 358.204C858.769 360.404 861.517 362.674 864.091 365.142C865.407 366.411 866.688 367.715 867.992 368.996C869.249 370.23 870.519 371.685 872.149 372.43C873.662 373.128 885.283 363.745 885.493 362.604C886.797 360.346 885.26 357.319 884.107 355.2C882.71 352.663 881.033 350.311 879.275 348.018C875.246 342.802 871.136 337.657 867.014 332.511C862.996 327.494 859.177 322.266 854.938 317.424C853.029 315.235 851.096 313.105 849.768 310.497C848.988 308.972 848.325 307.086 848.208 305.247C849.792 301.661 852.505 298.576 854.985 295.549C858.816 290.869 862.833 286.341 866.874 281.847C870.856 277.423 874.955 273.104 879.089 268.82C881.161 266.678 883.246 264.548 885.33 262.429C886.832 260.904 890.151 258.494 889.953 256.014C890.419 254.746 871.916 212.615 870.484 212.964V212.976Z" fill="#313CAF"/>
<g style="mix-blend-mode:multiply">
<path d="M870.484 212.976C866.967 213.837 864.638 216.492 862.356 219.123C860.039 221.812 857.908 224.652 855.87 227.551C851.375 233.907 847.032 240.357 842.63 246.783C834.095 259.239 826.177 272.511 815.534 283.337C812.844 286.073 810.702 288.995 809.491 292.674C806.976 300.334 810.539 308.984 814.836 315.317C816.978 318.471 819.458 321.428 822.032 324.304C820.32 319.834 818.771 315.293 818.352 310.497C817.502 300.718 820.576 291.626 826.142 283.663C831.72 275.666 838.706 268.587 844.913 261.079C851.329 253.314 857.512 245.351 863.509 237.248C867.444 231.952 871.275 226.573 875.036 221.148C872.684 216.259 870.879 212.894 870.472 212.987L870.484 212.976Z" fill="#313CAF"/>
</g>
<g style="mix-blend-mode:multiply">
<path d="M841.396 323.023C841.594 322.639 841.804 322.266 842.025 321.894C843.527 319.461 845.693 317.424 847.498 315.223C848.476 314.036 849.431 312.825 850.374 311.614C850.153 311.254 849.943 310.881 849.745 310.497C848.965 308.972 848.301 307.086 848.185 305.247C849.768 301.661 852.482 298.576 854.962 295.549C858.793 290.869 862.81 286.341 866.851 281.847C869.634 278.762 872.475 275.724 875.351 272.708C875.77 271.859 876.201 270.997 876.632 270.159C876.492 270.077 876.341 270.008 876.178 269.961C869.424 268.052 864.894 273.628 860.283 277.458C855.299 281.591 849.244 284.187 844.214 288.285C839.44 292.173 836.005 297.342 835.632 303.617C835.236 310.299 838.124 316.574 841.058 322.383C841.163 322.604 841.28 322.814 841.385 323.035L841.396 323.023Z" fill="#313CAF"/>
</g>
<path d="M927.75 237.9L870.379 215.479L884.41 256.259C882.652 259.1 881.103 262.103 879.461 264.967C876.736 269.705 874.408 274.525 872.207 279.519C869.971 284.583 866.944 289.007 863.672 293.454C860.178 298.204 856.72 303.174 853.157 307.959C851.329 310.427 849.454 312.86 847.498 315.235C845.693 317.435 843.527 319.473 842.025 321.906C840.465 324.432 839.661 327.366 839.219 330.276C838.741 333.373 838.473 336.504 837.914 339.589C837.262 343.152 836.366 346.667 835.294 350.125C830.928 364.234 824.128 377.611 817.723 390.882C815.907 394.654 814.055 398.414 812.192 402.162C810.271 406.027 807.861 409.904 806.871 414.13C806.475 415.818 829.309 419.799 830.695 418.926C833.583 417.099 835.655 414.409 837.775 411.755C839.859 409.136 841.862 406.458 843.783 403.722C847.672 398.169 851.201 392.325 854.449 386.365C861.052 374.258 866.408 361.534 872.358 349.1C875.444 342.639 879.019 336.551 883.385 330.87C887.694 325.258 892.386 319.95 896.706 314.339C904.95 303.629 912.17 292.138 918.225 280.054C921.625 273.279 924.664 266.306 927.342 259.216C928.658 255.735 929.892 252.219 931.034 248.68C932.245 244.92 933.549 241.148 933.933 237.202C933.991 236.62 931.546 236.992 927.773 237.9H927.75Z" fill="#313CAF"/>
<g style="mix-blend-mode:multiply">
<path d="M933.91 237.202C933.968 236.62 931.523 236.992 927.75 237.9L918.353 234.222C912.042 253.57 902.587 271.789 890.465 288.262C882.302 299.344 873.313 309.927 866.652 322.034C863.159 328.39 860.644 335.165 857.908 341.871C855.125 348.693 851.794 355.212 848.126 361.592C840.919 374.141 833.618 386.516 827.691 399.741C825.013 405.702 822.544 411.755 820.297 417.89C825.374 418.763 830.089 419.311 830.695 418.926C833.583 417.099 835.655 414.409 837.775 411.755C839.859 409.136 841.862 406.458 843.783 403.723C847.672 398.17 851.201 392.325 854.449 386.365C861.052 374.258 866.408 361.534 872.358 349.1C875.444 342.639 879.019 336.551 883.385 330.87C887.694 325.259 892.386 319.95 896.706 314.339C904.95 303.629 912.17 292.138 918.225 280.054C921.625 273.279 924.664 266.306 927.342 259.216C928.658 255.735 929.892 252.219 931.034 248.68C932.245 244.92 933.549 241.148 933.933 237.202H933.91Z" fill="#313CAF"/>
</g>
<path d="M873.15 134.174C872.323 131.438 869.587 129.983 867.188 128.784C864.661 127.515 862.053 126.456 859.549 125.129C854.03 122.207 848.907 118.563 843.702 115.129C838.706 111.834 833.862 108.458 829.379 104.5C825.001 100.635 820.576 96.7932 816.314 92.8118C813.916 90.5766 811.505 88.3298 809.444 85.7686C807.418 83.2541 805.997 80.3553 804.437 77.5497C803.005 75.0002 801.468 72.5089 799.663 70.2155C798.079 68.2016 796.298 66.3855 794.225 64.8721C792.7 63.7661 790.813 62.5903 788.822 62.6136C786.901 62.6369 784.898 63.7894 784.991 65.9431C785.096 68.2714 787.204 70.9257 788.356 72.8582C789.696 75.1166 791.104 77.3402 792.315 79.6685C792.886 80.7744 793.445 81.892 793.887 83.0562C793.235 82.8699 792.583 82.672 791.954 82.4392C789.172 81.3914 786.505 79.0631 783.501 78.7488C783.163 78.7139 782.93 79.098 783.012 79.3891C783.757 82.3227 787.402 85.0818 789.998 86.3507C791.64 87.154 793.422 87.6546 795.168 88.1784C796.752 88.6557 798.301 89.3077 799.873 89.0516C801.91 93.9526 805.089 98.5743 808 102.893C811.494 108.062 815.301 112.987 819.4 117.69C827.109 126.537 836.016 134.465 845.844 140.868C848.266 142.451 850.746 143.953 853.32 145.28C854.612 145.944 855.916 146.572 857.232 147.166C858.536 147.76 860.073 148.563 861.541 148.47C864.731 148.284 873.651 135.781 873.173 134.174H873.15Z" fill="#FDBBA5"/>
<g style="mix-blend-mode:multiply" opacity="0.5">
<path d="M857.966 139.494C857.57 136.479 856.243 133.918 853.867 131.985C851.597 130.134 848.918 128.877 846.426 127.364C840.989 124.081 835.923 120.228 831.149 116.025C821.624 107.655 813.229 98.0388 805.148 88.2948C801.095 83.417 796.997 78.5508 793.247 73.4285C790.837 70.1456 788.461 66.7929 786.528 63.2073C785.585 63.7544 784.921 64.6741 784.968 65.9314C785.073 68.2597 787.18 70.914 788.333 72.8465C789.672 75.1049 791.081 77.3285 792.292 79.6568C792.863 80.7627 793.422 81.8803 793.864 83.0445C793.212 82.8582 792.56 82.6603 791.931 82.4275C789.148 81.3797 786.482 79.0514 783.478 78.7371C783.14 78.7022 782.907 79.0863 782.989 79.3774C783.734 82.311 787.378 85.0701 789.975 86.339C791.617 87.1423 793.398 87.6429 795.145 88.1667C796.729 88.644 798.277 89.296 799.849 89.0399C801.887 93.9409 805.066 98.5626 807.977 102.882C811.47 108.05 815.278 112.975 819.377 117.678C827.085 126.526 835.993 134.454 845.821 140.856C848.243 142.44 850.723 143.941 853.297 145.269C854.589 145.932 855.893 146.561 857.209 147.154C857.395 147.236 857.593 147.329 857.791 147.422C858.245 144.826 858.327 142.149 857.978 139.494H857.966Z" fill="#FDBBA5"/>
</g>
<path d="M940.873 258.261L930.056 251.532C929.182 254.105 928.286 256.678 927.331 259.216C926.05 262.604 924.688 265.956 923.244 269.286C933.153 270.24 943.318 268.587 943.318 268.587L944.879 264.164L940.873 258.273V258.261Z" fill="#F24B90"/>
<path d="M855.87 227.551C856.79 226.259 857.721 224.967 858.688 223.698L848.744 220.88H842.456C842.456 220.88 838.485 232.929 846.38 241.3C849.524 236.701 852.656 232.091 855.882 227.551H855.87Z" fill="#F24B90"/>
<path d="M984.958 145.781C982.536 145.362 980.068 145.478 977.634 145.094C975.2 144.71 972.802 144.128 970.461 143.359C965.71 141.811 961.286 139.518 957.292 136.502C953.647 133.755 949.828 131.101 945.426 129.715C942.445 128.784 939.185 128.307 936.017 128.365C933.584 128.412 929.671 128.4 928.356 130.938C925.829 135.804 920.857 138.167 915.489 138.202C912.578 138.214 909.166 137.864 906.953 135.769C905.975 134.849 905.335 133.662 904.834 132.428C904.415 131.415 904.287 130.239 903.414 129.506C902.54 128.772 901.085 128.784 900.013 128.586C897.289 128.109 894.517 128.016 891.793 127.562C887.519 126.852 883.362 125.606 879.228 124.302C874.838 122.917 870.39 121.205 866.175 119.191C863.998 118.155 861.867 117.026 859.782 115.804C858.152 114.849 856.103 113.836 855.02 116.13C852.924 120.542 846.205 135.979 846.205 150.007C846.205 153.79 851.876 155.071 855.299 156.118C858.397 157.061 861.657 156.992 864.871 157.108C867.211 157.201 871.625 157.003 873.173 159.18C873.756 159.995 873.86 161.066 873.79 162.067C873.697 163.301 873.464 164.524 873.348 165.758C873.115 168.202 872.777 170.635 872.312 173.034C871.019 179.809 868.818 186.421 865.756 192.603C862.938 198.284 859.456 203.732 855.427 208.622C853.471 210.997 851.433 213.337 849.116 215.374C847.964 216.398 846.753 217.341 845.46 218.179C844.505 218.796 842.467 219.472 842.479 220.869C842.514 224.454 843.399 227.202 845.728 229.972C848.022 232.708 851.119 234.501 854.379 235.828C858.047 237.318 861.902 238.087 865.756 238.925C869.901 239.821 874.047 240.729 878.192 241.614C886.622 243.395 895.053 245.176 903.483 246.957C910.994 248.541 918.749 250.077 925.689 253.488C928.891 255.06 931.907 256.992 934.539 259.402C935.866 260.625 937.124 261.952 938.172 263.418C939.406 265.153 940.279 266.829 942.096 268.052C946.847 271.23 948.337 259.193 948.721 256.608C949.245 253.069 949.571 249.507 949.653 245.933C949.828 238.75 949.42 231.567 948.838 224.408C947.685 210.228 945.962 195.921 947.336 181.695C947.662 178.389 948.186 175.094 948.931 171.858C948.931 171.858 948.931 171.846 948.931 171.835C949.269 172.323 949.63 172.789 950.014 173.243C952.482 176.188 955.999 178.179 959.702 179.122C962.857 179.925 966.06 177.713 968.389 175.862C975.317 170.333 986.519 146.037 984.958 145.769V145.781Z" fill="#F24B90"/>
<g style="mix-blend-mode:multiply" opacity="0.6">
<path d="M883.723 156.456C878.623 149.273 853.017 151.543 848.115 135.583C846.985 140.228 846.205 145.21 846.205 150.018C846.205 153.802 851.876 155.082 855.299 156.13C858.397 157.073 861.657 157.003 864.871 157.12C867.211 157.213 871.625 157.015 873.173 159.192C873.756 160.007 873.86 161.078 873.79 162.079C873.697 163.313 873.464 164.535 873.348 165.769C873.115 168.214 872.777 170.647 872.312 173.045C871.019 179.821 868.818 186.433 865.756 192.615C862.938 198.296 859.456 203.744 855.427 208.633C853.471 211.008 851.434 213.348 849.116 215.386C847.964 216.41 846.753 217.353 845.46 218.191C844.505 218.808 842.467 219.483 842.479 220.88C842.514 224.466 843.399 227.213 845.728 229.984C848.022 232.72 851.119 234.513 854.379 235.84C871.473 220.298 895.332 172.766 883.758 156.456H883.723Z" fill="#F24B90"/>
</g>
<g style="mix-blend-mode:multiply" opacity="0.6">
<path d="M971.498 168.75C966.572 164.396 961.414 159.762 955.487 156.829C949.641 153.93 942.725 153.022 937.089 156.933C932.012 160.461 929.276 166.317 928.251 172.265C927.04 179.308 927.343 186.561 926.714 193.662C926.108 200.438 925.119 207.167 923.756 213.826C921.276 225.944 917.596 237.737 912.811 249.041C917.235 250.136 921.59 251.498 925.666 253.5C928.868 255.072 931.884 257.004 934.515 259.414C935.843 260.636 937.1 261.963 938.148 263.43C939.383 265.165 940.256 266.841 942.073 268.064C946.823 271.242 948.314 259.204 948.698 256.62C949.222 253.081 949.548 249.519 949.63 245.945C949.804 238.762 949.397 231.579 948.815 224.419C947.662 210.24 945.938 195.933 947.313 181.707C947.639 178.4 948.163 175.106 948.908 171.87C948.908 171.87 948.908 171.858 948.908 171.846C949.245 172.335 949.606 172.801 949.991 173.255C952.459 176.2 955.976 178.191 959.679 179.134C962.834 179.937 966.037 177.725 968.365 175.874C969.833 174.71 971.486 172.696 973.163 170.263C972.604 169.751 972.045 169.25 971.486 168.75H971.498Z" fill="#F24B90"/>
</g>
<path d="M902.703 127.177C900.98 126.793 898.896 127.131 897.859 128.691C896.87 130.204 896.87 132.265 897.254 133.964C897.743 136.141 898.826 138.272 900.34 139.925C902.808 142.614 905.999 144.838 909.655 144.349C910.982 144.174 912.263 143.161 913.521 142.719C915.954 141.857 918.644 141.718 920.985 142.94C922.417 143.685 923.488 145.303 925.165 145.525C926.376 145.687 927.634 145.42 928.775 145.047C932.641 143.767 935.354 140.379 936.646 136.63C937.683 133.615 938.055 129.541 935.121 127.445C932.652 125.687 930.277 126.77 928.658 128.959C924.781 134.209 919.413 135.408 913.137 133.871C911.204 133.394 909.48 132.288 908.036 130.949C906.546 129.564 905.149 127.934 903.169 127.306C903.018 127.259 902.855 127.212 902.703 127.177Z" fill="#E6E6E6"/>
<path d="M1002.88 169.797C1002.4 168.086 1000.81 166.712 999.234 165.455C997.662 164.198 995.939 163.127 994.297 161.974C991.351 159.914 988.382 157.876 985.296 156.025C984.294 155.42 983.223 154.768 982.117 154.163C980.207 158.4 975.48 166.409 964.918 171.963C961.204 173.918 956.465 174.698 952.378 175.653C948.116 176.654 943.819 177.353 939.476 177.876C937.345 178.133 935.202 178.284 933.06 178.412C932.978 178.412 932.885 178.412 932.792 178.424C932.699 178.424 931.604 177.085 931.395 176.933C930.824 176.514 930.184 176.2 929.52 175.956C926.527 174.85 923.558 174.908 920.472 175.49C919.168 175.734 917.864 176.037 916.618 176.491C916.187 176.654 915.721 176.817 915.325 177.073C915.267 177.108 914.673 177.667 914.708 177.667C911.786 177.446 905.405 177.05 902.761 178.144C901.923 178.493 901.667 179.564 902.505 180.1C905.125 181.788 913.649 182.009 913.684 182.009C913.672 182.021 912.414 187.434 913.695 189.553C915.267 192.137 919.878 192.813 922.603 192.952C925.689 193.104 929.904 192.452 932.186 190.182C932.466 189.902 932.71 189.588 932.92 189.262C935.202 189.832 937.729 189.914 939.918 189.96C943.458 190.03 946.998 189.879 950.526 189.565C957.594 188.936 964.592 187.679 971.509 186.142C977.832 184.733 984.283 183.36 990.303 180.926C992.737 179.937 995.135 178.843 997.348 177.434C999.188 176.27 1001.42 174.966 1002.45 172.952C1003.05 171.765 1003.12 170.717 1002.86 169.762L1002.88 169.797Z" fill="#FDBBA5"/>
<g style="mix-blend-mode:multiply" opacity="0.5">
<path d="M1002.47 172.987C1003.08 171.8 1003.15 170.752 1002.88 169.797C1002.4 168.086 1000.81 166.712 999.234 165.455C997.918 164.407 996.521 163.499 995.135 162.556C994.576 164.78 993.796 166.933 992.411 168.796C990.722 171.054 988.382 172.731 985.948 174.093C980.475 177.143 974.234 179.064 968.179 180.531C961.716 182.102 955.114 182.964 948.477 183.115C945.275 183.185 942.084 183.115 938.893 182.871C935.563 182.615 932.186 181.998 928.868 182.696C925.945 183.325 923.302 184.873 920.367 185.537C917.969 186.072 915.582 186.13 913.16 186.002C913.101 187.353 913.206 188.738 913.73 189.588C915.302 192.172 919.913 192.847 922.638 192.987C925.724 193.138 929.939 192.487 932.221 190.216C932.501 189.937 932.745 189.623 932.955 189.297C935.237 189.867 937.764 189.949 939.953 189.995C943.493 190.065 947.033 189.914 950.561 189.599C957.629 188.971 964.627 187.714 971.544 186.177C977.867 184.768 984.318 183.395 990.338 180.961C992.772 179.972 995.17 178.878 997.383 177.469C999.222 176.305 1001.46 175.001 1002.48 172.987H1002.47Z" fill="#FDBBA5"/>
</g>
<path d="M951.493 92.0202C951.027 89.3659 951.004 87.1424 951.341 84.4299C951.83 80.4834 951.178 76.1527 948.477 73.0561C946.451 70.7394 944.192 69.4472 942.76 66.5252C941.747 64.4763 941.025 62.311 939.651 60.4483C937.066 56.9326 933.013 54.7789 928.833 53.801C923.814 52.6252 918.644 53.1956 913.626 54.0338C910.191 54.6043 906.36 55.8499 902.866 55.6869C899.152 55.5123 896.753 51.7288 895.577 48.6089C895.228 47.6892 894.68 46.2922 893.644 47.4214C891.036 50.2736 889.44 53.6613 888.893 57.4914C888.229 62.0781 888.882 67.1073 891.199 71.1702C892.165 72.8582 893.481 74.3134 895.03 75.4892C895.95 76.176 897.242 76.4787 897.999 77.1074C898.942 77.8873 899.687 79.3425 900.421 80.3204C907.78 90.0877 915.186 99.82 922.58 109.576C924.851 112.579 927.133 115.583 929.404 118.575C929.963 119.308 931.406 119.424 931.628 118.283C932.419 114.058 935.307 113.441 938.964 112.812C941.129 112.451 942.62 111.357 944.11 109.774C947.115 106.63 950.235 102.777 951.388 98.5045C951.982 96.281 951.877 94.2553 951.481 92.0202H951.493Z" fill="#F24B90"/>
<g style="mix-blend-mode:multiply" opacity="0.6">
<path d="M937.112 111.904C938.591 109.459 940.629 107.387 942.038 104.896C943.633 102.067 944.238 98.9118 944.378 95.6988C944.611 90.2272 943.668 84.4181 940.78 79.68C937.543 74.3715 932.21 71.7172 926.341 70.262C917.328 68.0268 906.837 68.0734 899.734 61.2398C896.194 57.8405 894.366 52.9161 893.411 47.7007C890.943 50.4947 889.429 53.7892 888.881 57.5029C888.218 62.0896 888.87 67.1188 891.187 71.1817C892.154 72.8697 893.469 74.3249 895.018 75.5007C895.938 76.1875 897.23 76.4902 897.987 77.1189C898.931 77.8988 899.676 79.354 900.409 80.3319C907.769 90.0992 915.174 99.8315 922.568 109.587C924.839 112.591 927.121 115.594 929.392 118.586C929.951 119.319 931.395 119.436 931.616 118.295C932.21 115.152 933.956 113.999 936.332 113.359C936.576 112.858 936.833 112.381 937.112 111.915V111.904Z" fill="#F24B90"/>
</g>
<path d="M939.429 94.3835C936.332 93.5686 933.153 92.3811 929.962 92.0552C926.178 91.671 922.277 91.7408 918.481 91.5895C909.876 91.2402 901.271 90.891 892.666 90.5534C891.874 90.5185 891.059 91.2868 891.117 92.1017C891.595 98.6792 892.025 104.814 895.682 110.507C898.686 115.187 903.018 119.075 908.374 120.798C913.835 122.568 919.529 121.729 924.315 118.598C927.471 116.526 929.811 113.732 932.024 110.717C934.935 106.723 937.904 102.684 939.965 98.1786C940.477 97.0494 941.153 94.8142 939.441 94.3602L939.429 94.3835Z" fill="#FDBBA5"/>
<g style="mix-blend-mode:multiply" opacity="0.5">
<path d="M939.429 94.3834C936.332 93.5685 933.153 92.3811 929.962 92.0551C928.635 91.9154 927.296 91.8456 925.957 91.7874C924.897 94.5697 923.744 97.3171 922.359 99.9248C919.017 106.223 914.091 111.147 907.198 113.359C904.578 114.197 901.865 114.675 899.128 114.884C901.702 117.55 904.811 119.657 908.374 120.81C913.835 122.579 919.529 121.741 924.315 118.609C927.471 116.537 929.811 113.743 932.023 110.728C934.935 106.735 937.904 102.695 939.965 98.1902C940.477 97.061 941.153 94.8258 939.441 94.3718L939.429 94.3834Z" fill="#FDBBA5"/>
</g>
<path d="M948.756 89.9362C941.316 85.7802 933.351 82.7068 925.782 78.7836C924.862 78.3063 923.721 78.7254 923.628 79.8547C923.081 86.5951 922.533 93.3356 922.009 100.076C921.939 100.984 922.755 101.45 923.535 101.392C929.695 100.903 936.029 100.705 942.142 99.6336C942.69 100.274 943.738 100.46 944.401 99.5405C946.125 97.1191 947.603 94.5114 949.175 91.9968C949.571 91.3565 949.478 90.3437 948.768 89.9362H948.756Z" fill="#1A2660"/>
<path d="M949.036 86.3391C948.058 84.9421 946.66 83.9992 944.716 83.9642C939.383 83.8828 934.888 89.5522 933.828 94.3252C932.99 98.0971 933.432 103.254 937.1 105.431C943.947 109.483 949.944 100.647 950.736 94.8142C951.085 92.2647 950.677 88.6791 949.036 86.3391Z" fill="#313CAF"/>
<g style="mix-blend-mode:multiply">
<path d="M949.036 86.3392C948.069 84.9539 946.66 83.9993 944.739 83.9644C948.395 90.8678 946.078 98.9936 939.068 103.254C938.16 103.802 937.228 104.337 936.297 104.849C936.553 105.059 936.809 105.257 937.1 105.42C943.947 109.471 949.944 100.635 950.736 94.8026C951.085 92.2531 950.678 88.6675 949.036 86.3276V86.3392Z" fill="#313CAF"/>
</g>
<path d="M926.749 77.4216C926.19 77.1655 925.607 76.956 925.037 76.7813C919.902 75.1632 894.832 71.7405 887.67 72.3808C885.866 72.5438 883.956 72.9047 882.617 74.1387C881.278 75.3727 880.777 77.2354 880.335 78.9932C879.31 83.1143 878.332 87.3169 878.46 91.5661C878.518 93.4869 878.891 95.5475 880.3 96.8513C881.534 97.9922 883.315 98.2833 884.981 98.5277C892.351 99.6104 899.734 100.705 907.128 101.578C910.924 102.032 914.743 102.428 918.551 102.754C921.264 102.975 925.037 103.452 927.145 101.333C928.297 100.181 928.88 98.5743 929.275 97.0027C930.288 93.0446 930.405 88.9118 930.358 84.8256C930.335 82.7767 930.207 80.5648 928.891 78.9932C928.309 78.3064 927.552 77.8174 926.737 77.4333L926.749 77.4216Z" fill="#313CAF"/>
<g style="mix-blend-mode:multiply">
<path d="M915.885 90.8908C906.674 85.4309 896.019 84.9885 886.168 81.4262C883.979 80.6346 882.128 79.6334 880.498 78.3994C880.451 78.5857 880.404 78.7836 880.346 78.9698C879.322 83.091 878.343 87.2935 878.472 91.5427C878.53 93.4636 878.902 95.5241 880.311 96.828C881.546 97.9688 883.327 98.2599 884.992 98.5044C892.363 99.587 899.746 100.681 907.14 101.554C910.936 102.008 914.755 102.404 918.563 102.73C920.717 102.905 923.535 103.242 925.666 102.311C923.907 97.5381 920.181 93.4286 915.885 90.8791V90.8908Z" fill="#313CAF"/>
</g>
<path d="M921.963 89.005C915.058 87.6429 886.133 84.0806 884.829 83.9758C882.687 83.8012 882.745 87.1656 884.888 87.3286C892.177 87.8757 916.793 91.3682 920.996 92.218C923.104 92.6488 924.07 89.424 921.963 89.005Z" fill="#F24B90"/>
<g style="mix-blend-mode:multiply" opacity="0.6">
<path d="M915.885 90.8908C912.554 88.9117 909.026 87.5962 905.416 86.5485C895.728 85.2563 885.598 84.0223 884.829 83.9641C882.687 83.7895 882.745 87.1539 884.888 87.3169C890.838 87.7592 908.339 90.169 916.851 91.5078C916.525 91.2983 916.211 91.0887 915.873 90.8908H915.885Z" fill="#F24B90"/>
</g>
</g>
<path d="M976.28 217.56C978.091 217.56 979.56 216.091 979.56 214.28C979.56 212.469 978.091 211 976.28 211C974.469 211 973 212.469 973 214.28C973 216.091 974.469 217.56 976.28 217.56Z" fill="#79D3FE"/>
</g>
<path d="M73.3945 76.4883L79.0586 52.5625H82.2227L82.9453 56.5469L76.9102 81H73.5117L73.3945 76.4883ZM70.4844 52.5625L75.1719 76.4883L74.7812 81H70.9922L64.6836 52.5625H70.4844ZM87.9258 76.3906L92.5547 52.5625H98.3555L92.0664 81H88.2773L87.9258 76.3906ZM84 52.5625L89.7031 76.5859L89.5469 81H86.1484L80.0742 56.5273L80.8555 52.5625H84ZM110.289 81.3906C108.648 81.3906 107.177 81.1302 105.875 80.6094C104.573 80.0755 103.466 79.3398 102.555 78.4023C101.656 77.4648 100.966 76.3776 100.484 75.1406C100.003 73.8906 99.7617 72.5625 99.7617 71.1562V70.375C99.7617 68.7734 99.9896 67.3086 100.445 65.9805C100.901 64.6523 101.552 63.5 102.398 62.5234C103.258 61.5469 104.299 60.7982 105.523 60.2773C106.747 59.7435 108.128 59.4766 109.664 59.4766C111.161 59.4766 112.49 59.724 113.648 60.2188C114.807 60.7135 115.777 61.4167 116.559 62.3281C117.353 63.2396 117.952 64.3333 118.355 65.6094C118.759 66.8724 118.961 68.2786 118.961 69.8281V72.1719H102.164V68.4219H113.434V67.9922C113.434 67.2109 113.29 66.5143 113.004 65.9023C112.73 65.2773 112.314 64.7826 111.754 64.418C111.194 64.0534 110.478 63.8711 109.605 63.8711C108.863 63.8711 108.225 64.0339 107.691 64.3594C107.158 64.6849 106.721 65.1406 106.383 65.7266C106.057 66.3125 105.81 67.0026 105.641 67.7969C105.484 68.5781 105.406 69.4375 105.406 70.375V71.1562C105.406 72.0026 105.523 72.7839 105.758 73.5C106.005 74.2161 106.35 74.8346 106.793 75.3555C107.249 75.8763 107.796 76.2799 108.434 76.5664C109.085 76.8529 109.82 76.9961 110.641 76.9961C111.656 76.9961 112.6 76.8008 113.473 76.4102C114.358 76.0065 115.12 75.401 115.758 74.5938L118.492 77.5625C118.049 78.2005 117.444 78.8125 116.676 79.3984C115.921 79.9844 115.009 80.4661 113.941 80.8438C112.874 81.2083 111.656 81.3906 110.289 81.3906ZM128.102 51V81H122.457V51H128.102ZM141.48 76.9961C142.171 76.9961 142.783 76.8659 143.316 76.6055C143.85 76.332 144.267 75.9544 144.566 75.4727C144.879 74.9779 145.042 74.3984 145.055 73.7344H150.348C150.335 75.2188 149.938 76.5404 149.156 77.6992C148.375 78.8451 147.327 79.75 146.012 80.4141C144.697 81.0651 143.225 81.3906 141.598 81.3906C139.957 81.3906 138.525 81.1172 137.301 80.5703C136.09 80.0234 135.081 79.2682 134.273 78.3047C133.466 77.3281 132.861 76.1953 132.457 74.9062C132.053 73.6042 131.852 72.2109 131.852 70.7266V70.1602C131.852 68.6628 132.053 67.2695 132.457 65.9805C132.861 64.6784 133.466 63.5456 134.273 62.582C135.081 61.6055 136.09 60.8438 137.301 60.2969C138.512 59.75 139.931 59.4766 141.559 59.4766C143.29 59.4766 144.807 59.8086 146.109 60.4727C147.424 61.1367 148.453 62.0872 149.195 63.3242C149.951 64.5482 150.335 66 150.348 67.6797H145.055C145.042 66.9766 144.892 66.3385 144.605 65.7656C144.332 65.1927 143.928 64.737 143.395 64.3984C142.874 64.0469 142.229 63.8711 141.461 63.8711C140.641 63.8711 139.97 64.0469 139.449 64.3984C138.928 64.737 138.525 65.2057 138.238 65.8047C137.952 66.3906 137.75 67.0612 137.633 67.8164C137.529 68.5586 137.477 69.3398 137.477 70.1602V70.7266C137.477 71.5469 137.529 72.3346 137.633 73.0898C137.737 73.8451 137.932 74.5156 138.219 75.1016C138.518 75.6875 138.928 76.1497 139.449 76.4883C139.97 76.8268 140.647 76.9961 141.48 76.9961ZM152.711 70.6484V70.2383C152.711 68.6888 152.932 67.263 153.375 65.9609C153.818 64.6458 154.462 63.5065 155.309 62.543C156.155 61.5794 157.197 60.8307 158.434 60.2969C159.671 59.75 161.09 59.4766 162.691 59.4766C164.293 59.4766 165.719 59.75 166.969 60.2969C168.219 60.8307 169.267 61.5794 170.113 62.543C170.973 63.5065 171.624 64.6458 172.066 65.9609C172.509 67.263 172.73 68.6888 172.73 70.2383V70.6484C172.73 72.1849 172.509 73.6107 172.066 74.9258C171.624 76.2279 170.973 77.3672 170.113 78.3438C169.267 79.3073 168.225 80.056 166.988 80.5898C165.751 81.1237 164.332 81.3906 162.73 81.3906C161.129 81.3906 159.703 81.1237 158.453 80.5898C157.216 80.056 156.168 79.3073 155.309 78.3438C154.462 77.3672 153.818 76.2279 153.375 74.9258C152.932 73.6107 152.711 72.1849 152.711 70.6484ZM158.336 70.2383V70.6484C158.336 71.5339 158.414 72.3607 158.57 73.1289C158.727 73.8971 158.974 74.5742 159.312 75.1602C159.664 75.7331 160.12 76.1823 160.68 76.5078C161.24 76.8333 161.923 76.9961 162.73 76.9961C163.512 76.9961 164.182 76.8333 164.742 76.5078C165.302 76.1823 165.751 75.7331 166.09 75.1602C166.428 74.5742 166.676 73.8971 166.832 73.1289C167.001 72.3607 167.086 71.5339 167.086 70.6484V70.2383C167.086 69.3789 167.001 68.5716 166.832 67.8164C166.676 67.0482 166.422 66.3711 166.07 65.7852C165.732 65.1862 165.283 64.7174 164.723 64.3789C164.163 64.0404 163.486 63.8711 162.691 63.8711C161.897 63.8711 161.22 64.0404 160.66 64.3789C160.113 64.7174 159.664 65.1862 159.312 65.7852C158.974 66.3711 158.727 67.0482 158.57 67.8164C158.414 68.5716 158.336 69.3789 158.336 70.2383ZM181.812 64.2422V81H176.168V59.8672H181.461L181.812 64.2422ZM181.031 69.6914H179.469C179.469 68.2201 179.645 66.8659 179.996 65.6289C180.361 64.3789 180.888 63.2982 181.578 62.3867C182.281 61.4622 183.147 60.7461 184.176 60.2383C185.204 59.7305 186.396 59.4766 187.75 59.4766C188.688 59.4766 189.547 59.6198 190.328 59.9062C191.109 60.1797 191.78 60.6159 192.34 61.2148C192.913 61.8008 193.355 62.569 193.668 63.5195C193.98 64.457 194.137 65.5833 194.137 66.8984V81H188.512V67.5234C188.512 66.5599 188.382 65.8177 188.121 65.2969C187.861 64.776 187.49 64.4115 187.008 64.2031C186.539 63.9948 185.973 63.8906 185.309 63.8906C184.579 63.8906 183.941 64.0404 183.395 64.3398C182.861 64.6393 182.418 65.056 182.066 65.5898C181.715 66.1107 181.454 66.7227 181.285 67.4258C181.116 68.1289 181.031 68.8841 181.031 69.6914ZM193.609 69.0469L191.598 69.3008C191.598 67.9206 191.767 66.638 192.105 65.4531C192.457 64.2682 192.971 63.2266 193.648 62.3281C194.339 61.4297 195.191 60.7331 196.207 60.2383C197.223 59.7305 198.395 59.4766 199.723 59.4766C200.738 59.4766 201.663 59.6263 202.496 59.9258C203.329 60.2122 204.039 60.6745 204.625 61.3125C205.224 61.9375 205.68 62.7578 205.992 63.7734C206.318 64.7891 206.48 66.0326 206.48 67.5039V81H200.836V67.5039C200.836 66.5273 200.706 65.7852 200.445 65.2773C200.198 64.7565 199.833 64.3984 199.352 64.2031C198.883 63.9948 198.323 63.8906 197.672 63.8906C196.995 63.8906 196.402 64.0273 195.895 64.3008C195.387 64.5612 194.964 64.9258 194.625 65.3945C194.286 65.8633 194.033 66.4102 193.863 67.0352C193.694 67.6471 193.609 68.3177 193.609 69.0469ZM220.562 81.3906C218.922 81.3906 217.451 81.1302 216.148 80.6094C214.846 80.0755 213.74 79.3398 212.828 78.4023C211.93 77.4648 211.24 76.3776 210.758 75.1406C210.276 73.8906 210.035 72.5625 210.035 71.1562V70.375C210.035 68.7734 210.263 67.3086 210.719 65.9805C211.174 64.6523 211.826 63.5 212.672 62.5234C213.531 61.5469 214.573 60.7982 215.797 60.2773C217.021 59.7435 218.401 59.4766 219.938 59.4766C221.435 59.4766 222.763 59.724 223.922 60.2188C225.081 60.7135 226.051 61.4167 226.832 62.3281C227.626 63.2396 228.225 64.3333 228.629 65.6094C229.033 66.8724 229.234 68.2786 229.234 69.8281V72.1719H212.438V68.4219H223.707V67.9922C223.707 67.2109 223.564 66.5143 223.277 65.9023C223.004 65.2773 222.587 64.7826 222.027 64.418C221.467 64.0534 220.751 63.8711 219.879 63.8711C219.137 63.8711 218.499 64.0339 217.965 64.3594C217.431 64.6849 216.995 65.1406 216.656 65.7266C216.331 66.3125 216.083 67.0026 215.914 67.7969C215.758 68.5781 215.68 69.4375 215.68 70.375V71.1562C215.68 72.0026 215.797 72.7839 216.031 73.5C216.279 74.2161 216.624 74.8346 217.066 75.3555C217.522 75.8763 218.069 76.2799 218.707 76.5664C219.358 76.8529 220.094 76.9961 220.914 76.9961C221.93 76.9961 222.874 76.8008 223.746 76.4102C224.632 76.0065 225.393 75.401 226.031 74.5938L228.766 77.5625C228.323 78.2005 227.717 78.8125 226.949 79.3984C226.194 79.9844 225.283 80.4661 224.215 80.8438C223.147 81.2083 221.93 81.3906 220.562 81.3906ZM252.75 59.8672V63.8516H240.445V59.8672H252.75ZM243.492 54.6523H249.117V74.6328C249.117 75.2448 249.195 75.7135 249.352 76.0391C249.521 76.3646 249.768 76.5924 250.094 76.7227C250.419 76.8398 250.829 76.8984 251.324 76.8984C251.676 76.8984 251.988 76.8854 252.262 76.8594C252.548 76.8203 252.789 76.7812 252.984 76.7422L253.004 80.8828C252.522 81.0391 252.001 81.1628 251.441 81.2539C250.882 81.3451 250.263 81.3906 249.586 81.3906C248.349 81.3906 247.268 81.1888 246.344 80.7852C245.432 80.3685 244.729 79.7044 244.234 78.793C243.74 77.8815 243.492 76.6836 243.492 75.1992V54.6523ZM254.547 70.6484V70.2383C254.547 68.6888 254.768 67.263 255.211 65.9609C255.654 64.6458 256.298 63.5065 257.145 62.543C257.991 61.5794 259.033 60.8307 260.27 60.2969C261.507 59.75 262.926 59.4766 264.527 59.4766C266.129 59.4766 267.555 59.75 268.805 60.2969C270.055 60.8307 271.103 61.5794 271.949 62.543C272.809 63.5065 273.46 64.6458 273.902 65.9609C274.345 67.263 274.566 68.6888 274.566 70.2383V70.6484C274.566 72.1849 274.345 73.6107 273.902 74.9258C273.46 76.2279 272.809 77.3672 271.949 78.3438C271.103 79.3073 270.061 80.056 268.824 80.5898C267.587 81.1237 266.168 81.3906 264.566 81.3906C262.965 81.3906 261.539 81.1237 260.289 80.5898C259.052 80.056 258.004 79.3073 257.145 78.3438C256.298 77.3672 255.654 76.2279 255.211 74.9258C254.768 73.6107 254.547 72.1849 254.547 70.6484ZM260.172 70.2383V70.6484C260.172 71.5339 260.25 72.3607 260.406 73.1289C260.562 73.8971 260.81 74.5742 261.148 75.1602C261.5 75.7331 261.956 76.1823 262.516 76.5078C263.076 76.8333 263.759 76.9961 264.566 76.9961C265.348 76.9961 266.018 76.8333 266.578 76.5078C267.138 76.1823 267.587 75.7331 267.926 75.1602C268.264 74.5742 268.512 73.8971 268.668 73.1289C268.837 72.3607 268.922 71.5339 268.922 70.6484V70.2383C268.922 69.3789 268.837 68.5716 268.668 67.8164C268.512 67.0482 268.258 66.3711 267.906 65.7852C267.568 65.1862 267.118 64.7174 266.559 64.3789C265.999 64.0404 265.322 63.8711 264.527 63.8711C263.733 63.8711 263.056 64.0404 262.496 64.3789C261.949 64.7174 261.5 65.1862 261.148 65.7852C260.81 66.3711 260.562 67.0482 260.406 67.8164C260.25 68.5716 260.172 69.3789 260.172 70.2383ZM298.336 59.8672V63.8516H286.031V59.8672H298.336ZM289.078 54.6523H294.703V74.6328C294.703 75.2448 294.781 75.7135 294.938 76.0391C295.107 76.3646 295.354 76.5924 295.68 76.7227C296.005 76.8398 296.415 76.8984 296.91 76.8984C297.262 76.8984 297.574 76.8854 297.848 76.8594C298.134 76.8203 298.375 76.7812 298.57 76.7422L298.59 80.8828C298.108 81.0391 297.587 81.1628 297.027 81.2539C296.467 81.3451 295.849 81.3906 295.172 81.3906C293.935 81.3906 292.854 81.1888 291.93 80.7852C291.018 80.3685 290.315 79.7044 289.82 78.793C289.326 77.8815 289.078 76.6836 289.078 75.1992V54.6523ZM307.027 51V81H301.402V51H307.027ZM306.227 69.6914H304.684C304.697 68.2201 304.892 66.8659 305.27 65.6289C305.647 64.3789 306.188 63.2982 306.891 62.3867C307.594 61.4622 308.434 60.7461 309.41 60.2383C310.4 59.7305 311.493 59.4766 312.691 59.4766C313.733 59.4766 314.677 59.6263 315.523 59.9258C316.383 60.2122 317.118 60.681 317.73 61.332C318.355 61.9701 318.837 62.8099 319.176 63.8516C319.514 64.8932 319.684 66.1562 319.684 67.6406V81H314.02V67.6016C314.02 66.6641 313.883 65.9284 313.609 65.3945C313.349 64.8477 312.965 64.4635 312.457 64.2422C311.962 64.0078 311.35 63.8906 310.621 63.8906C309.814 63.8906 309.124 64.0404 308.551 64.3398C307.991 64.6393 307.542 65.056 307.203 65.5898C306.865 66.1107 306.617 66.7227 306.461 67.4258C306.305 68.1289 306.227 68.8841 306.227 69.6914ZM333.688 81.3906C332.047 81.3906 330.576 81.1302 329.273 80.6094C327.971 80.0755 326.865 79.3398 325.953 78.4023C325.055 77.4648 324.365 76.3776 323.883 75.1406C323.401 73.8906 323.16 72.5625 323.16 71.1562V70.375C323.16 68.7734 323.388 67.3086 323.844 65.9805C324.299 64.6523 324.951 63.5 325.797 62.5234C326.656 61.5469 327.698 60.7982 328.922 60.2773C330.146 59.7435 331.526 59.4766 333.062 59.4766C334.56 59.4766 335.888 59.724 337.047 60.2188C338.206 60.7135 339.176 61.4167 339.957 62.3281C340.751 63.2396 341.35 64.3333 341.754 65.6094C342.158 66.8724 342.359 68.2786 342.359 69.8281V72.1719H325.562V68.4219H336.832V67.9922C336.832 67.2109 336.689 66.5143 336.402 65.9023C336.129 65.2773 335.712 64.7826 335.152 64.418C334.592 64.0534 333.876 63.8711 333.004 63.8711C332.262 63.8711 331.624 64.0339 331.09 64.3594C330.556 64.6849 330.12 65.1406 329.781 65.7266C329.456 66.3125 329.208 67.0026 329.039 67.7969C328.883 68.5781 328.805 69.4375 328.805 70.375V71.1562C328.805 72.0026 328.922 72.7839 329.156 73.5C329.404 74.2161 329.749 74.8346 330.191 75.3555C330.647 75.8763 331.194 76.2799 331.832 76.5664C332.483 76.8529 333.219 76.9961 334.039 76.9961C335.055 76.9961 335.999 76.8008 336.871 76.4102C337.757 76.0065 338.518 75.401 339.156 74.5938L341.891 77.5625C341.448 78.2005 340.842 78.8125 340.074 79.3984C339.319 79.9844 338.408 80.4661 337.34 80.8438C336.272 81.2083 335.055 81.3906 333.688 81.3906ZM361.734 52.5625V81H355.875V52.5625H361.734ZM373.062 64.7109V69.2812H360.133V64.7109H373.062ZM374.43 52.5625V57.1523H360.133V52.5625H374.43ZM389.547 75.9414V59.8672H395.172V81H389.879L389.547 75.9414ZM390.172 71.6055L391.832 71.5664C391.832 72.9727 391.669 74.2812 391.344 75.4922C391.018 76.6901 390.53 77.7318 389.879 78.6172C389.228 79.4896 388.408 80.1732 387.418 80.668C386.428 81.1497 385.263 81.3906 383.922 81.3906C382.893 81.3906 381.943 81.2474 381.07 80.9609C380.211 80.6615 379.469 80.1992 378.844 79.5742C378.232 78.9362 377.75 78.1224 377.398 77.1328C377.06 76.1302 376.891 74.9258 376.891 73.5195V59.8672H382.516V73.5586C382.516 74.1836 382.587 74.7109 382.73 75.1406C382.887 75.5703 383.102 75.9219 383.375 76.1953C383.648 76.4688 383.967 76.6641 384.332 76.7812C384.71 76.8984 385.126 76.957 385.582 76.957C386.741 76.957 387.652 76.7227 388.316 76.2539C388.993 75.7852 389.469 75.1471 389.742 74.3398C390.029 73.5195 390.172 72.6081 390.172 71.6055ZM409.82 59.8672V63.8516H397.516V59.8672H409.82ZM400.562 54.6523H406.188V74.6328C406.188 75.2448 406.266 75.7135 406.422 76.0391C406.591 76.3646 406.839 76.5924 407.164 76.7227C407.49 76.8398 407.9 76.8984 408.395 76.8984C408.746 76.8984 409.059 76.8854 409.332 76.8594C409.618 76.8203 409.859 76.7812 410.055 76.7422L410.074 80.8828C409.592 81.0391 409.072 81.1628 408.512 81.2539C407.952 81.3451 407.333 81.3906 406.656 81.3906C405.419 81.3906 404.339 81.1888 403.414 80.7852C402.503 80.3685 401.799 79.7044 401.305 78.793C400.81 77.8815 400.562 76.6836 400.562 75.1992V54.6523ZM425.523 75.9414V59.8672H431.148V81H425.855L425.523 75.9414ZM426.148 71.6055L427.809 71.5664C427.809 72.9727 427.646 74.2812 427.32 75.4922C426.995 76.6901 426.507 77.7318 425.855 78.6172C425.204 79.4896 424.384 80.1732 423.395 80.668C422.405 81.1497 421.24 81.3906 419.898 81.3906C418.87 81.3906 417.919 81.2474 417.047 80.9609C416.188 80.6615 415.445 80.1992 414.82 79.5742C414.208 78.9362 413.727 78.1224 413.375 77.1328C413.036 76.1302 412.867 74.9258 412.867 73.5195V59.8672H418.492V73.5586C418.492 74.1836 418.564 74.7109 418.707 75.1406C418.863 75.5703 419.078 75.9219 419.352 76.1953C419.625 76.4688 419.944 76.6641 420.309 76.7812C420.686 76.8984 421.103 76.957 421.559 76.957C422.717 76.957 423.629 76.7227 424.293 76.2539C424.97 75.7852 425.445 75.1471 425.719 74.3398C426.005 73.5195 426.148 72.6081 426.148 71.6055ZM441.07 64.4766V81H435.445V59.8672H440.738L441.07 64.4766ZM447.438 59.7305L447.34 64.9453C447.066 64.9062 446.734 64.8737 446.344 64.8477C445.966 64.8086 445.621 64.7891 445.309 64.7891C444.514 64.7891 443.824 64.8932 443.238 65.1016C442.665 65.2969 442.184 65.5898 441.793 65.9805C441.415 66.3711 441.129 66.8464 440.934 67.4062C440.751 67.9661 440.647 68.6042 440.621 69.3203L439.488 68.9688C439.488 67.6016 439.625 66.3451 439.898 65.1992C440.172 64.0404 440.569 63.0312 441.09 62.1719C441.624 61.3125 442.275 60.6484 443.043 60.1797C443.811 59.7109 444.69 59.4766 445.68 59.4766C445.992 59.4766 446.311 59.5026 446.637 59.5547C446.962 59.5938 447.229 59.6523 447.438 59.7305ZM459.43 81.3906C457.789 81.3906 456.318 81.1302 455.016 80.6094C453.714 80.0755 452.607 79.3398 451.695 78.4023C450.797 77.4648 450.107 76.3776 449.625 75.1406C449.143 73.8906 448.902 72.5625 448.902 71.1562V70.375C448.902 68.7734 449.13 67.3086 449.586 65.9805C450.042 64.6523 450.693 63.5 451.539 62.5234C452.398 61.5469 453.44 60.7982 454.664 60.2773C455.888 59.7435 457.268 59.4766 458.805 59.4766C460.302 59.4766 461.63 59.724 462.789 60.2188C463.948 60.7135 464.918 61.4167 465.699 62.3281C466.493 63.2396 467.092 64.3333 467.496 65.6094C467.9 66.8724 468.102 68.2786 468.102 69.8281V72.1719H451.305V68.4219H462.574V67.9922C462.574 67.2109 462.431 66.5143 462.145 65.9023C461.871 65.2773 461.454 64.7826 460.895 64.418C460.335 64.0534 459.618 63.8711 458.746 63.8711C458.004 63.8711 457.366 64.0339 456.832 64.3594C456.298 64.6849 455.862 65.1406 455.523 65.7266C455.198 66.3125 454.951 67.0026 454.781 67.7969C454.625 68.5781 454.547 69.4375 454.547 70.375V71.1562C454.547 72.0026 454.664 72.7839 454.898 73.5C455.146 74.2161 455.491 74.8346 455.934 75.3555C456.389 75.8763 456.936 76.2799 457.574 76.5664C458.225 76.8529 458.961 76.9961 459.781 76.9961C460.797 76.9961 461.741 76.8008 462.613 76.4102C463.499 76.0065 464.26 75.401 464.898 74.5938L467.633 77.5625C467.19 78.2005 466.585 78.8125 465.816 79.3984C465.061 79.9844 464.15 80.4661 463.082 80.8438C462.014 81.2083 460.797 81.3906 459.43 81.3906ZM65.2891 117.648V117.238C65.2891 115.689 65.5104 114.263 65.9531 112.961C66.3958 111.646 67.0404 110.507 67.8867 109.543C68.7331 108.579 69.7747 107.831 71.0117 107.297C72.2487 106.75 73.668 106.477 75.2695 106.477C76.8711 106.477 78.2969 106.75 79.5469 107.297C80.7969 107.831 81.8451 108.579 82.6914 109.543C83.5508 110.507 84.2018 111.646 84.6445 112.961C85.0872 114.263 85.3086 115.689 85.3086 117.238V117.648C85.3086 119.185 85.0872 120.611 84.6445 121.926C84.2018 123.228 83.5508 124.367 82.6914 125.344C81.8451 126.307 80.8034 127.056 79.5664 127.59C78.3294 128.124 76.9102 128.391 75.3086 128.391C73.707 128.391 72.2812 128.124 71.0312 127.59C69.7943 127.056 68.7461 126.307 67.8867 125.344C67.0404 124.367 66.3958 123.228 65.9531 121.926C65.5104 120.611 65.2891 119.185 65.2891 117.648ZM70.9141 117.238V117.648C70.9141 118.534 70.9922 119.361 71.1484 120.129C71.3047 120.897 71.5521 121.574 71.8906 122.16C72.2422 122.733 72.6979 123.182 73.2578 123.508C73.8177 123.833 74.5013 123.996 75.3086 123.996C76.0898 123.996 76.7604 123.833 77.3203 123.508C77.8802 123.182 78.3294 122.733 78.668 122.16C79.0065 121.574 79.2539 120.897 79.4102 120.129C79.5794 119.361 79.6641 118.534 79.6641 117.648V117.238C79.6641 116.379 79.5794 115.572 79.4102 114.816C79.2539 114.048 79 113.371 78.6484 112.785C78.3099 112.186 77.8607 111.717 77.3008 111.379C76.7409 111.04 76.0638 110.871 75.2695 110.871C74.4753 110.871 73.7982 111.04 73.2383 111.379C72.6914 111.717 72.2422 112.186 71.8906 112.785C71.5521 113.371 71.3047 114.048 71.1484 114.816C70.9922 115.572 70.9141 116.379 70.9141 117.238ZM95.9336 128H90.2695V104.992C90.2695 103.391 90.582 102.043 91.207 100.949C91.8451 99.8424 92.737 99.0091 93.8828 98.4492C95.0417 97.8763 96.4154 97.5898 98.0039 97.5898C98.5247 97.5898 99.026 97.6289 99.5078 97.707C99.9896 97.7721 100.458 97.8568 100.914 97.9609L100.855 102.199C100.608 102.134 100.348 102.089 100.074 102.062C99.8008 102.036 99.4818 102.023 99.1172 102.023C98.4401 102.023 97.8607 102.141 97.3789 102.375C96.9102 102.596 96.5521 102.928 96.3047 103.371C96.0573 103.814 95.9336 104.354 95.9336 104.992V128ZM100.152 106.867V110.852H87.125V106.867H100.152ZM122.789 128.391C121.148 128.391 119.677 128.13 118.375 127.609C117.073 127.076 115.966 126.34 115.055 125.402C114.156 124.465 113.466 123.378 112.984 122.141C112.503 120.891 112.262 119.562 112.262 118.156V117.375C112.262 115.773 112.49 114.309 112.945 112.98C113.401 111.652 114.052 110.5 114.898 109.523C115.758 108.547 116.799 107.798 118.023 107.277C119.247 106.743 120.628 106.477 122.164 106.477C123.661 106.477 124.99 106.724 126.148 107.219C127.307 107.714 128.277 108.417 129.059 109.328C129.853 110.24 130.452 111.333 130.855 112.609C131.259 113.872 131.461 115.279 131.461 116.828V119.172H114.664V115.422H125.934V114.992C125.934 114.211 125.79 113.514 125.504 112.902C125.23 112.277 124.814 111.783 124.254 111.418C123.694 111.053 122.978 110.871 122.105 110.871C121.363 110.871 120.725 111.034 120.191 111.359C119.658 111.685 119.221 112.141 118.883 112.727C118.557 113.312 118.31 114.003 118.141 114.797C117.984 115.578 117.906 116.438 117.906 117.375V118.156C117.906 119.003 118.023 119.784 118.258 120.5C118.505 121.216 118.85 121.835 119.293 122.355C119.749 122.876 120.296 123.28 120.934 123.566C121.585 123.853 122.32 123.996 123.141 123.996C124.156 123.996 125.1 123.801 125.973 123.41C126.858 123.007 127.62 122.401 128.258 121.594L130.992 124.562C130.549 125.201 129.944 125.812 129.176 126.398C128.421 126.984 127.509 127.466 126.441 127.844C125.374 128.208 124.156 128.391 122.789 128.391ZM147.145 123.391V98H152.809V128H147.711L147.145 123.391ZM133.785 117.688V117.277C133.785 115.663 133.967 114.198 134.332 112.883C134.697 111.555 135.23 110.415 135.934 109.465C136.637 108.514 137.503 107.779 138.531 107.258C139.56 106.737 140.732 106.477 142.047 106.477C143.284 106.477 144.365 106.737 145.289 107.258C146.227 107.779 147.021 108.521 147.672 109.484C148.336 110.435 148.87 111.561 149.273 112.863C149.677 114.152 149.97 115.565 150.152 117.102V118C149.97 119.471 149.677 120.839 149.273 122.102C148.87 123.365 148.336 124.471 147.672 125.422C147.021 126.359 146.227 127.089 145.289 127.609C144.352 128.13 143.258 128.391 142.008 128.391C140.693 128.391 139.521 128.124 138.492 127.59C137.477 127.056 136.617 126.307 135.914 125.344C135.224 124.38 134.697 123.247 134.332 121.945C133.967 120.643 133.785 119.224 133.785 117.688ZM139.41 117.277V117.688C139.41 118.56 139.475 119.374 139.605 120.129C139.749 120.884 139.977 121.555 140.289 122.141C140.615 122.714 141.031 123.163 141.539 123.488C142.06 123.801 142.691 123.957 143.434 123.957C144.397 123.957 145.191 123.742 145.816 123.312C146.441 122.87 146.917 122.264 147.242 121.496C147.581 120.728 147.776 119.842 147.828 118.84V116.281C147.789 115.461 147.672 114.725 147.477 114.074C147.294 113.41 147.021 112.844 146.656 112.375C146.305 111.906 145.862 111.542 145.328 111.281C144.807 111.021 144.189 110.891 143.473 110.891C142.743 110.891 142.118 111.06 141.598 111.398C141.077 111.724 140.654 112.173 140.328 112.746C140.016 113.319 139.781 113.996 139.625 114.777C139.482 115.546 139.41 116.379 139.41 117.277ZM169.703 122.941V106.867H175.328V128H170.035L169.703 122.941ZM170.328 118.605L171.988 118.566C171.988 119.973 171.826 121.281 171.5 122.492C171.174 123.69 170.686 124.732 170.035 125.617C169.384 126.49 168.564 127.173 167.574 127.668C166.585 128.15 165.419 128.391 164.078 128.391C163.049 128.391 162.099 128.247 161.227 127.961C160.367 127.661 159.625 127.199 159 126.574C158.388 125.936 157.906 125.122 157.555 124.133C157.216 123.13 157.047 121.926 157.047 120.52V106.867H162.672V120.559C162.672 121.184 162.743 121.711 162.887 122.141C163.043 122.57 163.258 122.922 163.531 123.195C163.805 123.469 164.124 123.664 164.488 123.781C164.866 123.898 165.283 123.957 165.738 123.957C166.897 123.957 167.809 123.723 168.473 123.254C169.15 122.785 169.625 122.147 169.898 121.34C170.185 120.52 170.328 119.608 170.328 118.605ZM188.355 123.996C189.046 123.996 189.658 123.866 190.191 123.605C190.725 123.332 191.142 122.954 191.441 122.473C191.754 121.978 191.917 121.398 191.93 120.734H197.223C197.21 122.219 196.812 123.54 196.031 124.699C195.25 125.845 194.202 126.75 192.887 127.414C191.572 128.065 190.1 128.391 188.473 128.391C186.832 128.391 185.4 128.117 184.176 127.57C182.965 127.023 181.956 126.268 181.148 125.305C180.341 124.328 179.736 123.195 179.332 121.906C178.928 120.604 178.727 119.211 178.727 117.727V117.16C178.727 115.663 178.928 114.27 179.332 112.98C179.736 111.678 180.341 110.546 181.148 109.582C181.956 108.605 182.965 107.844 184.176 107.297C185.387 106.75 186.806 106.477 188.434 106.477C190.165 106.477 191.682 106.809 192.984 107.473C194.299 108.137 195.328 109.087 196.07 110.324C196.826 111.548 197.21 113 197.223 114.68H191.93C191.917 113.977 191.767 113.339 191.48 112.766C191.207 112.193 190.803 111.737 190.27 111.398C189.749 111.047 189.104 110.871 188.336 110.871C187.516 110.871 186.845 111.047 186.324 111.398C185.803 111.737 185.4 112.206 185.113 112.805C184.827 113.391 184.625 114.061 184.508 114.816C184.404 115.559 184.352 116.34 184.352 117.16V117.727C184.352 118.547 184.404 119.335 184.508 120.09C184.612 120.845 184.807 121.516 185.094 122.102C185.393 122.688 185.803 123.15 186.324 123.488C186.845 123.827 187.522 123.996 188.355 123.996ZM211.891 123.234V113.82C211.891 113.143 211.78 112.564 211.559 112.082C211.337 111.587 210.992 111.203 210.523 110.93C210.068 110.656 209.475 110.52 208.746 110.52C208.121 110.52 207.581 110.63 207.125 110.852C206.669 111.06 206.318 111.366 206.07 111.77C205.823 112.16 205.699 112.622 205.699 113.156H200.074C200.074 112.258 200.283 111.405 200.699 110.598C201.116 109.79 201.721 109.081 202.516 108.469C203.31 107.844 204.254 107.355 205.348 107.004C206.454 106.652 207.691 106.477 209.059 106.477C210.699 106.477 212.158 106.75 213.434 107.297C214.71 107.844 215.712 108.664 216.441 109.758C217.184 110.852 217.555 112.219 217.555 113.859V122.902C217.555 124.061 217.626 125.012 217.77 125.754C217.913 126.483 218.121 127.121 218.395 127.668V128H212.711C212.438 127.427 212.229 126.711 212.086 125.852C211.956 124.979 211.891 124.107 211.891 123.234ZM212.633 115.129L212.672 118.312H209.527C208.785 118.312 208.141 118.397 207.594 118.566C207.047 118.736 206.598 118.977 206.246 119.289C205.895 119.589 205.634 119.94 205.465 120.344C205.309 120.747 205.23 121.19 205.23 121.672C205.23 122.154 205.341 122.59 205.562 122.98C205.784 123.358 206.103 123.658 206.52 123.879C206.936 124.087 207.424 124.191 207.984 124.191C208.831 124.191 209.566 124.022 210.191 123.684C210.816 123.345 211.298 122.928 211.637 122.434C211.988 121.939 212.171 121.47 212.184 121.027L213.668 123.41C213.46 123.944 213.173 124.497 212.809 125.07C212.457 125.643 212.008 126.184 211.461 126.691C210.914 127.186 210.257 127.596 209.488 127.922C208.72 128.234 207.809 128.391 206.754 128.391C205.413 128.391 204.195 128.124 203.102 127.59C202.021 127.043 201.161 126.294 200.523 125.344C199.898 124.38 199.586 123.286 199.586 122.062C199.586 120.956 199.794 119.973 200.211 119.113C200.628 118.254 201.24 117.531 202.047 116.945C202.867 116.346 203.889 115.897 205.113 115.598C206.337 115.285 207.757 115.129 209.371 115.129H212.633ZM232.242 106.867V110.852H219.938V106.867H232.242ZM222.984 101.652H228.609V121.633C228.609 122.245 228.688 122.714 228.844 123.039C229.013 123.365 229.26 123.592 229.586 123.723C229.911 123.84 230.322 123.898 230.816 123.898C231.168 123.898 231.48 123.885 231.754 123.859C232.04 123.82 232.281 123.781 232.477 123.742L232.496 127.883C232.014 128.039 231.493 128.163 230.934 128.254C230.374 128.345 229.755 128.391 229.078 128.391C227.841 128.391 226.76 128.189 225.836 127.785C224.924 127.368 224.221 126.704 223.727 125.793C223.232 124.882 222.984 123.684 222.984 122.199V101.652ZM241.383 106.867V128H235.738V106.867H241.383ZM235.387 101.359C235.387 100.539 235.673 99.862 236.246 99.3281C236.819 98.7943 237.587 98.5273 238.551 98.5273C239.501 98.5273 240.263 98.7943 240.836 99.3281C241.422 99.862 241.715 100.539 241.715 101.359C241.715 102.18 241.422 102.857 240.836 103.391C240.263 103.924 239.501 104.191 238.551 104.191C237.587 104.191 236.819 103.924 236.246 103.391C235.673 102.857 235.387 102.18 235.387 101.359ZM245.133 117.648V117.238C245.133 115.689 245.354 114.263 245.797 112.961C246.24 111.646 246.884 110.507 247.73 109.543C248.577 108.579 249.618 107.831 250.855 107.297C252.092 106.75 253.512 106.477 255.113 106.477C256.715 106.477 258.141 106.75 259.391 107.297C260.641 107.831 261.689 108.579 262.535 109.543C263.395 110.507 264.046 111.646 264.488 112.961C264.931 114.263 265.152 115.689 265.152 117.238V117.648C265.152 119.185 264.931 120.611 264.488 121.926C264.046 123.228 263.395 124.367 262.535 125.344C261.689 126.307 260.647 127.056 259.41 127.59C258.173 128.124 256.754 128.391 255.152 128.391C253.551 128.391 252.125 128.124 250.875 127.59C249.638 127.056 248.59 126.307 247.73 125.344C246.884 124.367 246.24 123.228 245.797 121.926C245.354 120.611 245.133 119.185 245.133 117.648ZM250.758 117.238V117.648C250.758 118.534 250.836 119.361 250.992 120.129C251.148 120.897 251.396 121.574 251.734 122.16C252.086 122.733 252.542 123.182 253.102 123.508C253.661 123.833 254.345 123.996 255.152 123.996C255.934 123.996 256.604 123.833 257.164 123.508C257.724 123.182 258.173 122.733 258.512 122.16C258.85 121.574 259.098 120.897 259.254 120.129C259.423 119.361 259.508 118.534 259.508 117.648V117.238C259.508 116.379 259.423 115.572 259.254 114.816C259.098 114.048 258.844 113.371 258.492 112.785C258.154 112.186 257.704 111.717 257.145 111.379C256.585 111.04 255.908 110.871 255.113 110.871C254.319 110.871 253.642 111.04 253.082 111.379C252.535 111.717 252.086 112.186 251.734 112.785C251.396 113.371 251.148 114.048 250.992 114.816C250.836 115.572 250.758 116.379 250.758 117.238ZM274.117 111.379V128H268.492V106.867H273.766L274.117 111.379ZM273.297 116.691H271.773C271.773 115.129 271.975 113.723 272.379 112.473C272.783 111.21 273.349 110.135 274.078 109.25C274.807 108.352 275.673 107.668 276.676 107.199C277.691 106.717 278.824 106.477 280.074 106.477C281.064 106.477 281.969 106.62 282.789 106.906C283.609 107.193 284.312 107.648 284.898 108.273C285.497 108.898 285.953 109.725 286.266 110.754C286.591 111.783 286.754 113.039 286.754 114.523V128H281.09V114.504C281.09 113.566 280.96 112.837 280.699 112.316C280.439 111.796 280.055 111.431 279.547 111.223C279.052 111.001 278.44 110.891 277.711 110.891C276.956 110.891 276.298 111.04 275.738 111.34C275.191 111.639 274.736 112.056 274.371 112.59C274.02 113.111 273.753 113.723 273.57 114.426C273.388 115.129 273.297 115.884 273.297 116.691Z" fill="white"/>
<defs>
<clipPath id="clip0_226_916">
<rect width="40.2" height="60.88" fill="white" transform="translate(708 211)"/>
</clipPath>
<clipPath id="clip1_226_916">
<rect width="40.2" height="60.88" fill="white" transform="translate(978.375 20.2139) rotate(40.1684)"/>
</clipPath>
<clipPath id="clip2_226_916">
<rect width="199.75" height="62.67" fill="white" transform="translate(554 47)"/>
</clipPath>
<clipPath id="clip3_226_916">
<rect width="23.04" height="12.06" fill="white" transform="translate(615 178)"/>
</clipPath>
<clipPath id="clip4_226_916">
<rect width="50.77" height="50.77" fill="white" transform="translate(554 231)"/>
</clipPath>
<clipPath id="clip5_226_916">
<rect width="54.8" height="62.68" fill="white" transform="translate(1010 211)"/>
</clipPath>
<clipPath id="clip6_226_916">
<rect width="65.77" height="51.49" fill="white" transform="translate(999 47)"/>
</clipPath>
<clipPath id="clip7_226_916">
<rect width="110.12" height="60.8" fill="white" transform="translate(673 108)"/>
</clipPath>
<clipPath id="clip8_226_916">
<rect width="39.75" height="20.81" fill="white" transform="translate(739 26)"/>
</clipPath>
<clipPath id="clip9_226_916">
<rect width="240" height="253" fill="white" transform="translate(763 47)"/>
</clipPath>
<clipPath id="clip10_226_916">
<rect width="220.055" height="253" fill="white" transform="translate(782.972 47)"/>
</clipPath>
</defs>
</svg>
